  0
SECTION
  2
BLOCKS
  0
ENDSEC
  0
SECTION
  2
ENTITIES
  0
LINE
  8
0
 10
-120
 11
-120
 20
68
 21
95.783
  0
LINE
  8
0
 10
-120
 11
-118.01
 20
95.783
 21
97.774
  0
LINE
  8
0
 10
-118.01
 11
-111.26
 20
97.774
 21
97.773
  0
LINE
  8
0
 10
-111.26
 11
-111.241
 20
97.773
 21
97.578
  0
LINE
  8
0
 10
-111.241
 11
-111.184
 20
97.578
 21
97.391
  0
LINE
  8
0
 10
-111.184
 11
-111.091
 20
97.391
 21
97.218
  0
LINE
  8
0
 10
-111.091
 11
-110.967
 20
97.218
 21
97.066
  0
LINE
  8
0
 10
-110.967
 11
-110.816
 20
97.066
 21
96.942
  0
LINE
  8
0
 10
-110.816
 11
-110.643
 20
96.942
 21
96.85
  0
LINE
  8
0
 10
-110.643
 11
-110.455
 20
96.85
 21
96.793
  0
LINE
  8
0
 10
-110.455
 11
-110.26
 20
96.793
 21
96.773
  0
LINE
  8
0
 10
-110.26
 11
-110.065
 20
96.773
 21
96.793
  0
LINE
  8
0
 10
-110.065
 11
-109.877
 20
96.793
 21
96.85
  0
LINE
  8
0
 10
-109.877
 11
-109.704
 20
96.85
 21
96.942
  0
LINE
  8
0
 10
-109.704
 11
-109.553
 20
96.942
 21
97.066
  0
LINE
  8
0
 10
-109.553
 11
-109.429
 20
97.066
 21
97.218
  0
LINE
  8
0
 10
-109.429
 11
-109.336
 20
97.218
 21
97.391
  0
LINE
  8
0
 10
-109.336
 11
-109.279
 20
97.391
 21
97.578
  0
LINE
  8
0
 10
-109.279
 11
-109.26
 20
97.578
 21
97.773
  0
LINE
  8
0
 10
-109.26
 11
-109.279
 20
97.773
 21
97.969
  0
LINE
  8
0
 10
-109.279
 11
-109.336
 20
97.969
 21
98.156
  0
LINE
  8
0
 10
-109.336
 11
-109.429
 20
98.156
 21
98.329
  0
LINE
  8
0
 10
-109.429
 11
-109.553
 20
98.329
 21
98.481
  0
LINE
  8
0
 10
-109.553
 11
-109.704
 20
98.481
 21
98.605
  0
LINE
  8
0
 10
-109.704
 11
-109.877
 20
98.605
 21
98.697
  0
LINE
  8
0
 10
-109.877
 11
-110.065
 20
98.697
 21
98.754
  0
LINE
  8
0
 10
-110.065
 11
-110.26
 20
98.754
 21
98.773
  0
LINE
  8
0
 10
-110.26
 11
-110.26
 20
98.773
 21
101.226
  0
LINE
  8
0
 10
-110.26
 11
-110.065
 20
101.226
 21
101.246
  0
LINE
  8
0
 10
-110.065
 11
-109.877
 20
101.246
 21
101.303
  0
LINE
  8
0
 10
-109.877
 11
-109.704
 20
101.303
 21
101.395
  0
LINE
  8
0
 10
-109.704
 11
-109.553
 20
101.395
 21
101.519
  0
LINE
  8
0
 10
-109.553
 11
-109.429
 20
101.519
 21
101.671
  0
LINE
  8
0
 10
-109.429
 11
-109.336
 20
101.671
 21
101.844
  0
LINE
  8
0
 10
-109.336
 11
-109.279
 20
101.844
 21
102.031
  0
LINE
  8
0
 10
-109.279
 11
-109.26
 20
102.031
 21
102.226
  0
LINE
  8
0
 10
-109.26
 11
-109.279
 20
102.226
 21
102.422
  0
LINE
  8
0
 10
-109.279
 11
-109.336
 20
102.422
 21
102.609
  0
LINE
  8
0
 10
-109.336
 11
-109.429
 20
102.609
 21
102.782
  0
LINE
  8
0
 10
-109.429
 11
-109.553
 20
102.782
 21
102.934
  0
LINE
  8
0
 10
-109.553
 11
-109.704
 20
102.934
 21
103.058
  0
LINE
  8
0
 10
-109.704
 11
-109.877
 20
103.058
 21
103.15
  0
LINE
  8
0
 10
-109.877
 11
-110.065
 20
103.15
 21
103.207
  0
LINE
  8
0
 10
-110.065
 11
-110.26
 20
103.207
 21
103.226
  0
LINE
  8
0
 10
-110.26
 11
-110.455
 20
103.226
 21
103.207
  0
LINE
  8
0
 10
-110.455
 11
-110.643
 20
103.207
 21
103.15
  0
LINE
  8
0
 10
-110.643
 11
-110.816
 20
103.15
 21
103.058
  0
LINE
  8
0
 10
-110.816
 11
-110.967
 20
103.058
 21
102.934
  0
LINE
  8
0
 10
-110.967
 11
-111.091
 20
102.934
 21
102.782
  0
LINE
  8
0
 10
-111.091
 11
-111.184
 20
102.782
 21
102.609
  0
LINE
  8
0
 10
-111.184
 11
-111.241
 20
102.609
 21
102.422
  0
LINE
  8
0
 10
-111.241
 11
-111.26
 20
102.422
 21
102.226
  0
LINE
  8
0
 10
-111.26
 11
-118.01
 20
102.226
 21
102.226
  0
LINE
  8
0
 10
-118.01
 11
-120
 20
102.226
 21
104.217
  0
LINE
  8
0
 10
-120
 11
-120
 20
104.217
 21
125
  0
LINE
  8
0
 10
-120
 11
-81
 20
125
 21
125
  0
LINE
  8
0
 10
-81
 11
-80.981
 20
125
 21
124.805
  0
LINE
  8
0
 10
-80.981
 11
-80.924
 20
124.805
 21
124.617
  0
LINE
  8
0
 10
-80.924
 11
-80.831
 20
124.617
 21
124.444
  0
LINE
  8
0
 10
-80.831
 11
-80.707
 20
124.444
 21
124.293
  0
LINE
  8
0
 10
-80.707
 11
-80.556
 20
124.293
 21
124.169
  0
LINE
  8
0
 10
-80.556
 11
-80.383
 20
124.169
 21
124.076
  0
LINE
  8
0
 10
-80.383
 11
-80.195
 20
124.076
 21
124.019
  0
LINE
  8
0
 10
-80.195
 11
-80
 20
124.019
 21
124
  0
LINE
  8
0
 10
-80
 11
-79.805
 20
124
 21
124.019
  0
LINE
  8
0
 10
-79.805
 11
-79.617
 20
124.019
 21
124.076
  0
LINE
  8
0
 10
-79.617
 11
-79.444
 20
124.076
 21
124.169
  0
LINE
  8
0
 10
-79.444
 11
-79.293
 20
124.169
 21
124.293
  0
LINE
  8
0
 10
-79.293
 11
-79.169
 20
124.293
 21
124.444
  0
LINE
  8
0
 10
-79.169
 11
-79.076
 20
124.444
 21
124.617
  0
LINE
  8
0
 10
-79.076
 11
-79.019
 20
124.617
 21
124.805
  0
LINE
  8
0
 10
-79.019
 11
-79
 20
124.805
 21
125
  0
LINE
  8
0
 10
-79
 11
-79.019
 20
125
 21
125.195
  0
LINE
  8
0
 10
-79.019
 11
-79.076
 20
125.195
 21
125.383
  0
LINE
  8
0
 10
-79.076
 11
-79.169
 20
125.383
 21
125.556
  0
LINE
  8
0
 10
-79.169
 11
-79.293
 20
125.556
 21
125.707
  0
LINE
  8
0
 10
-79.293
 11
-79.444
 20
125.707
 21
125.831
  0
LINE
  8
0
 10
-79.444
 11
-79.617
 20
125.831
 21
125.924
  0
LINE
  8
0
 10
-79.617
 11
-79.805
 20
125.924
 21
125.981
  0
LINE
  8
0
 10
-79.805
 11
-80
 20
125.981
 21
126
  0
LINE
  8
0
 10
-80
 11
-80
 20
126
 21
128.453
  0
LINE
  8
0
 10
-80
 11
-79.805
 20
128.453
 21
128.472
  0
LINE
  8
0
 10
-79.805
 11
-79.617
 20
128.472
 21
128.529
  0
LINE
  8
0
 10
-79.617
 11
-79.444
 20
128.529
 21
128.622
  0
LINE
  8
0
 10
-79.444
 11
-79.293
 20
128.622
 21
128.746
  0
LINE
  8
0
 10
-79.293
 11
-79.169
 20
128.746
 21
128.897
  0
LINE
  8
0
 10
-79.169
 11
-79.076
 20
128.897
 21
129.07
  0
LINE
  8
0
 10
-79.076
 11
-79.019
 20
129.07
 21
129.258
  0
LINE
  8
0
 10
-79.019
 11
-79
 20
129.258
 21
129.453
  0
LINE
  8
0
 10
-79
 11
-79.019
 20
129.453
 21
129.648
  0
LINE
  8
0
 10
-79.019
 11
-79.076
 20
129.648
 21
129.836
  0
LINE
  8
0
 10
-79.076
 11
-79.169
 20
129.836
 21
130.009
  0
LINE
  8
0
 10
-79.169
 11
-79.293
 20
130.009
 21
130.16
  0
LINE
  8
0
 10
-79.293
 11
-79.444
 20
130.16
 21
130.284
  0
LINE
  8
0
 10
-79.444
 11
-79.617
 20
130.284
 21
130.377
  0
LINE
  8
0
 10
-79.617
 11
-79.805
 20
130.377
 21
130.434
  0
LINE
  8
0
 10
-79.805
 11
-80
 20
130.434
 21
130.453
  0
LINE
  8
0
 10
-80
 11
-80.195
 20
130.453
 21
130.434
  0
LINE
  8
0
 10
-80.195
 11
-80.383
 20
130.434
 21
130.377
  0
LINE
  8
0
 10
-80.383
 11
-80.556
 20
130.377
 21
130.284
  0
LINE
  8
0
 10
-80.556
 11
-80.707
 20
130.284
 21
130.16
  0
LINE
  8
0
 10
-80.707
 11
-80.831
 20
130.16
 21
130.009
  0
LINE
  8
0
 10
-80.831
 11
-80.924
 20
130.009
 21
129.836
  0
LINE
  8
0
 10
-80.924
 11
-80.981
 20
129.836
 21
129.648
  0
LINE
  8
0
 10
-80.981
 11
-81
 20
129.648
 21
129.453
  0
LINE
  8
0
 10
-81
 11
-88
 20
129.453
 21
129.453
  0
LINE
  8
0
 10
-88
 11
-90
 20
129.453
 21
131.453
  0
LINE
  8
0
 10
-90
 11
-90
 20
131.453
 21
138
  0
LINE
  8
0
 10
-90
 11
-88
 20
138
 21
140
  0
LINE
  8
0
 10
-88
 11
-78
 20
140
 21
140
  0
LINE
  8
0
 10
-78
 11
-76.439
 20
140
 21
139.846
  0
LINE
  8
0
 10
-76.439
 11
-74.939
 20
139.846
 21
139.391
  0
LINE
  8
0
 10
-74.939
 11
-73.555
 20
139.391
 21
138.652
  0
LINE
  8
0
 10
-73.555
 11
-72.343
 20
138.652
 21
137.657
  0
LINE
  8
0
 10
-72.343
 11
-71.348
 20
137.657
 21
136.445
  0
LINE
  8
0
 10
-71.348
 11
-70.609
 20
136.445
 21
135.061
  0
LINE
  8
0
 10
-70.609
 11
-70.154
 20
135.061
 21
133.561
  0
LINE
  8
0
 10
-70.154
 11
-70
 20
133.561
 21
132
  0
LINE
  8
0
 10
-70
 11
-70
 20
132
 21
104.217
  0
LINE
  8
0
 10
-70
 11
-71.99
 20
104.217
 21
102.226
  0
LINE
  8
0
 10
-71.99
 11
-78.74
 20
102.226
 21
102.226
  0
LINE
  8
0
 10
-78.74
 11
-78.759
 20
102.226
 21
102.422
  0
LINE
  8
0
 10
-78.759
 11
-78.816
 20
102.422
 21
102.609
  0
LINE
  8
0
 10
-78.816
 11
-78.909
 20
102.609
 21
102.782
  0
LINE
  8
0
 10
-78.909
 11
-79.033
 20
102.782
 21
102.934
  0
LINE
  8
0
 10
-79.033
 11
-79.184
 20
102.934
 21
103.058
  0
LINE
  8
0
 10
-79.184
 11
-79.357
 20
103.058
 21
103.15
  0
LINE
  8
0
 10
-79.357
 11
-79.545
 20
103.15
 21
103.207
  0
LINE
  8
0
 10
-79.545
 11
-79.74
 20
103.207
 21
103.226
  0
LINE
  8
0
 10
-79.74
 11
-79.935
 20
103.226
 21
103.207
  0
LINE
  8
0
 10
-79.935
 11
-80.123
 20
103.207
 21
103.15
  0
LINE
  8
0
 10
-80.123
 11
-80.296
 20
103.15
 21
103.058
  0
LINE
  8
0
 10
-80.296
 11
-80.447
 20
103.058
 21
102.934
  0
LINE
  8
0
 10
-80.447
 11
-80.571
 20
102.934
 21
102.782
  0
LINE
  8
0
 10
-80.571
 11
-80.664
 20
102.782
 21
102.609
  0
LINE
  8
0
 10
-80.664
 11
-80.721
 20
102.609
 21
102.422
  0
LINE
  8
0
 10
-80.721
 11
-80.74
 20
102.422
 21
102.226
  0
LINE
  8
0
 10
-80.74
 11
-80.721
 20
102.226
 21
102.031
  0
LINE
  8
0
 10
-80.721
 11
-80.664
 20
102.031
 21
101.844
  0
LINE
  8
0
 10
-80.664
 11
-80.571
 20
101.844
 21
101.671
  0
LINE
  8
0
 10
-80.571
 11
-80.447
 20
101.671
 21
101.519
  0
LINE
  8
0
 10
-80.447
 11
-80.296
 20
101.519
 21
101.395
  0
LINE
  8
0
 10
-80.296
 11
-80.123
 20
101.395
 21
101.303
  0
LINE
  8
0
 10
-80.123
 11
-79.935
 20
101.303
 21
101.246
  0
LINE
  8
0
 10
-79.935
 11
-79.74
 20
101.246
 21
101.226
  0
LINE
  8
0
 10
-79.74
 11
-79.74
 20
101.226
 21
98.773
  0
LINE
  8
0
 10
-79.74
 11
-79.935
 20
98.773
 21
98.754
  0
LINE
  8
0
 10
-79.935
 11
-80.123
 20
98.754
 21
98.697
  0
LINE
  8
0
 10
-80.123
 11
-80.296
 20
98.697
 21
98.605
  0
LINE
  8
0
 10
-80.296
 11
-80.447
 20
98.605
 21
98.481
  0
LINE
  8
0
 10
-80.447
 11
-80.571
 20
98.481
 21
98.329
  0
LINE
  8
0
 10
-80.571
 11
-80.664
 20
98.329
 21
98.156
  0
LINE
  8
0
 10
-80.664
 11
-80.721
 20
98.156
 21
97.969
  0
LINE
  8
0
 10
-80.721
 11
-80.74
 20
97.969
 21
97.773
  0
LINE
  8
0
 10
-80.74
 11
-80.721
 20
97.773
 21
97.578
  0
LINE
  8
0
 10
-80.721
 11
-80.664
 20
97.578
 21
97.391
  0
LINE
  8
0
 10
-80.664
 11
-80.571
 20
97.391
 21
97.218
  0
LINE
  8
0
 10
-80.571
 11
-80.447
 20
97.218
 21
97.066
  0
LINE
  8
0
 10
-80.447
 11
-80.296
 20
97.066
 21
96.942
  0
LINE
  8
0
 10
-80.296
 11
-80.123
 20
96.942
 21
96.85
  0
LINE
  8
0
 10
-80.123
 11
-79.935
 20
96.85
 21
96.793
  0
LINE
  8
0
 10
-79.935
 11
-79.74
 20
96.793
 21
96.773
  0
LINE
  8
0
 10
-79.74
 11
-79.545
 20
96.773
 21
96.793
  0
LINE
  8
0
 10
-79.545
 11
-79.357
 20
96.793
 21
96.85
  0
LINE
  8
0
 10
-79.357
 11
-79.184
 20
96.85
 21
96.942
  0
LINE
  8
0
 10
-79.184
 11
-79.033
 20
96.942
 21
97.066
  0
LINE
  8
0
 10
-79.033
 11
-78.909
 20
97.066
 21
97.218
  0
LINE
  8
0
 10
-78.909
 11
-78.816
 20
97.218
 21
97.391
  0
LINE
  8
0
 10
-78.816
 11
-78.759
 20
97.391
 21
97.578
  0
LINE
  8
0
 10
-78.759
 11
-78.74
 20
97.578
 21
97.773
  0
LINE
  8
0
 10
-78.74
 11
-71.99
 20
97.773
 21
97.774
  0
LINE
  8
0
 10
-71.99
 11
-70
 20
97.774
 21
95.783
  0
LINE
  8
0
 10
-70
 11
-70
 20
95.783
 21
75
  0
LINE
  8
0
 10
-70
 11
-109
 20
75
 21
75
  0
LINE
  8
0
 10
-109
 11
-109.019
 20
75
 21
75.195
  0
LINE
  8
0
 10
-109.019
 11
-109.076
 20
75.195
 21
75.383
  0
LINE
  8
0
 10
-109.076
 11
-109.169
 20
75.383
 21
75.556
  0
LINE
  8
0
 10
-109.169
 11
-109.293
 20
75.556
 21
75.707
  0
LINE
  8
0
 10
-109.293
 11
-109.444
 20
75.707
 21
75.831
  0
LINE
  8
0
 10
-109.444
 11
-109.617
 20
75.831
 21
75.924
  0
LINE
  8
0
 10
-109.617
 11
-109.805
 20
75.924
 21
75.981
  0
LINE
  8
0
 10
-109.805
 11
-110
 20
75.981
 21
76
  0
LINE
  8
0
 10
-110
 11
-110.195
 20
76
 21
75.981
  0
LINE
  8
0
 10
-110.195
 11
-110.383
 20
75.981
 21
75.924
  0
LINE
  8
0
 10
-110.383
 11
-110.556
 20
75.924
 21
75.831
  0
LINE
  8
0
 10
-110.556
 11
-110.707
 20
75.831
 21
75.707
  0
LINE
  8
0
 10
-110.707
 11
-110.831
 20
75.707
 21
75.556
  0
LINE
  8
0
 10
-110.831
 11
-110.924
 20
75.556
 21
75.383
  0
LINE
  8
0
 10
-110.924
 11
-110.981
 20
75.383
 21
75.195
  0
LINE
  8
0
 10
-110.981
 11
-111
 20
75.195
 21
75
  0
LINE
  8
0
 10
-111
 11
-110.981
 20
75
 21
74.805
  0
LINE
  8
0
 10
-110.981
 11
-110.924
 20
74.805
 21
74.617
  0
LINE
  8
0
 10
-110.924
 11
-110.831
 20
74.617
 21
74.444
  0
LINE
  8
0
 10
-110.831
 11
-110.707
 20
74.444
 21
74.293
  0
LINE
  8
0
 10
-110.707
 11
-110.556
 20
74.293
 21
74.169
  0
LINE
  8
0
 10
-110.556
 11
-110.383
 20
74.169
 21
74.076
  0
LINE
  8
0
 10
-110.383
 11
-110.195
 20
74.076
 21
74.019
  0
LINE
  8
0
 10
-110.195
 11
-110
 20
74.019
 21
74
  0
LINE
  8
0
 10
-110
 11
-110
 20
74
 21
71.547
  0
LINE
  8
0
 10
-110
 11
-110.195
 20
71.547
 21
71.528
  0
LINE
  8
0
 10
-110.195
 11
-110.383
 20
71.528
 21
71.471
  0
LINE
  8
0
 10
-110.383
 11
-110.556
 20
71.471
 21
71.378
  0
LINE
  8
0
 10
-110.556
 11
-110.707
 20
71.378
 21
71.254
  0
LINE
  8
0
 10
-110.707
 11
-110.831
 20
71.254
 21
71.103
  0
LINE
  8
0
 10
-110.831
 11
-110.924
 20
71.103
 21
70.93
  0
LINE
  8
0
 10
-110.924
 11
-110.981
 20
70.93
 21
70.742
  0
LINE
  8
0
 10
-110.981
 11
-111
 20
70.742
 21
70.547
  0
LINE
  8
0
 10
-111
 11
-110.981
 20
70.547
 21
70.352
  0
LINE
  8
0
 10
-110.981
 11
-110.924
 20
70.352
 21
70.164
  0
LINE
  8
0
 10
-110.924
 11
-110.831
 20
70.164
 21
69.991
  0
LINE
  8
0
 10
-110.831
 11
-110.707
 20
69.991
 21
69.84
  0
LINE
  8
0
 10
-110.707
 11
-110.556
 20
69.84
 21
69.716
  0
LINE
  8
0
 10
-110.556
 11
-110.383
 20
69.716
 21
69.623
  0
LINE
  8
0
 10
-110.383
 11
-110.195
 20
69.623
 21
69.566
  0
LINE
  8
0
 10
-110.195
 11
-110
 20
69.566
 21
69.547
  0
LINE
  8
0
 10
-110
 11
-109.805
 20
69.547
 21
69.566
  0
LINE
  8
0
 10
-109.805
 11
-109.617
 20
69.566
 21
69.623
  0
LINE
  8
0
 10
-109.617
 11
-109.444
 20
69.623
 21
69.716
  0
LINE
  8
0
 10
-109.444
 11
-109.293
 20
69.716
 21
69.84
  0
LINE
  8
0
 10
-109.293
 11
-109.169
 20
69.84
 21
69.991
  0
LINE
  8
0
 10
-109.169
 11
-109.076
 20
69.991
 21
70.164
  0
LINE
  8
0
 10
-109.076
 11
-109.019
 20
70.164
 21
70.352
  0
LINE
  8
0
 10
-109.019
 11
-109
 20
70.352
 21
70.547
  0
LINE
  8
0
 10
-109
 11
-102
 20
70.547
 21
70.547
  0
LINE
  8
0
 10
-102
 11
-100
 20
70.547
 21
68.547
  0
LINE
  8
0
 10
-100
 11
-100
 20
68.547
 21
62
  0
LINE
  8
0
 10
-100
 11
-102
 20
62
 21
60
  0
LINE
  8
0
 10
-102
 11
-112
 20
60
 21
60
  0
LINE
  8
0
 10
-112
 11
-113.561
 20
60
 21
60.154
  0
LINE
  8
0
 10
-113.561
 11
-115.061
 20
60.154
 21
60.609
  0
LINE
  8
0
 10
-115.061
 11
-116.445
 20
60.609
 21
61.348
  0
LINE
  8
0
 10
-116.445
 11
-117.657
 20
61.348
 21
62.343
  0
LINE
  8
0
 10
-117.657
 11
-118.652
 20
62.343
 21
63.555
  0
LINE
  8
0
 10
-118.652
 11
-119.391
 20
63.555
 21
64.939
  0
LINE
  8
0
 10
-119.391
 11
-119.846
 20
64.939
 21
66.439
  0
LINE
  8
0
 10
-119.846
 11
-120
 20
66.439
 21
68
  0
LINE
  8
0
 10
-120
 11
-120
 20
143
 21
170.783
  0
LINE
  8
0
 10
-120
 11
-118.01
 20
170.783
 21
172.774
  0
LINE
  8
0
 10
-118.01
 11
-111.26
 20
172.774
 21
172.773
  0
LINE
  8
0
 10
-111.26
 11
-111.241
 20
172.773
 21
172.578
  0
LINE
  8
0
 10
-111.241
 11
-111.184
 20
172.578
 21
172.391
  0
LINE
  8
0
 10
-111.184
 11
-111.091
 20
172.391
 21
172.218
  0
LINE
  8
0
 10
-111.091
 11
-110.967
 20
172.218
 21
172.066
  0
LINE
  8
0
 10
-110.967
 11
-110.816
 20
172.066
 21
171.942
  0
LINE
  8
0
 10
-110.816
 11
-110.643
 20
171.942
 21
171.85
  0
LINE
  8
0
 10
-110.643
 11
-110.455
 20
171.85
 21
171.793
  0
LINE
  8
0
 10
-110.455
 11
-110.26
 20
171.793
 21
171.773
  0
LINE
  8
0
 10
-110.26
 11
-110.065
 20
171.773
 21
171.793
  0
LINE
  8
0
 10
-110.065
 11
-109.877
 20
171.793
 21
171.85
  0
LINE
  8
0
 10
-109.877
 11
-109.704
 20
171.85
 21
171.942
  0
LINE
  8
0
 10
-109.704
 11
-109.553
 20
171.942
 21
172.066
  0
LINE
  8
0
 10
-109.553
 11
-109.429
 20
172.066
 21
172.218
  0
LINE
  8
0
 10
-109.429
 11
-109.336
 20
172.218
 21
172.391
  0
LINE
  8
0
 10
-109.336
 11
-109.279
 20
172.391
 21
172.578
  0
LINE
  8
0
 10
-109.279
 11
-109.26
 20
172.578
 21
172.773
  0
LINE
  8
0
 10
-109.26
 11
-109.279
 20
172.773
 21
172.969
  0
LINE
  8
0
 10
-109.279
 11
-109.336
 20
172.969
 21
173.156
  0
LINE
  8
0
 10
-109.336
 11
-109.429
 20
173.156
 21
173.329
  0
LINE
  8
0
 10
-109.429
 11
-109.553
 20
173.329
 21
173.481
  0
LINE
  8
0
 10
-109.553
 11
-109.704
 20
173.481
 21
173.605
  0
LINE
  8
0
 10
-109.704
 11
-109.877
 20
173.605
 21
173.697
  0
LINE
  8
0
 10
-109.877
 11
-110.065
 20
173.697
 21
173.754
  0
LINE
  8
0
 10
-110.065
 11
-110.26
 20
173.754
 21
173.773
  0
LINE
  8
0
 10
-110.26
 11
-110.26
 20
173.773
 21
176.226
  0
LINE
  8
0
 10
-110.26
 11
-110.065
 20
176.226
 21
176.246
  0
LINE
  8
0
 10
-110.065
 11
-109.877
 20
176.246
 21
176.303
  0
LINE
  8
0
 10
-109.877
 11
-109.704
 20
176.303
 21
176.395
  0
LINE
  8
0
 10
-109.704
 11
-109.553
 20
176.395
 21
176.519
  0
LINE
  8
0
 10
-109.553
 11
-109.429
 20
176.519
 21
176.671
  0
LINE
  8
0
 10
-109.429
 11
-109.336
 20
176.671
 21
176.844
  0
LINE
  8
0
 10
-109.336
 11
-109.279
 20
176.844
 21
177.031
  0
LINE
  8
0
 10
-109.279
 11
-109.26
 20
177.031
 21
177.226
  0
LINE
  8
0
 10
-109.26
 11
-109.279
 20
177.226
 21
177.422
  0
LINE
  8
0
 10
-109.279
 11
-109.336
 20
177.422
 21
177.609
  0
LINE
  8
0
 10
-109.336
 11
-109.429
 20
177.609
 21
177.782
  0
LINE
  8
0
 10
-109.429
 11
-109.553
 20
177.782
 21
177.934
  0
LINE
  8
0
 10
-109.553
 11
-109.704
 20
177.934
 21
178.058
  0
LINE
  8
0
 10
-109.704
 11
-109.877
 20
178.058
 21
178.15
  0
LINE
  8
0
 10
-109.877
 11
-110.065
 20
178.15
 21
178.207
  0
LINE
  8
0
 10
-110.065
 11
-110.26
 20
178.207
 21
178.226
  0
LINE
  8
0
 10
-110.26
 11
-110.455
 20
178.226
 21
178.207
  0
LINE
  8
0
 10
-110.455
 11
-110.643
 20
178.207
 21
178.15
  0
LINE
  8
0
 10
-110.643
 11
-110.816
 20
178.15
 21
178.058
  0
LINE
  8
0
 10
-110.816
 11
-110.967
 20
178.058
 21
177.934
  0
LINE
  8
0
 10
-110.967
 11
-111.091
 20
177.934
 21
177.782
  0
LINE
  8
0
 10
-111.091
 11
-111.184
 20
177.782
 21
177.609
  0
LINE
  8
0
 10
-111.184
 11
-111.241
 20
177.609
 21
177.422
  0
LINE
  8
0
 10
-111.241
 11
-111.26
 20
177.422
 21
177.226
  0
LINE
  8
0
 10
-111.26
 11
-118.01
 20
177.226
 21
177.226
  0
LINE
  8
0
 10
-118.01
 11
-120
 20
177.226
 21
179.217
  0
LINE
  8
0
 10
-120
 11
-120
 20
179.217
 21
200
  0
LINE
  8
0
 10
-120
 11
-81
 20
200
 21
200
  0
LINE
  8
0
 10
-81
 11
-80.981
 20
200
 21
199.805
  0
LINE
  8
0
 10
-80.981
 11
-80.924
 20
199.805
 21
199.617
  0
LINE
  8
0
 10
-80.924
 11
-80.831
 20
199.617
 21
199.444
  0
LINE
  8
0
 10
-80.831
 11
-80.707
 20
199.444
 21
199.293
  0
LINE
  8
0
 10
-80.707
 11
-80.556
 20
199.293
 21
199.169
  0
LINE
  8
0
 10
-80.556
 11
-80.383
 20
199.169
 21
199.076
  0
LINE
  8
0
 10
-80.383
 11
-80.195
 20
199.076
 21
199.019
  0
LINE
  8
0
 10
-80.195
 11
-80
 20
199.019
 21
199
  0
LINE
  8
0
 10
-80
 11
-79.805
 20
199
 21
199.019
  0
LINE
  8
0
 10
-79.805
 11
-79.617
 20
199.019
 21
199.076
  0
LINE
  8
0
 10
-79.617
 11
-79.444
 20
199.076
 21
199.169
  0
LINE
  8
0
 10
-79.444
 11
-79.293
 20
199.169
 21
199.293
  0
LINE
  8
0
 10
-79.293
 11
-79.169
 20
199.293
 21
199.444
  0
LINE
  8
0
 10
-79.169
 11
-79.076
 20
199.444
 21
199.617
  0
LINE
  8
0
 10
-79.076
 11
-79.019
 20
199.617
 21
199.805
  0
LINE
  8
0
 10
-79.019
 11
-79
 20
199.805
 21
200
  0
LINE
  8
0
 10
-79
 11
-79.019
 20
200
 21
200.195
  0
LINE
  8
0
 10
-79.019
 11
-79.076
 20
200.195
 21
200.383
  0
LINE
  8
0
 10
-79.076
 11
-79.169
 20
200.383
 21
200.556
  0
LINE
  8
0
 10
-79.169
 11
-79.293
 20
200.556
 21
200.707
  0
LINE
  8
0
 10
-79.293
 11
-79.444
 20
200.707
 21
200.831
  0
LINE
  8
0
 10
-79.444
 11
-79.617
 20
200.831
 21
200.924
  0
LINE
  8
0
 10
-79.617
 11
-79.805
 20
200.924
 21
200.981
  0
LINE
  8
0
 10
-79.805
 11
-80
 20
200.981
 21
201
  0
LINE
  8
0
 10
-80
 11
-80
 20
201
 21
203.453
  0
LINE
  8
0
 10
-80
 11
-79.805
 20
203.453
 21
203.472
  0
LINE
  8
0
 10
-79.805
 11
-79.617
 20
203.472
 21
203.529
  0
LINE
  8
0
 10
-79.617
 11
-79.444
 20
203.529
 21
203.622
  0
LINE
  8
0
 10
-79.444
 11
-79.293
 20
203.622
 21
203.746
  0
LINE
  8
0
 10
-79.293
 11
-79.169
 20
203.746
 21
203.897
  0
LINE
  8
0
 10
-79.169
 11
-79.076
 20
203.897
 21
204.07
  0
LINE
  8
0
 10
-79.076
 11
-79.019
 20
204.07
 21
204.258
  0
LINE
  8
0
 10
-79.019
 11
-79
 20
204.258
 21
204.453
  0
LINE
  8
0
 10
-79
 11
-79.019
 20
204.453
 21
204.648
  0
LINE
  8
0
 10
-79.019
 11
-79.076
 20
204.648
 21
204.836
  0
LINE
  8
0
 10
-79.076
 11
-79.169
 20
204.836
 21
205.009
  0
LINE
  8
0
 10
-79.169
 11
-79.293
 20
205.009
 21
205.16
  0
LINE
  8
0
 10
-79.293
 11
-79.444
 20
205.16
 21
205.284
  0
LINE
  8
0
 10
-79.444
 11
-79.617
 20
205.284
 21
205.377
  0
LINE
  8
0
 10
-79.617
 11
-79.805
 20
205.377
 21
205.434
  0
LINE
  8
0
 10
-79.805
 11
-80
 20
205.434
 21
205.453
  0
LINE
  8
0
 10
-80
 11
-80.195
 20
205.453
 21
205.434
  0
LINE
  8
0
 10
-80.195
 11
-80.383
 20
205.434
 21
205.377
  0
LINE
  8
0
 10
-80.383
 11
-80.556
 20
205.377
 21
205.284
  0
LINE
  8
0
 10
-80.556
 11
-80.707
 20
205.284
 21
205.16
  0
LINE
  8
0
 10
-80.707
 11
-80.831
 20
205.16
 21
205.009
  0
LINE
  8
0
 10
-80.831
 11
-80.924
 20
205.009
 21
204.836
  0
LINE
  8
0
 10
-80.924
 11
-80.981
 20
204.836
 21
204.648
  0
LINE
  8
0
 10
-80.981
 11
-81
 20
204.648
 21
204.453
  0
LINE
  8
0
 10
-81
 11
-88
 20
204.453
 21
204.453
  0
LINE
  8
0
 10
-88
 11
-90
 20
204.453
 21
206.453
  0
LINE
  8
0
 10
-90
 11
-90
 20
206.453
 21
213
  0
LINE
  8
0
 10
-90
 11
-88
 20
213
 21
215
  0
LINE
  8
0
 10
-88
 11
-78
 20
215
 21
215
  0
LINE
  8
0
 10
-78
 11
-76.439
 20
215
 21
214.846
  0
LINE
  8
0
 10
-76.439
 11
-74.939
 20
214.846
 21
214.391
  0
LINE
  8
0
 10
-74.939
 11
-73.555
 20
214.391
 21
213.652
  0
LINE
  8
0
 10
-73.555
 11
-72.343
 20
213.652
 21
212.657
  0
LINE
  8
0
 10
-72.343
 11
-71.348
 20
212.657
 21
211.445
  0
LINE
  8
0
 10
-71.348
 11
-70.609
 20
211.445
 21
210.061
  0
LINE
  8
0
 10
-70.609
 11
-70.154
 20
210.061
 21
208.561
  0
LINE
  8
0
 10
-70.154
 11
-70
 20
208.561
 21
207
  0
LINE
  8
0
 10
-70
 11
-70
 20
207
 21
179.217
  0
LINE
  8
0
 10
-70
 11
-71.99
 20
179.217
 21
177.226
  0
LINE
  8
0
 10
-71.99
 11
-78.74
 20
177.226
 21
177.226
  0
LINE
  8
0
 10
-78.74
 11
-78.759
 20
177.226
 21
177.422
  0
LINE
  8
0
 10
-78.759
 11
-78.816
 20
177.422
 21
177.609
  0
LINE
  8
0
 10
-78.816
 11
-78.909
 20
177.609
 21
177.782
  0
LINE
  8
0
 10
-78.909
 11
-79.033
 20
177.782
 21
177.934
  0
LINE
  8
0
 10
-79.033
 11
-79.184
 20
177.934
 21
178.058
  0
LINE
  8
0
 10
-79.184
 11
-79.357
 20
178.058
 21
178.15
  0
LINE
  8
0
 10
-79.357
 11
-79.545
 20
178.15
 21
178.207
  0
LINE
  8
0
 10
-79.545
 11
-79.74
 20
178.207
 21
178.226
  0
LINE
  8
0
 10
-79.74
 11
-79.935
 20
178.226
 21
178.207
  0
LINE
  8
0
 10
-79.935
 11
-80.123
 20
178.207
 21
178.15
  0
LINE
  8
0
 10
-80.123
 11
-80.296
 20
178.15
 21
178.058
  0
LINE
  8
0
 10
-80.296
 11
-80.447
 20
178.058
 21
177.934
  0
LINE
  8
0
 10
-80.447
 11
-80.571
 20
177.934
 21
177.782
  0
LINE
  8
0
 10
-80.571
 11
-80.664
 20
177.782
 21
177.609
  0
LINE
  8
0
 10
-80.664
 11
-80.721
 20
177.609
 21
177.422
  0
LINE
  8
0
 10
-80.721
 11
-80.74
 20
177.422
 21
177.226
  0
LINE
  8
0
 10
-80.74
 11
-80.721
 20
177.226
 21
177.031
  0
LINE
  8
0
 10
-80.721
 11
-80.664
 20
177.031
 21
176.844
  0
LINE
  8
0
 10
-80.664
 11
-80.571
 20
176.844
 21
176.671
  0
LINE
  8
0
 10
-80.571
 11
-80.447
 20
176.671
 21
176.519
  0
LINE
  8
0
 10
-80.447
 11
-80.296
 20
176.519
 21
176.395
  0
LINE
  8
0
 10
-80.296
 11
-80.123
 20
176.395
 21
176.303
  0
LINE
  8
0
 10
-80.123
 11
-79.935
 20
176.303
 21
176.246
  0
LINE
  8
0
 10
-79.935
 11
-79.74
 20
176.246
 21
176.226
  0
LINE
  8
0
 10
-79.74
 11
-79.74
 20
176.226
 21
173.773
  0
LINE
  8
0
 10
-79.74
 11
-79.935
 20
173.773
 21
173.754
  0
LINE
  8
0
 10
-79.935
 11
-80.123
 20
173.754
 21
173.697
  0
LINE
  8
0
 10
-80.123
 11
-80.296
 20
173.697
 21
173.605
  0
LINE
  8
0
 10
-80.296
 11
-80.447
 20
173.605
 21
173.481
  0
LINE
  8
0
 10
-80.447
 11
-80.571
 20
173.481
 21
173.329
  0
LINE
  8
0
 10
-80.571
 11
-80.664
 20
173.329
 21
173.156
  0
LINE
  8
0
 10
-80.664
 11
-80.721
 20
173.156
 21
172.969
  0
LINE
  8
0
 10
-80.721
 11
-80.74
 20
172.969
 21
172.773
  0
LINE
  8
0
 10
-80.74
 11
-80.721
 20
172.773
 21
172.578
  0
LINE
  8
0
 10
-80.721
 11
-80.664
 20
172.578
 21
172.391
  0
LINE
  8
0
 10
-80.664
 11
-80.571
 20
172.391
 21
172.218
  0
LINE
  8
0
 10
-80.571
 11
-80.447
 20
172.218
 21
172.066
  0
LINE
  8
0
 10
-80.447
 11
-80.296
 20
172.066
 21
171.942
  0
LINE
  8
0
 10
-80.296
 11
-80.123
 20
171.942
 21
171.85
  0
LINE
  8
0
 10
-80.123
 11
-79.935
 20
171.85
 21
171.793
  0
LINE
  8
0
 10
-79.935
 11
-79.74
 20
171.793
 21
171.773
  0
LINE
  8
0
 10
-79.74
 11
-79.545
 20
171.773
 21
171.793
  0
LINE
  8
0
 10
-79.545
 11
-79.357
 20
171.793
 21
171.85
  0
LINE
  8
0
 10
-79.357
 11
-79.184
 20
171.85
 21
171.942
  0
LINE
  8
0
 10
-79.184
 11
-79.033
 20
171.942
 21
172.066
  0
LINE
  8
0
 10
-79.033
 11
-78.909
 20
172.066
 21
172.218
  0
LINE
  8
0
 10
-78.909
 11
-78.816
 20
172.218
 21
172.391
  0
LINE
  8
0
 10
-78.816
 11
-78.759
 20
172.391
 21
172.578
  0
LINE
  8
0
 10
-78.759
 11
-78.74
 20
172.578
 21
172.773
  0
LINE
  8
0
 10
-78.74
 11
-71.99
 20
172.773
 21
172.774
  0
LINE
  8
0
 10
-71.99
 11
-70
 20
172.774
 21
170.783
  0
LINE
  8
0
 10
-70
 11
-70
 20
170.783
 21
150
  0
LINE
  8
0
 10
-70
 11
-109
 20
150
 21
150
  0
LINE
  8
0
 10
-109
 11
-109.019
 20
150
 21
150.195
  0
LINE
  8
0
 10
-109.019
 11
-109.076
 20
150.195
 21
150.383
  0
LINE
  8
0
 10
-109.076
 11
-109.169
 20
150.383
 21
150.556
  0
LINE
  8
0
 10
-109.169
 11
-109.293
 20
150.556
 21
150.707
  0
LINE
  8
0
 10
-109.293
 11
-109.444
 20
150.707
 21
150.831
  0
LINE
  8
0
 10
-109.444
 11
-109.617
 20
150.831
 21
150.924
  0
LINE
  8
0
 10
-109.617
 11
-109.805
 20
150.924
 21
150.981
  0
LINE
  8
0
 10
-109.805
 11
-110
 20
150.981
 21
151
  0
LINE
  8
0
 10
-110
 11
-110.195
 20
151
 21
150.981
  0
LINE
  8
0
 10
-110.195
 11
-110.383
 20
150.981
 21
150.924
  0
LINE
  8
0
 10
-110.383
 11
-110.556
 20
150.924
 21
150.831
  0
LINE
  8
0
 10
-110.556
 11
-110.707
 20
150.831
 21
150.707
  0
LINE
  8
0
 10
-110.707
 11
-110.831
 20
150.707
 21
150.556
  0
LINE
  8
0
 10
-110.831
 11
-110.924
 20
150.556
 21
150.383
  0
LINE
  8
0
 10
-110.924
 11
-110.981
 20
150.383
 21
150.195
  0
LINE
  8
0
 10
-110.981
 11
-111
 20
150.195
 21
150
  0
LINE
  8
0
 10
-111
 11
-110.981
 20
150
 21
149.805
  0
LINE
  8
0
 10
-110.981
 11
-110.924
 20
149.805
 21
149.617
  0
LINE
  8
0
 10
-110.924
 11
-110.831
 20
149.617
 21
149.444
  0
LINE
  8
0
 10
-110.831
 11
-110.707
 20
149.444
 21
149.293
  0
LINE
  8
0
 10
-110.707
 11
-110.556
 20
149.293
 21
149.169
  0
LINE
  8
0
 10
-110.556
 11
-110.383
 20
149.169
 21
149.076
  0
LINE
  8
0
 10
-110.383
 11
-110.195
 20
149.076
 21
149.019
  0
LINE
  8
0
 10
-110.195
 11
-110
 20
149.019
 21
149
  0
LINE
  8
0
 10
-110
 11
-110
 20
149
 21
146.547
  0
LINE
  8
0
 10
-110
 11
-110.195
 20
146.547
 21
146.528
  0
LINE
  8
0
 10
-110.195
 11
-110.383
 20
146.528
 21
146.471
  0
LINE
  8
0
 10
-110.383
 11
-110.556
 20
146.471
 21
146.378
  0
LINE
  8
0
 10
-110.556
 11
-110.707
 20
146.378
 21
146.254
  0
LINE
  8
0
 10
-110.707
 11
-110.831
 20
146.254
 21
146.103
  0
LINE
  8
0
 10
-110.831
 11
-110.924
 20
146.103
 21
145.93
  0
LINE
  8
0
 10
-110.924
 11
-110.981
 20
145.93
 21
145.742
  0
LINE
  8
0
 10
-110.981
 11
-111
 20
145.742
 21
145.547
  0
LINE
  8
0
 10
-111
 11
-110.981
 20
145.547
 21
145.352
  0
LINE
  8
0
 10
-110.981
 11
-110.924
 20
145.352
 21
145.164
  0
LINE
  8
0
 10
-110.924
 11
-110.831
 20
145.164
 21
144.991
  0
LINE
  8
0
 10
-110.831
 11
-110.707
 20
144.991
 21
144.84
  0
LINE
  8
0
 10
-110.707
 11
-110.556
 20
144.84
 21
144.716
  0
LINE
  8
0
 10
-110.556
 11
-110.383
 20
144.716
 21
144.623
  0
LINE
  8
0
 10
-110.383
 11
-110.195
 20
144.623
 21
144.566
  0
LINE
  8
0
 10
-110.195
 11
-110
 20
144.566
 21
144.547
  0
LINE
  8
0
 10
-110
 11
-109.805
 20
144.547
 21
144.566
  0
LINE
  8
0
 10
-109.805
 11
-109.617
 20
144.566
 21
144.623
  0
LINE
  8
0
 10
-109.617
 11
-109.444
 20
144.623
 21
144.716
  0
LINE
  8
0
 10
-109.444
 11
-109.293
 20
144.716
 21
144.84
  0
LINE
  8
0
 10
-109.293
 11
-109.169
 20
144.84
 21
144.991
  0
LINE
  8
0
 10
-109.169
 11
-109.076
 20
144.991
 21
145.164
  0
LINE
  8
0
 10
-109.076
 11
-109.019
 20
145.164
 21
145.352
  0
LINE
  8
0
 10
-109.019
 11
-109
 20
145.352
 21
145.547
  0
LINE
  8
0
 10
-109
 11
-102
 20
145.547
 21
145.547
  0
LINE
  8
0
 10
-102
 11
-100
 20
145.547
 21
143.547
  0
LINE
  8
0
 10
-100
 11
-100
 20
143.547
 21
137
  0
LINE
  8
0
 10
-100
 11
-102
 20
137
 21
135
  0
LINE
  8
0
 10
-102
 11
-112
 20
135
 21
135
  0
LINE
  8
0
 10
-112
 11
-113.561
 20
135
 21
135.154
  0
LINE
  8
0
 10
-113.561
 11
-115.061
 20
135.154
 21
135.609
  0
LINE
  8
0
 10
-115.061
 11
-116.445
 20
135.609
 21
136.348
  0
LINE
  8
0
 10
-116.445
 11
-117.657
 20
136.348
 21
137.343
  0
LINE
  8
0
 10
-117.657
 11
-118.652
 20
137.343
 21
138.555
  0
LINE
  8
0
 10
-118.652
 11
-119.391
 20
138.555
 21
139.939
  0
LINE
  8
0
 10
-119.391
 11
-119.846
 20
139.939
 21
141.439
  0
LINE
  8
0
 10
-119.846
 11
-120
 20
141.439
 21
143
  0
LINE
  8
0
 10
-106.375
 11
-106.356
 20
85.773
 21
85.969
  0
LINE
  8
0
 10
-106.356
 11
-106.299
 20
85.969
 21
86.156
  0
LINE
  8
0
 10
-106.299
 11
-106.206
 20
86.156
 21
86.329
  0
LINE
  8
0
 10
-106.206
 11
-106.082
 20
86.329
 21
86.481
  0
LINE
  8
0
 10
-106.082
 11
-105.931
 20
86.481
 21
86.605
  0
LINE
  8
0
 10
-105.931
 11
-105.758
 20
86.605
 21
86.697
  0
LINE
  8
0
 10
-105.758
 11
-105.57
 20
86.697
 21
86.754
  0
LINE
  8
0
 10
-105.57
 11
-105.375
 20
86.754
 21
86.773
  0
LINE
  8
0
 10
-105.375
 11
-105.375
 20
86.773
 21
89.226
  0
LINE
  8
0
 10
-105.375
 11
-105.57
 20
89.226
 21
89.246
  0
LINE
  8
0
 10
-105.57
 11
-105.758
 20
89.246
 21
89.303
  0
LINE
  8
0
 10
-105.758
 11
-105.931
 20
89.303
 21
89.395
  0
LINE
  8
0
 10
-105.931
 11
-106.082
 20
89.395
 21
89.519
  0
LINE
  8
0
 10
-106.082
 11
-106.206
 20
89.519
 21
89.671
  0
LINE
  8
0
 10
-106.206
 11
-106.299
 20
89.671
 21
89.844
  0
LINE
  8
0
 10
-106.299
 11
-106.356
 20
89.844
 21
90.031
  0
LINE
  8
0
 10
-106.356
 11
-106.375
 20
90.031
 21
90.226
  0
LINE
  8
0
 10
-106.375
 11
-106.356
 20
90.226
 21
90.422
  0
LINE
  8
0
 10
-106.356
 11
-106.299
 20
90.422
 21
90.609
  0
LINE
  8
0
 10
-106.299
 11
-106.206
 20
90.609
 21
90.782
  0
LINE
  8
0
 10
-106.206
 11
-106.082
 20
90.782
 21
90.934
  0
LINE
  8
0
 10
-106.082
 11
-105.931
 20
90.934
 21
91.058
  0
LINE
  8
0
 10
-105.931
 11
-105.758
 20
91.058
 21
91.15
  0
LINE
  8
0
 10
-105.758
 11
-105.57
 20
91.15
 21
91.207
  0
LINE
  8
0
 10
-105.57
 11
-105.375
 20
91.207
 21
91.226
  0
LINE
  8
0
 10
-105.375
 11
-105.18
 20
91.226
 21
91.207
  0
LINE
  8
0
 10
-105.18
 11
-104.992
 20
91.207
 21
91.15
  0
LINE
  8
0
 10
-104.992
 11
-104.819
 20
91.15
 21
91.058
  0
LINE
  8
0
 10
-104.819
 11
-104.668
 20
91.058
 21
90.934
  0
LINE
  8
0
 10
-104.668
 11
-104.544
 20
90.934
 21
90.782
  0
LINE
  8
0
 10
-104.544
 11
-104.451
 20
90.782
 21
90.609
  0
LINE
  8
0
 10
-104.451
 11
-104.394
 20
90.609
 21
90.422
  0
LINE
  8
0
 10
-104.394
 11
-104.375
 20
90.422
 21
90.226
  0
LINE
  8
0
 10
-104.375
 11
-85.625
 20
90.226
 21
90.226
  0
LINE
  8
0
 10
-85.625
 11
-85.606
 20
90.226
 21
90.422
  0
LINE
  8
0
 10
-85.606
 11
-85.549
 20
90.422
 21
90.609
  0
LINE
  8
0
 10
-85.549
 11
-85.456
 20
90.609
 21
90.782
  0
LINE
  8
0
 10
-85.456
 11
-85.332
 20
90.782
 21
90.934
  0
LINE
  8
0
 10
-85.332
 11
-85.181
 20
90.934
 21
91.058
  0
LINE
  8
0
 10
-85.181
 11
-85.008
 20
91.058
 21
91.15
  0
LINE
  8
0
 10
-85.008
 11
-84.82
 20
91.15
 21
91.207
  0
LINE
  8
0
 10
-84.82
 11
-84.625
 20
91.207
 21
91.226
  0
LINE
  8
0
 10
-84.625
 11
-84.43
 20
91.226
 21
91.207
  0
LINE
  8
0
 10
-84.43
 11
-84.242
 20
91.207
 21
91.15
  0
LINE
  8
0
 10
-84.242
 11
-84.069
 20
91.15
 21
91.058
  0
LINE
  8
0
 10
-84.069
 11
-83.918
 20
91.058
 21
90.934
  0
LINE
  8
0
 10
-83.918
 11
-83.794
 20
90.934
 21
90.782
  0
LINE
  8
0
 10
-83.794
 11
-83.701
 20
90.782
 21
90.609
  0
LINE
  8
0
 10
-83.701
 11
-83.644
 20
90.609
 21
90.422
  0
LINE
  8
0
 10
-83.644
 11
-83.625
 20
90.422
 21
90.226
  0
LINE
  8
0
 10
-83.625
 11
-83.644
 20
90.226
 21
90.031
  0
LINE
  8
0
 10
-83.644
 11
-83.701
 20
90.031
 21
89.844
  0
LINE
  8
0
 10
-83.701
 11
-83.794
 20
89.844
 21
89.671
  0
LINE
  8
0
 10
-83.794
 11
-83.918
 20
89.671
 21
89.519
  0
LINE
  8
0
 10
-83.918
 11
-84.069
 20
89.519
 21
89.395
  0
LINE
  8
0
 10
-84.069
 11
-84.242
 20
89.395
 21
89.303
  0
LINE
  8
0
 10
-84.242
 11
-84.43
 20
89.303
 21
89.246
  0
LINE
  8
0
 10
-84.43
 11
-84.625
 20
89.246
 21
89.226
  0
LINE
  8
0
 10
-84.625
 11
-84.625
 20
89.226
 21
86.773
  0
LINE
  8
0
 10
-84.625
 11
-84.43
 20
86.773
 21
86.754
  0
LINE
  8
0
 10
-84.43
 11
-84.242
 20
86.754
 21
86.697
  0
LINE
  8
0
 10
-84.242
 11
-84.069
 20
86.697
 21
86.605
  0
LINE
  8
0
 10
-84.069
 11
-83.918
 20
86.605
 21
86.481
  0
LINE
  8
0
 10
-83.918
 11
-83.794
 20
86.481
 21
86.329
  0
LINE
  8
0
 10
-83.794
 11
-83.701
 20
86.329
 21
86.156
  0
LINE
  8
0
 10
-83.701
 11
-83.644
 20
86.156
 21
85.969
  0
LINE
  8
0
 10
-83.644
 11
-83.625
 20
85.969
 21
85.773
  0
LINE
  8
0
 10
-83.625
 11
-83.644
 20
85.773
 21
85.578
  0
LINE
  8
0
 10
-83.644
 11
-83.701
 20
85.578
 21
85.391
  0
LINE
  8
0
 10
-83.701
 11
-83.794
 20
85.391
 21
85.218
  0
LINE
  8
0
 10
-83.794
 11
-83.918
 20
85.218
 21
85.066
  0
LINE
  8
0
 10
-83.918
 11
-84.069
 20
85.066
 21
84.942
  0
LINE
  8
0
 10
-84.069
 11
-84.242
 20
84.942
 21
84.85
  0
LINE
  8
0
 10
-84.242
 11
-84.43
 20
84.85
 21
84.793
  0
LINE
  8
0
 10
-84.43
 11
-84.625
 20
84.793
 21
84.773
  0
LINE
  8
0
 10
-84.625
 11
-84.82
 20
84.773
 21
84.793
  0
LINE
  8
0
 10
-84.82
 11
-85.008
 20
84.793
 21
84.85
  0
LINE
  8
0
 10
-85.008
 11
-85.181
 20
84.85
 21
84.942
  0
LINE
  8
0
 10
-85.181
 11
-85.332
 20
84.942
 21
85.066
  0
LINE
  8
0
 10
-85.332
 11
-85.456
 20
85.066
 21
85.218
  0
LINE
  8
0
 10
-85.456
 11
-85.549
 20
85.218
 21
85.391
  0
LINE
  8
0
 10
-85.549
 11
-85.606
 20
85.391
 21
85.578
  0
LINE
  8
0
 10
-85.606
 11
-85.625
 20
85.578
 21
85.774
  0
LINE
  8
0
 10
-85.625
 11
-104.375
 20
85.774
 21
85.773
  0
LINE
  8
0
 10
-104.375
 11
-104.394
 20
85.773
 21
85.578
  0
LINE
  8
0
 10
-104.394
 11
-104.451
 20
85.578
 21
85.391
  0
LINE
  8
0
 10
-104.451
 11
-104.544
 20
85.391
 21
85.218
  0
LINE
  8
0
 10
-104.544
 11
-104.668
 20
85.218
 21
85.066
  0
LINE
  8
0
 10
-104.668
 11
-104.819
 20
85.066
 21
84.942
  0
LINE
  8
0
 10
-104.819
 11
-104.992
 20
84.942
 21
84.85
  0
LINE
  8
0
 10
-104.992
 11
-105.18
 20
84.85
 21
84.793
  0
LINE
  8
0
 10
-105.18
 11
-105.375
 20
84.793
 21
84.773
  0
LINE
  8
0
 10
-105.375
 11
-105.57
 20
84.773
 21
84.793
  0
LINE
  8
0
 10
-105.57
 11
-105.758
 20
84.793
 21
84.85
  0
LINE
  8
0
 10
-105.758
 11
-105.931
 20
84.85
 21
84.942
  0
LINE
  8
0
 10
-105.931
 11
-106.082
 20
84.942
 21
85.066
  0
LINE
  8
0
 10
-106.082
 11
-106.206
 20
85.066
 21
85.218
  0
LINE
  8
0
 10
-106.206
 11
-106.299
 20
85.218
 21
85.391
  0
LINE
  8
0
 10
-106.299
 11
-106.356
 20
85.391
 21
85.578
  0
LINE
  8
0
 10
-106.356
 11
-106.375
 20
85.578
 21
85.773
  0
LINE
  8
0
 10
-106.375
 11
-106.356
 20
109.773
 21
109.969
  0
LINE
  8
0
 10
-106.356
 11
-106.299
 20
109.969
 21
110.156
  0
LINE
  8
0
 10
-106.299
 11
-106.206
 20
110.156
 21
110.329
  0
LINE
  8
0
 10
-106.206
 11
-106.082
 20
110.329
 21
110.481
  0
LINE
  8
0
 10
-106.082
 11
-105.931
 20
110.481
 21
110.605
  0
LINE
  8
0
 10
-105.931
 11
-105.758
 20
110.605
 21
110.697
  0
LINE
  8
0
 10
-105.758
 11
-105.57
 20
110.697
 21
110.754
  0
LINE
  8
0
 10
-105.57
 11
-105.375
 20
110.754
 21
110.773
  0
LINE
  8
0
 10
-105.375
 11
-105.375
 20
110.773
 21
113.226
  0
LINE
  8
0
 10
-105.375
 11
-105.57
 20
113.226
 21
113.246
  0
LINE
  8
0
 10
-105.57
 11
-105.758
 20
113.246
 21
113.303
  0
LINE
  8
0
 10
-105.758
 11
-105.931
 20
113.303
 21
113.395
  0
LINE
  8
0
 10
-105.931
 11
-106.082
 20
113.395
 21
113.519
  0
LINE
  8
0
 10
-106.082
 11
-106.206
 20
113.519
 21
113.671
  0
LINE
  8
0
 10
-106.206
 11
-106.299
 20
113.671
 21
113.844
  0
LINE
  8
0
 10
-106.299
 11
-106.356
 20
113.844
 21
114.031
  0
LINE
  8
0
 10
-106.356
 11
-106.375
 20
114.031
 21
114.226
  0
LINE
  8
0
 10
-106.375
 11
-106.356
 20
114.226
 21
114.422
  0
LINE
  8
0
 10
-106.356
 11
-106.299
 20
114.422
 21
114.609
  0
LINE
  8
0
 10
-106.299
 11
-106.206
 20
114.609
 21
114.782
  0
LINE
  8
0
 10
-106.206
 11
-106.082
 20
114.782
 21
114.934
  0
LINE
  8
0
 10
-106.082
 11
-105.931
 20
114.934
 21
115.058
  0
LINE
  8
0
 10
-105.931
 11
-105.758
 20
115.058
 21
115.15
  0
LINE
  8
0
 10
-105.758
 11
-105.57
 20
115.15
 21
115.207
  0
LINE
  8
0
 10
-105.57
 11
-105.375
 20
115.207
 21
115.226
  0
LINE
  8
0
 10
-105.375
 11
-105.18
 20
115.226
 21
115.207
  0
LINE
  8
0
 10
-105.18
 11
-104.992
 20
115.207
 21
115.15
  0
LINE
  8
0
 10
-104.992
 11
-104.819
 20
115.15
 21
115.058
  0
LINE
  8
0
 10
-104.819
 11
-104.668
 20
115.058
 21
114.934
  0
LINE
  8
0
 10
-104.668
 11
-104.544
 20
114.934
 21
114.782
  0
LINE
  8
0
 10
-104.544
 11
-104.451
 20
114.782
 21
114.609
  0
LINE
  8
0
 10
-104.451
 11
-104.394
 20
114.609
 21
114.422
  0
LINE
  8
0
 10
-104.394
 11
-104.375
 20
114.422
 21
114.226
  0
LINE
  8
0
 10
-104.375
 11
-85.625
 20
114.226
 21
114.226
  0
LINE
  8
0
 10
-85.625
 11
-85.606
 20
114.226
 21
114.422
  0
LINE
  8
0
 10
-85.606
 11
-85.549
 20
114.422
 21
114.609
  0
LINE
  8
0
 10
-85.549
 11
-85.456
 20
114.609
 21
114.782
  0
LINE
  8
0
 10
-85.456
 11
-85.332
 20
114.782
 21
114.934
  0
LINE
  8
0
 10
-85.332
 11
-85.181
 20
114.934
 21
115.058
  0
LINE
  8
0
 10
-85.181
 11
-85.008
 20
115.058
 21
115.15
  0
LINE
  8
0
 10
-85.008
 11
-84.82
 20
115.15
 21
115.207
  0
LINE
  8
0
 10
-84.82
 11
-84.625
 20
115.207
 21
115.226
  0
LINE
  8
0
 10
-84.625
 11
-84.43
 20
115.226
 21
115.207
  0
LINE
  8
0
 10
-84.43
 11
-84.242
 20
115.207
 21
115.15
  0
LINE
  8
0
 10
-84.242
 11
-84.069
 20
115.15
 21
115.058
  0
LINE
  8
0
 10
-84.069
 11
-83.918
 20
115.058
 21
114.934
  0
LINE
  8
0
 10
-83.918
 11
-83.794
 20
114.934
 21
114.782
  0
LINE
  8
0
 10
-83.794
 11
-83.701
 20
114.782
 21
114.609
  0
LINE
  8
0
 10
-83.701
 11
-83.644
 20
114.609
 21
114.422
  0
LINE
  8
0
 10
-83.644
 11
-83.625
 20
114.422
 21
114.226
  0
LINE
  8
0
 10
-83.625
 11
-83.644
 20
114.226
 21
114.031
  0
LINE
  8
0
 10
-83.644
 11
-83.701
 20
114.031
 21
113.844
  0
LINE
  8
0
 10
-83.701
 11
-83.794
 20
113.844
 21
113.671
  0
LINE
  8
0
 10
-83.794
 11
-83.918
 20
113.671
 21
113.519
  0
LINE
  8
0
 10
-83.918
 11
-84.069
 20
113.519
 21
113.395
  0
LINE
  8
0
 10
-84.069
 11
-84.242
 20
113.395
 21
113.303
  0
LINE
  8
0
 10
-84.242
 11
-84.43
 20
113.303
 21
113.246
  0
LINE
  8
0
 10
-84.43
 11
-84.625
 20
113.246
 21
113.226
  0
LINE
  8
0
 10
-84.625
 11
-84.625
 20
113.226
 21
110.773
  0
LINE
  8
0
 10
-84.625
 11
-84.43
 20
110.773
 21
110.754
  0
LINE
  8
0
 10
-84.43
 11
-84.242
 20
110.754
 21
110.697
  0
LINE
  8
0
 10
-84.242
 11
-84.069
 20
110.697
 21
110.605
  0
LINE
  8
0
 10
-84.069
 11
-83.918
 20
110.605
 21
110.481
  0
LINE
  8
0
 10
-83.918
 11
-83.794
 20
110.481
 21
110.329
  0
LINE
  8
0
 10
-83.794
 11
-83.701
 20
110.329
 21
110.156
  0
LINE
  8
0
 10
-83.701
 11
-83.644
 20
110.156
 21
109.969
  0
LINE
  8
0
 10
-83.644
 11
-83.625
 20
109.969
 21
109.773
  0
LINE
  8
0
 10
-83.625
 11
-83.644
 20
109.773
 21
109.578
  0
LINE
  8
0
 10
-83.644
 11
-83.701
 20
109.578
 21
109.391
  0
LINE
  8
0
 10
-83.701
 11
-83.794
 20
109.391
 21
109.218
  0
LINE
  8
0
 10
-83.794
 11
-83.918
 20
109.218
 21
109.066
  0
LINE
  8
0
 10
-83.918
 11
-84.069
 20
109.066
 21
108.942
  0
LINE
  8
0
 10
-84.069
 11
-84.242
 20
108.942
 21
108.85
  0
LINE
  8
0
 10
-84.242
 11
-84.43
 20
108.85
 21
108.793
  0
LINE
  8
0
 10
-84.43
 11
-84.625
 20
108.793
 21
108.773
  0
LINE
  8
0
 10
-84.625
 11
-84.82
 20
108.773
 21
108.793
  0
LINE
  8
0
 10
-84.82
 11
-85.008
 20
108.793
 21
108.85
  0
LINE
  8
0
 10
-85.008
 11
-85.181
 20
108.85
 21
108.942
  0
LINE
  8
0
 10
-85.181
 11
-85.332
 20
108.942
 21
109.066
  0
LINE
  8
0
 10
-85.332
 11
-85.456
 20
109.066
 21
109.218
  0
LINE
  8
0
 10
-85.456
 11
-85.549
 20
109.218
 21
109.391
  0
LINE
  8
0
 10
-85.549
 11
-85.606
 20
109.391
 21
109.578
  0
LINE
  8
0
 10
-85.606
 11
-85.625
 20
109.578
 21
109.774
  0
LINE
  8
0
 10
-85.625
 11
-104.375
 20
109.774
 21
109.773
  0
LINE
  8
0
 10
-104.375
 11
-104.394
 20
109.773
 21
109.578
  0
LINE
  8
0
 10
-104.394
 11
-104.451
 20
109.578
 21
109.391
  0
LINE
  8
0
 10
-104.451
 11
-104.544
 20
109.391
 21
109.218
  0
LINE
  8
0
 10
-104.544
 11
-104.668
 20
109.218
 21
109.066
  0
LINE
  8
0
 10
-104.668
 11
-104.819
 20
109.066
 21
108.942
  0
LINE
  8
0
 10
-104.819
 11
-104.992
 20
108.942
 21
108.85
  0
LINE
  8
0
 10
-104.992
 11
-105.18
 20
108.85
 21
108.793
  0
LINE
  8
0
 10
-105.18
 11
-105.375
 20
108.793
 21
108.773
  0
LINE
  8
0
 10
-105.375
 11
-105.57
 20
108.773
 21
108.793
  0
LINE
  8
0
 10
-105.57
 11
-105.758
 20
108.793
 21
108.85
  0
LINE
  8
0
 10
-105.758
 11
-105.931
 20
108.85
 21
108.942
  0
LINE
  8
0
 10
-105.931
 11
-106.082
 20
108.942
 21
109.066
  0
LINE
  8
0
 10
-106.082
 11
-106.206
 20
109.066
 21
109.218
  0
LINE
  8
0
 10
-106.206
 11
-106.299
 20
109.218
 21
109.391
  0
LINE
  8
0
 10
-106.299
 11
-106.356
 20
109.391
 21
109.578
  0
LINE
  8
0
 10
-106.356
 11
-106.375
 20
109.578
 21
109.773
  0
LINE
  8
0
 10
-106.375
 11
-106.356
 20
160.773
 21
160.969
  0
LINE
  8
0
 10
-106.356
 11
-106.299
 20
160.969
 21
161.156
  0
LINE
  8
0
 10
-106.299
 11
-106.206
 20
161.156
 21
161.329
  0
LINE
  8
0
 10
-106.206
 11
-106.082
 20
161.329
 21
161.481
  0
LINE
  8
0
 10
-106.082
 11
-105.931
 20
161.481
 21
161.605
  0
LINE
  8
0
 10
-105.931
 11
-105.758
 20
161.605
 21
161.697
  0
LINE
  8
0
 10
-105.758
 11
-105.57
 20
161.697
 21
161.754
  0
LINE
  8
0
 10
-105.57
 11
-105.375
 20
161.754
 21
161.773
  0
LINE
  8
0
 10
-105.375
 11
-105.375
 20
161.773
 21
164.226
  0
LINE
  8
0
 10
-105.375
 11
-105.57
 20
164.226
 21
164.246
  0
LINE
  8
0
 10
-105.57
 11
-105.758
 20
164.246
 21
164.303
  0
LINE
  8
0
 10
-105.758
 11
-105.931
 20
164.303
 21
164.395
  0
LINE
  8
0
 10
-105.931
 11
-106.082
 20
164.395
 21
164.519
  0
LINE
  8
0
 10
-106.082
 11
-106.206
 20
164.519
 21
164.671
  0
LINE
  8
0
 10
-106.206
 11
-106.299
 20
164.671
 21
164.844
  0
LINE
  8
0
 10
-106.299
 11
-106.356
 20
164.844
 21
165.031
  0
LINE
  8
0
 10
-106.356
 11
-106.375
 20
165.031
 21
165.226
  0
LINE
  8
0
 10
-106.375
 11
-106.356
 20
165.226
 21
165.422
  0
LINE
  8
0
 10
-106.356
 11
-106.299
 20
165.422
 21
165.609
  0
LINE
  8
0
 10
-106.299
 11
-106.206
 20
165.609
 21
165.782
  0
LINE
  8
0
 10
-106.206
 11
-106.082
 20
165.782
 21
165.934
  0
LINE
  8
0
 10
-106.082
 11
-105.931
 20
165.934
 21
166.058
  0
LINE
  8
0
 10
-105.931
 11
-105.758
 20
166.058
 21
166.15
  0
LINE
  8
0
 10
-105.758
 11
-105.57
 20
166.15
 21
166.207
  0
LINE
  8
0
 10
-105.57
 11
-105.375
 20
166.207
 21
166.226
  0
LINE
  8
0
 10
-105.375
 11
-105.18
 20
166.226
 21
166.207
  0
LINE
  8
0
 10
-105.18
 11
-104.992
 20
166.207
 21
166.15
  0
LINE
  8
0
 10
-104.992
 11
-104.819
 20
166.15
 21
166.058
  0
LINE
  8
0
 10
-104.819
 11
-104.668
 20
166.058
 21
165.934
  0
LINE
  8
0
 10
-104.668
 11
-104.544
 20
165.934
 21
165.782
  0
LINE
  8
0
 10
-104.544
 11
-104.451
 20
165.782
 21
165.609
  0
LINE
  8
0
 10
-104.451
 11
-104.394
 20
165.609
 21
165.422
  0
LINE
  8
0
 10
-104.394
 11
-104.375
 20
165.422
 21
165.226
  0
LINE
  8
0
 10
-104.375
 11
-85.625
 20
165.226
 21
165.226
  0
LINE
  8
0
 10
-85.625
 11
-85.606
 20
165.226
 21
165.422
  0
LINE
  8
0
 10
-85.606
 11
-85.549
 20
165.422
 21
165.609
  0
LINE
  8
0
 10
-85.549
 11
-85.456
 20
165.609
 21
165.782
  0
LINE
  8
0
 10
-85.456
 11
-85.332
 20
165.782
 21
165.934
  0
LINE
  8
0
 10
-85.332
 11
-85.181
 20
165.934
 21
166.058
  0
LINE
  8
0
 10
-85.181
 11
-85.008
 20
166.058
 21
166.15
  0
LINE
  8
0
 10
-85.008
 11
-84.82
 20
166.15
 21
166.207
  0
LINE
  8
0
 10
-84.82
 11
-84.625
 20
166.207
 21
166.226
  0
LINE
  8
0
 10
-84.625
 11
-84.43
 20
166.226
 21
166.207
  0
LINE
  8
0
 10
-84.43
 11
-84.242
 20
166.207
 21
166.15
  0
LINE
  8
0
 10
-84.242
 11
-84.069
 20
166.15
 21
166.058
  0
LINE
  8
0
 10
-84.069
 11
-83.918
 20
166.058
 21
165.934
  0
LINE
  8
0
 10
-83.918
 11
-83.794
 20
165.934
 21
165.782
  0
LINE
  8
0
 10
-83.794
 11
-83.701
 20
165.782
 21
165.609
  0
LINE
  8
0
 10
-83.701
 11
-83.644
 20
165.609
 21
165.422
  0
LINE
  8
0
 10
-83.644
 11
-83.625
 20
165.422
 21
165.226
  0
LINE
  8
0
 10
-83.625
 11
-83.644
 20
165.226
 21
165.031
  0
LINE
  8
0
 10
-83.644
 11
-83.701
 20
165.031
 21
164.844
  0
LINE
  8
0
 10
-83.701
 11
-83.794
 20
164.844
 21
164.671
  0
LINE
  8
0
 10
-83.794
 11
-83.918
 20
164.671
 21
164.519
  0
LINE
  8
0
 10
-83.918
 11
-84.069
 20
164.519
 21
164.395
  0
LINE
  8
0
 10
-84.069
 11
-84.242
 20
164.395
 21
164.303
  0
LINE
  8
0
 10
-84.242
 11
-84.43
 20
164.303
 21
164.246
  0
LINE
  8
0
 10
-84.43
 11
-84.625
 20
164.246
 21
164.226
  0
LINE
  8
0
 10
-84.625
 11
-84.625
 20
164.226
 21
161.773
  0
LINE
  8
0
 10
-84.625
 11
-84.43
 20
161.773
 21
161.754
  0
LINE
  8
0
 10
-84.43
 11
-84.242
 20
161.754
 21
161.697
  0
LINE
  8
0
 10
-84.242
 11
-84.069
 20
161.697
 21
161.605
  0
LINE
  8
0
 10
-84.069
 11
-83.918
 20
161.605
 21
161.481
  0
LINE
  8
0
 10
-83.918
 11
-83.794
 20
161.481
 21
161.329
  0
LINE
  8
0
 10
-83.794
 11
-83.701
 20
161.329
 21
161.156
  0
LINE
  8
0
 10
-83.701
 11
-83.644
 20
161.156
 21
160.969
  0
LINE
  8
0
 10
-83.644
 11
-83.625
 20
160.969
 21
160.773
  0
LINE
  8
0
 10
-83.625
 11
-83.644
 20
160.773
 21
160.578
  0
LINE
  8
0
 10
-83.644
 11
-83.701
 20
160.578
 21
160.391
  0
LINE
  8
0
 10
-83.701
 11
-83.794
 20
160.391
 21
160.218
  0
LINE
  8
0
 10
-83.794
 11
-83.918
 20
160.218
 21
160.066
  0
LINE
  8
0
 10
-83.918
 11
-84.069
 20
160.066
 21
159.942
  0
LINE
  8
0
 10
-84.069
 11
-84.242
 20
159.942
 21
159.85
  0
LINE
  8
0
 10
-84.242
 11
-84.43
 20
159.85
 21
159.793
  0
LINE
  8
0
 10
-84.43
 11
-84.625
 20
159.793
 21
159.773
  0
LINE
  8
0
 10
-84.625
 11
-84.82
 20
159.773
 21
159.793
  0
LINE
  8
0
 10
-84.82
 11
-85.008
 20
159.793
 21
159.85
  0
LINE
  8
0
 10
-85.008
 11
-85.181
 20
159.85
 21
159.942
  0
LINE
  8
0
 10
-85.181
 11
-85.332
 20
159.942
 21
160.066
  0
LINE
  8
0
 10
-85.332
 11
-85.456
 20
160.066
 21
160.218
  0
LINE
  8
0
 10
-85.456
 11
-85.549
 20
160.218
 21
160.391
  0
LINE
  8
0
 10
-85.549
 11
-85.606
 20
160.391
 21
160.578
  0
LINE
  8
0
 10
-85.606
 11
-85.625
 20
160.578
 21
160.774
  0
LINE
  8
0
 10
-85.625
 11
-104.375
 20
160.774
 21
160.773
  0
LINE
  8
0
 10
-104.375
 11
-104.394
 20
160.773
 21
160.578
  0
LINE
  8
0
 10
-104.394
 11
-104.451
 20
160.578
 21
160.391
  0
LINE
  8
0
 10
-104.451
 11
-104.544
 20
160.391
 21
160.218
  0
LINE
  8
0
 10
-104.544
 11
-104.668
 20
160.218
 21
160.066
  0
LINE
  8
0
 10
-104.668
 11
-104.819
 20
160.066
 21
159.942
  0
LINE
  8
0
 10
-104.819
 11
-104.992
 20
159.942
 21
159.85
  0
LINE
  8
0
 10
-104.992
 11
-105.18
 20
159.85
 21
159.793
  0
LINE
  8
0
 10
-105.18
 11
-105.375
 20
159.793
 21
159.773
  0
LINE
  8
0
 10
-105.375
 11
-105.57
 20
159.773
 21
159.793
  0
LINE
  8
0
 10
-105.57
 11
-105.758
 20
159.793
 21
159.85
  0
LINE
  8
0
 10
-105.758
 11
-105.931
 20
159.85
 21
159.942
  0
LINE
  8
0
 10
-105.931
 11
-106.082
 20
159.942
 21
160.066
  0
LINE
  8
0
 10
-106.082
 11
-106.206
 20
160.066
 21
160.218
  0
LINE
  8
0
 10
-106.206
 11
-106.299
 20
160.218
 21
160.391
  0
LINE
  8
0
 10
-106.299
 11
-106.356
 20
160.391
 21
160.578
  0
LINE
  8
0
 10
-106.356
 11
-106.375
 20
160.578
 21
160.773
  0
LINE
  8
0
 10
-106.375
 11
-106.356
 20
184.774
 21
184.969
  0
LINE
  8
0
 10
-106.356
 11
-106.299
 20
184.969
 21
185.156
  0
LINE
  8
0
 10
-106.299
 11
-106.206
 20
185.156
 21
185.329
  0
LINE
  8
0
 10
-106.206
 11
-106.082
 20
185.329
 21
185.481
  0
LINE
  8
0
 10
-106.082
 11
-105.931
 20
185.481
 21
185.605
  0
LINE
  8
0
 10
-105.931
 11
-105.758
 20
185.605
 21
185.697
  0
LINE
  8
0
 10
-105.758
 11
-105.57
 20
185.697
 21
185.754
  0
LINE
  8
0
 10
-105.57
 11
-105.375
 20
185.754
 21
185.774
  0
LINE
  8
0
 10
-105.375
 11
-105.375
 20
185.774
 21
188.227
  0
LINE
  8
0
 10
-105.375
 11
-105.57
 20
188.227
 21
188.246
  0
LINE
  8
0
 10
-105.57
 11
-105.758
 20
188.246
 21
188.303
  0
LINE
  8
0
 10
-105.758
 11
-105.931
 20
188.303
 21
188.395
  0
LINE
  8
0
 10
-105.931
 11
-106.082
 20
188.395
 21
188.519
  0
LINE
  8
0
 10
-106.082
 11
-106.206
 20
188.519
 21
188.671
  0
LINE
  8
0
 10
-106.206
 11
-106.299
 20
188.671
 21
188.844
  0
LINE
  8
0
 10
-106.299
 11
-106.356
 20
188.844
 21
189.031
  0
LINE
  8
0
 10
-106.356
 11
-106.375
 20
189.031
 21
189.227
  0
LINE
  8
0
 10
-106.375
 11
-106.356
 20
189.227
 21
189.422
  0
LINE
  8
0
 10
-106.356
 11
-106.299
 20
189.422
 21
189.609
  0
LINE
  8
0
 10
-106.299
 11
-106.206
 20
189.609
 21
189.782
  0
LINE
  8
0
 10
-106.206
 11
-106.082
 20
189.782
 21
189.934
  0
LINE
  8
0
 10
-106.082
 11
-105.931
 20
189.934
 21
190.058
  0
LINE
  8
0
 10
-105.931
 11
-105.758
 20
190.058
 21
190.15
  0
LINE
  8
0
 10
-105.758
 11
-105.57
 20
190.15
 21
190.207
  0
LINE
  8
0
 10
-105.57
 11
-105.375
 20
190.207
 21
190.227
  0
LINE
  8
0
 10
-105.375
 11
-105.18
 20
190.227
 21
190.207
  0
LINE
  8
0
 10
-105.18
 11
-104.992
 20
190.207
 21
190.15
  0
LINE
  8
0
 10
-104.992
 11
-104.819
 20
190.15
 21
190.058
  0
LINE
  8
0
 10
-104.819
 11
-104.668
 20
190.058
 21
189.934
  0
LINE
  8
0
 10
-104.668
 11
-104.544
 20
189.934
 21
189.782
  0
LINE
  8
0
 10
-104.544
 11
-104.451
 20
189.782
 21
189.609
  0
LINE
  8
0
 10
-104.451
 11
-104.394
 20
189.609
 21
189.422
  0
LINE
  8
0
 10
-104.394
 11
-104.375
 20
189.422
 21
189.226
  0
LINE
  8
0
 10
-104.375
 11
-85.625
 20
189.226
 21
189.227
  0
LINE
  8
0
 10
-85.625
 11
-85.606
 20
189.227
 21
189.422
  0
LINE
  8
0
 10
-85.606
 11
-85.549
 20
189.422
 21
189.609
  0
LINE
  8
0
 10
-85.549
 11
-85.456
 20
189.609
 21
189.782
  0
LINE
  8
0
 10
-85.456
 11
-85.332
 20
189.782
 21
189.934
  0
LINE
  8
0
 10
-85.332
 11
-85.181
 20
189.934
 21
190.058
  0
LINE
  8
0
 10
-85.181
 11
-85.008
 20
190.058
 21
190.15
  0
LINE
  8
0
 10
-85.008
 11
-84.82
 20
190.15
 21
190.207
  0
LINE
  8
0
 10
-84.82
 11
-84.625
 20
190.207
 21
190.227
  0
LINE
  8
0
 10
-84.625
 11
-84.43
 20
190.227
 21
190.207
  0
LINE
  8
0
 10
-84.43
 11
-84.242
 20
190.207
 21
190.15
  0
LINE
  8
0
 10
-84.242
 11
-84.069
 20
190.15
 21
190.058
  0
LINE
  8
0
 10
-84.069
 11
-83.918
 20
190.058
 21
189.934
  0
LINE
  8
0
 10
-83.918
 11
-83.794
 20
189.934
 21
189.782
  0
LINE
  8
0
 10
-83.794
 11
-83.701
 20
189.782
 21
189.609
  0
LINE
  8
0
 10
-83.701
 11
-83.644
 20
189.609
 21
189.422
  0
LINE
  8
0
 10
-83.644
 11
-83.625
 20
189.422
 21
189.227
  0
LINE
  8
0
 10
-83.625
 11
-83.644
 20
189.227
 21
189.031
  0
LINE
  8
0
 10
-83.644
 11
-83.701
 20
189.031
 21
188.844
  0
LINE
  8
0
 10
-83.701
 11
-83.794
 20
188.844
 21
188.671
  0
LINE
  8
0
 10
-83.794
 11
-83.918
 20
188.671
 21
188.519
  0
LINE
  8
0
 10
-83.918
 11
-84.069
 20
188.519
 21
188.395
  0
LINE
  8
0
 10
-84.069
 11
-84.242
 20
188.395
 21
188.303
  0
LINE
  8
0
 10
-84.242
 11
-84.43
 20
188.303
 21
188.246
  0
LINE
  8
0
 10
-84.43
 11
-84.625
 20
188.246
 21
188.227
  0
LINE
  8
0
 10
-84.625
 11
-84.625
 20
188.227
 21
185.774
  0
LINE
  8
0
 10
-84.625
 11
-84.43
 20
185.774
 21
185.754
  0
LINE
  8
0
 10
-84.43
 11
-84.242
 20
185.754
 21
185.697
  0
LINE
  8
0
 10
-84.242
 11
-84.069
 20
185.697
 21
185.605
  0
LINE
  8
0
 10
-84.069
 11
-83.918
 20
185.605
 21
185.481
  0
LINE
  8
0
 10
-83.918
 11
-83.794
 20
185.481
 21
185.329
  0
LINE
  8
0
 10
-83.794
 11
-83.701
 20
185.329
 21
185.156
  0
LINE
  8
0
 10
-83.701
 11
-83.644
 20
185.156
 21
184.969
  0
LINE
  8
0
 10
-83.644
 11
-83.625
 20
184.969
 21
184.774
  0
LINE
  8
0
 10
-83.625
 11
-83.644
 20
184.774
 21
184.578
  0
LINE
  8
0
 10
-83.644
 11
-83.701
 20
184.578
 21
184.391
  0
LINE
  8
0
 10
-83.701
 11
-83.794
 20
184.391
 21
184.218
  0
LINE
  8
0
 10
-83.794
 11
-83.918
 20
184.218
 21
184.066
  0
LINE
  8
0
 10
-83.918
 11
-84.069
 20
184.066
 21
183.942
  0
LINE
  8
0
 10
-84.069
 11
-84.242
 20
183.942
 21
183.85
  0
LINE
  8
0
 10
-84.242
 11
-84.43
 20
183.85
 21
183.793
  0
LINE
  8
0
 10
-84.43
 11
-84.625
 20
183.793
 21
183.774
  0
LINE
  8
0
 10
-84.625
 11
-84.82
 20
183.774
 21
183.793
  0
LINE
  8
0
 10
-84.82
 11
-85.008
 20
183.793
 21
183.85
  0
LINE
  8
0
 10
-85.008
 11
-85.181
 20
183.85
 21
183.942
  0
LINE
  8
0
 10
-85.181
 11
-85.332
 20
183.942
 21
184.066
  0
LINE
  8
0
 10
-85.332
 11
-85.456
 20
184.066
 21
184.218
  0
LINE
  8
0
 10
-85.456
 11
-85.549
 20
184.218
 21
184.391
  0
LINE
  8
0
 10
-85.549
 11
-85.606
 20
184.391
 21
184.578
  0
LINE
  8
0
 10
-85.606
 11
-85.625
 20
184.578
 21
184.774
  0
LINE
  8
0
 10
-85.625
 11
-104.375
 20
184.774
 21
184.774
  0
LINE
  8
0
 10
-104.375
 11
-104.394
 20
184.774
 21
184.578
  0
LINE
  8
0
 10
-104.394
 11
-104.451
 20
184.578
 21
184.391
  0
LINE
  8
0
 10
-104.451
 11
-104.544
 20
184.391
 21
184.218
  0
LINE
  8
0
 10
-104.544
 11
-104.668
 20
184.218
 21
184.066
  0
LINE
  8
0
 10
-104.668
 11
-104.819
 20
184.066
 21
183.942
  0
LINE
  8
0
 10
-104.819
 11
-104.992
 20
183.942
 21
183.85
  0
LINE
  8
0
 10
-104.992
 11
-105.18
 20
183.85
 21
183.793
  0
LINE
  8
0
 10
-105.18
 11
-105.375
 20
183.793
 21
183.774
  0
LINE
  8
0
 10
-105.375
 11
-105.57
 20
183.774
 21
183.793
  0
LINE
  8
0
 10
-105.57
 11
-105.758
 20
183.793
 21
183.85
  0
LINE
  8
0
 10
-105.758
 11
-105.931
 20
183.85
 21
183.942
  0
LINE
  8
0
 10
-105.931
 11
-106.082
 20
183.942
 21
184.066
  0
LINE
  8
0
 10
-106.082
 11
-106.206
 20
184.066
 21
184.218
  0
LINE
  8
0
 10
-106.206
 11
-106.299
 20
184.218
 21
184.391
  0
LINE
  8
0
 10
-106.299
 11
-106.356
 20
184.391
 21
184.578
  0
LINE
  8
0
 10
-106.356
 11
-106.375
 20
184.578
 21
184.774
  0
ENDSEC
  0
SECTION
  2
OBJECTS
  0
DICTIONARY
  0
ENDSEC
  0
EOF
