  0
SECTION
  2
HEADER
  9
$ACADVER
  1
AC1014
  9
$ACADMAINTVER
 70
     9
  9
$DWGCODEPAGE
  3
ANSI_1252
  9
$INSBASE
 10
0.0
 20
0.0
 30
0.0
  9
$EXTMIN
 10
1.000000000000000E+20
 20
1.000000000000000E+20
 30
1.000000000000000E+20
  9
$EXTMAX
 10
-1.000000000000000E+20
 20
-1.000000000000000E+20
 30
-1.000000000000000E+20
  9
$LIMMIN
 10
0.0
 20
0.0
  9
$LIMMAX
 10
420.0
 20
297.0
  9
$ORTHOMODE
 70
     0
  9
$REGENMODE
 70
     1
  9
$FILLMODE
 70
     1
  9
$QTEXTMODE
 70
     0
  9
$MIRRTEXT
 70
     1
  9
$DRAGMODE
 70
     2
  9
$LTSCALE
 40
1.0
  9
$OSMODE
 70
    37
  9
$ATTMODE
 70
     1
  9
$TEXTSIZE
 40
2.5
  9
$TRACEWID
 40
1.0
  9
$TEXTSTYLE
  7
STANDARD
  9
$CLAYER
  8
0
  9
$CELTYPE
  6
BYLAYER
  9
$CECOLOR
 62
   256
  9
$CELTSCALE
 40
1.0
  9
$DELOBJ
 70
     1
  9
$DISPSILH
 70
     0
  9
$DIMSCALE
 40
1.0
  9
$DIMASZ
 40
2.286
  9
$DIMEXO
 40
0.625
  9
$DIMDLI
 40
3.75
  9
$DIMRND
 40
0.0
  9
$DIMDLE
 40
0.0
  9
$DIMEXE
 40
1.25
  9
$DIMTP
 40
0.0
  9
$DIMTM
 40
0.0
  9
$DIMTXT
 40
1.336918010447422
  9
$DIMCEN
 40
2.5
  9
$DIMTSZ
 40
0.0
  9
$DIMTOL
 70
     0
  9
$DIMLIM
 70
     0
  9
$DIMTIH
 70
     0
  9
$DIMTOH
 70
     0
  9
$DIMSE1
 70
     0
  9
$DIMSE2
 70
     0
  9
$DIMTAD
 70
     1
  9
$DIMZIN
 70
     8
  9
$DIMBLK
  1

  9
$DIMASO
 70
     1
  9
$DIMSHO
 70
     1
  9
$DIMPOST
  1

  9
$DIMAPOST
  1

  9
$DIMALT
 70
     0
  9
$DIMALTD
 70
     3
  9
$DIMALTF
 40
0.03937007874016
  9
$DIMLFAC
 40
1.0
  9
$DIMTOFL
 70
     1
  9
$DIMTVP
 40
0.0
  9
$DIMTIX
 70
     0
  9
$DIMSOXD
 70
     0
  9
$DIMSAH
 70
     0
  9
$DIMBLK1
  1

  9
$DIMBLK2
  1

  9
$DIMSTYLE
  2
ISO-25
  9
$DIMCLRD
 70
     0
  9
$DIMCLRE
 70
     0
  9
$DIMCLRT
 70
     0
  9
$DIMTFAC
 40
1.0
  9
$DIMGAP
 40
0.625
  9
$DIMJUST
 70
     0
  9
$DIMSD1
 70
     0
  9
$DIMSD2
 70
     0
  9
$DIMTOLJ
 70
     0
  9
$DIMTZIN
 70
     8
  9
$DIMALTZ
 70
     0
  9
$DIMALTTZ
 70
     0
  9
$DIMFIT
 70
     3
  9
$DIMUPT
 70
     0
  9
$DIMUNIT
 70
     2
  9
$DIMDEC
 70
     2
  9
$DIMTDEC
 70
     2
  9
$DIMALTU
 70
     2
  9
$DIMALTTD
 70
     3
  9
$DIMTXSTY
  7
STANDARD
  9
$DIMAUNIT
 70
     0
  9
$LUNITS
 70
     2
  9
$LUPREC
 70
     4
  9
$SKETCHINC
 40
1.0
  9
$FILLETRAD
 40
10.0
  9
$AUNITS
 70
     0
  9
$AUPREC
 70
     0
  9
$MENU
  1
.
  9
$ELEVATION
 40
0.0
  9
$PELEVATION
 40
0.0
  9
$THICKNESS
 40
0.0
  9
$LIMCHECK
 70
     0
  9
$CHAMFERA
 40
10.0
  9
$CHAMFERB
 40
10.0
  9
$CHAMFERC
 40
20.0
  9
$CHAMFERD
 40
0.0
  9
$SKPOLY
 70
     0
  9
$TDCREATE
 40
2456152.787201551
  9
$TDUPDATE
 40
2456152.787201817
  9
$TDINDWG
 40
0.0000000116
  9
$TDUSRTIMER
 40
0.0000000116
  9
$USRTIMER
 70
     1
  9
$ANGBASE
 50
0.0
  9
$ANGDIR
 70
     0
  9
$PDMODE
 70
     0
  9
$PDSIZE
 40
0.0
  9
$PLINEWID
 40
0.0
  9
$COORDS
 70
     1
  9
$SPLFRAME
 70
     0
  9
$SPLINETYPE
 70
     6
  9
$SPLINESEGS
 70
     8
  9
$ATTDIA
 70
     0
  9
$ATTREQ
 70
     1
  9
$HANDLING
 70
     1
  9
$HANDSEED
  5
160
  9
$SURFTAB1
 70
     6
  9
$SURFTAB2
 70
     6
  9
$SURFTYPE
 70
     6
  9
$SURFU
 70
     6
  9
$SURFV
 70
     6
  9
$UCSNAME
  2

  9
$UCSORG
 10
0.0
 20
0.0
 30
0.0
  9
$UCSXDIR
 10
1.0
 20
0.0
 30
0.0
  9
$UCSYDIR
 10
0.0
 20
1.0
 30
0.0
  9
$PUCSNAME
  2

  9
$PUCSORG
 10
0.0
 20
0.0
 30
0.0
  9
$PUCSXDIR
 10
1.0
 20
0.0
 30
0.0
  9
$PUCSYDIR
 10
0.0
 20
1.0
 30
0.0
  9
$USERI1
 70
     0
  9
$USERI2
 70
     0
  9
$USERI3
 70
     0
  9
$USERI4
 70
     0
  9
$USERI5
 70
     0
  9
$USERR1
 40
0.0
  9
$USERR2
 40
0.0
  9
$USERR3
 40
0.0
  9
$USERR4
 40
0.0
  9
$USERR5
 40
0.0
  9
$WORLDVIEW
 70
     1
  9
$SHADEDGE
 70
     3
  9
$SHADEDIF
 70
    70
  9
$TILEMODE
 70
     1
  9
$MAXACTVP
 70
    64
  9
$PINSBASE
 10
0.0
 20
0.0
 30
0.0
  9
$PLIMCHECK
 70
     0
  9
$PEXTMIN
 10
1.000000000000000E+20
 20
1.000000000000000E+20
 30
1.000000000000000E+20
  9
$PEXTMAX
 10
-1.000000000000000E+20
 20
-1.000000000000000E+20
 30
-1.000000000000000E+20
  9
$PLIMMIN
 10
0.0
 20
0.0
  9
$PLIMMAX
 10
420.0
 20
297.0
  9
$UNITMODE
 70
     0
  9
$VISRETAIN
 70
     1
  9
$PLINEGEN
 70
     0
  9
$PSLTSCALE
 70
     1
  9
$TREEDEPTH
 70
  3020
  9
$PICKSTYLE
 70
     1
  9
$CMLSTYLE
  2
STANDARD
  9
$CMLJUST
 70
     0
  9
$CMLSCALE
 40
20.0
  9
$PROXYGRAPHICS
 70
     1
  9
$MEASUREMENT
 70
     1
  0
ENDSEC
  0
SECTION
  2
CLASSES
  0
CLASS
  1
ACDBDICTIONARYWDFLT
  2
AcDbDictionaryWithDefault
  3
ObjectDBX Classes
 90
        0
280
     0
281
     0
  0
CLASS
  1
VISUALSTYLE
  2
AcDbVisualStyle
  3
ObjectDBX Classes
 90
     4095
280
     0
281
     0
  0
CLASS
  1
MATERIAL
  2
AcDbMaterial
  3
ObjectDBX Classes
 90
     1153
280
     0
281
     0
  0
CLASS
  1
DICTIONARYVAR
  2
AcDbDictionaryVar
  3
ObjectDBX Classes
 90
        0
280
     0
281
     0
  0
CLASS
  1
XRECORD
  2
AcDbXrecord
  3
AutoCAD 2000
 90
        0
280
     0
281
     0
  0
CLASS
  1
LWPOLYLINE
  2
AcDbPolyline
  3
AutoCAD 2000
 90
        0
280
     0
281
     1
  0
CLASS
  1
HATCH
  2
AcDbHatch
  3
AutoCAD 2000
 90
        0
280
     0
281
     1
  0
CLASS
  1
ACDBPLACEHOLDER
  2
AcDbPlaceHolder
  3
ObjectDBX Classes
 90
        0
280
     0
281
     0
  0
CLASS
  1
LAYOUT
  2
AcDbLayout
  3
ObjectDBX Classes
 90
        0
280
     0
281
     0
  0
ENDSEC
  0
SECTION
  2
TABLES
  0
TABLE
  2
VPORT
  5
8
330
0
100
AcDbSymbolTable
 70
     1
  0
VPORT
  5
29
330
8
100
AcDbSymbolTableRecord
100
AcDbViewportTableRecord
  2
*ACTIVE
 70
     0
 10
0.0
 20
0.0
 11
1.0
 21
1.0
 12
344.1869158878504
 22
148.5
 13
0.0
 23
0.0
 14
10.0
 24
10.0
 15
10.0
 25
10.0
 16
0.0
 26
0.0
 36
1.0
 17
0.0
 27
0.0
 37
0.0
 40
297.0
 41
1.972972972850329
 42
50.0
 43
0.0
 44
0.0
 50
0.0
 51
0.0
 71
     0
 72
   100
 73
     1
 74
     3
 75
     0
 76
     0
 77
     0
 78
     0
  0
ENDTAB
  0
TABLE
  2
LTYPE
  5
5
330
0
100
AcDbSymbolTable
 70
     1
  0
LTYPE
  5
14
330
5
100
AcDbSymbolTableRecord
100
AcDbLinetypeTableRecord
  2
BYBLOCK
 70
     0
  3

 72
    65
 73
     0
 40
0.0
  0
LTYPE
  5
15
330
5
100
AcDbSymbolTableRecord
100
AcDbLinetypeTableRecord
  2
BYLAYER
 70
     0
  3

 72
    65
 73
     0
 40
0.0
  0
LTYPE
  5
16
330
5
100
AcDbSymbolTableRecord
100
AcDbLinetypeTableRecord
  2
CONTINUOUS
 70
     0
  3
Solid line
 72
    65
 73
     0
 40
0.0
  0
ENDTAB
  0
TABLE
  2
LAYER
  5
2
330
0
100
AcDbSymbolTable
 70
     2
  0
LAYER
  5
10
330
2
100
AcDbSymbolTableRecord
100
AcDbLayerTableRecord
  2
0
 70
     0
 62
     7
  6
CONTINUOUS
  0
LAYER
  5
3F
330
2
100
AcDbSymbolTableRecord
100
AcDbLayerTableRecord
  2
CONTINUOUS
 70
     0
 62
     7
  6
CONTINUOUS
  0
ENDTAB
  0
TABLE
  2
STYLE
  5
3
330
0
100
AcDbSymbolTable
 70
     1
  0
STYLE
  5
11
330
3
100
AcDbSymbolTableRecord
100
AcDbTextStyleTableRecord
  2
STANDARD
 70
     0
 40
0.0
 41
1.0
 50
0.0
 71
     0
 42
2.5
  3
txt
  4

  0
ENDTAB
  0
TABLE
  2
VIEW
  5
6
330
0
100
AcDbSymbolTable
 70
     0
  0
ENDTAB
  0
TABLE
  2
UCS
  5
7
330
0
100
AcDbSymbolTable
 70
     0
  0
ENDTAB
  0
TABLE
  2
APPID
  5
9
330
0
100
AcDbSymbolTable
 70
     1
  0
APPID
  5
12
330
9
100
AcDbSymbolTableRecord
100
AcDbRegAppTableRecord
  2
ACAD
 70
     0
  0
ENDTAB
  0
TABLE
  2
DIMSTYLE
  5
A
330
0
100
AcDbSymbolTable
 70
     1
  0
DIMSTYLE
105
27
330
A
100
AcDbSymbolTableRecord
100
AcDbDimStyleTableRecord
  2
ISO-25
 70
     0
  3

  4

  5

  6

  7

 40
1.0
 41
2.5
 42
0.625
 43
3.75
 44
1.25
 45
0.0
 46
0.0
 47
0.0
 48
0.0
140
2.5
141
2.5
142
0.0
143
0.03937007874016
144
1.0
145
0.0
146
1.0
147
0.625
 71
     0
 72
     0
 73
     0
 74
     0
 75
     0
 76
     0
 77
     1
 78
     8
170
     0
171
     3
172
     1
173
     0
174
     0
175
     0
176
     0
177
     0
178
     0
270
     2
271
     2
272
     2
273
     2
274
     3
340
11
275
     0
280
     0
281
     0
282
     0
283
     0
284
     8
285
     0
286
     0
287
     3
288
     0
  0
ENDTAB
  0
TABLE
  2
BLOCK_RECORD
  5
1
330
0
100
AcDbSymbolTable
 70
     1
  0
BLOCK_RECORD
  5
1F
330
1
100
AcDbSymbolTableRecord
100
AcDbBlockTableRecord
  2
*MODEL_SPACE
  0
BLOCK_RECORD
  5
1B
330
1
100
AcDbSymbolTableRecord
100
AcDbBlockTableRecord
  2
*PAPER_SPACE
  0
ENDTAB
  0
ENDSEC
  0
SECTION
  2
BLOCKS
  0
BLOCK
  5
20
330
1F
100
AcDbEntity
  8
0
100
AcDbBlockBegin
  2
*MODEL_SPACE
 70
     0
 10
0.0
 20
0.0
 30
0.0
  3
*MODEL_SPACE
  1

  0
ENDBLK
  5
21
330
1F
100
AcDbEntity
  8
0
100
AcDbBlockEnd
  0
BLOCK
  5
1C
330
1B
100
AcDbEntity
 67
     1
  8
0
100
AcDbBlockBegin
  2
*PAPER_SPACE
 70
     0
 10
0.0
 20
0.0
 30
0.0
  3
*PAPER_SPACE
  1

  0
ENDBLK
  5
1D
330
1B
100
AcDbEntity
 67
     1
  8
0
100
AcDbBlockEnd
  0
ENDSEC
  0
SECTION
  2
ENTITIES
  0
SPLINE
  5
40
330
1F
100
AcDbEntity
  8
CONTINUOUS
  6
CONTINUOUS
 62
     1
100
AcDbSpline
210
0.0
220
0.0
230
1.0
 70
     8
 71
     3
 72
     8
 73
     4
 74
     0
 42
0.000000001
 43
0.000000:
 12
1.0
 22
0.0
 32
0.0
 13
1.0
 23
0.0
 33
0.0
 40
0.0
 40
0.0
 40
0.0
 40
0.0
 40
1.0
 40
1.0
 40
1.0
 40
1.0
 10
-194.000007
 20
89.999989
 30
0.0
 10
-195.430961
 20
90.00283300000001
 30
0.0
 10
-196.754435
 20
89.24106200000014
 30
0.0
 10
-197.470734
 20
88.00229200000004
 30
0.0
  0
SPLINE
  5
41
330
1F
100
AcDbEntity
  8
CONTINUOUS
  6
CONTINUOUS
 62
     1
100
AcDbSpline
210
0.0
220
0.0
230
1.0
 70
     8
 71
     3
 72
     8
 73
     4
 74
     0
 42
0.000000001
 43
0.000000:
 12
1.0
 22
0.0
 32
0.0
 13
1.0
 23
0.0
 33
0.0
 40
0.0
 40
0.0
 40
0.0
 40
0.0
 40
1.0
 40
1.0
 40
1.0
 40
1.0
 10
-197.470734
 20
88.00229200000003
 30
0.0
 10
-198.187033
 20
86.76352200000005
 30
0.0
 10
-198.187033
 20
85.23647200000006
 30
0.0
 10
-197.470734
 20
83.99770200000003
 30
0.0
  0
SPLINE
  5
42
330
1F
100
AcDbEntity
  8
CONTINUOUS
  6
CONTINUOUS
 62
     1
100
AcDbSpline
210
0.0
220
0.0
230
1.0
 70
     8
 71
     3
 72
     8
 73
     4
 74
     0
 42
0.000000001
 43
0.000000:
 12
1.0
 22
0.0
 32
0.0
 13
1.0
 23
0.0
 33
0.0
 40
0.0
 40
0.0
 40
0.0
 40
0.0
 40
1.0
 40
1.0
 40
1.0
 40
1.0
 10
-197.470734
 20
83.99770200000003
 30
0.0
 10
-196.7544350000001
 20
82.75893200000003
 30
0.0
 10
-195.4309610000001
 20
81.997161
 30
0.0
 10
-194.0000070000001
 20
82.00000499999997
 30
0.0
  0
SPLINE
  5
43
330
1F
100
AcDbEntity
  8
CONTINUOUS
  6
CONTINUOUS
 62
     1
100
AcDbSpline
210
0.0
220
0.0
230
1.0
 70
     8
 71
     3
 72
     8
 73
     4
 74
     0
 42
0.000000001
 43
0.000000:
 12
1.0
 22
0.0
 32
0.0
 13
1.0
 23
0.0
 33
0.0
 40
0.0
 40
0.0
 40
0.0
 40
0.0
 40
1.0
 40
1.0
 40
1.0
 40
1.0
 10
-194.0000070000001
 20
82.00000499999997
 30
0.0
 10
-192.5690540000001
 20
81.99716099999995
 30
0.0
 10
-191.24558
 20
82.75893199999992
 30
0.0
 10
-190.5292810000001
 20
83.99770199999992
 30
0.0
  0
SPLINE
  5
44
330
1F
100
AcDbEntity
  8
CONTINUOUS
  6
CONTINUOUS
 62
     1
100
AcDbSpline
210
0.0
220
0.0
230
1.0
 70
     8
 71
     3
 72
     8
 73
     4
 74
     0
 42
0.000000001
 43
0.000000:
 12
1.0
 22
0.0
 32
0.0
 13
1.0
 23
0.0
 33
0.0
 40
0.0
 40
0.0
 40
0.0
 40
0.0
 40
1.0
 40
1.0
 40
1.0
 40
1.0
 10
-190.5292810000001
 20
83.99770199999992
 30
0.0
 10
-189.8129820000001
 20
85.23647199999989
 30
0.0
 10
-189.812982
 20
86.76352199999988
 30
0.0
 10
-190.529281
 20
88.00229199999991
 30
0.0
  0
SPLINE
  5
45
330
1F
100
AcDbEntity
  8
CONTINUOUS
  6
CONTINUOUS
 62
     1
100
AcDbSpline
210
0.0
220
0.0
230
1.0
 70
     8
 71
     3
 72
     8
 73
     4
 74
     0
 42
0.000000001
 43
0.000000:
 12
1.0
 22
0.0
 32
0.0
 13
1.0
 23
0.0
 33
0.0
 40
0.0
 40
0.0
 40
0.0
 40
0.0
 40
1.0
 40
1.0
 40
1.0
 40
1.0
 10
-190.529281
 20
88.00229199999993
 30
0.0
 10
-191.24558
 20
89.24106200000001
 30
0.0
 10
-192.569054
 20
90.00283299999998
 30
0.0
 10
-194.000007
 20
89.999989
 30
0.0
  0
SPLINE
  5
46
330
1F
100
AcDbEntity
  8
CONTINUOUS
  6
CONTINUOUS
 62
     1
100
AcDbSpline
210
0.0
220
0.0
230
1.0
 70
     8
 71
     3
 72
     8
 73
     4
 74
     0
 42
0.000000001
 43
0.000000:
 12
1.0
 22
0.0
 32
0.0
 13
1.0
 23
0.0
 33
0.0
 40
0.0
 40
0.0
 40
0.0
 40
0.0
 40
1.0
 40
1.0
 40
1.0
 40
1.0
 10
-164.000011
 20
98.999999
 30
0.0
 10
-168.644464
 20
98.999999
 30
0.0
 10
-172.936116
 20
96.522213
 30
0.0
 10
-175.258343
 20
92.499998
 30
0.0
  0
SPLINE
  5
47
330
1F
100
AcDbEntity
  8
CONTINUOUS
  6
CONTINUOUS
 62
     1
100
AcDbSpline
210
0.0
220
0.0
230
1.0
 70
     8
 71
     3
 72
     8
 73
     4
 74
     0
 42
0.000000001
 43
0.000000:
 12
1.0
 22
0.0
 32
0.0
 13
1.0
 23
0.0
 33
0.0
 40
0.0
 40
0.0
 40
0.0
 40
0.0
 40
1.0
 40
1.0
 40
1.0
 40
1.0
 10
-175.258343
 20
92.499998
 30
0.0
 10
-177.58057
 20
88.477783
 30
0.0
 10
-177.58057
 20
83.52221
 30
0.0
 10
-175.258343
 20
79.499996
 30
0.0
  0
SPLINE
  5
48
330
1F
100
AcDbEntity
  8
CONTINUOUS
  6
CONTINUOUS
 62
     1
100
AcDbSpline
210
0.0
220
0.0
230
1.0
 70
     8
 71
     3
 72
     8
 73
     4
 74
     0
 42
0.000000001
 43
0.000000:
 12
1.0
 22
0.0
 32
0.0
 13
1.0
 23
0.0
 33
0.0
 40
0.0
 40
0.0
 40
0.0
 40
0.0
 40
1.0
 40
1.0
 40
1.0
 40
1.0
 10
-175.258343
 20
79.499996
 30
0.0
 10
-172.936116
 20
75.4777810000001
 30
0.0
 10
-168.644464
 20
72.999995
 30
0.0
 10
-164.000011
 20
72.999995
 30
0.0
  0
SPLINE
  5
49
330
1F
100
AcDbEntity
  8
CONTINUOUS
  6
CONTINUOUS
 62
     1
100
AcDbSpline
210
0.0
220
0.0
230
1.0
 70
     8
 71
     3
 72
     8
 73
     4
 74
     0
 42
0.000000001
 43
0.000000:
 12
1.0
 22
0.0
 32
0.0
 13
1.0
 23
0.0
 33
0.0
 40
0.0
 40
0.0
 40
0.0
 40
0.0
 40
1.0
 40
1.0
 40
1.0
 40
1.0
 10
-164.000011
 20
72.999995
 30
0.0
 10
-159.355557
 20
72.999994
 30
0.0
 10
-155.063905
 20
75.4777810000001
 30
0.0
 10
-152.741678
 20
79.499995
 30
0.0
  0
SPLINE
  5
4A
330
1F
100
AcDbEntity
  8
CONTINUOUS
  6
CONTINUOUS
 62
     1
100
AcDbSpline
210
0.0
220
0.0
230
1.0
 70
     8
 71
     3
 72
     8
 73
     4
 74
     0
 42
0.000000001
 43
0.000000:
 12
1.0
 22
0.0
 32
0.0
 13
1.0
 23
0.0
 33
0.0
 40
0.0
 40
0.0
 40
0.0
 40
0.0
 40
1.0
 40
1.0
 40
1.0
 40
1.0
 10
-152.741678
 20
79.499995
 30
0.0
 10
-150.419451
 20
83.52221
 30
0.0
 10
-150.419451
 20
88.477783
 30
0.0
 10
-152.741678
 20
92.499998
 30
0.0
  0
SPLINE
  5
4B
330
1F
100
AcDbEntity
  8
CONTINUOUS
  6
CONTINUOUS
 62
     1
100
AcDbSpline
210
0.0
220
0.0
230
1.0
 70
     8
 71
     3
 72
     8
 73
     4
 74
     0
 42
0.000000001
 43
0.000000:
 12
1.0
 22
0.0
 32
0.0
 13
1.0
 23
0.0
 33
0.0
 40
0.0
 40
0.0
 40
0.0
 40
0.0
 40
1.0
 40
1.0
 40
1.0
 40
1.0
 10
-152.741678
 20
92.499998
 30
0.0
 10
-155.063905
 20
96.522213
 30
0.0
 10
-159.355557
 20
99.0
 30
0.0
 10
-164.000011
 20
98.999999
 30
0.0
  0
SPLINE
  5
4C
330
1F
100
AcDbEntity
  8
CONTINUOUS
  6
CONTINUOUS
 62
     1
100
AcDbSpline
210
0.0
220
0.0
230
1.0
 70
     8
 71
     3
 72
     8
 73
     4
 74
     0
 42
0.000000001
 43
0.000000:
 12
1.0
 22
0.0
 32
0.0
 13
1.0
 23
0.0
 33
0.0
 40
0.0
 40
0.0
 40
0.0
 40
0.0
 40
1.0
 40
1.0
 40
1.0
 40
1.0
 10
-148.5
 20
103.200002
 30
0.0
 10
-149.107354
 20
103.200002
 30
0.0
 10
-149.668572
 20
102.875982
 30
0.0
 10
-149.97225
 20
102.349998
 30
0.0
  0
SPLINE
  5
4D
330
1F
100
AcDbEntity
  8
CONTINUOUS
  6
CONTINUOUS
 62
     1
100
AcDbSpline
210
0.0
220
0.0
230
1.0
 70
     8
 71
     3
 72
     8
 73
     4
 74
     0
 42
0.000000001
 43
0.000000:
 12
1.0
 22
0.0
 32
0.0
 13
1.0
 23
0.0
 33
0.0
 40
0.0
 40
0.0
 40
0.0
 40
0.0
 40
1.0
 40
1.0
 40
1.0
 40
1.0
 10
-149.97225
 20
102.349998
 30
0.0
 10
-150.275927
 20
101.824014
 30
0.0
 10
-150.275927
 20
101.175974
 30
0.0
 10
-149.97225
 20
100.64999
 30
0.0
  0
SPLINE
  5
4E
330
1F
100
AcDbEntity
  8
CONTINUOUS
  6
CONTINUOUS
 62
     1
100
AcDbSpline
210
0.0
220
0.0
230
1.0
 70
     8
 71
     3
 72
     8
 73
     4
 74
     0
 42
0.000000001
 43
0.000000:
 12
1.0
 22
0.0
 32
0.0
 13
1.0
 23
0.0
 33
0.0
 40
0.0
 40
0.0
 40
0.0
 40
0.0
 40
1.0
 40
1.0
 40
1.0
 40
1.0
 10
-149.97225
 20
100.64999
 30
0.0
 10
-149.668572
 20
100.124006
 30
0.0
 10
-149.107354
 20
99.799986
 30
0.0
 10
-148.5
 20
99.799986
 30
0.0
  0
SPLINE
  5
4F
330
1F
100
AcDbEntity
  8
CONTINUOUS
  6
CONTINUOUS
 62
     1
100
AcDbSpline
210
0.0
220
0.0
230
1.0
 70
     8
 71
     3
 72
     8
 73
     4
 74
     0
 42
0.000000001
 43
0.000000:
 12
1.0
 22
0.0
 32
0.0
 13
1.0
 23
0.0
 33
0.0
 40
0.0
 40
0.0
 40
0.0
 40
0.0
 40
1.0
 40
1.0
 40
1.0
 40
1.0
 10
-148.5
 20
99.799986
 30
0.0
 10
-147.892645
 20
99.799986
 30
0.0
 10
-147.331427
 20
100.124006
 30
0.0
 10
-147.02775
 20
100.64999
 30
0.0
  0
SPLINE
  5
50
330
1F
100
AcDbEntity
  8
CONTINUOUS
  6
CONTINUOUS
 62
     1
100
AcDbSpline
210
0.0
220
0.0
230
1.0
 70
     8
 71
     3
 72
     8
 73
     4
 74
     0
 42
0.000000001
 43
0.000000:
 12
1.0
 22
0.0
 32
0.0
 13
1.0
 23
0.0
 33
0.0
 40
0.0
 40
0.0
 40
0.0
 40
0.0
 40
1.0
 40
1.0
 40
1.0
 40
1.0
 10
-147.02775
 20
100.64999
 30
0.0
 10
-146.724072
 20
101.175974
 30
0.0
 10
-146.724072
 20
101.824014
 30
0.0
 10
-147.02775
 20
102.349998
 30
0.0
  0
SPLINE
  5
51
330
1F
100
AcDbEntity
  8
CONTINUOUS
  6
CONTINUOUS
 62
     1
100
AcDbSpline
210
0.0
220
0.0
230
1.0
 70
     8
 71
     3
 72
     8
 73
     4
 74
     0
 42
0.000000001
 43
0.000000:
 12
1.0
 22
0.0
 32
0.0
 13
1.0
 23
0.0
 33
0.0
 40
0.0
 40
0.0
 40
0.0
 40
0.0
 40
1.0
 40
1.0
 40
1.0
 40
1.0
 10
-147.02775
 20
102.349998
 30
0.0
 10
-147.331427
 20
102.875982
 30
0.0
 10
-147.892645
 20
103.200002
 30
0.0
 10
-148.5
 20
103.200002
 30
0.0
  0
SPLINE
  5
52
330
1F
100
AcDbEntity
  8
CONTINUOUS
  6
CONTINUOUS
 62
     1
100
AcDbSpline
210
0.0
220
0.0
230
1.0
 70
     8
 71
     3
 72
     8
 73
     4
 74
     0
 42
0.000000001
 43
0.000000:
 12
1.0
 22
0.0
 32
0.0
 13
1.0
 23
0.0
 33
0.0
 40
0.0
 40
0.0
 40
0.0
 40
0.0
 40
1.0
 40
1.0
 40
1.0
 40
1.0
 10
-179.499994
 20
103.200002
 30
0.0
 10
-180.107348
 20
103.200002
 30
0.0
 10
-180.668567
 20
102.875982
 30
0.0
 10
-180.972244
 20
102.349998
 30
0.0
  0
SPLINE
  5
53
330
1F
100
AcDbEntity
  8
CONTINUOUS
  6
CONTINUOUS
 62
     1
100
AcDbSpline
210
0.0
220
0.0
230
1.0
 70
     8
 71
     3
 72
     8
 73
     4
 74
     0
 42
0.000000001
 43
0.000000:
 12
1.0
 22
0.0
 32
0.0
 13
1.0
 23
0.0
 33
0.0
 40
0.0
 40
0.0
 40
0.0
 40
0.0
 40
1.0
 40
1.0
 40
1.0
 40
1.0
 10
-180.972244
 20
102.349998
 30
0.0
 10
-181.275921
 20
101.824014
 30
0.0
 10
-181.275921
 20
101.175974
 30
0.0
 10
-180.972244
 20
100.64999
 30
0.0
  0
SPLINE
  5
54
330
1F
100
AcDbEntity
  8
CONTINUOUS
  6
CONTINUOUS
 62
     1
100
AcDbSpline
210
0.0
220
0.0
230
1.0
 70
     8
 71
     3
 72
     8
 73
     4
 74
     0
 42
0.000000001
 43
0.000000:
 12
1.0
 22
0.0
 32
0.0
 13
1.0
 23
0.0
 33
0.0
 40
0.0
 40
0.0
 40
0.0
 40
0.0
 40
1.0
 40
1.0
 40
1.0
 40
1.0
 10
-180.972244
 20
100.64999
 30
0.0
 10
-180.668567
 20
100.124006
 30
0.0
 10
-180.107348
 20
99.799986
 30
0.0
 10
-179.499994
 20
99.799986
 30
0.0
  0
SPLINE
  5
55
330
1F
100
AcDbEntity
  8
CONTINUOUS
  6
CONTINUOUS
 62
     1
100
AcDbSpline
210
0.0
220
0.0
230
1.0
 70
     8
 71
     3
 72
     8
 73
     4
 74
     0
 42
0.000000001
 43
0.000000:
 12
1.0
 22
0.0
 32
0.0
 13
1.0
 23
0.0
 33
0.0
 40
0.0
 40
0.0
 40
0.0
 40
0.0
 40
1.0
 40
1.0
 40
1.0
 40
1.0
 10
-179.499994
 20
99.799986
 30
0.0
 10
-178.89264
 20
99.799986
 30
0.0
 10
-178.331421
 20
100.124006
 30
0.0
 10
-178.027744
 20
100.64999
 30
0.0
  0
SPLINE
  5
56
330
1F
100
AcDbEntity
  8
CONTINUOUS
  6
CONTINUOUS
 62
     1
100
AcDbSpline
210
0.0
220
0.0
230
1.0
 70
     8
 71
     3
 72
     8
 73
     4
 74
     0
 42
0.000000001
 43
0.000000:
 12
1.0
 22
0.0
 32
0.0
 13
1.0
 23
0.0
 33
0.0
 40
0.0
 40
0.0
 40
0.0
 40
0.0
 40
1.0
 40
1.0
 40
1.0
 40
1.0
 10
-178.027744
 20
100.64999
 30
0.0
 10
-177.724067
 20
101.175974
 30
0.0
 10
-177.724067
 20
101.824014
 30
0.0
 10
-178.027744
 20
102.349998
 30
0.0
  0
SPLINE
  5
57
330
1F
100
AcDbEntity
  8
CONTINUOUS
  6
CONTINUOUS
 62
     1
100
AcDbSpline
210
0.0
220
0.0
230
1.0
 70
     8
 71
     3
 72
     8
 73
     4
 74
     0
 42
0.000000001
 43
0.000000:
 12
1.0
 22
0.0
 32
0.0
 13
1.0
 23
0.0
 33
0.0
 40
0.0
 40
0.0
 40
0.0
 40
0.0
 40
1.0
 40
1.0
 40
1.0
 40
1.0
 10
-178.027744
 20
102.349998
 30
0.0
 10
-178.331421
 20
102.875982
 30
0.0
 10
-178.89264
 20
103.200002
 30
0.0
 10
-179.499994
 20
103.200002
 30
0.0
  0
SPLINE
  5
58
330
1F
100
AcDbEntity
  8
CONTINUOUS
  6
CONTINUOUS
 62
     1
100
AcDbSpline
210
0.0
220
0.0
230
1.0
 70
     8
 71
     3
 72
     8
 73
     4
 74
     0
 42
0.000000001
 43
0.000000:
 12
1.0
 22
0.0
 32
0.0
 13
1.0
 23
0.0
 33
0.0
 40
0.0
 40
0.0
 40
0.0
 40
0.0
 40
1.0
 40
1.0
 40
1.0
 40
1.0
 10
-179.499994
 20
72.20000799999998
 30
0.0
 10
-180.107348
 20
72.20000799999997
 30
0.0
 10
-180.668567
 20
71.87598799999998
 30
0.0
 10
-180.972244
 20
71.35000399999997
 30
0.0
  0
SPLINE
  5
59
330
1F
100
AcDbEntity
  8
CONTINUOUS
  6
CONTINUOUS
 62
     1
100
AcDbSpline
210
0.0
220
0.0
230
1.0
 70
     8
 71
     3
 72
     8
 73
     4
 74
     0
 42
0.000000001
 43
0.000000:
 12
1.0
 22
0.0
 32
0.0
 13
1.0
 23
0.0
 33
0.0
 40
0.0
 40
0.0
 40
0.0
 40
0.0
 40
1.0
 40
1.0
 40
1.0
 40
1.0
 10
-180.972244
 20
71.35000399999997
 30
0.0
 10
-181.275921
 20
70.82401899999996
 30
0.0
 10
-181.275921
 20
70.17597999999995
 30
0.0
 10
-180.972244
 20
69.64999599999997
 30
0.0
  0
SPLINE
  5
5A
330
1F
100
AcDbEntity
  8
CONTINUOUS
  6
CONTINUOUS
 62
     1
100
AcDbSpline
210
0.0
220
0.0
230
1.0
 70
     8
 71
     3
 72
     8
 73
     4
 74
     0
 42
0.000000001
 43
0.000000:
 12
1.0
 22
0.0
 32
0.0
 13
1.0
 23
0.0
 33
0.0
 40
0.0
 40
0.0
 40
0.0
 40
0.0
 40
1.0
 40
1.0
 40
1.0
 40
1.0
 10
-180.972244
 20
69.64999599999997
 30
0.0
 10
-180.668567
 20
69.12401099999997
 30
0.0
 10
-180.107348
 20
68.79999199999997
 30
0.0
 10
-179.499994
 20
68.79999199999999
 30
0.0
  0
SPLINE
  5
5B
330
1F
100
AcDbEntity
  8
CONTINUOUS
  6
CONTINUOUS
 62
     1
100
AcDbSpline
210
0.0
220
0.0
230
1.0
 70
     8
 71
     3
 72
     8
 73
     4
 74
     0
 42
0.000000001
 43
0.000000:
 12
1.0
 22
0.0
 32
0.0
 13
1.0
 23
0.0
 33
0.0
 40
0.0
 40
0.0
 40
0.0
 40
0.0
 40
1.0
 40
1.0
 40
1.0
 40
1.0
 10
-179.499994
 20
68.79999199999999
 30
0.0
 10
-178.89264
 20
68.799992
 30
0.0
 10
-178.331421
 20
69.124011
 30
0.0
 10
-178.027744
 20
69.649996
 30
0.0
  0
SPLINE
  5
5C
330
1F
100
AcDbEntity
  8
CONTINUOUS
  6
CONTINUOUS
 62
     1
100
AcDbSpline
210
0.0
220
0.0
230
1.0
 70
     8
 71
     3
 72
     8
 73
     4
 74
     0
 42
0.000000001
 43
0.000000:
 12
1.0
 22
0.0
 32
0.0
 13
1.0
 23
0.0
 33
0.0
 40
0.0
 40
0.0
 40
0.0
 40
0.0
 40
1.0
 40
1.0
 40
1.0
 40
1.0
 10
-178.027744
 20
69.649996
 30
0.0
 10
-177.724067
 20
70.17598000000001
 30
0.0
 10
-177.724067
 20
70.82401900000002
 30
0.0
 10
-178.027744
 20
71.350004
 30
0.0
  0
SPLINE
  5
5D
330
1F
100
AcDbEntity
  8
CONTINUOUS
  6
CONTINUOUS
 62
     1
100
AcDbSpline
210
0.0
220
0.0
230
1.0
 70
     8
 71
     3
 72
     8
 73
     4
 74
     0
 42
0.000000001
 43
0.000000:
 12
1.0
 22
0.0
 32
0.0
 13
1.0
 23
0.0
 33
0.0
 40
0.0
 40
0.0
 40
0.0
 40
0.0
 40
1.0
 40
1.0
 40
1.0
 40
1.0
 10
-178.027744
 20
71.35000399999998
 30
0.0
 10
-178.331421
 20
71.87598799999996
 30
0.0
 10
-178.89264
 20
72.20000799999997
 30
0.0
 10
-179.499994
 20
72.20000799999998
 30
0.0
  0
SPLINE
  5
5E
330
1F
100
AcDbEntity
  8
CONTINUOUS
  6
CONTINUOUS
 62
     1
100
AcDbSpline
210
0.0
220
0.0
230
1.0
 70
     8
 71
     3
 72
     8
 73
     4
 74
     0
 42
0.000000001
 43
0.000000:
 12
1.0
 22
0.0
 32
0.0
 13
1.0
 23
0.0
 33
0.0
 40
0.0
 40
0.0
 40
0.0
 40
0.0
 40
1.0
 40
1.0
 40
1.0
 40
1.0
 10
-148.5
 20
72.200008
 30
0.0
 10
-149.107354
 20
72.200008
 30
0.0
 10
-149.668572
 20
71.875988
 30
0.0
 10
-149.97225
 20
71.350004
 30
0.0
  0
SPLINE
  5
5F
330
1F
100
AcDbEntity
  8
CONTINUOUS
  6
CONTINUOUS
 62
     1
100
AcDbSpline
210
0.0
220
0.0
230
1.0
 70
     8
 71
     3
 72
     8
 73
     4
 74
     0
 42
0.000000001
 43
0.000000:
 12
1.0
 22
0.0
 32
0.0
 13
1.0
 23
0.0
 33
0.0
 40
0.0
 40
0.0
 40
0.0
 40
0.0
 40
1.0
 40
1.0
 40
1.0
 40
1.0
 10
-149.97225
 20
71.350004
 30
0.0
 10
-150.275927
 20
70.824019
 30
0.0
 10
-150.275927
 20
70.17598
 30
0.0
 10
-149.97225
 20
69.649996
 30
0.0
  0
SPLINE
  5
60
330
1F
100
AcDbEntity
  8
CONTINUOUS
  6
CONTINUOUS
 62
     1
100
AcDbSpline
210
0.0
220
0.0
230
1.0
 70
     8
 71
     3
 72
     8
 73
     4
 74
     0
 42
0.000000001
 43
0.000000:
 12
1.0
 22
0.0
 32
0.0
 13
1.0
 23
0.0
 33
0.0
 40
0.0
 40
0.0
 40
0.0
 40
0.0
 40
1.0
 40
1.0
 40
1.0
 40
1.0
 10
-149.97225
 20
69.649996
 30
0.0
 10
-149.668572
 20
69.124011
 30
0.0
 10
-149.107354
 20
68.799992
 30
0.0
 10
-148.5
 20
68.799992
 30
0.0
  0
SPLINE
  5
61
330
1F
100
AcDbEntity
  8
CONTINUOUS
  6
CONTINUOUS
 62
     1
100
AcDbSpline
210
0.0
220
0.0
230
1.0
 70
     8
 71
     3
 72
     8
 73
     4
 74
     0
 42
0.000000001
 43
0.000000:
 12
1.0
 22
0.0
 32
0.0
 13
1.0
 23
0.0
 33
0.0
 40
0.0
 40
0.0
 40
0.0
 40
0.0
 40
1.0
 40
1.0
 40
1.0
 40
1.0
 10
-148.5
 20
68.799992
 30
0.0
 10
-147.892645
 20
68.799992
 30
0.0
 10
-147.331427
 20
69.124011
 30
0.0
 10
-147.02775
 20
69.649996
 30
0.0
  0
SPLINE
  5
62
330
1F
100
AcDbEntity
  8
CONTINUOUS
  6
CONTINUOUS
 62
     1
100
AcDbSpline
210
0.0
220
0.0
230
1.0
 70
     8
 71
     3
 72
     8
 73
     4
 74
     0
 42
0.000000001
 43
0.000000:
 12
1.0
 22
0.0
 32
0.0
 13
1.0
 23
0.0
 33
0.0
 40
0.0
 40
0.0
 40
0.0
 40
0.0
 40
1.0
 40
1.0
 40
1.0
 40
1.0
 10
-147.02775
 20
69.649996
 30
0.0
 10
-146.724072
 20
70.17598
 30
0.0
 10
-146.724072
 20
70.824019
 30
0.0
 10
-147.02775
 20
71.350004
 30
0.0
  0
SPLINE
  5
63
330
1F
100
AcDbEntity
  8
CONTINUOUS
  6
CONTINUOUS
 62
     1
100
AcDbSpline
210
0.0
220
0.0
230
1.0
 70
     8
 71
     3
 72
     8
 73
     4
 74
     0
 42
0.000000001
 43
0.000000:
 12
1.0
 22
0.0
 32
0.0
 13
1.0
 23
0.0
 33
0.0
 40
0.0
 40
0.0
 40
0.0
 40
0.0
 40
1.0
 40
1.0
 40
1.0
 40
1.0
 10
-147.02775
 20
71.350004
 30
0.0
 10
-147.331427
 20
71.875988
 30
0.0
 10
-147.892645
 20
72.200008
 30
0.0
 10
-148.5
 20
72.200008
 30
0.0
  0
SPLINE
  5
64
330
1F
100
AcDbEntity
  8
CONTINUOUS
  6
CONTINUOUS
 62
     1
100
AcDbSpline
210
0.0
220
0.0
230
1.0
 70
     8
 71
     3
 72
     8
 73
     4
 74
     0
 42
0.000000001
 43
0.000000:
 12
1.0
 22
0.0
 32
0.0
 13
1.0
 23
0.0
 33
0.0
 40
0.0
 40
0.0
 40
0.0
 40
0.0
 40
1.0
 40
1.0
 40
1.0
 40
1.0
 10
-196.0000029999999
 20
115.999993
 30
0.0
 10
-198.652171
 20
115.9999960000001
 30
0.0
 10
-201.195714
 20
114.9464270000001
 30
0.0
 10
-203.071079
 20
113.0710610000001
 30
0.0
  0
SPLINE
  5
65
330
1F
100
AcDbEntity
  8
CONTINUOUS
  6
CONTINUOUS
 62
     1
100
AcDbSpline
210
0.0
220
0.0
230
1.0
 70
     8
 71
     3
 72
     8
 73
     4
 74
     0
 42
0.000000001
 43
0.000000:
 12
1.0
 22
0.0
 32
0.0
 13
1.0
 23
0.0
 33
0.0
 40
0.0
 40
0.0
 40
0.0
 40
0.0
 40
1.0
 40
1.0
 40
1.0
 40
1.0
 10
-203.071079
 20
113.0710610000001
 30
0.0
 10
-204.9464449999999
 20
111.195695
 30
0.0
 10
-206.0000139999998
 20
108.652153
 30
0.0
 10
-206.0000119999997
 20
105.999985
 30
0.0
  0
SPLINE
  5
66
330
1F
100
AcDbEntity
  8
CONTINUOUS
  6
CONTINUOUS
 62
     1
100
AcDbSpline
210
0.0
220
0.0
230
1.0
 70
     8
 71
     3
 72
     8
 73
     4
 74
     0
 42
0.000000001
 43
0.000000:
 12
1.0
 22
0.0
 32
0.0
 13
1.0
 23
0.0
 33
0.0
 40
0.0
 40
0.0
 40
0.0
 40
0.0
 40
1.0
 40
1.0
 40
1.0
 40
1.0
 10
-105.000016
 20
49.100006
 30
0.0
 10
-105.750274
 20
49.100006
 30
0.0
 10
-106.443542
 20
48.699748
 30
0.0
 10
-106.818671
 20
48.0500050000001
 30
0.0
  0
SPLINE
  5
67
330
1F
100
AcDbEntity
  8
CONTINUOUS
  6
CONTINUOUS
 62
     1
100
AcDbSpline
210
0.0
220
0.0
230
1.0
 70
     8
 71
     3
 72
     8
 73
     4
 74
     0
 42
0.000000001
 43
0.000000:
 12
1.0
 22
0.0
 32
0.0
 13
1.0
 23
0.0
 33
0.0
 40
0.0
 40
0.0
 40
0.0
 40
0.0
 40
1.0
 40
1.0
 40
1.0
 40
1.0
 10
-106.818671
 20
48.0500050000001
 30
0.0
 10
-107.1938
 20
47.400262
 30
0.0
 10
-107.1938
 20
46.599746
 30
0.0
 10
-106.818671
 20
45.950003
 30
0.0
  0
SPLINE
  5
68
330
1F
100
AcDbEntity
  8
CONTINUOUS
  6
CONTINUOUS
 62
     1
100
AcDbSpline
210
0.0
220
0.0
230
1.0
 70
     8
 71
     3
 72
     8
 73
     4
 74
     0
 42
0.000000001
 43
0.000000:
 12
1.0
 22
0.0
 32
0.0
 13
1.0
 23
0.0
 33
0.0
 40
0.0
 40
0.0
 40
0.0
 40
0.0
 40
1.0
 40
1.0
 40
1.0
 40
1.0
 10
-106.818671
 20
45.950003
 30
0.0
 10
-106.443542
 20
45.300261
 30
0.0
 10
-105.750274
 20
44.900003
 30
0.0
 10
-105.000016
 20
44.900003
 30
0.0
  0
SPLINE
  5
69
330
1F
100
AcDbEntity
  8
CONTINUOUS
  6
CONTINUOUS
 62
     1
100
AcDbSpline
210
0.0
220
0.0
230
1.0
 70
     8
 71
     3
 72
     8
 73
     4
 74
     0
 42
0.000000001
 43
0.000000:
 12
1.0
 22
0.0
 32
0.0
 13
1.0
 23
0.0
 33
0.0
 40
0.0
 40
0.0
 40
0.0
 40
0.0
 40
1.0
 40
1.0
 40
1.0
 40
1.0
 10
-105.000016
 20
44.900003
 30
0.0
 10
-104.249758
 20
44.900003
 30
0.0
 10
-103.55649
 20
45.300261
 30
0.0
 10
-103.181361
 20
45.950003
 30
0.0
  0
SPLINE
  5
6A
330
1F
100
AcDbEntity
  8
CONTINUOUS
  6
CONTINUOUS
 62
     1
100
AcDbSpline
210
0.0
220
0.0
230
1.0
 70
     8
 71
     3
 72
     8
 73
     4
 74
     0
 42
0.000000001
 43
0.000000:
 12
1.0
 22
0.0
 32
0.0
 13
1.0
 23
0.0
 33
0.0
 40
0.0
 40
0.0
 40
0.0
 40
0.0
 40
1.0
 40
1.0
 40
1.0
 40
1.0
 10
-103.181361
 20
45.950003
 30
0.0
 10
-102.806232
 20
46.599746
 30
0.0
 10
-102.806232
 20
47.400262
 30
0.0
 10
-103.181361
 20
48.0500050000001
 30
0.0
  0
SPLINE
  5
6B
330
1F
100
AcDbEntity
  8
CONTINUOUS
  6
CONTINUOUS
 62
     1
100
AcDbSpline
210
0.0
220
0.0
230
1.0
 70
     8
 71
     3
 72
     8
 73
     4
 74
     0
 42
0.000000001
 43
0.000000:
 12
1.0
 22
0.0
 32
0.0
 13
1.0
 23
0.0
 33
0.0
 40
0.0
 40
0.0
 40
0.0
 40
0.0
 40
1.0
 40
1.0
 40
1.0
 40
1.0
 10
-103.181361
 20
48.0500050000001
 30
0.0
 10
-103.55649
 20
48.699748
 30
0.0
 10
-104.249758
 20
49.100006
 30
0.0
 10
-105.000016
 20
49.100006
 30
0.0
  0
SPLINE
  5
6C
330
1F
100
AcDbEntity
  8
CONTINUOUS
  6
CONTINUOUS
 62
     1
100
AcDbSpline
210
0.0
220
0.0
230
1.0
 70
     8
 71
     3
 72
     8
 73
     4
 74
     0
 42
0.000000001
 43
0.000000:
 12
1.0
 22
0.0
 32
0.0
 13
1.0
 23
0.0
 33
0.0
 40
0.0
 40
0.0
 40
0.0
 40
0.0
 40
1.0
 40
1.0
 40
1.0
 40
1.0
 10
-105.000016
 20
31.0999850000001
 30
0.0
 10
-105.750274
 20
31.0999850000001
 30
0.0
 10
-106.443541
 20
30.6997270000001
 30
0.0
 10
-106.818671
 20
30.049985
 30
0.0
  0
SPLINE
  5
6D
330
1F
100
AcDbEntity
  8
CONTINUOUS
  6
CONTINUOUS
 62
     1
100
AcDbSpline
210
0.0
220
0.0
230
1.0
 70
     8
 71
     3
 72
     8
 73
     4
 74
     0
 42
0.000000001
 43
0.000000:
 12
1.0
 22
0.0
 32
0.0
 13
1.0
 23
0.0
 33
0.0
 40
0.0
 40
0.0
 40
0.0
 40
0.0
 40
1.0
 40
1.0
 40
1.0
 40
1.0
 10
-106.818671
 20
30.049985
 30
0.0
 10
-107.1938
 20
29.400242
 30
0.0
 10
-107.1938
 20
28.599726
 30
0.0
 10
-106.818671
 20
27.949983
 30
0.0
  0
SPLINE
  5
6E
330
1F
100
AcDbEntity
  8
CONTINUOUS
  6
CONTINUOUS
 62
     1
100
AcDbSpline
210
0.0
220
0.0
230
1.0
 70
     8
 71
     3
 72
     8
 73
     4
 74
     0
 42
0.000000001
 43
0.000000:
 12
1.0
 22
0.0
 32
0.0
 13
1.0
 23
0.0
 33
0.0
 40
0.0
 40
0.0
 40
0.0
 40
0.0
 40
1.0
 40
1.0
 40
1.0
 40
1.0
 10
-106.818671
 20
27.949983
 30
0.0
 10
-106.443541
 20
27.30024
 30
0.0
 10
-105.750274
 20
26.899982
 30
0.0
 10
-105.000016
 20
26.899982
 30
0.0
  0
SPLINE
  5
6F
330
1F
100
AcDbEntity
  8
CONTINUOUS
  6
CONTINUOUS
 62
     1
100
AcDbSpline
210
0.0
220
0.0
230
1.0
 70
     8
 71
     3
 72
     8
 73
     4
 74
     0
 42
0.000000001
 43
0.000000:
 12
1.0
 22
0.0
 32
0.0
 13
1.0
 23
0.0
 33
0.0
 40
0.0
 40
0.0
 40
0.0
 40
0.0
 40
1.0
 40
1.0
 40
1.0
 40
1.0
 10
-105.000016
 20
26.899982
 30
0.0
 10
-104.249758
 20
26.899982
 30
0.0
 10
-103.55649
 20
27.30024
 30
0.0
 10
-103.181361
 20
27.949983
 30
0.0
  0
SPLINE
  5
70
330
1F
100
AcDbEntity
  8
CONTINUOUS
  6
CONTINUOUS
 62
     1
100
AcDbSpline
210
0.0
220
0.0
230
1.0
 70
     8
 71
     3
 72
     8
 73
     4
 74
     0
 42
0.000000001
 43
0.000000:
 12
1.0
 22
0.0
 32
0.0
 13
1.0
 23
0.0
 33
0.0
 40
0.0
 40
0.0
 40
0.0
 40
0.0
 40
1.0
 40
1.0
 40
1.0
 40
1.0
 10
-103.181361
 20
27.949983
 30
0.0
 10
-102.806232
 20
28.599726
 30
0.0
 10
-102.806232
 20
29.400242
 30
0.0
 10
-103.181361
 20
30.049985
 30
0.0
  0
SPLINE
  5
71
330
1F
100
AcDbEntity
  8
CONTINUOUS
  6
CONTINUOUS
 62
     1
100
AcDbSpline
210
0.0
220
0.0
230
1.0
 70
     8
 71
     3
 72
     8
 73
     4
 74
     0
 42
0.000000001
 43
0.000000:
 12
1.0
 22
0.0
 32
0.0
 13
1.0
 23
0.0
 33
0.0
 40
0.0
 40
0.0
 40
0.0
 40
0.0
 40
1.0
 40
1.0
 40
1.0
 40
1.0
 10
-103.181361
 20
30.049985
 30
0.0
 10
-103.55649
 20
30.6997280000001
 30
0.0
 10
-104.249758
 20
31.0999860000001
 30
0.0
 10
-105.000016
 20
31.0999850000001
 30
0.0
  0
SPLINE
  5
72
330
1F
100
AcDbEntity
  8
CONTINUOUS
  6
CONTINUOUS
 62
     1
100
AcDbSpline
210
0.0
220
0.0
230
1.0
 70
     8
 71
     3
 72
     8
 73
     4
 74
     0
 42
0.000000001
 43
0.000000:
 12
1.0
 22
0.0
 32
0.0
 13
1.0
 23
0.0
 33
0.0
 40
0.0
 40
0.0
 40
0.0
 40
0.0
 40
1.0
 40
1.0
 40
1.0
 40
1.0
 10
-194.000007
 20
99.69999500000017
 30
0.0
 10
-194.608451
 20
99.70163900000003
 30
0.0
 10
-195.171381
 20
99.377982
 30
0.0
 10
-195.476079
 20
98.85132699999998
 30
0.0
  0
SPLINE
  5
73
330
1F
100
AcDbEntity
  8
CONTINUOUS
  6
CONTINUOUS
 62
     1
100
AcDbSpline
210
0.0
220
0.0
230
1.0
 70
     8
 71
     3
 72
     8
 73
     4
 74
     0
 42
0.000000001
 43
0.000000:
 12
1.0
 22
0.0
 32
0.0
 13
1.0
 23
0.0
 33
0.0
 40
0.0
 40
0.0
 40
0.0
 40
0.0
 40
1.0
 40
1.0
 40
1.0
 40
1.0
 10
-195.476079
 20
98.851327
 30
0.0
 10
-195.780776
 20
98.324672
 30
0.0
 10
-195.780776
 20
97.67533
 30
0.0
 10
-195.476079
 20
97.148675
 30
0.0
  0
SPLINE
  5
74
330
1F
100
AcDbEntity
  8
CONTINUOUS
  6
CONTINUOUS
 62
     1
100
AcDbSpline
210
0.0
220
0.0
230
1.0
 70
     8
 71
     3
 72
     8
 73
     4
 74
     0
 42
0.000000001
 43
0.000000:
 12
1.0
 22
0.0
 32
0.0
 13
1.0
 23
0.0
 33
0.0
 40
0.0
 40
0.0
 40
0.0
 40
0.0
 40
1.0
 40
1.0
 40
1.0
 40
1.0
 10
-195.476079
 20
97.148675
 30
0.0
 10
-195.171381
 20
96.62202
 30
0.0
 10
-194.608451
 20
96.29836300000001
 30
0.0
 10
-194.000007
 20
96.30000700000011
 30
0.0
  0
SPLINE
  5
75
330
1F
100
AcDbEntity
  8
CONTINUOUS
  6
CONTINUOUS
 62
     1
100
AcDbSpline
210
0.0
220
0.0
230
1.0
 70
     8
 71
     3
 72
     8
 73
     4
 74
     0
 42
0.000000001
 43
0.000000:
 12
1.0
 22
0.0
 32
0.0
 13
1.0
 23
0.0
 33
0.0
 40
0.0
 40
0.0
 40
0.0
 40
0.0
 40
1.0
 40
1.0
 40
1.0
 40
1.0
 10
-194.000007
 20
96.30000700000011
 30
0.0
 10
-193.391564
 20
96.29836300000001
 30
0.0
 10
-192.828634
 20
96.62202000000003
 30
0.0
 10
-192.523936
 20
97.14867500000003
 30
0.0
  0
SPLINE
  5
76
330
1F
100
AcDbEntity
  8
CONTINUOUS
  6
CONTINUOUS
 62
     1
100
AcDbSpline
210
0.0
220
0.0
230
1.0
 70
     8
 71
     3
 72
     8
 73
     4
 74
     0
 42
0.000000001
 43
0.000000:
 12
1.0
 22
0.0
 32
0.0
 13
1.0
 23
0.0
 33
0.0
 40
0.0
 40
0.0
 40
0.0
 40
0.0
 40
1.0
 40
1.0
 40
1.0
 40
1.0
 10
-192.523936
 20
97.14867500000003
 30
0.0
 10
-192.219238
 20
97.67533000000003
 30
0.0
 10
-192.219238
 20
98.32467200000004
 30
0.0
 10
-192.523936
 20
98.85132700000003
 30
0.0
  0
SPLINE
  5
77
330
1F
100
AcDbEntity
  8
CONTINUOUS
  6
CONTINUOUS
 62
     1
100
AcDbSpline
210
0.0
220
0.0
230
1.0
 70
     8
 71
     3
 72
     8
 73
     4
 74
     0
 42
0.000000001
 43
0.000000:
 12
1.0
 22
0.0
 32
0.0
 13
1.0
 23
0.0
 33
0.0
 40
0.0
 40
0.0
 40
0.0
 40
0.0
 40
1.0
 40
1.0
 40
1.0
 40
1.0
 10
-192.5239360000001
 20
98.85132700000004
 30
0.0
 10
-192.828634
 20
99.37798200000003
 30
0.0
 10
-193.391564
 20
99.70163900000006
 30
0.0
 10
-194.000007
 20
99.69999500000017
 30
0.0
  0
SPLINE
  5
78
330
1F
100
AcDbEntity
  8
CONTINUOUS
  6
CONTINUOUS
 62
     1
100
AcDbSpline
210
0.0
220
0.0
230
1.0
 70
     8
 71
     3
 72
     8
 73
     4
 74
     0
 42
0.000000001
 43
0.000000:
 12
1.0
 22
0.0
 32
0.0
 13
1.0
 23
0.0
 33
0.0
 40
0.0
 40
0.0
 40
0.0
 40
0.0
 40
1.0
 40
1.0
 40
1.0
 40
1.0
 10
-194.000007
 20
75.699986
 30
0.0
 10
-194.608451
 20
75.701631
 30
0.0
 10
-195.171381
 20
75.377974
 30
0.0
 10
-195.476079
 20
74.851319
 30
0.0
  0
SPLINE
  5
79
330
1F
100
AcDbEntity
  8
CONTINUOUS
  6
CONTINUOUS
 62
     1
100
AcDbSpline
210
0.0
220
0.0
230
1.0
 70
     8
 71
     3
 72
     8
 73
     4
 74
     0
 42
0.000000001
 43
0.000000:
 12
1.0
 22
0.0
 32
0.0
 13
1.0
 23
0.0
 33
0.0
 40
0.0
 40
0.0
 40
0.0
 40
0.0
 40
1.0
 40
1.0
 40
1.0
 40
1.0
 10
-195.476079
 20
74.851319
 30
0.0
 10
-195.780776
 20
74.324663
 30
0.0
 10
-195.780776
 20
73.675322
 30
0.0
 10
-195.476079
 20
73.148667
 30
0.0
  0
SPLINE
  5
7A
330
1F
100
AcDbEntity
  8
CONTINUOUS
  6
CONTINUOUS
 62
     1
100
AcDbSpline
210
0.0
220
0.0
230
1.0
 70
     8
 71
     3
 72
     8
 73
     4
 74
     0
 42
0.000000001
 43
0.000000:
 12
1.0
 22
0.0
 32
0.0
 13
1.0
 23
0.0
 33
0.0
 40
0.0
 40
0.0
 40
0.0
 40
0.0
 40
1.0
 40
1.0
 40
1.0
 40
1.0
 10
-195.476079
 20
73.148667
 30
0.0
 10
-195.171381
 20
72.6220110000001
 30
0.0
 10
-194.608451
 20
72.2983540000001
 30
0.0
 10
-194.000007
 20
72.299999
 30
0.0
  0
SPLINE
  5
7B
330
1F
100
AcDbEntity
  8
CONTINUOUS
  6
CONTINUOUS
 62
     1
100
AcDbSpline
210
0.0
220
0.0
230
1.0
 70
     8
 71
     3
 72
     8
 73
     4
 74
     0
 42
0.000000001
 43
0.000000:
 12
1.0
 22
0.0
 32
0.0
 13
1.0
 23
0.0
 33
0.0
 40
0.0
 40
0.0
 40
0.0
 40
0.0
 40
1.0
 40
1.0
 40
1.0
 40
1.0
 10
-194.000007
 20
72.299999
 30
0.0
 10
-193.391564
 20
72.2983540000001
 30
0.0
 10
-192.828634
 20
72.6220110000001
 30
0.0
 10
-192.523936
 20
73.1486670000001
 30
0.0
  0
SPLINE
  5
7C
330
1F
100
AcDbEntity
  8
CONTINUOUS
  6
CONTINUOUS
 62
     1
100
AcDbSpline
210
0.0
220
0.0
230
1.0
 70
     8
 71
     3
 72
     8
 73
     4
 74
     0
 42
0.000000001
 43
0.000000:
 12
1.0
 22
0.0
 32
0.0
 13
1.0
 23
0.0
 33
0.0
 40
0.0
 40
0.0
 40
0.0
 40
0.0
 40
1.0
 40
1.0
 40
1.0
 40
1.0
 10
-192.523936
 20
73.1486670000001
 30
0.0
 10
-192.219238
 20
73.6753220000001
 30
0.0
 10
-192.219238
 20
74.3246630000001
 30
0.0
 10
-192.523936
 20
74.8513190000001
 30
0.0
  0
SPLINE
  5
7D
330
1F
100
AcDbEntity
  8
CONTINUOUS
  6
CONTINUOUS
 62
     1
100
AcDbSpline
210
0.0
220
0.0
230
1.0
 70
     8
 71
     3
 72
     8
 73
     4
 74
     0
 42
0.000000001
 43
0.000000:
 12
1.0
 22
0.0
 32
0.0
 13
1.0
 23
0.0
 33
0.0
 40
0.0
 40
0.0
 40
0.0
 40
0.0
 40
1.0
 40
1.0
 40
1.0
 40
1.0
 10
-192.523936
 20
74.8513190000001
 30
0.0
 10
-192.828634
 20
75.3779740000001
 30
0.0
 10
-193.391564
 20
75.7016310000002
 30
0.0
 10
-194.000007
 20
75.699986
 30
0.0
  0
SPLINE
  5
7E
330
1F
100
AcDbEntity
  8
CONTINUOUS
  6
CONTINUOUS
 62
     1
100
AcDbSpline
210
0.0
220
0.0
230
1.0
 70
     8
 71
     3
 72
     8
 73
     4
 74
     0
 42
0.000000001
 43
0.000000:
 12
1.0
 22
0.0
 32
0.0
 13
1.0
 23
0.0
 33
0.0
 40
0.0
 40
0.0
 40
0.0
 40
0.0
 40
1.0
 40
1.0
 40
1.0
 40
1.0
 10
0.0
 20
49.100006
 30
0.0
 10
-0.750259
 20
49.100006
 30
0.0
 10
-1.44352599999999
 20
48.699748
 30
0.0
 10
-1.81865500000001
 20
48.0500050000001
 30
0.0
  0
SPLINE
  5
7F
330
1F
100
AcDbEntity
  8
CONTINUOUS
  6
CONTINUOUS
 62
     1
100
AcDbSpline
210
0.0
220
0.0
230
1.0
 70
     8
 71
     3
 72
     8
 73
     4
 74
     0
 42
0.000000001
 43
0.000000:
 12
1.0
 22
0.0
 32
0.0
 13
1.0
 23
0.0
 33
0.0
 40
0.0
 40
0.0
 40
0.0
 40
0.0
 40
1.0
 40
1.0
 40
1.0
 40
1.0
 10
-1.81865500000001
 20
48.0500050000001
 30
0.0
 10
-2.19378399999999
 20
47.400262
 30
0.0
 10
-2.19378399999999
 20
46.599746
 30
0.0
 10
-1.81865500000001
 20
45.950003
 30
0.0
  0
SPLINE
  5
80
330
1F
100
AcDbEntity
  8
CONTINUOUS
  6
CONTINUOUS
 62
     1
100
AcDbSpline
210
0.0
220
0.0
230
1.0
 70
     8
 71
     3
 72
     8
 73
     4
 74
     0
 42
0.000000001
 43
0.000000:
 12
1.0
 22
0.0
 32
0.0
 13
1.0
 23
0.0
 33
0.0
 40
0.0
 40
0.0
 40
0.0
 40
0.0
 40
1.0
 40
1.0
 40
1.0
 40
1.0
 10
-1.81865500000001
 20
45.950003
 30
0.0
 10
-1.44352599999999
 20
45.300261
 30
0.0
 10
-0.750259
 20
44.900003
 30
0.0
 10
0.0
 20
44.900003
 30
0.0
  0
SPLINE
  5
81
330
1F
100
AcDbEntity
  8
CONTINUOUS
  6
CONTINUOUS
 62
     1
100
AcDbSpline
210
0.0
220
0.0
230
1.0
 70
     8
 71
     3
 72
     8
 73
     4
 74
     0
 42
0.000000001
 43
0.000000:
 12
1.0
 22
0.0
 32
0.0
 13
1.0
 23
0.0
 33
0.0
 40
0.0
 40
0.0
 40
0.0
 40
0.0
 40
1.0
 40
1.0
 40
1.0
 40
1.0
 10
0.0
 20
44.900003
 30
0.0
 10
0.750258000000002
 20
44.900003
 30
0.0
 10
1.44352599999999
 20
45.300261
 30
0.0
 10
1.818655000000009
 20
45.950003
 30
0.0
  0
SPLINE
  5
82
330
1F
100
AcDbEntity
  8
CONTINUOUS
  6
CONTINUOUS
 62
     1
100
AcDbSpline
210
0.0
220
0.0
230
1.0
 70
     8
 71
     3
 72
     8
 73
     4
 74
     0
 42
0.000000001
 43
0.000000:
 12
1.0
 22
0.0
 32
0.0
 13
1.0
 23
0.0
 33
0.0
 40
0.0
 40
0.0
 40
0.0
 40
0.0
 40
1.0
 40
1.0
 40
1.0
 40
1.0
 10
1.81865500000001
 20
45.950003
 30
0.0
 10
2.19378399999999
 20
46.599746
 30
0.0
 10
2.19378399999999
 20
47.400262
 30
0.0
 10
1.81865500000001
 20
48.0500050000001
 30
0.0
  0
SPLINE
  5
83
330
1F
100
AcDbEntity
  8
CONTINUOUS
  6
CONTINUOUS
 62
     1
100
AcDbSpline
210
0.0
220
0.0
230
1.0
 70
     8
 71
     3
 72
     8
 73
     4
 74
     0
 42
0.000000001
 43
0.000000:
 12
1.0
 22
0.0
 32
0.0
 13
1.0
 23
0.0
 33
0.0
 40
0.0
 40
0.0
 40
0.0
 40
0.0
 40
1.0
 40
1.0
 40
1.0
 40
1.0
 10
1.81865500000001
 20
48.0500050000001
 30
0.0
 10
1.44352599999999
 20
48.699748
 30
0.0
 10
0.750258000000002
 20
49.100006
 30
0.0
 10
0.0
 20
49.100006
 30
0.0
  0
SPLINE
  5
84
330
1F
100
AcDbEntity
  8
CONTINUOUS
  6
CONTINUOUS
 62
     1
100
AcDbSpline
210
0.0
220
0.0
230
1.0
 70
     8
 71
     3
 72
     8
 73
     4
 74
     0
 42
0.000000001
 43
0.000000:
 12
1.0
 22
0.0
 32
0.0
 13
1.0
 23
0.0
 33
0.0
 40
0.0
 40
0.0
 40
0.0
 40
0.0
 40
1.0
 40
1.0
 40
1.0
 40
1.0
 10
0.0
 20
31.0999850000001
 30
0.0
 10
-0.750258000000002
 20
31.0999850000001
 30
0.0
 10
-1.44352599999999
 20
30.6997270000001
 30
0.0
 10
-1.81865500000001
 20
30.049985
 30
0.0
  0
SPLINE
  5
85
330
1F
100
AcDbEntity
  8
CONTINUOUS
  6
CONTINUOUS
 62
     1
100
AcDbSpline
210
0.0
220
0.0
230
1.0
 70
     8
 71
     3
 72
     8
 73
     4
 74
     0
 42
0.000000001
 43
0.000000:
 12
1.0
 22
0.0
 32
0.0
 13
1.0
 23
0.0
 33
0.0
 40
0.0
 40
0.0
 40
0.0
 40
0.0
 40
1.0
 40
1.0
 40
1.0
 40
1.0
 10
-1.81865500000001
 20
30.049985
 30
0.0
 10
-2.19378399999999
 20
29.400242
 30
0.0
 10
-2.19378399999999
 20
28.599726
 30
0.0
 10
-1.81865500000001
 20
27.949983
 30
0.0
  0
SPLINE
  5
86
330
1F
100
AcDbEntity
  8
CONTINUOUS
  6
CONTINUOUS
 62
     1
100
AcDbSpline
210
0.0
220
0.0
230
1.0
 70
     8
 71
     3
 72
     8
 73
     4
 74
     0
 42
0.000000001
 43
0.000000:
 12
1.0
 22
0.0
 32
0.0
 13
1.0
 23
0.0
 33
0.0
 40
0.0
 40
0.0
 40
0.0
 40
0.0
 40
1.0
 40
1.0
 40
1.0
 40
1.0
 10
-1.81865500000001
 20
27.949983
 30
0.0
 10
-1.44352599999999
 20
27.30024
 30
0.0
 10
-0.750258000000002
 20
26.899982
 30
0.0
 10
0.0
 20
26.899982
 30
0.0
  0
SPLINE
  5
87
330
1F
100
AcDbEntity
  8
CONTINUOUS
  6
CONTINUOUS
 62
     1
100
AcDbSpline
210
0.0
220
0.0
230
1.0
 70
     8
 71
     3
 72
     8
 73
     4
 74
     0
 42
0.000000001
 43
0.000000:
 12
1.0
 22
0.0
 32
0.0
 13
1.0
 23
0.0
 33
0.0
 40
0.0
 40
0.0
 40
0.0
 40
0.0
 40
1.0
 40
1.0
 40
1.0
 40
1.0
 10
0.0
 20
26.899982
 30
0.0
 10
0.750258000000002
 20
26.899982
 30
0.0
 10
1.44352599999999
 20
27.30024
 30
0.0
 10
1.81865500000001
 20
27.949983
 30
0.0
  0
SPLINE
  5
88
330
1F
100
AcDbEntity
  8
CONTINUOUS
  6
CONTINUOUS
 62
     1
100
AcDbSpline
210
0.0
220
0.0
230
1.0
 70
     8
 71
     3
 72
     8
 73
     4
 74
     0
 42
0.000000001
 43
0.000000:
 12
1.0
 22
0.0
 32
0.0
 13
1.0
 23
0.0
 33
0.0
 40
0.0
 40
0.0
 40
0.0
 40
0.0
 40
1.0
 40
1.0
 40
1.0
 40
1.0
 10
1.81865500000001
 20
27.949983
 30
0.0
 10
2.19378399999999
 20
28.599726
 30
0.0
 10
2.19378399999999
 20
29.400242
 30
0.0
 10
1.81865500000001
 20
30.049985
 30
0.0
  0
SPLINE
  5
89
330
1F
100
AcDbEntity
  8
CONTINUOUS
  6
CONTINUOUS
 62
     1
100
AcDbSpline
210
0.0
220
0.0
230
1.0
 70
     8
 71
     3
 72
     8
 73
     4
 74
     0
 42
0.000000001
 43
0.000000:
 12
1.0
 22
0.0
 32
0.0
 13
1.0
 23
0.0
 33
0.0
 40
0.0
 40
0.0
 40
0.0
 40
0.0
 40
1.0
 40
1.0
 40
1.0
 40
1.0
 10
1.81865500000001
 20
30.049985
 30
0.0
 10
1.44352599999999
 20
30.6997280000001
 30
0.0
 10
0.750258000000002
 20
31.0999860000001
 30
0.0
 10
0.0
 20
31.0999850000001
 30
0.0
  0
SPLINE
  5
8A
330
1F
100
AcDbEntity
  8
CONTINUOUS
  6
CONTINUOUS
 62
     1
100
AcDbSpline
210
0.0
220
0.0
230
1.0
 70
     8
 71
     3
 72
     8
 73
     4
 74
     0
 42
0.000000001
 43
0.000000:
 12
1.0
 22
0.0
 32
0.0
 13
1.0
 23
0.0
 33
0.0
 40
0.0
 40
0.0
 40
0.0
 40
0.0
 40
1.0
 40
1.0
 40
1.0
 40
1.0
 10
-90.000018
 20
77.9999850000001
 30
0.0
 10
-92.858147
 20
77.999985
 30
0.0
 10
-95.499167
 20
79.524778
 30
0.0
 10
-96.928232
 20
81.999991
 30
0.0
  0
SPLINE
  5
8B
330
1F
100
AcDbEntity
  8
CONTINUOUS
  6
CONTINUOUS
 62
     1
100
AcDbSpline
210
0.0
220
0.0
230
1.0
 70
     8
 71
     3
 72
     8
 73
     4
 74
     0
 42
0.000000001
 43
0.000000:
 12
1.0
 22
0.0
 32
0.0
 13
1.0
 23
0.0
 33
0.0
 40
0.0
 40
0.0
 40
0.0
 40
0.0
 40
1.0
 40
1.0
 40
1.0
 40
1.0
 10
-96.928232
 20
81.999991
 30
0.0
 10
-98.357296
 20
84.475203
 30
0.0
 10
-98.357296
 20
87.5247910000001
 30
0.0
 10
-96.928232
 20
90.000003
 30
0.0
  0
SPLINE
  5
8C
330
1F
100
AcDbEntity
  8
CONTINUOUS
  6
CONTINUOUS
 62
     1
100
AcDbSpline
210
0.0
220
0.0
230
1.0
 70
     8
 71
     3
 72
     8
 73
     4
 74
     0
 42
0.000000001
 43
0.000000:
 12
1.0
 22
0.0
 32
0.0
 13
1.0
 23
0.0
 33
0.0
 40
0.0
 40
0.0
 40
0.0
 40
0.0
 40
1.0
 40
1.0
 40
1.0
 40
1.0
 10
-96.928232
 20
90.000003
 30
0.0
 10
-95.499167
 20
92.475215
 30
0.0
 10
-92.858147
 20
94.000009
 30
0.0
 10
-90.000018
 20
94.000009
 30
0.0
  0
SPLINE
  5
8D
330
1F
100
AcDbEntity
  8
CONTINUOUS
  6
CONTINUOUS
 62
     1
100
AcDbSpline
210
0.0
220
0.0
230
1.0
 70
     8
 71
     3
 72
     8
 73
     4
 74
     0
 42
0.000000001
 43
0.000000:
 12
1.0
 22
0.0
 32
0.0
 13
1.0
 23
0.0
 33
0.0
 40
0.0
 40
0.0
 40
0.0
 40
0.0
 40
1.0
 40
1.0
 40
1.0
 40
1.0
 10
194.000007
 20
89.99998899999996
 30
0.0
 10
192.569053
 20
90.00283300000002
 30
0.0
 10
191.245579
 20
89.24106200000006
 30
0.0
 10
190.5292799999999
 20
88.00229200000007
 30
0.0
  0
SPLINE
  5
8E
330
1F
100
AcDbEntity
  8
CONTINUOUS
  6
CONTINUOUS
 62
     1
100
AcDbSpline
210
0.0
220
0.0
230
1.0
 70
     8
 71
     3
 72
     8
 73
     4
 74
     0
 42
0.000000001
 43
0.000000:
 12
1.0
 22
0.0
 32
0.0
 13
1.0
 23
0.0
 33
0.0
 40
0.0
 40
0.0
 40
0.0
 40
0.0
 40
1.0
 40
1.0
 40
1.0
 40
1.0
 10
190.5292799999999
 20
88.00229200000008
 30
0.0
 10
189.812981
 20
86.76352199999997
 30
0.0
 10
189.812981
 20
85.23647200000008
 30
0.0
 10
190.52928
 20
83.99770200000009
 30
0.0
  0
SPLINE
  5
8F
330
1F
100
AcDbEntity
  8
CONTINUOUS
  6
CONTINUOUS
 62
     1
100
AcDbSpline
210
0.0
220
0.0
230
1.0
 70
     8
 71
     3
 72
     8
 73
     4
 74
     0
 42
0.000000001
 43
0.000000:
 12
1.0
 22
0.0
 32
0.0
 13
1.0
 23
0.0
 33
0.0
 40
0.0
 40
0.0
 40
0.0
 40
0.0
 40
1.0
 40
1.0
 40
1.0
 40
1.0
 10
190.52928
 20
83.99770200000007
 30
0.0
 10
191.245579
 20
82.75893199999997
 30
0.0
 10
192.569053
 20
81.99716099999998
 30
0.0
 10
194.000007
 20
82.00000500000007
 30
0.0
  0
SPLINE
  5
90
330
1F
100
AcDbEntity
  8
CONTINUOUS
  6
CONTINUOUS
 62
     1
100
AcDbSpline
210
0.0
220
0.0
230
1.0
 70
     8
 71
     3
 72
     8
 73
     4
 74
     0
 42
0.000000001
 43
0.000000:
 12
1.0
 22
0.0
 32
0.0
 13
1.0
 23
0.0
 33
0.0
 40
0.0
 40
0.0
 40
0.0
 40
0.0
 40
1.0
 40
1.0
 40
1.0
 40
1.0
 10
194.000007
 20
82.00000500000007
 30
0.0
 10
195.43096
 20
81.99716100000008
 30
0.0
 10
196.754434
 20
82.75893199999997
 30
0.0
 10
197.470733
 20
83.99770199999998
 30
0.0
  0
SPLINE
  5
91
330
1F
100
AcDbEntity
  8
CONTINUOUS
  6
CONTINUOUS
 62
     1
100
AcDbSpline
210
0.0
220
0.0
230
1.0
 70
     8
 71
     3
 72
     8
 73
     4
 74
     0
 42
0.000000001
 43
0.000000:
 12
1.0
 22
0.0
 32
0.0
 13
1.0
 23
0.0
 33
0.0
 40
0.0
 40
0.0
 40
0.0
 40
0.0
 40
1.0
 40
1.0
 40
1.0
 40
1.0
 10
197.470733
 20
83.99770199999998
 30
0.0
 10
198.187033
 20
85.23647200000008
 30
0.0
 10
198.187033
 20
86.76352199999997
 30
0.0
 10
197.470733
 20
88.00229199999997
 30
0.0
  0
SPLINE
  5
92
330
1F
100
AcDbEntity
  8
CONTINUOUS
  6
CONTINUOUS
 62
     1
100
AcDbSpline
210
0.0
220
0.0
230
1.0
 70
     8
 71
     3
 72
     8
 73
     4
 74
     0
 42
0.000000001
 43
0.000000:
 12
1.0
 22
0.0
 32
0.0
 13
1.0
 23
0.0
 33
0.0
 40
0.0
 40
0.0
 40
0.0
 40
0.0
 40
1.0
 40
1.0
 40
1.0
 40
1.0
 10
197.470733
 20
88.00229199999995
 30
0.0
 10
196.754434
 20
89.24106200000004
 30
0.0
 10
195.43096
 20
90.002833
 30
0.0
 10
194.000007
 20
89.99998899999996
 30
0.0
  0
SPLINE
  5
93
330
1F
100
AcDbEntity
  8
CONTINUOUS
  6
CONTINUOUS
 62
     1
100
AcDbSpline
210
0.0
220
0.0
230
1.0
 70
     8
 71
     3
 72
     8
 73
     4
 74
     0
 42
0.000000001
 43
0.000000:
 12
1.0
 22
0.0
 32
0.0
 13
1.0
 23
0.0
 33
0.0
 40
0.0
 40
0.0
 40
0.0
 40
0.0
 40
1.0
 40
1.0
 40
1.0
 40
1.0
 10
89.999989
 20
77.9999850000001
 30
0.0
 10
92.858118
 20
77.99998500000007
 30
0.0
 10
95.49913800000002
 20
79.52477800000004
 30
0.0
 10
96.92820300000004
 20
81.99999100000002
 30
0.0
  0
SPLINE
  5
94
330
1F
100
AcDbEntity
  8
CONTINUOUS
  6
CONTINUOUS
 62
     1
100
AcDbSpline
210
0.0
220
0.0
230
1.0
 70
     8
 71
     3
 72
     8
 73
     4
 74
     0
 42
0.000000001
 43
0.000000:
 12
1.0
 22
0.0
 32
0.0
 13
1.0
 23
0.0
 33
0.0
 40
0.0
 40
0.0
 40
0.0
 40
0.0
 40
1.0
 40
1.0
 40
1.0
 40
1.0
 10
96.92820300000004
 20
81.99999100000002
 30
0.0
 10
98.35726700000002
 20
84.47520300000004
 30
0.0
 10
98.35726700000001
 20
87.52479100000015
 30
0.0
 10
96.928203
 20
90.00000300000004
 30
0.0
  0
SPLINE
  5
95
330
1F
100
AcDbEntity
  8
CONTINUOUS
  6
CONTINUOUS
 62
     1
100
AcDbSpline
210
0.0
220
0.0
230
1.0
 70
     8
 71
     3
 72
     8
 73
     4
 74
     0
 42
0.000000001
 43
0.000000:
 12
1.0
 22
0.0
 32
0.0
 13
1.0
 23
0.0
 33
0.0
 40
0.0
 40
0.0
 40
0.0
 40
0.0
 40
1.0
 40
1.0
 40
1.0
 40
1.0
 10
96.928203
 20
90.00000300000004
 30
0.0
 10
95.49913799999999
 20
92.47521500000003
 30
0.0
 10
92.85811799999999
 20
94.00000900000002
 30
0.0
 10
89.99998899999999
 20
94.00000899999992
 30
0.0
  0
SPLINE
  5
96
330
1F
100
AcDbEntity
  8
CONTINUOUS
  6
CONTINUOUS
 62
     1
100
AcDbSpline
210
0.0
220
0.0
230
1.0
 70
     8
 71
     3
 72
     8
 73
     4
 74
     0
 42
0.000000001
 43
0.000000:
 12
1.0
 22
0.0
 32
0.0
 13
1.0
 23
0.0
 33
0.0
 40
0.0
 40
0.0
 40
0.0
 40
0.0
 40
1.0
 40
1.0
 40
1.0
 40
1.0
 10
163.999982
 20
98.9999990000001
 30
0.0
 10
159.355529
 20
98.999999
 30
0.0
 10
155.063877
 20
96.522213
 30
0.0
 10
152.74165
 20
92.499998
 30
0.0
  0
SPLINE
  5
97
330
1F
100
AcDbEntity
  8
CONTINUOUS
  6
CONTINUOUS
 62
     1
100
AcDbSpline
210
0.0
220
0.0
230
1.0
 70
     8
 71
     3
 72
     8
 73
     4
 74
     0
 42
0.000000001
 43
0.000000:
 12
1.0
 22
0.0
 32
0.0
 13
1.0
 23
0.0
 33
0.0
 40
0.0
 40
0.0
 40
0.0
 40
0.0
 40
1.0
 40
1.0
 40
1.0
 40
1.0
 10
152.74165
 20
92.499998
 30
0.0
 10
150.419423
 20
88.4777830000001
 30
0.0
 10
150.419423
 20
83.52221
 30
0.0
 10
152.74165
 20
79.499996
 30
0.0
  0
SPLINE
  5
98
330
1F
100
AcDbEntity
  8
CONTINUOUS
  6
CONTINUOUS
 62
     1
100
AcDbSpline
210
0.0
220
0.0
230
1.0
 70
     8
 71
     3
 72
     8
 73
     4
 74
     0
 42
0.000000001
 43
0.000000:
 12
1.0
 22
0.0
 32
0.0
 13
1.0
 23
0.0
 33
0.0
 40
0.0
 40
0.0
 40
0.0
 40
0.0
 40
1.0
 40
1.0
 40
1.0
 40
1.0
 10
152.74165
 20
79.499996
 30
0.0
 10
155.063877
 20
75.4777810000001
 30
0.0
 10
159.355529
 20
72.9999950000001
 30
0.0
 10
163.999982
 20
72.9999950000001
 30
0.0
  0
SPLINE
  5
99
330
1F
100
AcDbEntity
  8
CONTINUOUS
  6
CONTINUOUS
 62
     1
100
AcDbSpline
210
0.0
220
0.0
230
1.0
 70
     8
 71
     3
 72
     8
 73
     4
 74
     0
 42
0.000000001
 43
0.000000:
 12
1.0
 22
0.0
 32
0.0
 13
1.0
 23
0.0
 33
0.0
 40
0.0
 40
0.0
 40
0.0
 40
0.0
 40
1.0
 40
1.0
 40
1.0
 40
1.0
 10
163.999982
 20
72.9999950000001
 30
0.0
 10
168.644436
 20
72.9999939999999
 30
0.0
 10
172.936088
 20
75.477781
 30
0.0
 10
175.258315
 20
79.4999949999998
 30
0.0
  0
SPLINE
  5
9A
330
1F
100
AcDbEntity
  8
CONTINUOUS
  6
CONTINUOUS
 62
     1
100
AcDbSpline
210
0.0
220
0.0
230
1.0
 70
     8
 71
     3
 72
     8
 73
     4
 74
     0
 42
0.000000001
 43
0.000000:
 12
1.0
 22
0.0
 32
0.0
 13
1.0
 23
0.0
 33
0.0
 40
0.0
 40
0.0
 40
0.0
 40
0.0
 40
1.0
 40
1.0
 40
1.0
 40
1.0
 10
175.258315
 20
79.4999949999998
 30
0.0
 10
177.580542
 20
83.5222099999998
 30
0.0
 10
177.580542
 20
88.4777829999999
 30
0.0
 10
175.258315
 20
92.4999979999998
 30
0.0
  0
SPLINE
  5
9B
330
1F
100
AcDbEntity
  8
CONTINUOUS
  6
CONTINUOUS
 62
     1
100
AcDbSpline
210
0.0
220
0.0
230
1.0
 70
     8
 71
     3
 72
     8
 73
     4
 74
     0
 42
0.000000001
 43
0.000000:
 12
1.0
 22
0.0
 32
0.0
 13
1.0
 23
0.0
 33
0.0
 40
0.0
 40
0.0
 40
0.0
 40
0.0
 40
1.0
 40
1.0
 40
1.0
 40
1.0
 10
175.258315
 20
92.4999979999998
 30
0.0
 10
172.936088
 20
96.5222129999998
 30
0.0
 10
168.644436
 20
98.9999999999999
 30
0.0
 10
163.999982
 20
98.9999990000001
 30
0.0
  0
SPLINE
  5
9C
330
1F
100
AcDbEntity
  8
CONTINUOUS
  6
CONTINUOUS
 62
     1
100
AcDbSpline
210
0.0
220
0.0
230
1.0
 70
     8
 71
     3
 72
     8
 73
     4
 74
     0
 42
0.000000001
 43
0.000000:
 12
1.0
 22
0.0
 32
0.0
 13
1.0
 23
0.0
 33
0.0
 40
0.0
 40
0.0
 40
0.0
 40
0.0
 40
1.0
 40
1.0
 40
1.0
 40
1.0
 10
148.499999
 20
103.200002
 30
0.0
 10
147.892645
 20
103.200002
 30
0.0
 10
147.331426
 20
102.875982
 30
0.0
 10
147.027749
 20
102.349998
 30
0.0
  0
SPLINE
  5
9D
330
1F
100
AcDbEntity
  8
CONTINUOUS
  6
CONTINUOUS
 62
     1
100
AcDbSpline
210
0.0
220
0.0
230
1.0
 70
     8
 71
     3
 72
     8
 73
     4
 74
     0
 42
0.000000001
 43
0.000000:
 12
1.0
 22
0.0
 32
0.0
 13
1.0
 23
0.0
 33
0.0
 40
0.0
 40
0.0
 40
0.0
 40
0.0
 40
1.0
 40
1.0
 40
1.0
 40
1.0
 10
147.027749
 20
102.349998
 30
0.0
 10
146.724072
 20
101.824014
 30
0.0
 10
146.724072
 20
101.175974
 30
0.0
 10
147.027749
 20
100.64999
 30
0.0
  0
SPLINE
  5
9E
330
1F
100
AcDbEntity
  8
CONTINUOUS
  6
CONTINUOUS
 62
     1
100
AcDbSpline
210
0.0
220
0.0
230
1.0
 70
     8
 71
     3
 72
     8
 73
     4
 74
     0
 42
0.000000001
 43
0.000000:
 12
1.0
 22
0.0
 32
0.0
 13
1.0
 23
0.0
 33
0.0
 40
0.0
 40
0.0
 40
0.0
 40
0.0
 40
1.0
 40
1.0
 40
1.0
 40
1.0
 10
147.027749
 20
100.64999
 30
0.0
 10
147.331426
 20
100.124006
 30
0.0
 10
147.892645
 20
99.799986
 30
0.0
 10
148.499999
 20
99.799986
 30
0.0
  0
SPLINE
  5
9F
330
1F
100
AcDbEntity
  8
CONTINUOUS
  6
CONTINUOUS
 62
     1
100
AcDbSpline
210
0.0
220
0.0
230
1.0
 70
     8
 71
     3
 72
     8
 73
     4
 74
     0
 42
0.000000001
 43
0.000000:
 12
1.0
 22
0.0
 32
0.0
 13
1.0
 23
0.0
 33
0.0
 40
0.0
 40
0.0
 40
0.0
 40
0.0
 40
1.0
 40
1.0
 40
1.0
 40
1.0
 10
148.499999
 20
99.799986
 30
0.0
 10
149.107353
 20
99.799986
 30
0.0
 10
149.668572
 20
100.124006
 30
0.0
 10
149.972249
 20
100.64999
 30
0.0
  0
SPLINE
  5
A0
330
1F
100
AcDbEntity
  8
CONTINUOUS
  6
CONTINUOUS
 62
     1
100
AcDbSpline
210
0.0
220
0.0
230
1.0
 70
     8
 71
     3
 72
     8
 73
     4
 74
     0
 42
0.000000001
 43
0.000000:
 12
1.0
 22
0.0
 32
0.0
 13
1.0
 23
0.0
 33
0.0
 40
0.0
 40
0.0
 40
0.0
 40
0.0
 40
1.0
 40
1.0
 40
1.0
 40
1.0
 10
149.972249
 20
100.64999
 30
0.0
 10
150.275926
 20
101.175974
 30
0.0
 10
150.275926
 20
101.824014
 30
0.0
 10
149.972249
 20
102.349998
 30
0.0
  0
SPLINE
  5
A1
330
1F
100
AcDbEntity
  8
CONTINUOUS
  6
CONTINUOUS
 62
     1
100
AcDbSpline
210
0.0
220
0.0
230
1.0
 70
     8
 71
     3
 72
     8
 73
     4
 74
     0
 42
0.000000001
 43
0.000000:
 12
1.0
 22
0.0
 32
0.0
 13
1.0
 23
0.0
 33
0.0
 40
0.0
 40
0.0
 40
0.0
 40
0.0
 40
1.0
 40
1.0
 40
1.0
 40
1.0
 10
149.972249
 20
102.349998
 30
0.0
 10
149.668572
 20
102.875982
 30
0.0
 10
149.107353
 20
103.200002
 30
0.0
 10
148.499999
 20
103.200002
 30
0.0
  0
SPLINE
  5
A2
330
1F
100
AcDbEntity
  8
CONTINUOUS
  6
CONTINUOUS
 62
     1
100
AcDbSpline
210
0.0
220
0.0
230
1.0
 70
     8
 71
     3
 72
     8
 73
     4
 74
     0
 42
0.000000001
 43
0.000000:
 12
1.0
 22
0.0
 32
0.0
 13
1.0
 23
0.0
 33
0.0
 40
0.0
 40
0.0
 40
0.0
 40
0.0
 40
1.0
 40
1.0
 40
1.0
 40
1.0
 10
179.499994
 20
103.200002
 30
0.0
 10
178.892639
 20
103.200002
 30
0.0
 10
178.331421
 20
102.875982
 30
0.0
 10
178.027744
 20
102.349998
 30
0.0
  0
SPLINE
  5
A3
330
1F
100
AcDbEntity
  8
CONTINUOUS
  6
CONTINUOUS
 62
     1
100
AcDbSpline
210
0.0
220
0.0
230
1.0
 70
     8
 71
     3
 72
     8
 73
     4
 74
     0
 42
0.000000001
 43
0.000000:
 12
1.0
 22
0.0
 32
0.0
 13
1.0
 23
0.0
 33
0.0
 40
0.0
 40
0.0
 40
0.0
 40
0.0
 40
1.0
 40
1.0
 40
1.0
 40
1.0
 10
178.027744
 20
102.349998
 30
0.0
 10
177.724066
 20
101.824014
 30
0.0
 10
177.724066
 20
101.175974
 30
0.0
 10
178.027744
 20
100.64999
 30
0.0
  0
SPLINE
  5
A4
330
1F
100
AcDbEntity
  8
CONTINUOUS
  6
CONTINUOUS
 62
     1
100
AcDbSpline
210
0.0
220
0.0
230
1.0
 70
     8
 71
     3
 72
     8
 73
     4
 74
     0
 42
0.000000001
 43
0.000000:
 12
1.0
 22
0.0
 32
0.0
 13
1.0
 23
0.0
 33
0.0
 40
0.0
 40
0.0
 40
0.0
 40
0.0
 40
1.0
 40
1.0
 40
1.0
 40
1.0
 10
178.027744
 20
100.64999
 30
0.0
 10
178.331421
 20
100.124006
 30
0.0
 10
178.892639
 20
99.7999859999999
 30
0.0
 10
179.499994
 20
99.799986
 30
0.0
  0
SPLINE
  5
A5
330
1F
100
AcDbEntity
  8
CONTINUOUS
  6
CONTINUOUS
 62
     1
100
AcDbSpline
210
0.0
220
0.0
230
1.0
 70
     8
 71
     3
 72
     8
 73
     4
 74
     0
 42
0.000000001
 43
0.000000:
 12
1.0
 22
0.0
 32
0.0
 13
1.0
 23
0.0
 33
0.0
 40
0.0
 40
0.0
 40
0.0
 40
0.0
 40
1.0
 40
1.0
 40
1.0
 40
1.0
 10
179.499994
 20
99.799986
 30
0.0
 10
180.107348
 20
99.799986
 30
0.0
 10
180.668566
 20
100.124006
 30
0.0
 10
180.972244
 20
100.64999
 30
0.0
  0
SPLINE
  5
A6
330
1F
100
AcDbEntity
  8
CONTINUOUS
  6
CONTINUOUS
 62
     1
100
AcDbSpline
210
0.0
220
0.0
230
1.0
 70
     8
 71
     3
 72
     8
 73
     4
 74
     0
 42
0.000000001
 43
0.000000:
 12
1.0
 22
0.0
 32
0.0
 13
1.0
 23
0.0
 33
0.0
 40
0.0
 40
0.0
 40
0.0
 40
0.0
 40
1.0
 40
1.0
 40
1.0
 40
1.0
 10
180.972244
 20
100.64999
 30
0.0
 10
181.275921
 20
101.175974
 30
0.0
 10
181.275921
 20
101.824014
 30
0.0
 10
180.972244
 20
102.349998
 30
0.0
  0
SPLINE
  5
A7
330
1F
100
AcDbEntity
  8
CONTINUOUS
  6
CONTINUOUS
 62
     1
100
AcDbSpline
210
0.0
220
0.0
230
1.0
 70
     8
 71
     3
 72
     8
 73
     4
 74
     0
 42
0.000000001
 43
0.000000:
 12
1.0
 22
0.0
 32
0.0
 13
1.0
 23
0.0
 33
0.0
 40
0.0
 40
0.0
 40
0.0
 40
0.0
 40
1.0
 40
1.0
 40
1.0
 40
1.0
 10
180.972244
 20
102.349998
 30
0.0
 10
180.668566
 20
102.875982
 30
0.0
 10
180.107348
 20
103.200002
 30
0.0
 10
179.499994
 20
103.200002
 30
0.0
  0
SPLINE
  5
A8
330
1F
100
AcDbEntity
  8
CONTINUOUS
  6
CONTINUOUS
 62
     1
100
AcDbSpline
210
0.0
220
0.0
230
1.0
 70
     8
 71
     3
 72
     8
 73
     4
 74
     0
 42
0.000000001
 43
0.000000:
 12
1.0
 22
0.0
 32
0.0
 13
1.0
 23
0.0
 33
0.0
 40
0.0
 40
0.0
 40
0.0
 40
0.0
 40
1.0
 40
1.0
 40
1.0
 40
1.0
 10
179.499994
 20
72.20000800000005
 30
0.0
 10
178.892639
 20
72.20000800000003
 30
0.0
 10
178.331421
 20
71.875988
 30
0.0
 10
178.027744
 20
71.350004
 30
0.0
  0
SPLINE
  5
A9
330
1F
100
AcDbEntity
  8
CONTINUOUS
  6
CONTINUOUS
 62
     1
100
AcDbSpline
210
0.0
220
0.0
230
1.0
 70
     8
 71
     3
 72
     8
 73
     4
 74
     0
 42
0.000000001
 43
0.000000:
 12
1.0
 22
0.0
 32
0.0
 13
1.0
 23
0.0
 33
0.0
 40
0.0
 40
0.0
 40
0.0
 40
0.0
 40
1.0
 40
1.0
 40
1.0
 40
1.0
 10
178.027744
 20
71.350004
 30
0.0
 10
177.724066
 20
70.824019
 30
0.0
 10
177.724066
 20
70.17598
 30
0.0
 10
178.027744
 20
69.649996
 30
0.0
  0
SPLINE
  5
AA
330
1F
100
AcDbEntity
  8
CONTINUOUS
  6
CONTINUOUS
 62
     1
100
AcDbSpline
210
0.0
220
0.0
230
1.0
 70
     8
 71
     3
 72
     8
 73
     4
 74
     0
 42
0.000000001
 43
0.000000:
 12
1.0
 22
0.0
 32
0.0
 13
1.0
 23
0.0
 33
0.0
 40
0.0
 40
0.0
 40
0.0
 40
0.0
 40
1.0
 40
1.0
 40
1.0
 40
1.0
 10
178.027744
 20
69.649996
 30
0.0
 10
178.331421
 20
69.12401100000001
 30
0.0
 10
178.892639
 20
68.79999200000002
 30
0.0
 10
179.499994
 20
68.79999200000003
 30
0.0
  0
SPLINE
  5
AB
330
1F
100
AcDbEntity
  8
CONTINUOUS
  6
CONTINUOUS
 62
     1
100
AcDbSpline
210
0.0
220
0.0
230
1.0
 70
     8
 71
     3
 72
     8
 73
     4
 74
     0
 42
0.000000001
 43
0.000000:
 12
1.0
 22
0.0
 32
0.0
 13
1.0
 23
0.0
 33
0.0
 40
0.0
 40
0.0
 40
0.0
 40
0.0
 40
1.0
 40
1.0
 40
1.0
 40
1.0
 10
179.499994
 20
68.79999200000003
 30
0.0
 10
180.107348
 20
68.79999200000005
 30
0.0
 10
180.668566
 20
69.12401100000004
 30
0.0
 10
180.972244
 20
69.64999600000006
 30
0.0
  0
SPLINE
  5
AC
330
1F
100
AcDbEntity
  8
CONTINUOUS
  6
CONTINUOUS
 62
     1
100
AcDbSpline
210
0.0
220
0.0
230
1.0
 70
     8
 71
     3
 72
     8
 73
     4
 74
     0
 42
0.000000001
 43
0.000000:
 12
1.0
 22
0.0
 32
0.0
 13
1.0
 23
0.0
 33
0.0
 40
0.0
 40
0.0
 40
0.0
 40
0.0
 40
1.0
 40
1.0
 40
1.0
 40
1.0
 10
180.972244
 20
69.64999600000006
 30
0.0
 10
181.275921
 20
70.17598000000005
 30
0.0
 10
181.275921
 20
70.82401900000006
 30
0.0
 10
180.972244
 20
71.35000400000006
 30
0.0
  0
SPLINE
  5
AD
330
1F
100
AcDbEntity
  8
CONTINUOUS
  6
CONTINUOUS
 62
     1
100
AcDbSpline
210
0.0
220
0.0
230
1.0
 70
     8
 71
     3
 72
     8
 73
     4
 74
     0
 42
0.000000001
 43
0.000000:
 12
1.0
 22
0.0
 32
0.0
 13
1.0
 23
0.0
 33
0.0
 40
0.0
 40
0.0
 40
0.0
 40
0.0
 40
1.0
 40
1.0
 40
1.0
 40
1.0
 10
180.972244
 20
71.35000400000006
 30
0.0
 10
180.6685659999999
 20
71.87598800000005
 30
0.0
 10
180.1073479999999
 20
72.20000800000008
 30
0.0
 10
179.4999939999999
 20
72.20000800000008
 30
0.0
  0
SPLINE
  5
AE
330
1F
100
AcDbEntity
  8
CONTINUOUS
  6
CONTINUOUS
 62
     1
100
AcDbSpline
210
0.0
220
0.0
230
1.0
 70
     8
 71
     3
 72
     8
 73
     4
 74
     0
 42
0.000000001
 43
0.000000:
 12
1.0
 22
0.0
 32
0.0
 13
1.0
 23
0.0
 33
0.0
 40
0.0
 40
0.0
 40
0.0
 40
0.0
 40
1.0
 40
1.0
 40
1.0
 40
1.0
 10
148.499999
 20
72.20000800000003
 30
0.0
 10
147.892645
 20
72.20000800000001
 30
0.0
 10
147.331426
 20
71.87598799999998
 30
0.0
 10
147.027749
 20
71.35000399999997
 30
0.0
  0
SPLINE
  5
AF
330
1F
100
AcDbEntity
  8
CONTINUOUS
  6
CONTINUOUS
 62
     1
100
AcDbSpline
210
0.0
220
0.0
230
1.0
 70
     8
 71
     3
 72
     8
 73
     4
 74
     0
 42
0.000000001
 43
0.000000:
 12
1.0
 22
0.0
 32
0.0
 13
1.0
 23
0.0
 33
0.0
 40
0.0
 40
0.0
 40
0.0
 40
0.0
 40
1.0
 40
1.0
 40
1.0
 40
1.0
 10
147.027749
 20
71.35000399999997
 30
0.0
 10
146.724072
 20
70.82401899999996
 30
0.0
 10
146.7240720000001
 20
70.17597999999995
 30
0.0
 10
147.0277490000001
 20
69.64999599999997
 30
0.0
  0
SPLINE
  5
B0
330
1F
100
AcDbEntity
  8
CONTINUOUS
  6
CONTINUOUS
 62
     1
100
AcDbSpline
210
0.0
220
0.0
230
1.0
 70
     8
 71
     3
 72
     8
 73
     4
 74
     0
 42
0.000000001
 43
0.000000:
 12
1.0
 22
0.0
 32
0.0
 13
1.0
 23
0.0
 33
0.0
 40
0.0
 40
0.0
 40
0.0
 40
0.0
 40
1.0
 40
1.0
 40
1.0
 40
1.0
 10
147.0277490000001
 20
69.64999599999997
 30
0.0
 10
147.3314260000001
 20
69.12401099999997
 30
0.0
 10
147.8926450000002
 20
68.79999200000006
 30
0.0
 10
148.4999990000002
 20
68.79999200000007
 30
0.0
  0
SPLINE
  5
B1
330
1F
100
AcDbEntity
  8
CONTINUOUS
  6
CONTINUOUS
 62
     1
100
AcDbSpline
210
0.0
220
0.0
230
1.0
 70
     8
 71
     3
 72
     8
 73
     4
 74
     0
 42
0.000000001
 43
0.000000:
 12
1.0
 22
0.0
 32
0.0
 13
1.0
 23
0.0
 33
0.0
 40
0.0
 40
0.0
 40
0.0
 40
0.0
 40
1.0
 40
1.0
 40
1.0
 40
1.0
 10
148.4999990000002
 20
68.79999200000007
 30
0.0
 10
149.1073530000002
 20
68.79999200000009
 30
0.0
 10
149.6685720000001
 20
69.12401100000027
 30
0.0
 10
149.9722490000001
 20
69.64999600000027
 30
0.0
  0
SPLINE
  5
B2
330
1F
100
AcDbEntity
  8
CONTINUOUS
  6
CONTINUOUS
 62
     1
100
AcDbSpline
210
0.0
220
0.0
230
1.0
 70
     8
 71
     3
 72
     8
 73
     4
 74
     0
 42
0.000000001
 43
0.000000:
 12
1.0
 22
0.0
 32
0.0
 13
1.0
 23
0.0
 33
0.0
 40
0.0
 40
0.0
 40
0.0
 40
0.0
 40
1.0
 40
1.0
 40
1.0
 40
1.0
 10
149.9722490000001
 20
69.64999600000027
 30
0.0
 10
150.2759260000001
 20
70.17598000000028
 30
0.0
 10
150.275926
 20
70.82401900000029
 30
0.0
 10
149.972249
 20
71.35000400000027
 30
0.0
  0
SPLINE
  5
B3
330
1F
100
AcDbEntity
  8
CONTINUOUS
  6
CONTINUOUS
 62
     1
100
AcDbSpline
210
0.0
220
0.0
230
1.0
 70
     8
 71
     3
 72
     8
 73
     4
 74
     0
 42
0.000000001
 43
0.000000:
 12
1.0
 22
0.0
 32
0.0
 13
1.0
 23
0.0
 33
0.0
 40
0.0
 40
0.0
 40
0.0
 40
0.0
 40
1.0
 40
1.0
 40
1.0
 40
1.0
 10
149.972249
 20
71.35000400000025
 30
0.0
 10
149.668572
 20
71.87598800000025
 30
0.0
 10
149.107353
 20
72.20000800000018
 30
0.0
 10
148.499999
 20
72.20000800000003
 30
0.0
  0
SPLINE
  5
B4
330
1F
100
AcDbEntity
  8
CONTINUOUS
  6
CONTINUOUS
 62
     1
100
AcDbSpline
210
0.0
220
0.0
230
1.0
 70
     8
 71
     3
 72
     8
 73
     4
 74
     0
 42
0.000000001
 43
0.000000:
 12
1.0
 22
0.0
 32
0.0
 13
1.0
 23
0.0
 33
0.0
 40
0.0
 40
0.0
 40
0.0
 40
0.0
 40
1.0
 40
1.0
 40
1.0
 40
1.0
 10
196.000003
 20
115.9999930000001
 30
0.0
 10
201.522846
 20
115.9999820000001
 30
0.0
 10
205.999987
 20
111.522828
 30
0.0
 10
205.999983
 20
105.999985
 30
0.0
  0
SPLINE
  5
B5
330
1F
100
AcDbEntity
  8
CONTINUOUS
  6
CONTINUOUS
 62
     1
100
AcDbSpline
210
0.0
220
0.0
230
1.0
 70
     8
 71
     3
 72
     8
 73
     4
 74
     0
 42
0.000000001
 43
0.000000:
 12
1.0
 22
0.0
 32
0.0
 13
1.0
 23
0.0
 33
0.0
 40
0.0
 40
0.0
 40
0.0
 40
0.0
 40
1.0
 40
1.0
 40
1.0
 40
1.0
 10
104.999987
 20
49.100006
 30
0.0
 10
104.249729
 20
49.10000600000009
 30
0.0
 10
103.556462
 20
48.69974800000019
 30
0.0
 10
103.181332
 20
48.0500050000003
 30
0.0
  0
SPLINE
  5
B6
330
1F
100
AcDbEntity
  8
CONTINUOUS
  6
CONTINUOUS
 62
     1
100
AcDbSpline
210
0.0
220
0.0
230
1.0
 70
     8
 71
     3
 72
     8
 73
     4
 74
     0
 42
0.000000001
 43
0.000000:
 12
1.0
 22
0.0
 32
0.0
 13
1.0
 23
0.0
 33
0.0
 40
0.0
 40
0.0
 40
0.0
 40
0.0
 40
1.0
 40
1.0
 40
1.0
 40
1.0
 10
103.181332
 20
48.0500050000003
 30
0.0
 10
102.806203
 20
47.4002620000002
 30
0.0
 10
102.806203
 20
46.5997460000002
 30
0.0
 10
103.181332
 20
45.9500030000002
 30
0.0
  0
SPLINE
  5
B7
330
1F
100
AcDbEntity
  8
CONTINUOUS
  6
CONTINUOUS
 62
     1
100
AcDbSpline
210
0.0
220
0.0
230
1.0
 70
     8
 71
     3
 72
     8
 73
     4
 74
     0
 42
0.000000001
 43
0.000000:
 12
1.0
 22
0.0
 32
0.0
 13
1.0
 23
0.0
 33
0.0
 40
0.0
 40
0.0
 40
0.0
 40
0.0
 40
1.0
 40
1.0
 40
1.0
 40
1.0
 10
103.181332
 20
45.9500030000002
 30
0.0
 10
103.556462
 20
45.3002610000001
 30
0.0
 10
104.249729
 20
44.9000030000001
 30
0.0
 10
104.999987
 20
44.900003
 30
0.0
  0
SPLINE
  5
B8
330
1F
100
AcDbEntity
  8
CONTINUOUS
  6
CONTINUOUS
 62
     1
100
AcDbSpline
210
0.0
220
0.0
230
1.0
 70
     8
 71
     3
 72
     8
 73
     4
 74
     0
 42
0.000000001
 43
0.000000:
 12
1.0
 22
0.0
 32
0.0
 13
1.0
 23
0.0
 33
0.0
 40
0.0
 40
0.0
 40
0.0
 40
0.0
 40
1.0
 40
1.0
 40
1.0
 40
1.0
 10
104.999987
 20
44.900003
 30
0.0
 10
105.750246
 20
44.90000299999988
 30
0.0
 10
106.443513
 20
45.30026099999986
 30
0.0
 10
106.818643
 20
45.95000299999985
 30
0.0
  0
SPLINE
  5
B9
330
1F
100
AcDbEntity
  8
CONTINUOUS
  6
CONTINUOUS
 62
     1
100
AcDbSpline
210
0.0
220
0.0
230
1.0
 70
     8
 71
     3
 72
     8
 73
     4
 74
     0
 42
0.000000001
 43
0.000000:
 12
1.0
 22
0.0
 32
0.0
 13
1.0
 23
0.0
 33
0.0
 40
0.0
 40
0.0
 40
0.0
 40
0.0
 40
1.0
 40
1.0
 40
1.0
 40
1.0
 10
106.818643
 20
45.95000299999986
 30
0.0
 10
107.193772
 20
46.59974599999975
 30
0.0
 10
107.193772
 20
47.40026199999975
 30
0.0
 10
106.818643
 20
48.05000499999986
 30
0.0
  0
SPLINE
  5
BA
330
1F
100
AcDbEntity
  8
CONTINUOUS
  6
CONTINUOUS
 62
     1
100
AcDbSpline
210
0.0
220
0.0
230
1.0
 70
     8
 71
     3
 72
     8
 73
     4
 74
     0
 42
0.000000001
 43
0.000000:
 12
1.0
 22
0.0
 32
0.0
 13
1.0
 23
0.0
 33
0.0
 40
0.0
 40
0.0
 40
0.0
 40
0.0
 40
1.0
 40
1.0
 40
1.0
 40
1.0
 10
106.8186430000001
 20
48.05000499999985
 30
0.0
 10
106.443513
 20
48.69974799999984
 30
0.0
 10
105.750246
 20
49.10000599999982
 30
0.0
 10
104.999987
 20
49.100006
 30
0.0
  0
SPLINE
  5
BB
330
1F
100
AcDbEntity
  8
CONTINUOUS
  6
CONTINUOUS
 62
     1
100
AcDbSpline
210
0.0
220
0.0
230
1.0
 70
     8
 71
     3
 72
     8
 73
     4
 74
     0
 42
0.000000001
 43
0.000000:
 12
1.0
 22
0.0
 32
0.0
 13
1.0
 23
0.0
 33
0.0
 40
0.0
 40
0.0
 40
0.0
 40
0.0
 40
1.0
 40
1.0
 40
1.0
 40
1.0
 10
104.999987
 20
31.0999850000001
 30
0.0
 10
104.249729
 20
31.0999850000001
 30
0.0
 10
103.556462
 20
30.6997270000001
 30
0.0
 10
103.181333
 20
30.049985
 30
0.0
  0
SPLINE
  5
BC
330
1F
100
AcDbEntity
  8
CONTINUOUS
  6
CONTINUOUS
 62
     1
100
AcDbSpline
210
0.0
220
0.0
230
1.0
 70
     8
 71
     3
 72
     8
 73
     4
 74
     0
 42
0.000000001
 43
0.000000:
 12
1.0
 22
0.0
 32
0.0
 13
1.0
 23
0.0
 33
0.0
 40
0.0
 40
0.0
 40
0.0
 40
0.0
 40
1.0
 40
1.0
 40
1.0
 40
1.0
 10
103.181333
 20
30.049985
 30
0.0
 10
102.806204
 20
29.400242
 30
0.0
 10
102.806204
 20
28.599726
 30
0.0
 10
103.181333
 20
27.949983
 30
0.0
  0
SPLINE
  5
BD
330
1F
100
AcDbEntity
  8
CONTINUOUS
  6
CONTINUOUS
 62
     1
100
AcDbSpline
210
0.0
220
0.0
230
1.0
 70
     8
 71
     3
 72
     8
 73
     4
 74
     0
 42
0.000000001
 43
0.000000:
 12
1.0
 22
0.0
 32
0.0
 13
1.0
 23
0.0
 33
0.0
 40
0.0
 40
0.0
 40
0.0
 40
0.0
 40
1.0
 40
1.0
 40
1.0
 40
1.0
 10
103.181333
 20
27.949983
 30
0.0
 10
103.556462
 20
27.30024
 30
0.0
 10
104.249729
 20
26.899982
 30
0.0
 10
104.999987
 20
26.899982
 30
0.0
  0
SPLINE
  5
BE
330
1F
100
AcDbEntity
  8
CONTINUOUS
  6
CONTINUOUS
 62
     1
100
AcDbSpline
210
0.0
220
0.0
230
1.0
 70
     8
 71
     3
 72
     8
 73
     4
 74
     0
 42
0.000000001
 43
0.000000:
 12
1.0
 22
0.0
 32
0.0
 13
1.0
 23
0.0
 33
0.0
 40
0.0
 40
0.0
 40
0.0
 40
0.0
 40
1.0
 40
1.0
 40
1.0
 40
1.0
 10
104.999987
 20
26.899982
 30
0.0
 10
105.750246
 20
26.899982
 30
0.0
 10
106.443513
 20
27.30024
 30
0.0
 10
106.818642
 20
27.949983
 30
0.0
  0
SPLINE
  5
BF
330
1F
100
AcDbEntity
  8
CONTINUOUS
  6
CONTINUOUS
 62
     1
100
AcDbSpline
210
0.0
220
0.0
230
1.0
 70
     8
 71
     3
 72
     8
 73
     4
 74
     0
 42
0.000000001
 43
0.000000:
 12
1.0
 22
0.0
 32
0.0
 13
1.0
 23
0.0
 33
0.0
 40
0.0
 40
0.0
 40
0.0
 40
0.0
 40
1.0
 40
1.0
 40
1.0
 40
1.0
 10
106.818642
 20
27.949983
 30
0.0
 10
107.193772
 20
28.599726
 30
0.0
 10
107.193772
 20
29.4002420000001
 30
0.0
 10
106.818642
 20
30.049985
 30
0.0
  0
SPLINE
  5
C0
330
1F
100
AcDbEntity
  8
CONTINUOUS
  6
CONTINUOUS
 62
     1
100
AcDbSpline
210
0.0
220
0.0
230
1.0
 70
     8
 71
     3
 72
     8
 73
     4
 74
     0
 42
0.000000001
 43
0.000000:
 12
1.0
 22
0.0
 32
0.0
 13
1.0
 23
0.0
 33
0.0
 40
0.0
 40
0.0
 40
0.0
 40
0.0
 40
1.0
 40
1.0
 40
1.0
 40
1.0
 10
106.818642
 20
30.049985
 30
0.0
 10
106.443513
 20
30.6997280000001
 30
0.0
 10
105.750246
 20
31.0999860000001
 30
0.0
 10
104.999987
 20
31.0999850000001
 30
0.0
  0
SPLINE
  5
C1
330
1F
100
AcDbEntity
  8
CONTINUOUS
  6
CONTINUOUS
 62
     1
100
AcDbSpline
210
0.0
220
0.0
230
1.0
 70
     8
 71
     3
 72
     8
 73
     4
 74
     0
 42
0.000000001
 43
0.000000:
 12
1.0
 22
0.0
 32
0.0
 13
1.0
 23
0.0
 33
0.0
 40
0.0
 40
0.0
 40
0.0
 40
0.0
 40
1.0
 40
1.0
 40
1.0
 40
1.0
 10
194.000007
 20
99.69999500000002
 30
0.0
 10
193.391563
 20
99.7016389999998
 30
0.0
 10
192.828633
 20
99.37798199999989
 30
0.0
 10
192.523935
 20
98.85132699999988
 30
0.0
  0
SPLINE
  5
C2
330
1F
100
AcDbEntity
  8
CONTINUOUS
  6
CONTINUOUS
 62
     1
100
AcDbSpline
210
0.0
220
0.0
230
1.0
 70
     8
 71
     3
 72
     8
 73
     4
 74
     0
 42
0.000000001
 43
0.000000:
 12
1.0
 22
0.0
 32
0.0
 13
1.0
 23
0.0
 33
0.0
 40
0.0
 40
0.0
 40
0.0
 40
0.0
 40
1.0
 40
1.0
 40
1.0
 40
1.0
 10
192.523935
 20
98.8513269999999
 30
0.0
 10
192.219238
 20
98.3246719999999
 30
0.0
 10
192.219238
 20
97.6753299999999
 30
0.0
 10
192.523935
 20
97.1486749999999
 30
0.0
  0
SPLINE
  5
C3
330
1F
100
AcDbEntity
  8
CONTINUOUS
  6
CONTINUOUS
 62
     1
100
AcDbSpline
210
0.0
220
0.0
230
1.0
 70
     8
 71
     3
 72
     8
 73
     4
 74
     0
 42
0.000000001
 43
0.000000:
 12
1.0
 22
0.0
 32
0.0
 13
1.0
 23
0.0
 33
0.0
 40
0.0
 40
0.0
 40
0.0
 40
0.0
 40
1.0
 40
1.0
 40
1.0
 40
1.0
 10
192.523935
 20
97.1486749999999
 30
0.0
 10
192.828633
 20
96.62202
 30
0.0
 10
193.391563
 20
96.29836299999998
 30
0.0
 10
194.000007
 20
96.30000699999998
 30
0.0
  0
SPLINE
  5
C4
330
1F
100
AcDbEntity
  8
CONTINUOUS
  6
CONTINUOUS
 62
     1
100
AcDbSpline
210
0.0
220
0.0
230
1.0
 70
     8
 71
     3
 72
     8
 73
     4
 74
     0
 42
0.000000001
 43
0.000000:
 12
1.0
 22
0.0
 32
0.0
 13
1.0
 23
0.0
 33
0.0
 40
0.0
 40
0.0
 40
0.0
 40
0.0
 40
1.0
 40
1.0
 40
1.0
 40
1.0
 10
194.000007
 20
96.30000699999998
 30
0.0
 10
194.608451
 20
96.29836299999998
 30
0.0
 10
195.171381
 20
96.62202000000008
 30
0.0
 10
195.476078
 20
97.14867500000007
 30
0.0
  0
SPLINE
  5
C5
330
1F
100
AcDbEntity
  8
CONTINUOUS
  6
CONTINUOUS
 62
     1
100
AcDbSpline
210
0.0
220
0.0
230
1.0
 70
     8
 71
     3
 72
     8
 73
     4
 74
     0
 42
0.000000001
 43
0.000000:
 12
1.0
 22
0.0
 32
0.0
 13
1.0
 23
0.0
 33
0.0
 40
0.0
 40
0.0
 40
0.0
 40
0.0
 40
1.0
 40
1.0
 40
1.0
 40
1.0
 10
195.476078
 20
97.14867500000007
 30
0.0
 10
195.780776
 20
97.67533000000007
 30
0.0
 10
195.780776
 20
98.32467199999998
 30
0.0
 10
195.476078
 20
98.85132699999997
 30
0.0
  0
SPLINE
  5
C6
330
1F
100
AcDbEntity
  8
CONTINUOUS
  6
CONTINUOUS
 62
     1
100
AcDbSpline
210
0.0
220
0.0
230
1.0
 70
     8
 71
     3
 72
     8
 73
     4
 74
     0
 42
0.000000001
 43
0.000000:
 12
1.0
 22
0.0
 32
0.0
 13
1.0
 23
0.0
 33
0.0
 40
0.0
 40
0.0
 40
0.0
 40
0.0
 40
1.0
 40
1.0
 40
1.0
 40
1.0
 10
195.476078
 20
98.85132699999997
 30
0.0
 10
195.171381
 20
99.37798199999997
 30
0.0
 10
194.608451
 20
99.70163900000001
 30
0.0
 10
194.000007
 20
99.69999500000002
 30
0.0
  0
SPLINE
  5
C7
330
1F
100
AcDbEntity
  8
CONTINUOUS
  6
CONTINUOUS
 62
     1
100
AcDbSpline
210
0.0
220
0.0
230
1.0
 70
     8
 71
     3
 72
     8
 73
     4
 74
     0
 42
0.000000001
 43
0.000000:
 12
1.0
 22
0.0
 32
0.0
 13
1.0
 23
0.0
 33
0.0
 40
0.0
 40
0.0
 40
0.0
 40
0.0
 40
1.0
 40
1.0
 40
1.0
 40
1.0
 10
194.000007
 20
75.699986
 30
0.0
 10
193.391563
 20
75.701631
 30
0.0
 10
192.828633
 20
75.377974
 30
0.0
 10
192.523935
 20
74.851319
 30
0.0
  0
SPLINE
  5
C8
330
1F
100
AcDbEntity
  8
CONTINUOUS
  6
CONTINUOUS
 62
     1
100
AcDbSpline
210
0.0
220
0.0
230
1.0
 70
     8
 71
     3
 72
     8
 73
     4
 74
     0
 42
0.000000001
 43
0.000000:
 12
1.0
 22
0.0
 32
0.0
 13
1.0
 23
0.0
 33
0.0
 40
0.0
 40
0.0
 40
0.0
 40
0.0
 40
1.0
 40
1.0
 40
1.0
 40
1.0
 10
192.523935
 20
74.851319
 30
0.0
 10
192.219238
 20
74.324663
 30
0.0
 10
192.219238
 20
73.6753220000001
 30
0.0
 10
192.5239349999999
 20
73.148667
 30
0.0
  0
SPLINE
  5
C9
330
1F
100
AcDbEntity
  8
CONTINUOUS
  6
CONTINUOUS
 62
     1
100
AcDbSpline
210
0.0
220
0.0
230
1.0
 70
     8
 71
     3
 72
     8
 73
     4
 74
     0
 42
0.000000001
 43
0.000000:
 12
1.0
 22
0.0
 32
0.0
 13
1.0
 23
0.0
 33
0.0
 40
0.0
 40
0.0
 40
0.0
 40
0.0
 40
1.0
 40
1.0
 40
1.0
 40
1.0
 10
192.5239349999999
 20
73.148667
 30
0.0
 10
192.8286329999999
 20
72.622011
 30
0.0
 10
193.3915629999999
 20
72.29835399999999
 30
0.0
 10
194.000007
 20
72.29999899999999
 30
0.0
  0
SPLINE
  5
CA
330
1F
100
AcDbEntity
  8
CONTINUOUS
  6
CONTINUOUS
 62
     1
100
AcDbSpline
210
0.0
220
0.0
230
1.0
 70
     8
 71
     3
 72
     8
 73
     4
 74
     0
 42
0.000000001
 43
0.000000:
 12
1.0
 22
0.0
 32
0.0
 13
1.0
 23
0.0
 33
0.0
 40
0.0
 40
0.0
 40
0.0
 40
0.0
 40
1.0
 40
1.0
 40
1.0
 40
1.0
 10
194.000007
 20
72.29999899999999
 30
0.0
 10
194.6084509999999
 20
72.29835399999999
 30
0.0
 10
195.1713809999999
 20
72.62201099999997
 30
0.0
 10
195.4760779999999
 20
73.14866699999997
 30
0.0
  0
SPLINE
  5
CB
330
1F
100
AcDbEntity
  8
CONTINUOUS
  6
CONTINUOUS
 62
     1
100
AcDbSpline
210
0.0
220
0.0
230
1.0
 70
     8
 71
     3
 72
     8
 73
     4
 74
     0
 42
0.000000001
 43
0.000000:
 12
1.0
 22
0.0
 32
0.0
 13
1.0
 23
0.0
 33
0.0
 40
0.0
 40
0.0
 40
0.0
 40
0.0
 40
1.0
 40
1.0
 40
1.0
 40
1.0
 10
195.4760779999999
 20
73.14866699999997
 30
0.0
 10
195.7807759999999
 20
73.67532200000007
 30
0.0
 10
195.780776
 20
74.32466299999997
 30
0.0
 10
195.476078
 20
74.85131899999998
 30
0.0
  0
SPLINE
  5
CC
330
1F
100
AcDbEntity
  8
CONTINUOUS
  6
CONTINUOUS
 62
     1
100
AcDbSpline
210
0.0
220
0.0
230
1.0
 70
     8
 71
     3
 72
     8
 73
     4
 74
     0
 42
0.000000001
 43
0.000000:
 12
1.0
 22
0.0
 32
0.0
 13
1.0
 23
0.0
 33
0.0
 40
0.0
 40
0.0
 40
0.0
 40
0.0
 40
1.0
 40
1.0
 40
1.0
 40
1.0
 10
195.476078
 20
74.85131899999998
 30
0.0
 10
195.171381
 20
75.37797399999997
 30
0.0
 10
194.608451
 20
75.70163099999999
 30
0.0
 10
194.000007
 20
75.69998599999998
 30
0.0
  0
SPLINE
  5
CD
330
1F
100
AcDbEntity
  8
CONTINUOUS
  6
CONTINUOUS
 62
     1
100
AcDbSpline
210
0.0
220
0.0
230
1.0
 70
     8
 71
     3
 72
     8
 73
     4
 74
     0
 42
0.000000001
 43
0.000000:
 12
1.0
 22
0.0
 32
0.0
 13
1.0
 23
0.0
 33
0.0
 40
0.0
 40
0.0
 40
0.0
 40
0.0
 40
1.0
 40
1.0
 40
1.0
 40
1.0
 10
161.500001000003
 20
42.0
 30
0.0
 10
161.499996000003
 20
40.619292
 30
0.0
 10
162.619274000003
 20
39.500002
 30
0.0
 10
163.999982000003
 20
39.4999910000001
 30
0.0
  0
SPLINE
  5
CE
330
1F
100
AcDbEntity
  8
CONTINUOUS
  6
CONTINUOUS
 62
     1
100
AcDbSpline
210
0.0
220
0.0
230
1.0
 70
     8
 71
     3
 72
     8
 73
     4
 74
     0
 42
0.000000001
 43
0.000000:
 12
1.0
 22
0.0
 32
0.0
 13
1.0
 23
0.0
 33
0.0
 40
0.0
 40
0.0
 40
0.0
 40
0.0
 40
1.0
 40
1.0
 40
1.0
 40
1.0
 10
163.999982000003
 20
39.4999910000001
 30
0.0
 10
164.663027000003
 20
39.4999890000001
 30
0.0
 10
165.298915000003
 20
39.763381
 30
0.0
 10
165.767758000003
 20
40.232224
 30
0.0
  0
SPLINE
  5
CF
330
1F
100
AcDbEntity
  8
CONTINUOUS
  6
CONTINUOUS
 62
     1
100
AcDbSpline
210
0.0
220
0.0
230
1.0
 70
     8
 71
     3
 72
     8
 73
     4
 74
     0
 42
0.000000001
 43
0.000000:
 12
1.0
 22
0.0
 32
0.0
 13
1.0
 23
0.0
 33
0.0
 40
0.0
 40
0.0
 40
0.0
 40
0.0
 40
1.0
 40
1.0
 40
1.0
 40
1.0
 10
165.767758000003
 20
40.232224
 30
0.0
 10
166.236601000003
 20
40.701067
 30
0.0
 10
166.499994000003
 20
41.336956
 30
0.0
 10
166.499991000003
 20
42.0
 30
0.0
  0
SPLINE
  5
D0
330
1F
100
AcDbEntity
  8
CONTINUOUS
  6
CONTINUOUS
 62
     1
100
AcDbSpline
210
0.0
220
0.0
230
1.0
 70
    24
 71
     3
 72
     8
 73
     4
 74
     0
 42
0.000000001
 43
0.000000:
 12
1.0
 22
0.0
 32
0.0
 13
1.0
 23
0.0
 33
0.0
 40
0.0
 40
0.0
 40
0.0
 40
0.0
 40
1.0
 40
1.0
 40
1.0
 40
1.0
 10
166.499991000003
 20
42.0
 30
0.0
 10
166.499991000003
 20
42.0
 30
0.0
 10
166.499991000003
 20
50.9999820000001
 30
0.0
 10
166.499991000003
 20
50.9999820000001
 30
0.0
  0
SPLINE
  5
D1
330
1F
100
AcDbEntity
  8
CONTINUOUS
  6
CONTINUOUS
 62
     1
100
AcDbSpline
210
0.0
220
0.0
230
1.0
 70
     8
 71
     3
 72
     8
 73
     4
 74
     0
 42
0.000000001
 43
0.000000:
 12
1.0
 22
0.0
 32
0.0
 13
1.0
 23
0.0
 33
0.0
 40
0.0
 40
0.0
 40
0.0
 40
0.0
 40
1.0
 40
1.0
 40
1.0
 40
1.0
 10
166.499991000003
 20
50.9999820000001
 30
0.0
 10
166.499994000003
 20
51.6630270000001
 30
0.0
 10
166.236601000003
 20
52.298915
 30
0.0
 10
165.767758000003
 20
52.767758
 30
0.0
  0
SPLINE
  5
D2
330
1F
100
AcDbEntity
  8
CONTINUOUS
  6
CONTINUOUS
 62
     1
100
AcDbSpline
210
0.0
220
0.0
230
1.0
 70
     8
 71
     3
 72
     8
 73
     4
 74
     0
 42
0.000000001
 43
0.000000:
 12
1.0
 22
0.0
 32
0.0
 13
1.0
 23
0.0
 33
0.0
 40
0.0
 40
0.0
 40
0.0
 40
0.0
 40
1.0
 40
1.0
 40
1.0
 40
1.0
 10
165.767758000003
 20
52.767758
 30
0.0
 10
165.298915000003
 20
53.2366010000001
 30
0.0
 10
164.663027000003
 20
53.499994
 30
0.0
 10
163.999982000003
 20
53.4999910000001
 30
0.0
  0
SPLINE
  5
D3
330
1F
100
AcDbEntity
  8
CONTINUOUS
  6
CONTINUOUS
 62
     1
100
AcDbSpline
210
0.0
220
0.0
230
1.0
 70
     8
 71
     3
 72
     8
 73
     4
 74
     0
 42
0.000000001
 43
0.000000:
 12
1.0
 22
0.0
 32
0.0
 13
1.0
 23
0.0
 33
0.0
 40
0.0
 40
0.0
 40
0.0
 40
0.0
 40
1.0
 40
1.0
 40
1.0
 40
1.0
 10
163.999982000003
 20
53.4999910000001
 30
0.0
 10
162.619274000003
 20
53.4999810000001
 30
0.0
 10
161.499996000003
 20
52.38069
 30
0.0
 10
161.500001000003
 20
50.999982
 30
0.0
  0
SPLINE
  5
D4
330
1F
100
AcDbEntity
  8
CONTINUOUS
  6
CONTINUOUS
 62
     1
100
AcDbSpline
210
0.0
220
0.0
230
1.0
 70
     8
 71
     3
 72
     8
 73
     4
 74
     0
 42
0.000000001
 43
0.000000:
 12
1.0
 22
0.0
 32
0.0
 13
1.0
 23
0.0
 33
0.0
 40
0.0
 40
0.0
 40
0.0
 40
0.0
 40
1.0
 40
1.0
 40
1.0
 40
1.0
 10
-166.499992
 20
42.0
 30
0.0
 10
-166.499997
 20
40.619292
 30
0.0
 10
-165.380719
 20
39.500002
 30
0.0
 10
-164.000011
 20
39.499991
 30
0.0
  0
SPLINE
  5
D5
330
1F
100
AcDbEntity
  8
CONTINUOUS
  6
CONTINUOUS
 62
     1
100
AcDbSpline
210
0.0
220
0.0
230
1.0
 70
     8
 71
     3
 72
     8
 73
     4
 74
     0
 42
0.000000001
 43
0.000000:
 12
1.0
 22
0.0
 32
0.0
 13
1.0
 23
0.0
 33
0.0
 40
0.0
 40
0.0
 40
0.0
 40
0.0
 40
1.0
 40
1.0
 40
1.0
 40
1.0
 10
-164.000011
 20
39.499991
 30
0.0
 10
-163.336967
 20
39.499989
 30
0.0
 10
-162.701078
 20
39.763381
 30
0.0
 10
-162.232235
 20
40.232224
 30
0.0
  0
SPLINE
  5
D6
330
1F
100
AcDbEntity
  8
CONTINUOUS
  6
CONTINUOUS
 62
     1
100
AcDbSpline
210
0.0
220
0.0
230
1.0
 70
     8
 71
     3
 72
     8
 73
     4
 74
     0
 42
0.000000001
 43
0.000000:
 12
1.0
 22
0.0
 32
0.0
 13
1.0
 23
0.0
 33
0.0
 40
0.0
 40
0.0
 40
0.0
 40
0.0
 40
1.0
 40
1.0
 40
1.0
 40
1.0
 10
-162.232235
 20
40.232224
 30
0.0
 10
-161.763392
 20
40.701067
 30
0.0
 10
-161.499999
 20
41.336956
 30
0.0
 10
-161.500002
 20
42.0
 30
0.0
  0
SPLINE
  5
D7
330
1F
100
AcDbEntity
  8
CONTINUOUS
  6
CONTINUOUS
 62
     1
100
AcDbSpline
210
0.0
220
0.0
230
1.0
 70
     8
 71
     3
 72
     8
 73
     4
 74
     0
 42
0.000000001
 43
0.000000:
 12
1.0
 22
0.0
 32
0.0
 13
1.0
 23
0.0
 33
0.0
 40
0.0
 40
0.0
 40
0.0
 40
0.0
 40
1.0
 40
1.0
 40
1.0
 40
1.0
 10
-161.500002
 20
50.999982
 30
0.0
 10
-161.499999
 20
51.6630270000001
 30
0.0
 10
-161.763392
 20
52.298915
 30
0.0
 10
-162.232235
 20
52.767758
 30
0.0
  0
SPLINE
  5
D8
330
1F
100
AcDbEntity
  8
CONTINUOUS
  6
CONTINUOUS
 62
     1
100
AcDbSpline
210
0.0
220
0.0
230
1.0
 70
     8
 71
     3
 72
     8
 73
     4
 74
     0
 42
0.000000001
 43
0.000000:
 12
1.0
 22
0.0
 32
0.0
 13
1.0
 23
0.0
 33
0.0
 40
0.0
 40
0.0
 40
0.0
 40
0.0
 40
1.0
 40
1.0
 40
1.0
 40
1.0
 10
-162.232235
 20
52.767758
 30
0.0
 10
-162.701078
 20
53.2366010000001
 30
0.0
 10
-163.336967
 20
53.499994
 30
0.0
 10
-164.000011
 20
53.499991
 30
0.0
  0
SPLINE
  5
D9
330
1F
100
AcDbEntity
  8
CONTINUOUS
  6
CONTINUOUS
 62
     1
100
AcDbSpline
210
0.0
220
0.0
230
1.0
 70
     8
 71
     3
 72
     8
 73
     4
 74
     0
 42
0.000000001
 43
0.000000:
 12
1.0
 22
0.0
 32
0.0
 13
1.0
 23
0.0
 33
0.0
 40
0.0
 40
0.0
 40
0.0
 40
0.0
 40
1.0
 40
1.0
 40
1.0
 40
1.0
 10
-164.000011
 20
53.499991
 30
0.0
 10
-165.380719
 20
53.499981
 30
0.0
 10
-166.499997
 20
52.38069
 30
0.0
 10
-166.499992
 20
50.999982
 30
0.0
  0
LINE
  5
DA
330
1F
100
AcDbEntity
  8
CONTINUOUS
  6
CONTINUOUS
 62
     1
100
AcDbLine
 10
-206.000012
 20
105.999985
 30
0.0
 11
-206.000012
 21
56.0
 31
0.0
  0
LINE
  5
DB
330
1F
100
AcDbEntity
  8
CONTINUOUS
  6
CONTINUOUS
 62
     1
100
AcDbLine
 10
-206.000012
 20
56.0
 30
0.0
 11
-176.000015
 21
26.000004
 31
0.0
  0
LINE
  5
DC
330
1F
100
AcDbEntity
  8
CONTINUOUS
  6
CONTINUOUS
 62
     1
100
AcDbLine
 10
-176.000015
 20
26.000004
 30
0.0
 11
-125.000004
 21
26.000004
 31
0.0
  0
LINE
  5
DD
330
1F
100
AcDbEntity
  8
CONTINUOUS
  6
CONTINUOUS
 62
     1
100
AcDbLine
 10
-125.000004
 20
26.000004
 30
0.0
 11
-121.000012
 21
21.999984
 31
0.0
  0
LINE
  5
DE
330
1F
100
AcDbEntity
  8
CONTINUOUS
  6
CONTINUOUS
 62
     1
100
AcDbLine
 10
-121.000012
 20
21.999984
 30
0.0
 11
-121.000012
 21
5.99998800000003
 31
0.0
  0
LINE
  5
DF
330
1F
100
AcDbEntity
  8
CONTINUOUS
  6
CONTINUOUS
 62
     1
100
AcDbLine
 10
-121.000012
 20
5.99998800000003
 30
0.0
 11
-114.999996
 21
0.0
 31
0.0
  0
LINE
  5
E0
330
1F
100
AcDbEntity
  8
CONTINUOUS
  6
CONTINUOUS
 62
     1
100
AcDbLine
 10
-114.999996
 20
0.0
 30
0.0
 11
0.0
 21
0.0
 31
0.0
  0
LINE
  5
E1
330
1F
100
AcDbEntity
  8
CONTINUOUS
  6
CONTINUOUS
 62
     1
100
AcDbLine
 10
0.0
 20
77.999985
 30
0.0
 11
-90.000018
 21
77.999985
 31
0.0
  0
LINE
  5
E2
330
1F
100
AcDbEntity
  8
CONTINUOUS
  6
CONTINUOUS
 62
     1
100
AcDbLine
 10
-90.000018
 20
94.000009
 30
0.0
 11
0.0
 21
94.000009
 31
0.0
  0
LINE
  5
E3
330
1F
100
AcDbEntity
  8
CONTINUOUS
  6
CONTINUOUS
 62
     1
100
AcDbLine
 10
0.0
 20
77.999985
 30
0.0
 11
89.999989
 21
77.999985
 31
0.0
  0
LINE
  5
E4
330
1F
100
AcDbEntity
  8
CONTINUOUS
  6
CONTINUOUS
 62
     1
100
AcDbLine
 10
89.999989
 20
94.000009
 30
0.0
 11
0.0
 21
94.000009
 31
0.0
  0
LINE
  5
E5
330
1F
100
AcDbEntity
  8
CONTINUOUS
  6
CONTINUOUS
 62
     1
100
AcDbLine
 10
205.999983
 20
105.999985
 30
0.0
 11
205.999983
 21
56.0
 31
0.0
  0
LINE
  5
E6
330
1F
100
AcDbEntity
  8
CONTINUOUS
  6
CONTINUOUS
 62
     1
100
AcDbLine
 10
205.999983
 20
56.0
 30
0.0
 11
175.999986
 21
26.000004
 31
0.0
  0
LINE
  5
E7
330
1F
100
AcDbEntity
  8
CONTINUOUS
  6
CONTINUOUS
 62
     1
100
AcDbLine
 10
175.999986
 20
26.000004
 30
0.0
 11
125.000004
 21
26.000004
 31
0.0
  0
LINE
  5
E8
330
1F
100
AcDbEntity
  8
CONTINUOUS
  6
CONTINUOUS
 62
     1
100
AcDbLine
 10
125.000004
 20
26.000004
 30
0.0
 11
120.999984
 21
21.999984
 31
0.0
  0
LINE
  5
E9
330
1F
100
AcDbEntity
  8
CONTINUOUS
  6
CONTINUOUS
 62
     1
100
AcDbLine
 10
120.999984
 20
21.999984
 30
0.0
 11
120.999984
 21
5.99998800000003
 31
0.0
  0
LINE
  5
EA
330
1F
100
AcDbEntity
  8
CONTINUOUS
  6
CONTINUOUS
 62
     1
100
AcDbLine
 10
120.999984
 20
5.99998800000003
 30
0.0
 11
114.999996
 21
0.0
 31
0.0
  0
LINE
  5
EB
330
1F
100
AcDbEntity
  8
CONTINUOUS
  6
CONTINUOUS
 62
     1
100
AcDbLine
 10
114.999996
 20
0.0
 30
0.0
 11
0.0
 21
0.0
 31
0.0
  0
LINE
  5
EC
330
1F
100
AcDbEntity
  8
CONTINUOUS
  6
CONTINUOUS
 62
     1
100
AcDbLine
 10
161.500001000003
 20
50.999982
 30
0.0
 11
161.500001000003
 21
42.0
 31
0.0
  0
LINE
  5
ED
330
1F
100
AcDbEntity
  8
CONTINUOUS
  6
CONTINUOUS
 62
     1
100
AcDbLine
 10
-161.500002
 20
42.0
 30
0.0
 11
-161.500002
 21
50.999982
 31
0.0
  0
LINE
  5
EE
330
1F
100
AcDbEntity
  8
CONTINUOUS
  6
CONTINUOUS
 62
     1
100
AcDbLine
 10
-166.499992
 20
50.999982
 30
0.0
 11
-166.499992
 21
42.0
 31
0.0
  0
LINE
  5
EF
330
1F
100
AcDbEntity
  8
CONTINUOUS
100
AcDbLine
 10
-196.000003
 20
115.999993
 30
0.0
 11
196.000003
 21
115.999993
 31
0.0
  0
LINE
  5
F1
330
1F
100
AcDbEntity
  8
CONTINUOUS
  6
CONTINUOUS
 62
     1
100
AcDbLine
 10
340.29327271875
 20
311.499984000005
 30
0.0
 11
340.29327271875
 21
306.499994000005
 31
0.0
  0
LINE
  5
F2
330
1F
100
AcDbEntity
  8
CONTINUOUS
  6
CONTINUOUS
 62
     1
100
AcDbLine
 10
283.5932728513466
 20
373.9999860000258
 30
0.0
 11
318.5932588511629
 21
373.9999860000258
 31
0.0
  0
LINE
  5
F3
330
1F
100
AcDbEntity
  8
CONTINUOUS
  6
CONTINUOUS
 62
     1
100
AcDbLine
 10
363.5932818516334
 20
318.1998444392731
 30
0.0
 11
363.5932818516334
 21
192.4564210001568
 31
0.0
  0
LINE
  5
F4
330
1F
100
AcDbEntity
  8
CONTINUOUS
  6
CONTINUOUS
 62
     1
100
AcDbLine
 10
283.5932728521909
 20
-21.00001500028637
 30
0.0
 11
283.5932728521909
 21
211.4999859997359
 31
0.0
  0
LINE
  5
F5
330
1F
100
AcDbEntity
  8
CONTINUOUS
  6
CONTINUOUS
 62
     1
100
AcDbLine
 10
63.59327835213259
 20
211.4999804990097
 30
0.0
 11
63.5932728517642
 21
151.4999929998203
 31
0.0
  0
LINE
  5
F6
330
1F
100
AcDbEntity
  8
CONTINUOUS
  6
CONTINUOUS
 62
     1
100
AcDbLine
 10
28.59327457038725
 20
241.4999709440005
 30
0.0
 11
22.59327557038518
 21
247.4999589439345
 31
0.0
  0
LINE
  5
F7
330
1F
100
AcDbEntity
  8
CONTINUOUS
  6
CONTINUOUS
 62
     1
100
AcDbLine
 10
304.0932767187503
 20
334.9999805964152
 30
0.0
 11
313.0932867187501
 21
334.999978834471
 31
0.0
  0
ARC
  5
F8
330
1F
100
AcDbEntity
  8
CONTINUOUS
100
AcDbCircle
 10
53.59326485175026
 20
151.4999929998203
 30
0.0
 40
10.00000800001393
100
AcDbArc
 50
270.0
 51
0.0
  0
ARC
  5
F9
330
1F
100
AcDbEntity
  8
CONTINUOUS
100
AcDbCircle
 10
83.59327185213743
 20
211.4999804990097
 30
0.0
 40
19.99999350000485
100
AcDbArc
 50
90.0
 51
180.0
  0
ARC
  5
FA
330
1F
100
AcDbEntity
  8
CONTINUOUS
100
AcDbCircle
 10
93.09327571875
 20
274.499987000005
 30
0.0
 40
4.499991000000023
100
AcDbArc
 50
90.0
 51
270.0
  0
ARC
  5
FB
330
1F
100
AcDbEntity
  8
CONTINUOUS
100
AcDbCircle
 10
102.09327471875
 20
274.499987000005
 30
0.0
 40
4.499991000000023
100
AcDbArc
 50
270.0
 51
90.0
  0
LINE
  5
FC
330
1F
100
AcDbEntity
  8
CONTINUOUS
100
AcDbLine
 10
93.09327571875
 20
278.9999780000051
 30
0.0
 11
102.09327471875
 21
278.9999780000051
 31
0.0
  0
LINE
  5
FD
330
1F
100
AcDbEntity
  8
CONTINUOUS
100
AcDbLine
 10
93.09327571875
 20
269.999996000005
 30
0.0
 11
102.09327471875
 21
269.999996000005
 31
0.0
  0
CIRCLE
  5
FE
330
1F
100
AcDbEntity
  8
CONTINUOUS
100
AcDbCircle
 10
202.09327471875
 20
274.499987000005
 30
0.0
 40
2.499995000000013
  0
CIRCLE
  5
FF
330
1F
100
AcDbEntity
  8
CONTINUOUS
100
AcDbCircle
 10
308.5932817187499
 20
361.499982500005
 30
0.0
 40
4.199988500000018
  0
CIRCLE
  5
100
330
1F
100
AcDbEntity
  8
CONTINUOUS
100
AcDbCircle
 10
358.593266718752
 20
331.499986
 30
0.0
 40
4.199988999994957
  0
ARC
  5
101
330
1F
100
AcDbEntity
  8
CONTINUOUS
100
AcDbCircle
 10
338.59327871875
 20
311.499984000005
 30
0.0
 40
1.699994000000004
100
AcDbArc
 50
0.0
 51
180.0
  0
ARC
  5
102
330
1F
100
AcDbEntity
  8
CONTINUOUS
100
AcDbCircle
 10
338.59327871875
 20
306.499994000005
 30
0.0
 40
1.699994000000004
100
AcDbArc
 50
180.0
 51
0.0
  0
ARC
  5
103
330
1F
100
AcDbEntity
  8
CONTINUOUS
100
AcDbCircle
 10
304.0932767187503
 20
331.4999875964114
 30
0.0
 40
3.499993000003826
100
AcDbArc
 50
90.0
 51
270.0
  0
ARC
  5
104
330
1F
100
AcDbEntity
  8
CONTINUOUS
100
AcDbCircle
 10
313.0932867187503
 20
331.4999867154392
 30
0.0
 40
3.499992119031788
100
AcDbArc
 50
270.0
 51
90.00000000000371
  0
LINE
  5
105
330
1F
100
AcDbEntity
  8
CONTINUOUS
100
AcDbLine
 10
304.0932767187503
 20
327.9999945964076
 30
0.0
 11
313.0932867187503
 21
327.9999945964076
 31
0.0
  0
LINE
  5
106
330
1F
100
AcDbEntity
  8
CONTINUOUS
100
AcDbLine
 10
336.89328471875
 20
306.499994000005
 30
0.0
 11
336.89328471875
 21
311.499984000005
 31
0.0
  0
ARC
  5
107
330
1F
100
AcDbEntity
  8
CONTINUOUS
100
AcDbCircle
 10
338.59327871875
 20
230.219984000005
 30
0.0
 40
1.699994000000061
100
AcDbArc
 50
0.0000000000019158
 51
180.0
  0
ARC
  5
108
330
1F
100
AcDbEntity
  8
CONTINUOUS
100
AcDbCircle
 10
338.59327871875
 20
225.219994000005
 30
0.0
 40
1.699994000000004
100
AcDbArc
 50
180.0
 51
0.0000000000019158
  0
LINE
  5
109
330
1F
100
AcDbEntity
  8
CONTINUOUS
100
AcDbLine
 10
340.29327271875
 20
225.219994000005
 30
0.0
 11
340.29327271875
 21
230.2199840000051
 31
0.0
  0
LINE
  5
10A
330
1F
100
AcDbEntity
  8
CONTINUOUS
100
AcDbLine
 10
336.89328471875
 20
225.219994000005
 30
0.0
 11
336.89328471875
 21
230.219984000005
 31
0.0
  0
ARC
  5
10B
330
1F
100
AcDbEntity
  8
CONTINUOUS
100
AcDbCircle
 10
318.59327571875
 20
10.49999300000002
 30
0.0
 40
4.499991000000023
100
AcDbArc
 50
180.0
 51
0.0
  0
ARC
  5
10C
330
1F
100
AcDbEntity
  8
CONTINUOUS
100
AcDbCircle
 10
318.59327571875
 20
181.49999
 30
0.0
 40
4.499991000000023
100
AcDbArc
 50
0.0
 51
180.0
  0
LINE
  5
10D
330
1F
100
AcDbEntity
  8
CONTINUOUS
100
AcDbLine
 10
314.0932847187499
 20
181.49999
 30
0.0
 11
314.0932847187499
 21
10.49999300000002
 31
0.0
  0
LINE
  5
10E
330
1F
100
AcDbEntity
  8
CONTINUOUS
100
AcDbLine
 10
323.09326671875
 20
10.49999300000002
 30
0.0
 11
323.09326671875
 21
181.49999
 31
0.0
  0
CIRCLE
  5
10F
330
1F
100
AcDbEntity
  8
CONTINUOUS
100
AcDbCircle
 10
358.59326671875
 20
11.49999100000002
 30
0.0
 40
4.2000038614392
  0
LINE
  5
110
330
1F
100
AcDbEntity
  8
CONTINUOUS
100
AcDbLine
 10
375.593285851578
 20
7.809991999810308
 30
0.0
 11
375.593285851578
 21
15.18998999979615
 31
0.0
  0
LINE
  5
111
330
1F
100
AcDbEntity
  8
CONTINUOUS
100
AcDbLine
 10
371.7832858515781
 20
18.9999899997961
 30
0.0
 11
368.5932718521461
 21
18.9999899997961
 31
0.0
  0
LINE
  5
112
330
1F
100
AcDbEntity
  8
CONTINUOUS
100
AcDbLine
 10
368.5932718521461
 20
18.9999899997961
 30
0.0
 11
367.4032818516854
 21
18.9999899997961
 31
0.0
  0
LINE
  5
113
330
1F
100
AcDbEntity
  8
CONTINUOUS
100
AcDbLine
 10
363.5932818516934
 20
169.5435319998093
 30
0.0
 11
363.5932818516854
 21
22.80998999979604
 31
0.0
  0
LINE
  5
114
330
1F
100
AcDbEntity
  8
CONTINUOUS
  6
CONTINUOUS
 62
     1
100
AcDbLine
 10
368.7973271177319
 20
3.334858397312647
 30
0.0
 11
318.5932588523019
 21
-31.00002300035372
 31
0.0
  0
LINE
  5
115
330
1F
100
AcDbEntity
  8
CONTINUOUS
100
AcDbLine
 10
370.948121236624
 20
3.999991999810361
 30
0.0
 11
371.7832858515781
 21
3.999991999810362
 31
0.0
  0
ARC
  5
116
330
1F
100
AcDbEntity
  8
CONTINUOUS
100
AcDbCircle
 10
371.7832858515781
 20
15.18998999979615
 30
0.0
 40
3.809999999999945
100
AcDbArc
 50
0.0
 51
90.0
  0
ARC
  5
117
330
1F
100
AcDbEntity
  8
CONTINUOUS
100
AcDbCircle
 10
371.7832858515781
 20
7.809991999810308
 30
0.0
 40
3.809999999999945
100
AcDbArc
 50
270.0
 51
0.0000000000000134
  0
ARC
  5
118
330
1F
100
AcDbEntity
  8
CONTINUOUS
100
AcDbCircle
 10
367.4032818516854
 20
22.80998999979604
 30
0.0
 40
3.809999999999945
100
AcDbArc
 50
180.0
 51
270.0
  0
ARC
  5
119
330
1F
100
AcDbEntity
  8
CONTINUOUS
100
AcDbCircle
 10
370.948121236624
 20
0.1899919998104165
 30
0.0
 40
3.809999999999948
100
AcDbArc
 50
90.0
 51
124.3684725031814
  0
ARC
  5
11A
330
1F
100
AcDbEntity
  8
CONTINUOUS
100
AcDbCircle
 10
293.5932808522583
 20
-21.00001500028639
 30
0.0
 40
10.00000800006734
100
AcDbArc
 50
179.9999999999999
 51
270.0
  0
ARC
  5
11B
330
1F
100
AcDbEntity
  8
CONTINUOUS
100
AcDbCircle
 10
308.5932788522562
 20
-18.50000600035415
 30
0.0
 40
4.200002999998844
100
AcDbArc
 50
0.0
 51
179.9999999999887
  0
ARC
  5
11C
330
1F
100
AcDbEntity
  8
CONTINUOUS
100
AcDbCircle
 10
263.5932788521855
 20
211.4999859997359
 30
0.0
 40
19.99999400000542
100
AcDbArc
 50
0.0
 51
90.0
  0
CIRCLE
  5
11D
330
1F
100
AcDbEntity
  8
CONTINUOUS
100
AcDbCircle
 10
358.5932667187479
 20
180.9999764999651
 30
0.0
 40
4.200003611446505
  0
LINE
  5
11E
330
1F
100
AcDbEntity
  8
CONTINUOUS
100
AcDbLine
 10
369.9183410334435
 20
323.9999730001933
 30
0.0
 11
371.7832858516189
 21
323.9999730001933
 31
0.0
  0
LINE
  5
11F
330
1F
100
AcDbEntity
  8
CONTINUOUS
100
AcDbLine
 10
375.5932858516188
 20
327.8099730001933
 30
0.0
 11
375.5932858516188
 21
335.1899710001387
 31
0.0
  0
LINE
  5
120
330
1F
100
AcDbEntity
  8
CONTINUOUS
100
AcDbLine
 10
365.0391047245329
 20
321.1876139269838
 30
0.0
 11
367.5541639063431
 21
323.1777424879041
 31
0.0
  0
LINE
  5
121
330
1F
100
AcDbEntity
  8
CONTINUOUS
  6
CONTINUOUS
 62
     1
100
AcDbLine
 10
318.5932588511629
 20
373.9999860000258
 30
0.0
 11
368.7973255115226
 21
339.6651046337607
 31
0.0
  0
LINE
  5
122
330
1F
100
AcDbEntity
  8
CONTINUOUS
100
AcDbLine
 10
371.7832858516189
 20
338.9999710001387
 30
0.0
 11
370.9481196759244
 21
338.9999710001387
 31
0.0
  0
ARC
  5
123
330
1F
100
AcDbEntity
  8
CONTINUOUS
100
AcDbCircle
 10
371.7832858516189
 20
335.1899710001387
 30
0.0
 40
3.809999999999945
100
AcDbArc
 50
0.0
 51
90.0
  0
ARC
  5
124
330
1F
100
AcDbEntity
  8
CONTINUOUS
100
AcDbCircle
 10
371.7832858516189
 20
327.8099730001933
 30
0.0
 40
3.809999999999945
100
AcDbArc
 50
270.0
 51
0.0
  0
ARC
  5
125
330
1F
100
AcDbEntity
  8
CONTINUOUS
100
AcDbCircle
 10
369.9183410334435
 20
320.1899730001934
 30
0.0
 40
3.809999999999889
100
AcDbArc
 50
90.0
 51
128.3540394741227
  0
ARC
  5
126
330
1F
100
AcDbEntity
  8
CONTINUOUS
100
AcDbCircle
 10
367.4032818516333
 20
318.1998444392731
 30
0.0
 40
3.809999999999945
100
AcDbArc
 50
128.3540394741227
 51
180.0
  0
ARC
  5
127
330
1F
100
AcDbEntity
  8
CONTINUOUS
100
AcDbCircle
 10
370.9481196759244
 20
342.8099710001386
 30
0.0
 40
3.809999999999889
100
AcDbArc
 50
235.6315266676854
 51
270.0
  0
LINE
  5
128
330
1F
100
AcDbEntity
  8
CONTINUOUS
  6
CONTINUOUS
 62
     1
100
AcDbLine
 10
28.80388662655318
 20
293.4631216289363
 30
0.0
 11
283.5932728513466
 21
373.9999860000258
 31
0.0
  0
LINE
  5
129
330
1F
100
AcDbEntity
  8
CONTINUOUS
  6
CONTINUOUS
 62
     1
100
AcDbLine
 10
22.59327557038518
 20
247.4999589439345
 30
0.0
 11
22.59327557038519
 21
284.9865082198164
 31
0.0
  0
ARC
  5
12A
330
1F
100
AcDbEntity
  8
CONTINUOUS
100
AcDbCircle
 10
31.48327557038517
 20
284.9865082198164
 30
0.0
 40
8.889999999999983
100
AcDbArc
 50
107.541324124398
 51
180.0
  0
LINE
  5
12B
330
1F
100
AcDbEntity
  8
CONTINUOUS
100
AcDbLine
 10
312.793281852255
 20
-18.50000600035415
 30
0.0
 11
312.793281852255
 21
-31.00002300035373
 31
0.0
  0
LINE
  5
12C
330
1F
100
AcDbEntity
  8
CONTINUOUS
100
AcDbLine
 10
304.3932758522573
 20
-18.50000600035332
 30
0.0
 11
304.3932758522573
 21
-31.00002300035372
 31
0.0
  0
LINE
  5
12D
330
1F
100
AcDbEntity
  8
CONTINUOUS
100
AcDbLine
 10
312.793281852255
 20
-31.00002300035373
 30
0.0
 11
318.5932588523019
 21
-31.00002300035372
 31
0.0
  0
LINE
  5
12E
330
1F
100
AcDbEntity
  8
CONTINUOUS
100
AcDbLine
 10
293.5932808522583
 20
-31.00002300035373
 30
0.0
 11
304.3932758522573
 21
-31.00002300035372
 31
0.0
  0
LINE
  5
12F
330
1F
100
AcDbEntity
  8
CONTINUOUS
100
AcDbLine
 10
53.59326485175026
 20
141.4999849998064
 30
0.0
 11
28.593274570389
 21
141.4999849998064
 31
0.0
  0
LINE
  5
130
330
1F
100
AcDbEntity
  8
CONTINUOUS
  6
CONTINUOUS
 62
     1
100
AcDbLine
 10
28.593274570389
 20
141.4999849998064
 30
0.0
 11
28.59327457038725
 21
241.4999709440005
 31
0.0
  0
LINE
  5
131
330
1F
100
AcDbEntity
  8
CONTINUOUS
100
AcDbLine
 10
83.59327185213743
 20
231.4999739990145
 30
0.0
 11
263.5932788521855
 21
231.4999799997414
 31
0.0
  0
ARC
  5
132
330
1F
100
AcDbEntity
  8
CONTINUOUS
100
AcDbCircle
 10
358.5932667187479
 20
180.9999764999651
 30
0.0
 40
12.50001087659746
100
AcDbArc
 50
293.5782324025001
 51
66.42176759781779
  0
ENDSEC
  0
SECTION
  2
OBJECTS
  0
DICTIONARY
  5
C
330
0
100
AcDbDictionary
  3
ACAD_GROUP
350
D
  3
ACAD_LAYOUT
350
1A
  3
ACAD_MATERIAL
350
3B
  3
ACAD_MLEADERSTYLE
350
155
  3
ACAD_MLINESTYLE
350
17
  3
ACAD_PLOTSETTINGS
350
19
  3
ACAD_VISUALSTYLE
350
2A
  3
ACDBHEADERROUNDTRIPXREC
350
133
  3
ACDBVARIABLEDICTIONARY
350
153
  0
DICTIONARY
  5
D
102
{ACAD_REACTORS
330
C
102
}
330
C
100
AcDbDictionary
  0
DICTIONARY
  5
1A
102
{ACAD_REACTORS
330
C
102
}
330
C
100
AcDbDictionary
  0
DICTIONARY
  5
3B
102
{ACAD_REACTORS
330
C
102
}
330
C
100
AcDbDictionary
  3
BYBLOCK
350
3D
  3
BYLAYER
350
3C
  3
GLOBAL
350
3E
  0
DICTIONARY
  5
155
102
{ACAD_REACTORS
330
C
102
}
330
C
100
AcDbDictionary
  0
DICTIONARY
  5
17
102
{ACAD_REACTORS
330
C
102
}
330
C
100
AcDbDictionary
  3
STANDARD
350
18
  0
DICTIONARY
  5
19
102
{ACAD_REACTORS
330
C
102
}
330
C
100
AcDbDictionary
  0
DICTIONARY
  5
2A
102
{ACAD_REACTORS
330
C
102
}
330
C
100
AcDbDictionary
  3
2DWIREFRAME
350
2F
  3
3D_HIDDEN
350
31
  3
3DWIREFRAME
350
30
  3
BASIC
350
32
  3
BRIGHTEN
350
36
  3
COLORCHANGE
350
3A
  3
CONCEPTUAL
350
34
  3
DIM
350
35
  3
FACEPATTERN
350
39
  3
FLAT
350
2B
  3
FLATWITHEDGES
350
2C
  3
GOURAUD
350
2D
  3
GOURAUDWITHEDGES
350
2E
  3
LINEPATTERN
350
38
  3
REALISTIC
350
33
  3
THICKEN
350
37
  0
DICTIONARY
  5
133
102
{ACAD_REACTORS
330
C
102
}
330
C
100
AcDbDictionary
  3
CEPSNTYPE
350
13C
  3
DIMSTYLEDATA
350
152
  3
FINGERPRINTGUID
350
13D
  3
HYPERLINKBASE
350
136
  3
INSUNITS
350
13B
  3
LAYOUTDICT
350
138
  3
LWETCUNION
350
13A
  3
PLOTSETDICT
350
139
  3
PSVPSCALE
350
13F
  3
PUCSBASE
350
142
  3
PUCSORGBACK
350
148
  3
PUCSORGBOTTOM
350
144
  3
PUCSORGFRONT
350
147
  3
PUCSORGLEFT
350
145
  3
PUCSORGRIGHT
350
146
  3
PUCSORGTOP
350
143
  3
PUCSORTHOREF
350
140
  3
PUCSORTHOVIEW
350
141
  3
STYLESHEET
350
137
  3
TSTACKALIGN
350
134
  3
TSTACKSIZE
350
135
  3
UCSBASE
350
14B
  3
UCSORGBACK
350
151
  3
UCSORGBOTTOM
350
14D
  3
UCSORGFRONT
350
150
  3
UCSORGLEFT
350
14E
  3
UCSORGRIGHT
350
14F
  3
UCSORGTOP
350
14C
  3
UCSORTHOREF
350
149
  3
UCSORTHOVIEW
350
14A
  3
VERSIONGUID
350
13E
  0
DICTIONARY
  5
153
102
{ACAD_REACTORS
330
C
102
}
330
C
100
AcDbDictionary
  3
DIMASSOC
350
158
  3
HIDETEXT
350
159
  3
PSOLHEIGHT
350
157
  3
PSOLWIDTH
350
156
  0
MATERIAL
  5
3D
102
{ACAD_REACTORS
330
3B
102
}
102
{ACAD_XDICTIONARY
360
15C
102
}
330
3B
100
AcDbMaterial
  1
ByBlock
  0
MATERIAL
  5
3C
102
{ACAD_REACTORS
330
3B
102
}
102
{ACAD_XDICTIONARY
360
15A
102
}
330
3B
100
AcDbMaterial
  1
ByLayer
  0
MATERIAL
  5
3E
102
{ACAD_REACTORS
330
3B
102
}
102
{ACAD_XDICTIONARY
360
15E
102
}
330
3B
100
AcDbMaterial
  1
Global
  0
MLINESTYLE
  5
18
102
{ACAD_REACTORS
330
17
102
}
330
17
100
AcDbMlineStyle
  2
Standard
 70
     0
  3

 62
   256
 51
90.0
 52
90.0
 71
     2
 49
0.5
 62
   256
  6
BYLAYER
 49
-0.5
 62
   256
  6
BYLAYER
  0
ACAD_PROXY_OBJECT
  5
2F
102
{ACAD_REACTORS
330
2A
102
}
330
2A
100
AcDbProxyObject
 90
      499
 91
      501
 93
      436
310
42CC9915DA5C99599C985B595049028333333333333E3BF0000000000000FB0107901411070040501600405405064090741402480A0340
1001
ACAD
1000
AcDbSavedByObjectVersion
1070
     0
  0
ACAD_PROXY_OBJECT
  5
31
102
{ACAD_REACTORS
330
2A
102
}
330
2A
100
AcDbProxyObject
 90
      499
 91
      501
 93
      500
310
424CD108121A5919195B90640502408333333333333E3BF0000000000000FB01079024090700405020000000000001110200405405064090740C02480A0340
1001
ACAD
1000
AcDbSavedByObjectVersion
1070
     0
  0
ACAD_PROXY_OBJECT
  5
30
102
{ACAD_REACTORS
330
2A
102
}
330
2A
100
AcDbProxyObject
 90
      499
 91
      501
 93
      436
310
42CCD915DA5C99599C985B595059028333333333333E3BF0000000000000FB0107901411070040501600405405064090741402480A0340
1001
ACAD
1000
AcDbSavedByObjectVersion
1070
     0
  0
ACAD_PROXY_OBJECT
  5
32
102
{ACAD_REACTORS
330
2A
102
}
330
2A
100
AcDbProxyObject
 90
      499
 91
      501
 93
      388
310
4150985CDA58D07406404333333333333E3BF0000000000000FB0107A41107004050150841D405064090741402480A0350
1001
ACAD
1000
AcDbSavedByObjectVersion
1070
     0
  0
ACAD_PROXY_OBJECT
  5
36
102
{ACAD_REACTORS
330
2A
102
}
330
2A
100
AcDbProxyObject
 90
      499
 91
      501
 93
      428
310
42109C9A59DA1D195B90C409028333333333333E3BF0000000000000FB010790141107004050150841D405064090741402480A029950
1001
ACAD
1000
AcDbSavedByObjectVersion
1070
     0
  0
ACAD_PROXY_OBJECT
  5
3A
102
{ACAD_REACTORS
330
2A
102
}
330
2A
100
AcDbProxyObject
 90
      499
 91
      501
 93
      452
310
42D0DBDB1BDC90DA185B99D95104090240C333333333333E3BF0000000000000FB0108901411070040501508421405064090741402480A0350
1001
ACAD
1000
AcDbSavedByObjectVersion
1070
     0
  0
ACAD_PROXY_OBJECT
  5
34
102
{ACAD_REACTORS
330
2A
102
}
330
2A
100
AcDbProxyObject
 90
      499
 91
      501
 93
      500
310
4290DBDB98D95C1D1D585B10940D028333333333333E3BF0000000000000FB0107902409070040501000000000000111010841D405064090740C02480A0340
1001
ACAD
1000
AcDbSavedByObjectVersion
1070
     0
  0
ACAD_PROXY_OBJECT
  5
35
102
{ACAD_REACTORS
330
2A
102
}
330
2A
100
AcDbProxyObject
 90
      499
 91
      501
 93
      412
310
40D11A5B50B409028333333333333E3BF0000000000000FB010790141107004050150841D405064090741402480A02677FFFFFD0
1001
ACAD
1000
AcDbSavedByObjectVersion
1070
     0
  0
ACAD_PROXY_OBJECT
  5
39
102
{ACAD_REACTORS
330
2A
102
}
330
2A
100
AcDbProxyObject
 90
      499
 91
      501
 93
      444
310
42D19858D95C185D1D195C9B90F409028333333333333E3BF0000000000000FB010790141107004050150841D405064090741402480A0350
1001
ACAD
1000
AcDbSavedByObjectVersion
1070
     0
  0
ACAD_PROXY_OBJECT
  5
2B
102
{ACAD_REACTORS
330
2A
102
}
330
2A
100
AcDbProxyObject
 90
      499
 91
      501
 93
      388
310
41119B185D240901404333333333333E3BF0000000000000F9010740A41107004050150841D405064090741402480A1B50
1001
ACAD
1000
AcDbSavedByObjectVersion
1070
     0
  0
ACAD_PROXY_OBJECT
  5
2C
102
{ACAD_REACTORS
330
2A
102
}
330
2A
100
AcDbProxyObject
 90
      499
 91
      501
 93
      476
310
43519B185D15DA5D1A115919D95CD0140901404333333333333E3BF0000000000000F9010740901411070040501600405405064090741402480A1B50
1001
ACAD
1000
AcDbSavedByObjectVersion
1070
     0
  0
ACAD_PROXY_OBJECT
  5
2D
102
{ACAD_REACTORS
330
2A
102
}
330
2A
100
AcDbProxyObject
 90
      499
 91
      501
 93
      412
310
41D1DBDD5C985D5910240902404333333333333E3BF0000000000000F9010740A411070040501641D405064090741402480A1B50
1001
ACAD
1000
AcDbSavedByObjectVersion
1070
     0
  0
ACAD_PROXY_OBJECT
  5
2E
102
{ACAD_REACTORS
330
2A
102
}
330
2A
100
AcDbProxyObject
 90
      499
 91
      501
 93
      500
310
4411DBDD5C985D5915DA5D1A115919D95CD0340902404333333333333E3BF0000000000000F9010740901411070040501600405405064090741402480A1B50
1001
ACAD
1000
AcDbSavedByObjectVersion
1070
     0
  0
ACAD_PROXY_OBJECT
  5
38
102
{ACAD_REACTORS
330
2A
102
}
330
2A
100
AcDbProxyObject
 90
      499
 91
      501
 93
      444
310
42D31A5B995C185D1D195C9B90E409028333333333333E3BF0000000000000FB010790141107004050750841D405064090741402483A0350
1001
ACAD
1000
AcDbSavedByObjectVersion
1070
     0
  0
ACAD_PROXY_OBJECT
  5
33
102
{ACAD_REACTORS
330
2A
102
}
330
2A
100
AcDbProxyObject
 90
      499
 91
      501
 93
      420
310
425499585B1A5CDD1A58D08409028333333333333E3BF0000000000000FB01079019070040501508421405064090741402480A1B40
1001
ACAD
1000
AcDbSavedByObjectVersion
1070
     0
  0
ACAD_PROXY_OBJECT
  5
37
102
{ACAD_REACTORS
330
2A
102
}
330
2A
100
AcDbProxyObject
 90
      499
 91
      501
 93
      412
310
41D51A1A58DAD95B90D409028333333333333E3BF0000000000000FB010790141107004050150C41D405064090741402480A0350
1001
ACAD
1000
AcDbSavedByObjectVersion
1070
     0
  0
XRECORD
  5
13C
102
{ACAD_REACTORS
330
133
102
}
330
133
100
AcDbXrecord
 90
        0
  0
XRECORD
  5
152
102
{ACAD_REACTORS
330
133
102
}
330
133
100
AcDbXrecord
1000
DSTYLE
1002
{
1070
    41
 40
2.286
1070
   340
340
11
1070
   140
 40
1.336918010447422
1002
}
  0
XRECORD
  5
13D
102
{ACAD_REACTORS
330
133
102
}
330
133
100
AcDbXrecord
  1
{75A05245-6E0B-487F-B3E1-09FBC6679D6F}
  0
XRECORD
  5
136
102
{ACAD_REACTORS
330
133
102
}
330
133
100
AcDbXrecord
  1

  0
XRECORD
  5
13B
102
{ACAD_REACTORS
330
133
102
}
330
133
100
AcDbXrecord
 90
        4
  0
XRECORD
  5
138
102
{ACAD_REACTORS
330
133
102
}
330
133
100
AcDbXrecord
340
1A
  0
XRECORD
  5
13A
102
{ACAD_REACTORS
330
133
102
}
330
133
100
AcDbXrecord
 90
    10781
  0
XRECORD
  5
139
102
{ACAD_REACTORS
330
133
102
}
330
133
100
AcDbXrecord
340
19
  0
XRECORD
  5
13F
102
{ACAD_REACTORS
330
133
102
}
330
133
100
AcDbXrecord
 40
0.0
  0
XRECORD
  5
142
102
{ACAD_REACTORS
330
133
102
}
330
133
100
AcDbXrecord
340
0
  0
XRECORD
  5
148
102
{ACAD_REACTORS
330
133
102
}
330
133
100
AcDbXrecord
 10
0.0
 20
0.0
 30
0.0
  0
XRECORD
  5
144
102
{ACAD_REACTORS
330
133
102
}
330
133
100
AcDbXrecord
 10
0.0
 20
0.0
 30
0.0
  0
XRECORD
  5
147
102
{ACAD_REACTORS
330
133
102
}
330
133
100
AcDbXrecord
 10
0.0
 20
0.0
 30
0.0
  0
XRECORD
  5
145
102
{ACAD_REACTORS
330
133
102
}
330
133
100
AcDbXrecord
 10
0.0
 20
0.0
 30
0.0
  0
XRECORD
  5
146
102
{ACAD_REACTORS
330
133
102
}
330
133
100
AcDbXrecord
 10
0.0
 20
0.0
 30
0.0
  0
XRECORD
  5
143
102
{ACAD_REACTORS
330
133
102
}
330
133
100
AcDbXrecord
 10
0.0
 20
0.0
 30
0.0
  0
XRECORD
  5
140
102
{ACAD_REACTORS
330
133
102
}
330
133
100
AcDbXrecord
340
0
  0
XRECORD
  5
141
102
{ACAD_REACTORS
330
133
102
}
330
133
100
AcDbXrecord
 70
     0
  0
XRECORD
  5
137
102
{ACAD_REACTORS
330
133
102
}
330
133
100
AcDbXrecord
  1

  0
XRECORD
  5
134
102
{ACAD_REACTORS
330
133
102
}
330
133
100
AcDbXrecord
 90
        1
  0
XRECORD
  5
135
102
{ACAD_REACTORS
330
133
102
}
330
133
100
AcDbXrecord
 90
       70
  0
XRECORD
  5
14B
102
{ACAD_REACTORS
330
133
102
}
330
133
100
AcDbXrecord
340
0
  0
XRECORD
  5
151
102
{ACAD_REACTORS
330
133
102
}
330
133
100
AcDbXrecord
 10
0.0
 20
0.0
 30
0.0
  0
XRECORD
  5
14D
102
{ACAD_REACTORS
330
133
102
}
330
133
100
AcDbXrecord
 10
0.0
 20
0.0
 30
0.0
  0
XRECORD
  5
150
102
{ACAD_REACTORS
330
133
102
}
330
133
100
AcDbXrecord
 10
0.0
 20
0.0
 30
0.0
  0
XRECORD
  5
14E
102
{ACAD_REACTORS
330
133
102
}
330
133
100
AcDbXrecord
 10
0.0
 20
0.0
 30
0.0
  0
XRECORD
  5
14F
102
{ACAD_REACTORS
330
133
102
}
330
133
100
AcDbXrecord
 10
0.0
 20
0.0
 30
0.0
  0
XRECORD
  5
14C
102
{ACAD_REACTORS
330
133
102
}
330
133
100
AcDbXrecord
 10
0.0
 20
0.0
 30
0.0
  0
XRECORD
  5
149
102
{ACAD_REACTORS
330
133
102
}
330
133
100
AcDbXrecord
340
0
  0
XRECORD
  5
14A
102
{ACAD_REACTORS
330
133
102
}
330
133
100
AcDbXrecord
 70
     0
  0
XRECORD
  5
13E
102
{ACAD_REACTORS
330
133
102
}
330
133
100
AcDbXrecord
  1
{FAEB1C32-E019-11D5-929B-00C0DF256EC4}
  0
DICTIONARYVAR
  5
158
102
{ACAD_REACTORS
330
153
102
}
330
153
100
DictionaryVariables
280
     0
  1
2
  0
DICTIONARYVAR
  5
159
102
{ACAD_REACTORS
330
153
102
}
330
153
100
DictionaryVariables
280
     0
  1
1
  0
DICTIONARYVAR
  5
157
102
{ACAD_REACTORS
330
153
102
}
330
153
100
DictionaryVariables
280
     0
  1
80.000000
  0
DICTIONARYVAR
  5
156
102
{ACAD_REACTORS
330
153
102
}
330
153
100
DictionaryVariables
280
     0
  1
5.000000
  0
DICTIONARY
  5
15C
330
3D
100
AcDbDictionary
280
     1
  3
ACAD_XREC_ROUNDTRIP
360
15D
  0
DICTIONARY
  5
15A
330
3C
100
AcDbDictionary
280
     1
  3
ACAD_XREC_ROUNDTRIP
360
15B
  0
DICTIONARY
  5
15E
330
3E
100
AcDbDictionary
280
     1
  3
ACAD_XREC_ROUNDTRIP
360
15F
  0
XRECORD
  5
15D
102
{ACAD_REACTORS
330
15C
102
}
330
15C
100
AcDbXrecord
102
MATERIAL
148
0.0
149
0.0
149
0.0
 93
        0
 94
      127
282
     0
 72
     1
 77
     1
171
     1
175
     1
179
     1
273
     0
  0
XRECORD
  5
15B
102
{ACAD_REACTORS
330
15A
102
}
330
15A
100
AcDbXrecord
102
MATERIAL
148
0.0
149
0.0
149
0.0
 93
        0
 94
      127
282
     0
 72
     1
 77
     1
171
     1
175
     1
179
     1
273
     0
  0
XRECORD
  5
15F
102
{ACAD_REACTORS
330
15E
102
}
330
15E
100
AcDbXrecord
102
MATERIAL
148
0.0
149
0.0
149
0.0
 93
        0
 94
      127
282
     0
 72
     1
 77
     1
171
     1
175
     1
179
     1
273
     0
  0
ENDSEC
  0
EOF
