  0
SECTION
  2
HEADER
  9
$ACADVER
  1
AC1014
  9
$ACADMAINTVER
 70
     9
  9
$DWGCODEPAGE
  3
ANSI_1252
  9
$INSBASE
 10
0.0
 20
0.0
 30
0.0
  9
$EXTMIN
 10
1.000000000000000E+20
 20
1.000000000000000E+20
 30
1.000000000000000E+20
  9
$EXTMAX
 10
-1.000000000000000E+20
 20
-1.000000000000000E+20
 30
-1.000000000000000E+20
  9
$LIMMIN
 10
0.0
 20
0.0
  9
$LIMMAX
 10
420.0
 20
297.0
  9
$ORTHOMODE
 70
     0
  9
$REGENMODE
 70
     1
  9
$FILLMODE
 70
     1
  9
$QTEXTMODE
 70
     0
  9
$MIRRTEXT
 70
     1
  9
$DRAGMODE
 70
     2
  9
$LTSCALE
 40
1.0
  9
$OSMODE
 70
    37
  9
$ATTMODE
 70
     1
  9
$TEXTSIZE
 40
2.5
  9
$TRACEWID
 40
1.0
  9
$TEXTSTYLE
  7
STANDARD
  9
$CLAYER
  8
0
  9
$CELTYPE
  6
BYLAYER
  9
$CECOLOR
 62
   256
  9
$CELTSCALE
 40
1.0
  9
$DELOBJ
 70
     1
  9
$DISPSILH
 70
     0
  9
$DIMSCALE
 40
1.0
  9
$DIMASZ
 40
2.286
  9
$DIMEXO
 40
0.625
  9
$DIMDLI
 40
3.75
  9
$DIMRND
 40
0.0
  9
$DIMDLE
 40
0.0
  9
$DIMEXE
 40
1.25
  9
$DIMTP
 40
0.0
  9
$DIMTM
 40
0.0
  9
$DIMTXT
 40
1.336918010447422
  9
$DIMCEN
 40
2.5
  9
$DIMTSZ
 40
0.0
  9
$DIMTOL
 70
     0
  9
$DIMLIM
 70
     0
  9
$DIMTIH
 70
     0
  9
$DIMTOH
 70
     0
  9
$DIMSE1
 70
     0
  9
$DIMSE2
 70
     0
  9
$DIMTAD
 70
     1
  9
$DIMZIN
 70
     8
  9
$DIMBLK
  1

  9
$DIMASO
 70
     1
  9
$DIMSHO
 70
     1
  9
$DIMPOST
  1

  9
$DIMAPOST
  1

  9
$DIMALT
 70
     0
  9
$DIMALTD
 70
     3
  9
$DIMALTF
 40
0.03937007874016
  9
$DIMLFAC
 40
1.0
  9
$DIMTOFL
 70
     1
  9
$DIMTVP
 40
0.0
  9
$DIMTIX
 70
     0
  9
$DIMSOXD
 70
     0
  9
$DIMSAH
 70
     0
  9
$DIMBLK1
  1

  9
$DIMBLK2
  1

  9
$DIMSTYLE
  2
ISO-25
  9
$DIMCLRD
 70
     0
  9
$DIMCLRE
 70
     0
  9
$DIMCLRT
 70
     0
  9
$DIMTFAC
 40
1.0
  9
$DIMGAP
 40
0.625
  9
$DIMJUST
 70
     0
  9
$DIMSD1
 70
     0
  9
$DIMSD2
 70
     0
  9
$DIMTOLJ
 70
     0
  9
$DIMTZIN
 70
     8
  9
$DIMALTZ
 70
     0
  9
$DIMALTTZ
 70
     0
  9
$DIMFIT
 70
     3
  9
$DIMUPT
 70
     0
  9
$DIMUNIT
 70
     2
  9
$DIMDEC
 70
     2
  9
$DIMTDEC
 70
     2
  9
$DIMALTU
 70
     2
  9
$DIMALTTD
 70
     3
  9
$DIMTXSTY
  7
STANDARD
  9
$DIMAUNIT
 70
     0
  9
$LUNITS
 70
     2
  9
$LUPREC
 70
     4
  9
$SKETCHINC
 40
1.0
  9
$FILLETRAD
 40
10.0
  9
$AUNITS
 70
     0
  9
$AUPREC
 70
     0
  9
$MENU
  1
.
  9
$ELEVATION
 40
0.0
  9
$PELEVATION
 40
0.0
  9
$THICKNESS
 40
0.0
  9
$LIMCHECK
 70
     0
  9
$CHAMFERA
 40
10.0
  9
$CHAMFERB
 40
10.0
  9
$CHAMFERC
 40
20.0
  9
$CHAMFERD
 40
0.0
  9
$SKPOLY
 70
     0
  9
$TDCREATE
 40
2456152.791270764
  9
$TDUPDATE
 40
2456152.79127088
  9
$TDINDWG
 40
0.0000000116
  9
$TDUSRTIMER
 40
0.0000000116
  9
$USRTIMER
 70
     1
  9
$ANGBASE
 50
0.0
  9
$ANGDIR
 70
     0
  9
$PDMODE
 70
     0
  9
$PDSIZE
 40
0.0
  9
$PLINEWID
 40
0.0
  9
$COORDS
 70
     1
  9
$SPLFRAME
 70
     0
  9
$SPLINETYPE
 70
     6
  9
$SPLINESEGS
 70
     8
  9
$ATTDIA
 70
     0
  9
$ATTREQ
 70
     1
  9
$HANDLING
 70
     1
  9
$HANDSEED
  5
E5
  9
$SURFTAB1
 70
     6
  9
$SURFTAB2
 70
     6
  9
$SURFTYPE
 70
     6
  9
$SURFU
 70
     6
  9
$SURFV
 70
     6
  9
$UCSNAME
  2

  9
$UCSORG
 10
0.0
 20
0.0
 30
0.0
  9
$UCSXDIR
 10
1.0
 20
0.0
 30
0.0
  9
$UCSYDIR
 10
0.0
 20
1.0
 30
0.0
  9
$PUCSNAME
  2

  9
$PUCSORG
 10
0.0
 20
0.0
 30
0.0
  9
$PUCSXDIR
 10
1.0
 20
0.0
 30
0.0
  9
$PUCSYDIR
 10
0.0
 20
1.0
 30
0.0
  9
$USERI1
 70
     0
  9
$USERI2
 70
     0
  9
$USERI3
 70
     0
  9
$USERI4
 70
     0
  9
$USERI5
 70
     0
  9
$USERR1
 40
0.0
  9
$USERR2
 40
0.0
  9
$USERR3
 40
0.0
  9
$USERR4
 40
0.0
  9
$USERR5
 40
0.0
  9
$WORLDVIEW
 70
     1
  9
$SHADEDGE
 70
     3
  9
$SHADEDIF
 70
    70
  9
$TILEMODE
 70
     1
  9
$MAXACTVP
 70
    64
  9
$PINSBASE
 10
0.0
 20
0.0
 30
0.0
  9
$PLIMCHECK
 70
     0
  9
$PEXTMIN
 10
1.000000000000000E+20
 20
1.000000000000000E+20
 30
1.000000000000000E+20
  9
$PEXTMAX
 10
-1.000000000000000E+20
 20
-1.000000000000000E+20
 30
-1.000000000000000E+20
  9
$PLIMMIN
 10
0.0
 20
0.0
  9
$PLIMMAX
 10
420.0
 20
297.0
  9
$UNITMODE
 70
     0
  9
$VISRETAIN
 70
     1
  9
$PLINEGEN
 70
     0
  9
$PSLTSCALE
 70
     1
  9
$TREEDEPTH
 70
  3020
  9
$PICKSTYLE
 70
     1
  9
$CMLSTYLE
  2
STANDARD
  9
$CMLJUST
 70
     0
  9
$CMLSCALE
 40
20.0
  9
$PROXYGRAPHICS
 70
     1
  9
$MEASUREMENT
 70
     1
  0
ENDSEC
  0
SECTION
  2
CLASSES
  0
CLASS
  1
ACDBDICTIONARYWDFLT
  2
AcDbDictionaryWithDefault
  3
ObjectDBX Classes
 90
        0
280
     0
281
     0
  0
CLASS
  1
VISUALSTYLE
  2
AcDbVisualStyle
  3
ObjectDBX Classes
 90
     4095
280
     0
281
     0
  0
CLASS
  1
MATERIAL
  2
AcDbMaterial
  3
ObjectDBX Classes
 90
     1153
280
     0
281
     0
  0
CLASS
  1
DICTIONARYVAR
  2
AcDbDictionaryVar
  3
ObjectDBX Classes
 90
        0
280
     0
281
     0
  0
CLASS
  1
XRECORD
  2
AcDbXrecord
  3
AutoCAD 2000
 90
        0
280
     0
281
     0
  0
CLASS
  1
LWPOLYLINE
  2
AcDbPolyline
  3
AutoCAD 2000
 90
        0
280
     0
281
     1
  0
CLASS
  1
HATCH
  2
AcDbHatch
  3
AutoCAD 2000
 90
        0
280
     0
281
     1
  0
CLASS
  1
ACDBPLACEHOLDER
  2
AcDbPlaceHolder
  3
ObjectDBX Classes
 90
        0
280
     0
281
     0
  0
CLASS
  1
LAYOUT
  2
AcDbLayout
  3
ObjectDBX Classes
 90
        0
280
     0
281
     0
  0
ENDSEC
  0
SECTION
  2
TABLES
  0
TABLE
  2
VPORT
  5
8
330
0
100
AcDbSymbolTable
 70
     1
  0
VPORT
  5
29
330
8
100
AcDbSymbolTableRecord
100
AcDbViewportTableRecord
  2
*ACTIVE
 70
     0
 10
0.0
 20
0.0
 11
1.0
 21
1.0
 12
344.1869158878504
 22
148.5
 13
0.0
 23
0.0
 14
10.0
 24
10.0
 15
10.0
 25
10.0
 16
0.0
 26
0.0
 36
1.0
 17
0.0
 27
0.0
 37
0.0
 40
297.0
 41
1.972972972850329
 42
50.0
 43
0.0
 44
0.0
 50
0.0
 51
0.0
 71
     0
 72
   100
 73
     1
 74
     3
 75
     0
 76
     0
 77
     0
 78
     0
  0
ENDTAB
  0
TABLE
  2
LTYPE
  5
5
330
0
100
AcDbSymbolTable
 70
     1
  0
LTYPE
  5
14
330
5
100
AcDbSymbolTableRecord
100
AcDbLinetypeTableRecord
  2
BYBLOCK
 70
     0
  3

 72
    65
 73
     0
 40
0.0
  0
LTYPE
  5
15
330
5
100
AcDbSymbolTableRecord
100
AcDbLinetypeTableRecord
  2
BYLAYER
 70
     0
  3

 72
    65
 73
     0
 40
0.0
  0
LTYPE
  5
16
330
5
100
AcDbSymbolTableRecord
100
AcDbLinetypeTableRecord
  2
CONTINUOUS
 70
     0
  3
Solid line
 72
    65
 73
     0
 40
0.0
  0
ENDTAB
  0
TABLE
  2
LAYER
  5
2
330
0
100
AcDbSymbolTable
 70
     2
  0
LAYER
  5
10
330
2
100
AcDbSymbolTableRecord
100
AcDbLayerTableRecord
  2
0
 70
     0
 62
     7
  6
CONTINUOUS
  0
LAYER
  5
3F
330
2
100
AcDbSymbolTableRecord
100
AcDbLayerTableRecord
  2
CONTINUOUS
 70
     0
 62
     7
  6
CONTINUOUS
  0
ENDTAB
  0
TABLE
  2
STYLE
  5
3
330
0
100
AcDbSymbolTable
 70
     1
  0
STYLE
  5
11
330
3
100
AcDbSymbolTableRecord
100
AcDbTextStyleTableRecord
  2
STANDARD
 70
     0
 40
0.0
 41
1.0
 50
0.0
 71
     0
 42
2.5
  3
txt
  4

  0
ENDTAB
  0
TABLE
  2
VIEW
  5
6
330
0
100
AcDbSymbolTable
 70
     0
  0
ENDTAB
  0
TABLE
  2
UCS
  5
7
330
0
100
AcDbSymbolTable
 70
     0
  0
ENDTAB
  0
TABLE
  2
APPID
  5
9
330
0
100
AcDbSymbolTable
 70
     1
  0
APPID
  5
12
330
9
100
AcDbSymbolTableRecord
100
AcDbRegAppTableRecord
  2
ACAD
 70
     0
  0
ENDTAB
  0
TABLE
  2
DIMSTYLE
  5
A
330
0
100
AcDbSymbolTable
 70
     1
  0
DIMSTYLE
105
27
330
A
100
AcDbSymbolTableRecord
100
AcDbDimStyleTableRecord
  2
ISO-25
 70
     0
  3

  4

  5

  6

  7

 40
1.0
 41
2.5
 42
0.625
 43
3.75
 44
1.25
 45
0.0
 46
0.0
 47
0.0
 48
0.0
140
2.5
141
2.5
142
0.0
143
0.03937007874016
144
1.0
145
0.0
146
1.0
147
0.625
 71
     0
 72
     0
 73
     0
 74
     0
 75
     0
 76
     0
 77
     1
 78
     8
170
     0
171
     3
172
     1
173
     0
174
     0
175
     0
176
     0
177
     0
178
     0
270
     2
271
     2
272
     2
273
     2
274
     3
340
11
275
     0
280
     0
281
     0
282
     0
283
     0
284
     8
285
     0
286
     0
287
     3
288
     0
  0
ENDTAB
  0
TABLE
  2
BLOCK_RECORD
  5
1
330
0
100
AcDbSymbolTable
 70
     1
  0
BLOCK_RECORD
  5
1F
330
1
100
AcDbSymbolTableRecord
100
AcDbBlockTableRecord
  2
*MODEL_SPACE
  0
BLOCK_RECORD
  5
1B
330
1
100
AcDbSymbolTableRecord
100
AcDbBlockTableRecord
  2
*PAPER_SPACE
  0
ENDTAB
  0
ENDSEC
  0
SECTION
  2
BLOCKS
  0
BLOCK
  5
20
330
1F
100
AcDbEntity
  8
0
100
AcDbBlockBegin
  2
*MODEL_SPACE
 70
     0
 10
0.0
 20
0.0
 30
0.0
  3
*MODEL_SPACE
  1

  0
ENDBLK
  5
21
330
1F
100
AcDbEntity
  8
0
100
AcDbBlockEnd
  0
BLOCK
  5
1C
330
1B
100
AcDbEntity
 67
     1
  8
0
100
AcDbBlockBegin
  2
*PAPER_SPACE
 70
     0
 10
0.0
 20
0.0
 30
0.0
  3
*PAPER_SPACE
  1

  0
ENDBLK
  5
1D
330
1B
100
AcDbEntity
 67
     1
  8
0
100
AcDbBlockEnd
  0
ENDSEC
  0
SECTION
  2
ENTITIES
  0
LINE
  5
40
330
1F
100
AcDbEntity
  8
CONTINUOUS
  6
CONTINUOUS
 62
     1
100
AcDbLine
 10
-206.000012
 20
105.999985
 30
0.0
 11
-206.000012
 21
56.0
 31
0.0
  0
LINE
  5
41
330
1F
100
AcDbEntity
  8
CONTINUOUS
  6
CONTINUOUS
 62
     1
100
AcDbLine
 10
-206.000012
 20
56.0
 30
0.0
 11
-176.000015
 21
26.000004
 31
0.0
  0
LINE
  5
42
330
1F
100
AcDbEntity
  8
CONTINUOUS
  6
CONTINUOUS
 62
     1
100
AcDbLine
 10
-176.000015
 20
26.000004
 30
0.0
 11
-125.000004
 21
26.000004
 31
0.0
  0
LINE
  5
43
330
1F
100
AcDbEntity
  8
CONTINUOUS
  6
CONTINUOUS
 62
     1
100
AcDbLine
 10
-125.000004
 20
26.000004
 30
0.0
 11
-121.000012
 21
21.999984
 31
0.0
  0
LINE
  5
44
330
1F
100
AcDbEntity
  8
CONTINUOUS
  6
CONTINUOUS
 62
     1
100
AcDbLine
 10
-121.000012
 20
21.999984
 30
0.0
 11
-121.000012
 21
5.99998800000003
 31
0.0
  0
LINE
  5
45
330
1F
100
AcDbEntity
  8
CONTINUOUS
  6
CONTINUOUS
 62
     1
100
AcDbLine
 10
-121.000012
 20
5.99998800000003
 30
0.0
 11
-114.999996
 21
0.0
 31
0.0
  0
LINE
  5
46
330
1F
100
AcDbEntity
  8
CONTINUOUS
  6
CONTINUOUS
 62
     1
100
AcDbLine
 10
-114.999996
 20
0.0
 30
0.0
 11
0.0
 21
0.0
 31
0.0
  0
LINE
  5
47
330
1F
100
AcDbEntity
  8
CONTINUOUS
  6
CONTINUOUS
 62
     1
100
AcDbLine
 10
0.0
 20
77.999985
 30
0.0
 11
-90.000018
 21
77.999985
 31
0.0
  0
LINE
  5
48
330
1F
100
AcDbEntity
  8
CONTINUOUS
  6
CONTINUOUS
 62
     1
100
AcDbLine
 10
-90.000018
 20
94.000009
 30
0.0
 11
0.0
 21
94.000009
 31
0.0
  0
LINE
  5
49
330
1F
100
AcDbEntity
  8
CONTINUOUS
  6
CONTINUOUS
 62
     1
100
AcDbLine
 10
0.0
 20
77.999985
 30
0.0
 11
89.999989
 21
77.999985
 31
0.0
  0
LINE
  5
4A
330
1F
100
AcDbEntity
  8
CONTINUOUS
  6
CONTINUOUS
 62
     1
100
AcDbLine
 10
89.999989
 20
94.000009
 30
0.0
 11
0.0
 21
94.000009
 31
0.0
  0
LINE
  5
4B
330
1F
100
AcDbEntity
  8
CONTINUOUS
  6
CONTINUOUS
 62
     1
100
AcDbLine
 10
205.999983
 20
105.999985
 30
0.0
 11
205.999983
 21
56.0
 31
0.0
  0
LINE
  5
4C
330
1F
100
AcDbEntity
  8
CONTINUOUS
  6
CONTINUOUS
 62
     1
100
AcDbLine
 10
205.999983
 20
56.0
 30
0.0
 11
175.999986
 21
26.000004
 31
0.0
  0
LINE
  5
4D
330
1F
100
AcDbEntity
  8
CONTINUOUS
  6
CONTINUOUS
 62
     1
100
AcDbLine
 10
175.999986
 20
26.000004
 30
0.0
 11
125.000004
 21
26.000004
 31
0.0
  0
LINE
  5
4E
330
1F
100
AcDbEntity
  8
CONTINUOUS
  6
CONTINUOUS
 62
     1
100
AcDbLine
 10
125.000004
 20
26.000004
 30
0.0
 11
120.999984
 21
21.999984
 31
0.0
  0
LINE
  5
4F
330
1F
100
AcDbEntity
  8
CONTINUOUS
  6
CONTINUOUS
 62
     1
100
AcDbLine
 10
120.999984
 20
21.999984
 30
0.0
 11
120.999984
 21
5.99998800000003
 31
0.0
  0
LINE
  5
50
330
1F
100
AcDbEntity
  8
CONTINUOUS
  6
CONTINUOUS
 62
     1
100
AcDbLine
 10
120.999984
 20
5.99998800000003
 30
0.0
 11
114.999996
 21
0.0
 31
0.0
  0
LINE
  5
51
330
1F
100
AcDbEntity
  8
CONTINUOUS
  6
CONTINUOUS
 62
     1
100
AcDbLine
 10
114.999996
 20
0.0
 30
0.0
 11
0.0
 21
0.0
 31
0.0
  0
LINE
  5
52
330
1F
100
AcDbEntity
  8
CONTINUOUS
  6
CONTINUOUS
 62
     1
100
AcDbLine
 10
-161.500002
 20
42.0
 30
0.0
 11
-161.500002
 21
50.999982
 31
0.0
  0
LINE
  5
53
330
1F
100
AcDbEntity
  8
CONTINUOUS
  6
CONTINUOUS
 62
     1
100
AcDbLine
 10
-166.499992
 20
50.999982
 30
0.0
 11
-166.499992
 21
42.0
 31
0.0
  0
LINE
  5
54
330
1F
100
AcDbEntity
  8
CONTINUOUS
100
AcDbLine
 10
-196.000003
 20
115.999993
 30
0.0
 11
196.000003
 21
115.999993
 31
0.0
  0
ARC
  5
55
330
1F
100
AcDbEntity
  8
CONTINUOUS
100
AcDbCircle
 10
-196.000003
 20
105.999984
 30
0.0
 40
10.00000900000001
100
AcDbArc
 50
90.0
 51
179.9999942704272
  0
CIRCLE
  5
56
330
1F
100
AcDbEntity
  8
CONTINUOUS
100
AcDbCircle
 10
-194.000007
 20
98.000001
 30
0.0
 40
1.699993999999975
  0
CIRCLE
  5
57
330
1F
100
AcDbEntity
  8
CONTINUOUS
100
AcDbCircle
 10
-194.000007
 20
85.999997
 30
0.0
 40
3.999991999999992
  0
CIRCLE
  5
58
330
1F
100
AcDbEntity
  8
CONTINUOUS
100
AcDbCircle
 10
-194.000007
 20
73.9999925
 30
0.0
 40
1.699993500000005
  0
CIRCLE
  5
59
330
1F
100
AcDbEntity
  8
CONTINUOUS
100
AcDbCircle
 10
-179.499994
 20
70.5
 30
0.0
 40
1.700007999999968
  0
CIRCLE
  5
5A
330
1F
100
AcDbEntity
  8
CONTINUOUS
100
AcDbCircle
 10
-164.000011
 20
85.999997
 30
0.0
 40
13.00000199999999
  0
CIRCLE
  5
5B
330
1F
100
AcDbEntity
  8
CONTINUOUS
100
AcDbCircle
 10
-179.499994
 20
101.499994
 30
0.0
 40
1.700007999999997
  0
CIRCLE
  5
5C
330
1F
100
AcDbEntity
  8
CONTINUOUS
100
AcDbCircle
 10
-148.5
 20
101.499994
 30
0.0
 40
1.700007999999997
  0
CIRCLE
  5
5D
330
1F
100
AcDbEntity
  8
CONTINUOUS
100
AcDbCircle
 10
-148.5
 20
70.5
 30
0.0
 40
1.700007999999997
  0
ARC
  5
5E
330
1F
100
AcDbEntity
  8
CONTINUOUS
100
AcDbCircle
 10
-163.999997
 20
50.999982
 30
0.0
 40
2.499995000000013
100
AcDbArc
 50
0.0
 51
180.0
  0
ARC
  5
5F
330
1F
100
AcDbEntity
  8
CONTINUOUS
100
AcDbCircle
 10
-163.999997
 20
42.0
 30
0.0
 40
2.499994999999984
100
AcDbArc
 50
180.0
 51
0.0
  0
CIRCLE
  5
60
330
1F
100
AcDbEntity
  8
CONTINUOUS
100
AcDbCircle
 10
-105.000016
 20
47.0000045
 30
0.0
 40
2.100001500000005
  0
CIRCLE
  5
61
330
1F
100
AcDbEntity
  8
CONTINUOUS
100
AcDbCircle
 10
-105.000016
 20
28.9999835
 30
0.0
 40
2.100001500000047
  0
ARC
  5
62
330
1F
100
AcDbEntity
  8
CONTINUOUS
100
AcDbCircle
 10
-90.000018
 20
85.999997
 30
0.0
 40
8.000012000000012
100
AcDbArc
 50
90.0
 51
270.0
  0
CIRCLE
  5
63
330
1F
100
AcDbEntity
  8
CONTINUOUS
100
AcDbCircle
 10
0.0
 20
47.0000045
 30
0.0
 40
2.1000015
  0
CIRCLE
  5
64
330
1F
100
AcDbEntity
  8
CONTINUOUS
100
AcDbCircle
 10
0.0
 20
28.9999835
 30
0.0
 40
2.10000150000005
  0
ARC
  5
65
330
1F
100
AcDbEntity
  8
CONTINUOUS
100
AcDbCircle
 10
196.000003
 20
105.999984
 30
0.0
 40
10.00000900000006
100
AcDbArc
 50
0.0000057295727802
 51
90.0
  0
LINE
  5
66
330
1F
100
AcDbEntity
  8
CONTINUOUS
  6
CONTINUOUS
 62
     1
100
AcDbLine
 10
161.500002000105
 20
42.0
 30
0.0
 11
161.500002000105
 21
50.999982
 31
0.0
  0
LINE
  5
67
330
1F
100
AcDbEntity
  8
CONTINUOUS
  6
CONTINUOUS
 62
     1
100
AcDbLine
 10
166.4999920001049
 20
50.9999820000001
 30
0.0
 11
166.4999920001049
 21
42.0
 31
0.0
  0
CIRCLE
  5
68
330
1F
100
AcDbEntity
  8
CONTINUOUS
100
AcDbCircle
 10
194.000007
 20
98.000001
 30
0.0
 40
1.699993999999975
  0
CIRCLE
  5
69
330
1F
100
AcDbEntity
  8
CONTINUOUS
100
AcDbCircle
 10
194.000007
 20
85.999997
 30
0.0
 40
3.999991999999992
  0
CIRCLE
  5
6A
330
1F
100
AcDbEntity
  8
CONTINUOUS
100
AcDbCircle
 10
194.000007
 20
73.9999925
 30
0.0
 40
1.699993500000005
  0
CIRCLE
  5
6B
330
1F
100
AcDbEntity
  8
CONTINUOUS
100
AcDbCircle
 10
179.499994
 20
70.5
 30
0.0
 40
1.700007999999968
  0
CIRCLE
  5
6C
330
1F
100
AcDbEntity
  8
CONTINUOUS
100
AcDbCircle
 10
164.000011
 20
85.999997
 30
0.0
 40
13.00000199999999
  0
CIRCLE
  5
6D
330
1F
100
AcDbEntity
  8
CONTINUOUS
100
AcDbCircle
 10
179.499994
 20
101.499994
 30
0.0
 40
1.700007999999997
  0
CIRCLE
  5
6E
330
1F
100
AcDbEntity
  8
CONTINUOUS
100
AcDbCircle
 10
148.5
 20
101.499994
 30
0.0
 40
1.700007999999997
  0
CIRCLE
  5
6F
330
1F
100
AcDbEntity
  8
CONTINUOUS
100
AcDbCircle
 10
148.5
 20
70.5
 30
0.0
 40
1.700007999999997
  0
ARC
  5
70
330
1F
100
AcDbEntity
  8
CONTINUOUS
100
AcDbCircle
 10
163.9999970001049
 20
50.99998200000005
 30
0.0
 40
2.499994999999984
100
AcDbArc
 50
0.0000000000011399
 51
180.0000000000011
  0
ARC
  5
71
330
1F
100
AcDbEntity
  8
CONTINUOUS
100
AcDbCircle
 10
163.9999970001049
 20
42.0
 30
0.0
 40
2.499994999999984
100
AcDbArc
 50
180.0
 51
0.0
  0
CIRCLE
  5
72
330
1F
100
AcDbEntity
  8
CONTINUOUS
100
AcDbCircle
 10
105.000016
 20
47.0000045
 30
0.0
 40
2.100001500000005
  0
CIRCLE
  5
73
330
1F
100
AcDbEntity
  8
CONTINUOUS
100
AcDbCircle
 10
105.000016
 20
28.9999835
 30
0.0
 40
2.100001500000047
  0
ARC
  5
74
330
1F
100
AcDbEntity
  8
CONTINUOUS
100
AcDbCircle
 10
90.000018
 20
85.999997
 30
0.0
 40
8.000011999999998
100
AcDbArc
 50
270.0
 51
90.0
  0
LINE
  5
76
330
1F
100
AcDbEntity
  8
CONTINUOUS
  6
CONTINUOUS
 62
     1
100
AcDbLine
 10
310.6129748671875
 20
299.0766418511403
 30
0.0
 11
310.6129748671875
 21
294.0766518511402
 31
0.0
  0
LINE
  5
77
330
1F
100
AcDbEntity
  8
CONTINUOUS
  6
CONTINUOUS
 62
     1
100
AcDbLine
 10
253.9129749997841
 20
361.5766438511528
 30
0.0
 11
288.9129609996004
 21
361.5766438511528
 31
0.0
  0
LINE
  5
78
330
1F
100
AcDbEntity
  8
CONTINUOUS
  6
CONTINUOUS
 62
     1
100
AcDbLine
 10
333.912984000071
 20
305.7765022904
 30
0.0
 11
333.9129840000709
 21
180.0330788512837
 31
0.0
  0
LINE
  5
79
330
1F
100
AcDbEntity
  8
CONTINUOUS
  6
CONTINUOUS
 62
     1
100
AcDbLine
 10
253.9129750006284
 20
-33.42335714915944
 30
0.0
 11
253.9129750006284
 21
199.0766438508629
 31
0.0
  0
LINE
  5
7A
330
1F
100
AcDbEntity
  8
CONTINUOUS
  6
CONTINUOUS
 62
     1
100
AcDbLine
 10
33.91298050057006
 20
199.0766383501366
 30
0.0
 11
33.91297500020167
 21
139.0766508509473
 31
0.0
  0
LINE
  5
7B
330
1F
100
AcDbEntity
  8
CONTINUOUS
  6
CONTINUOUS
 62
     1
100
AcDbLine
 10
-1.087023281173528
 20
229.0766287950979
 30
0.0
 11
-7.087022281177315
 21
235.0766167950615
 31
0.0
  0
LINE
  5
7C
330
1F
100
AcDbEntity
  8
CONTINUOUS
  6
CONTINUOUS
 62
     1
100
AcDbLine
 10
274.4129788671878
 20
322.5766384475505
 30
0.0
 11
283.4129888671876
 21
322.5766366856062
 31
0.0
  0
ARC
  5
7D
330
1F
100
AcDbEntity
  8
CONTINUOUS
100
AcDbCircle
 10
23.91296700018773
 20
139.0766508509473
 30
0.0
 40
10.00000800001393
100
AcDbArc
 50
270.0
 51
0.0
  0
ARC
  5
7E
330
1F
100
AcDbEntity
  8
CONTINUOUS
100
AcDbCircle
 10
53.91297400057491
 20
199.0766383501366
 30
0.0
 40
19.99999350000485
100
AcDbArc
 50
90.0
 51
180.0
  0
ARC
  5
7F
330
1F
100
AcDbEntity
  8
CONTINUOUS
100
AcDbCircle
 10
63.41297786718749
 20
262.0766448511403
 30
0.0
 40
4.499991000000023
100
AcDbArc
 50
90.0
 51
270.0
  0
ARC
  5
80
330
1F
100
AcDbEntity
  8
CONTINUOUS
100
AcDbCircle
 10
72.41297686718747
 20
262.0766448511403
 30
0.0
 40
4.499991000000023
100
AcDbArc
 50
270.0
 51
90.0
  0
LINE
  5
81
330
1F
100
AcDbEntity
  8
CONTINUOUS
100
AcDbLine
 10
63.41297786718749
 20
266.5766358511403
 30
0.0
 11
72.41297686718747
 21
266.5766358511403
 31
0.0
  0
LINE
  5
82
330
1F
100
AcDbEntity
  8
CONTINUOUS
100
AcDbLine
 10
63.41297786718749
 20
257.5766538511402
 30
0.0
 11
72.41297686718747
 21
257.5766538511402
 31
0.0
  0
CIRCLE
  5
83
330
1F
100
AcDbEntity
  8
CONTINUOUS
100
AcDbCircle
 10
172.4129768671875
 20
262.0766448511403
 30
0.0
 40
2.499995000000013
  0
CIRCLE
  5
84
330
1F
100
AcDbEntity
  8
CONTINUOUS
100
AcDbCircle
 10
278.9129838671874
 20
349.0766403511402
 30
0.0
 40
4.199988500000018
  0
CIRCLE
  5
85
330
1F
100
AcDbEntity
  8
CONTINUOUS
100
AcDbCircle
 10
328.9129688671895
 20
319.0766438511352
 30
0.0
 40
4.199988999994957
  0
ARC
  5
86
330
1F
100
AcDbEntity
  8
CONTINUOUS
100
AcDbCircle
 10
308.9129808671875
 20
299.0766418511403
 30
0.0
 40
1.699994000000004
100
AcDbArc
 50
0.0
 51
180.0
  0
ARC
  5
87
330
1F
100
AcDbEntity
  8
CONTINUOUS
100
AcDbCircle
 10
308.9129808671875
 20
294.0766518511402
 30
0.0
 40
1.699994000000004
100
AcDbArc
 50
180.0
 51
0.0
  0
ARC
  5
88
330
1F
100
AcDbEntity
  8
CONTINUOUS
100
AcDbCircle
 10
274.4129788671878
 20
319.0766454475466
 30
0.0
 40
3.499993000003826
100
AcDbArc
 50
90.0
 51
270.0
  0
ARC
  5
89
330
1F
100
AcDbEntity
  8
CONTINUOUS
100
AcDbCircle
 10
283.4129888671878
 20
319.0766445665744
 30
0.0
 40
3.499992119031788
100
AcDbArc
 50
270.0
 51
90.00000000000371
  0
LINE
  5
8A
330
1F
100
AcDbEntity
  8
CONTINUOUS
100
AcDbLine
 10
274.4129788671878
 20
315.5766524475428
 30
0.0
 11
283.4129888671878
 21
315.5766524475428
 31
0.0
  0
LINE
  5
8B
330
1F
100
AcDbEntity
  8
CONTINUOUS
100
AcDbLine
 10
307.2129868671875
 20
294.0766518511402
 30
0.0
 11
307.2129868671875
 21
299.0766418511403
 31
0.0
  0
ARC
  5
8C
330
1F
100
AcDbEntity
  8
CONTINUOUS
100
AcDbCircle
 10
308.9129808671875
 20
217.7966418511402
 30
0.0
 40
1.699994000000061
100
AcDbArc
 50
0.0000000000019158
 51
180.0
  0
ARC
  5
8D
330
1F
100
AcDbEntity
  8
CONTINUOUS
100
AcDbCircle
 10
308.9129808671875
 20
212.7966518511402
 30
0.0
 40
1.699994000000004
100
AcDbArc
 50
180.0
 51
0.0000000000019158
  0
LINE
  5
8E
330
1F
100
AcDbEntity
  8
CONTINUOUS
100
AcDbLine
 10
310.6129748671875
 20
212.7966518511403
 30
0.0
 11
310.6129748671875
 21
217.7966418511403
 31
0.0
  0
LINE
  5
8F
330
1F
100
AcDbEntity
  8
CONTINUOUS
100
AcDbLine
 10
307.2129868671875
 20
212.7966518511402
 30
0.0
 11
307.2129868671875
 21
217.7966418511402
 31
0.0
  0
ARC
  5
90
330
1F
100
AcDbEntity
  8
CONTINUOUS
100
AcDbCircle
 10
288.9129778671875
 20
-1.923349148864759
 30
0.0
 40
4.499991000000023
100
AcDbArc
 50
180.0
 51
0.0
  0
ARC
  5
91
330
1F
100
AcDbEntity
  8
CONTINUOUS
100
AcDbCircle
 10
288.9129778671875
 20
169.0766478511352
 30
0.0
 40
4.499991000000023
100
AcDbArc
 50
0.0
 51
180.0
  0
LINE
  5
92
330
1F
100
AcDbEntity
  8
CONTINUOUS
100
AcDbLine
 10
284.4129868671874
 20
169.0766478511352
 30
0.0
 11
284.4129868671874
 21
-1.923349148864759
 31
0.0
  0
LINE
  5
93
330
1F
100
AcDbEntity
  8
CONTINUOUS
100
AcDbLine
 10
293.4129688671875
 20
-1.923349148864759
 30
0.0
 11
293.4129688671875
 21
169.0766478511352
 31
0.0
  0
CIRCLE
  5
94
330
1F
100
AcDbEntity
  8
CONTINUOUS
100
AcDbCircle
 10
328.9129688671875
 20
-0.9233511488647537
 30
0.0
 40
4.2000038614392
  0
LINE
  5
95
330
1F
100
AcDbEntity
  8
CONTINUOUS
100
AcDbLine
 10
345.9129880000155
 20
-4.613350149062767
 30
0.0
 11
345.9129880000155
 21
2.766647850923079
 31
0.0
  0
LINE
  5
96
330
1F
100
AcDbEntity
  8
CONTINUOUS
100
AcDbLine
 10
342.1029880000156
 20
6.576647850923024
 30
0.0
 11
338.9129740005836
 21
6.576647850923024
 31
0.0
  0
LINE
  5
97
330
1F
100
AcDbEntity
  8
CONTINUOUS
100
AcDbLine
 10
338.9129740005836
 20
6.576647850923024
 30
0.0
 11
337.7229840001229
 21
6.576647850923024
 31
0.0
  0
LINE
  5
98
330
1F
100
AcDbEntity
  8
CONTINUOUS
100
AcDbLine
 10
333.9129840001309
 20
157.1201898509445
 30
0.0
 11
333.9129840001229
 21
10.38664785092297
 31
0.0
  0
LINE
  5
99
330
1F
100
AcDbEntity
  8
CONTINUOUS
  6
CONTINUOUS
 62
     1
100
AcDbLine
 10
339.1170292661694
 20
-9.088483751560428
 30
0.0
 11
288.9129610007394
 21
-43.42336514922679
 31
0.0
  0
LINE
  5
9A
330
1F
100
AcDbEntity
  8
CONTINUOUS
100
AcDbLine
 10
341.2678233850615
 20
-8.423350149062715
 30
0.0
 11
342.1029880000156
 21
-8.423350149062715
 31
0.0
  0
ARC
  5
9B
330
1F
100
AcDbEntity
  8
CONTINUOUS
100
AcDbCircle
 10
342.1029880000156
 20
2.766647850923079
 30
0.0
 40
3.809999999999945
100
AcDbArc
 50
0.0000000000000067
 51
90.0
  0
ARC
  5
9C
330
1F
100
AcDbEntity
  8
CONTINUOUS
100
AcDbCircle
 10
342.1029880000156
 20
-4.613350149062768
 30
0.0
 40
3.809999999999945
100
AcDbArc
 50
270.0
 51
0.0000000000000134
  0
ARC
  5
9D
330
1F
100
AcDbEntity
  8
CONTINUOUS
100
AcDbCircle
 10
337.7229840001229
 20
10.38664785092297
 30
0.0
 40
3.809999999999945
100
AcDbArc
 50
180.0
 51
270.0
  0
ARC
  5
9E
330
1F
100
AcDbEntity
  8
CONTINUOUS
100
AcDbCircle
 10
341.2678233850615
 20
-12.23335014906266
 30
0.0
 40
3.809999999999947
100
AcDbArc
 50
90.0
 51
124.3684725031814
  0
ARC
  5
9F
330
1F
100
AcDbEntity
  8
CONTINUOUS
100
AcDbCircle
 10
263.9129830006957
 20
-33.42335714915945
 30
0.0
 40
10.00000800006731
100
AcDbArc
 50
179.9999999999999
 51
270.0
  0
ARC
  5
A0
330
1F
100
AcDbEntity
  8
CONTINUOUS
100
AcDbCircle
 10
278.9129810006937
 20
-30.92334814922722
 30
0.0
 40
4.200002999998901
100
AcDbArc
 50
0.0
 51
179.9999999999887
  0
ARC
  5
A1
330
1F
100
AcDbEntity
  8
CONTINUOUS
100
AcDbCircle
 10
233.912981000623
 20
199.0766438508629
 30
0.0
 40
19.99999400000542
100
AcDbArc
 50
0.0
 51
90.0
  0
CIRCLE
  5
A2
330
1F
100
AcDbEntity
  8
CONTINUOUS
100
AcDbCircle
 10
328.9129688671854
 20
168.5766343510921
 30
0.0
 40
4.200003611446505
  0
LINE
  5
A3
330
1F
100
AcDbEntity
  8
CONTINUOUS
100
AcDbLine
 10
340.238043181881
 20
311.5766308513202
 30
0.0
 11
342.1029880000564
 21
311.5766308513202
 31
0.0
  0
LINE
  5
A4
330
1F
100
AcDbEntity
  8
CONTINUOUS
100
AcDbLine
 10
345.9129880000563
 20
315.3866308513202
 30
0.0
 11
345.9129880000563
 21
322.7666288512656
 31
0.0
  0
LINE
  5
A5
330
1F
100
AcDbEntity
  8
CONTINUOUS
100
AcDbLine
 10
335.3588068729705
 20
308.7642717781107
 30
0.0
 11
337.8738660547806
 21
310.7544003390311
 31
0.0
  0
LINE
  5
A6
330
1F
100
AcDbEntity
  8
CONTINUOUS
  6
CONTINUOUS
 62
     1
100
AcDbLine
 10
288.9129609996004
 20
361.5766438511528
 30
0.0
 11
339.1170276599601
 21
327.2417624848876
 31
0.0
  0
LINE
  5
A7
330
1F
100
AcDbEntity
  8
CONTINUOUS
100
AcDbLine
 10
342.1029880000564
 20
326.5766288512656
 30
0.0
 11
341.2678218243619
 21
326.5766288512656
 31
0.0
  0
ARC
  5
A8
330
1F
100
AcDbEntity
  8
CONTINUOUS
100
AcDbCircle
 10
342.1029880000564
 20
322.7666288512656
 30
0.0
 40
3.809999999999945
100
AcDbArc
 50
0.0
 51
90.0
  0
ARC
  5
A9
330
1F
100
AcDbEntity
  8
CONTINUOUS
100
AcDbCircle
 10
342.1029880000564
 20
315.3866308513202
 30
0.0
 40
3.809999999999945
100
AcDbArc
 50
270.0
 51
0.0
  0
ARC
  5
AA
330
1F
100
AcDbEntity
  8
CONTINUOUS
100
AcDbCircle
 10
340.238043181881
 20
307.7666308513203
 30
0.0
 40
3.809999999999889
100
AcDbArc
 50
90.0
 51
128.3540394741229
  0
ARC
  5
AB
330
1F
100
AcDbEntity
  8
CONTINUOUS
100
AcDbCircle
 10
337.7229840000708
 20
305.7765022904
 30
0.0
 40
3.809999999999832
100
AcDbArc
 50
128.3540394741221
 51
180.0
  0
ARC
  5
AC
330
1F
100
AcDbEntity
  8
CONTINUOUS
100
AcDbCircle
 10
341.2678218243619
 20
330.3866288512655
 30
0.0
 40
3.809999999999889
100
AcDbArc
 50
235.6315266676852
 51
270.0
  0
LINE
  5
AD
330
1F
100
AcDbEntity
  8
CONTINUOUS
  6
CONTINUOUS
 62
     1
100
AcDbLine
 10
-0.876411225009281
 20
281.0397794800631
 30
0.0
 11
253.9129749997841
 21
361.5766438511528
 31
0.0
  0
LINE
  5
AE
330
1F
100
AcDbEntity
  8
CONTINUOUS
  6
CONTINUOUS
 62
     1
100
AcDbLine
 10
-7.087022281177315
 20
235.0766167950615
 30
0.0
 11
-7.087022281177315
 21
272.5631660709433
 31
0.0
  0
ARC
  5
AF
330
1F
100
AcDbEntity
  8
CONTINUOUS
100
AcDbCircle
 10
1.802977718822671
 20
272.5631660709433
 30
0.0
 40
8.889999999999986
100
AcDbArc
 50
107.541324124398
 51
180.0
  0
LINE
  5
B0
330
1F
100
AcDbEntity
  8
CONTINUOUS
100
AcDbLine
 10
283.1129840006924
 20
-30.92334814922722
 30
0.0
 11
283.1129840006924
 21
-43.42336514922679
 31
0.0
  0
LINE
  5
B1
330
1F
100
AcDbEntity
  8
CONTINUOUS
100
AcDbLine
 10
274.7129780006948
 20
-30.9233481492264
 30
0.0
 11
274.7129780006948
 21
-43.42336514922679
 31
0.0
  0
LINE
  5
B2
330
1F
100
AcDbEntity
  8
CONTINUOUS
100
AcDbLine
 10
283.1129840006924
 20
-43.42336514922679
 30
0.0
 11
288.9129610007393
 21
-43.42336514922679
 31
0.0
  0
LINE
  5
B3
330
1F
100
AcDbEntity
  8
CONTINUOUS
100
AcDbLine
 10
263.9129830006957
 20
-43.42336514922679
 30
0.0
 11
274.7129780006948
 21
-43.42336514922679
 31
0.0
  0
LINE
  5
B4
330
1F
100
AcDbEntity
  8
CONTINUOUS
100
AcDbLine
 10
23.91296700018773
 20
129.0766428509333
 30
0.0
 11
-1.087023281173528
 21
129.0766428509333
 31
0.0
  0
LINE
  5
B5
330
1F
100
AcDbEntity
  8
CONTINUOUS
  6
CONTINUOUS
 62
     1
100
AcDbLine
 10
-1.087023281173528
 20
129.0766428509333
 30
0.0
 11
-1.087023281173528
 21
229.0766287950979
 31
0.0
  0
LINE
  5
B6
330
1F
100
AcDbEntity
  8
CONTINUOUS
100
AcDbLine
 10
53.91297400057491
 20
219.0766318501414
 30
0.0
 11
233.912981000623
 21
219.0766378508683
 31
0.0
  0
ARC
  5
B7
330
1F
100
AcDbEntity
  8
CONTINUOUS
100
AcDbCircle
 10
328.9129688671854
 20
168.5766343510921
 30
0.0
 40
12.50001087659744
100
AcDbArc
 50
293.5782324025152
 51
66.42176759781773
  0
ENDSEC
  0
SECTION
  2
OBJECTS
  0
DICTIONARY
  5
C
330
0
100
AcDbDictionary
  3
ACAD_GROUP
350
D
  3
ACAD_LAYOUT
350
1A
  3
ACAD_MATERIAL
350
3B
  3
ACAD_MLEADERSTYLE
350
DA
  3
ACAD_MLINESTYLE
350
17
  3
ACAD_PLOTSETTINGS
350
19
  3
ACAD_VISUALSTYLE
350
2A
  3
ACDBHEADERROUNDTRIPXREC
350
B8
  3
ACDBVARIABLEDICTIONARY
350
D8
  0
DICTIONARY
  5
D
102
{ACAD_REACTORS
330
C
102
}
330
C
100
AcDbDictionary
  0
DICTIONARY
  5
1A
102
{ACAD_REACTORS
330
C
102
}
330
C
100
AcDbDictionary
  0
DICTIONARY
  5
3B
102
{ACAD_REACTORS
330
C
102
}
330
C
100
AcDbDictionary
  3
BYBLOCK
350
3D
  3
BYLAYER
350
3C
  3
GLOBAL
350
3E
  0
DICTIONARY
  5
DA
102
{ACAD_REACTORS
330
C
102
}
330
C
100
AcDbDictionary
  0
DICTIONARY
  5
17
102
{ACAD_REACTORS
330
C
102
}
330
C
100
AcDbDictionary
  3
STANDARD
350
18
  0
DICTIONARY
  5
19
102
{ACAD_REACTORS
330
C
102
}
330
C
100
AcDbDictionary
  0
DICTIONARY
  5
2A
102
{ACAD_REACTORS
330
C
102
}
330
C
100
AcDbDictionary
  3
2DWIREFRAME
350
2F
  3
3D_HIDDEN
350
31
  3
3DWIREFRAME
350
30
  3
BASIC
350
32
  3
BRIGHTEN
350
36
  3
COLORCHANGE
350
3A
  3
CONCEPTUAL
350
34
  3
DIM
350
35
  3
FACEPATTERN
350
39
  3
FLAT
350
2B
  3
FLATWITHEDGES
350
2C
  3
GOURAUD
350
2D
  3
GOURAUDWITHEDGES
350
2E
  3
LINEPATTERN
350
38
  3
REALISTIC
350
33
  3
THICKEN
350
37
  0
DICTIONARY
  5
B8
102
{ACAD_REACTORS
330
C
102
}
330
C
100
AcDbDictionary
  3
CEPSNTYPE
350
C1
  3
DIMSTYLEDATA
350
D7
  3
FINGERPRINTGUID
350
C2
  3
HYPERLINKBASE
350
BB
  3
INSUNITS
350
C0
  3
LAYOUTDICT
350
BD
  3
LWETCUNION
350
BF
  3
PLOTSETDICT
350
BE
  3
PSVPSCALE
350
C4
  3
PUCSBASE
350
C7
  3
PUCSORGBACK
350
CD
  3
PUCSORGBOTTOM
350
C9
  3
PUCSORGFRONT
350
CC
  3
PUCSORGLEFT
350
CA
  3
PUCSORGRIGHT
350
CB
  3
PUCSORGTOP
350
C8
  3
PUCSORTHOREF
350
C5
  3
PUCSORTHOVIEW
350
C6
  3
STYLESHEET
350
BC
  3
TSTACKALIGN
350
B9
  3
TSTACKSIZE
350
BA
  3
UCSBASE
350
D0
  3
UCSORGBACK
350
D6
  3
UCSORGBOTTOM
350
D2
  3
UCSORGFRONT
350
D5
  3
UCSORGLEFT
350
D3
  3
UCSORGRIGHT
350
D4
  3
UCSORGTOP
350
D1
  3
UCSORTHOREF
350
CE
  3
UCSORTHOVIEW
350
CF
  3
VERSIONGUID
350
C3
  0
DICTIONARY
  5
D8
102
{ACAD_REACTORS
330
C
102
}
330
C
100
AcDbDictionary
  3
DIMASSOC
350
DD
  3
HIDETEXT
350
DE
  3
PSOLHEIGHT
350
DC
  3
PSOLWIDTH
350
DB
  0
MATERIAL
  5
3D
102
{ACAD_REACTORS
330
3B
102
}
102
{ACAD_XDICTIONARY
360
E1
102
}
330
3B
100
AcDbMaterial
  1
ByBlock
  0
MATERIAL
  5
3C
102
{ACAD_REACTORS
330
3B
102
}
102
{ACAD_XDICTIONARY
360
DF
102
}
330
3B
100
AcDbMaterial
  1
ByLayer
  0
MATERIAL
  5
3E
102
{ACAD_REACTORS
330
3B
102
}
102
{ACAD_XDICTIONARY
360
E3
102
}
330
3B
100
AcDbMaterial
  1
Global
  0
MLINESTYLE
  5
18
102
{ACAD_REACTORS
330
17
102
}
330
17
100
AcDbMlineStyle
  2
Standard
 70
     0
  3

 62
   256
 51
90.0
 52
90.0
 71
     2
 49
0.5
 62
   256
  6
BYLAYER
 49
-0.5
 62
   256
  6
BYLAYER
  0
ACAD_PROXY_OBJECT
  5
2F
102
{ACAD_REACTORS
330
2A
102
}
330
2A
100
AcDbProxyObject
 90
      499
 91
      501
 93
      436
310
42CC9915DA5C99599C985B595049028333333333333E3BF0000000000000FB0107901411070040501600405405064090741402480A0340
1001
ACAD
1000
AcDbSavedByObjectVersion
1070
     0
  0
ACAD_PROXY_OBJECT
  5
31
102
{ACAD_REACTORS
330
2A
102
}
330
2A
100
AcDbProxyObject
 90
      499
 91
      501
 93
      500
310
424CD108121A5919195B90640502408333333333333E3BF0000000000000FB01079024090700405020000000000001110200405405064090740C02480A0340
1001
ACAD
1000
AcDbSavedByObjectVersion
1070
     0
  0
ACAD_PROXY_OBJECT
  5
30
102
{ACAD_REACTORS
330
2A
102
}
330
2A
100
AcDbProxyObject
 90
      499
 91
      501
 93
      436
310
42CCD915DA5C99599C985B595059028333333333333E3BF0000000000000FB0107901411070040501600405405064090741402480A0340
1001
ACAD
1000
AcDbSavedByObjectVersion
1070
     0
  0
ACAD_PROXY_OBJECT
  5
32
102
{ACAD_REACTORS
330
2A
102
}
330
2A
100
AcDbProxyObject
 90
      499
 91
      501
 93
      388
310
4150985CDA58D07406404333333333333E3BF0000000000000FB0107A41107004050150841D405064090741402480A0350
1001
ACAD
1000
AcDbSavedByObjectVersion
1070
     0
  0
ACAD_PROXY_OBJECT
  5
36
102
{ACAD_REACTORS
330
2A
102
}
330
2A
100
AcDbProxyObject
 90
      499
 91
      501
 93
      428
310
42109C9A59DA1D195B90C409028333333333333E3BF0000000000000FB010790141107004050150841D405064090741402480A029950
1001
ACAD
1000
AcDbSavedByObjectVersion
1070
     0
  0
ACAD_PROXY_OBJECT
  5
3A
102
{ACAD_REACTORS
330
2A
102
}
330
2A
100
AcDbProxyObject
 90
      499
 91
      501
 93
      452
310
42D0DBDB1BDC90DA185B99D95104090240C333333333333E3BF0000000000000FB0108901411070040501508421405064090741402480A0350
1001
ACAD
1000
AcDbSavedByObjectVersion
1070
     0
  0
ACAD_PROXY_OBJECT
  5
34
102
{ACAD_REACTORS
330
2A
102
}
330
2A
100
AcDbProxyObject
 90
      499
 91
      501
 93
      500
310
4290DBDB98D95C1D1D585B10940D028333333333333E3BF0000000000000FB0107902409070040501000000000000111010841D405064090740C02480A0340
1001
ACAD
1000
AcDbSavedByObjectVersion
1070
     0
  0
ACAD_PROXY_OBJECT
  5
35
102
{ACAD_REACTORS
330
2A
102
}
330
2A
100
AcDbProxyObject
 90
      499
 91
      501
 93
      412
310
40D11A5B50B409028333333333333E3BF0000000000000FB010790141107004050150841D405064090741402480A02677FFFFFD0
1001
ACAD
1000
AcDbSavedByObjectVersion
1070
     0
  0
ACAD_PROXY_OBJECT
  5
39
102
{ACAD_REACTORS
330
2A
102
}
330
2A
100
AcDbProxyObject
 90
      499
 91
      501
 93
      444
310
42D19858D95C185D1D195C9B90F409028333333333333E3BF0000000000000FB010790141107004050150841D405064090741402480A0350
1001
ACAD
1000
AcDbSavedByObjectVersion
1070
     0
  0
ACAD_PROXY_OBJECT
  5
2B
102
{ACAD_REACTORS
330
2A
102
}
330
2A
100
AcDbProxyObject
 90
      499
 91
      501
 93
      388
310
41119B185D240901404333333333333E3BF0000000000000F9010740A41107004050150841D405064090741402480A1B50
1001
ACAD
1000
AcDbSavedByObjectVersion
1070
     0
  0
ACAD_PROXY_OBJECT
  5
2C
102
{ACAD_REACTORS
330
2A
102
}
330
2A
100
AcDbProxyObject
 90
      499
 91
      501
 93
      476
310
43519B185D15DA5D1A115919D95CD0140901404333333333333E3BF0000000000000F9010740901411070040501600405405064090741402480A1B50
1001
ACAD
1000
AcDbSavedByObjectVersion
1070
     0
  0
ACAD_PROXY_OBJECT
  5
2D
102
{ACAD_REACTORS
330
2A
102
}
330
2A
100
AcDbProxyObject
 90
      499
 91
      501
 93
      412
310
41D1DBDD5C985D5910240902404333333333333E3BF0000000000000F9010740A411070040501641D405064090741402480A1B50
1001
ACAD
1000
AcDbSavedByObjectVersion
1070
     0
  0
ACAD_PROXY_OBJECT
  5
2E
102
{ACAD_REACTORS
330
2A
102
}
330
2A
100
AcDbProxyObject
 90
      499
 91
      501
 93
      500
310
4411DBDD5C985D5915DA5D1A115919D95CD0340902404333333333333E3BF0000000000000F9010740901411070040501600405405064090741402480A1B50
1001
ACAD
1000
AcDbSavedByObjectVersion
1070
     0
  0
ACAD_PROXY_OBJECT
  5
38
102
{ACAD_REACTORS
330
2A
102
}
330
2A
100
AcDbProxyObject
 90
      499
 91
      501
 93
      444
310
42D31A5B995C185D1D195C9B90E409028333333333333E3BF0000000000000FB010790141107004050750841D405064090741402483A0350
1001
ACAD
1000
AcDbSavedByObjectVersion
1070
     0
  0
ACAD_PROXY_OBJECT
  5
33
102
{ACAD_REACTORS
330
2A
102
}
330
2A
100
AcDbProxyObject
 90
      499
 91
      501
 93
      420
310
425499585B1A5CDD1A58D08409028333333333333E3BF0000000000000FB01079019070040501508421405064090741402480A1B40
1001
ACAD
1000
AcDbSavedByObjectVersion
1070
     0
  0
ACAD_PROXY_OBJECT
  5
37
102
{ACAD_REACTORS
330
2A
102
}
330
2A
100
AcDbProxyObject
 90
      499
 91
      501
 93
      412
310
41D51A1A58DAD95B90D409028333333333333E3BF0000000000000FB010790141107004050150C41D405064090741402480A0350
1001
ACAD
1000
AcDbSavedByObjectVersion
1070
     0
  0
XRECORD
  5
C1
102
{ACAD_REACTORS
330
B8
102
}
330
B8
100
AcDbXrecord
 90
        0
  0
XRECORD
  5
D7
102
{ACAD_REACTORS
330
B8
102
}
330
B8
100
AcDbXrecord
1000
DSTYLE
1002
{
1070
    41
 40
2.286
1070
   340
340
11
1070
   140
 40
1.336918010447422
1002
}
  0
XRECORD
  5
C2
102
{ACAD_REACTORS
330
B8
102
}
330
B8
100
AcDbXrecord
  1
{CEE560C7-4CAC-492C-A3FF-B602F7B41A26}
  0
XRECORD
  5
BB
102
{ACAD_REACTORS
330
B8
102
}
330
B8
100
AcDbXrecord
  1

  0
XRECORD
  5
C0
102
{ACAD_REACTORS
330
B8
102
}
330
B8
100
AcDbXrecord
 90
        4
  0
XRECORD
  5
BD
102
{ACAD_REACTORS
330
B8
102
}
330
B8
100
AcDbXrecord
340
1A
  0
XRECORD
  5
BF
102
{ACAD_REACTORS
330
B8
102
}
330
B8
100
AcDbXrecord
 90
    10781
  0
XRECORD
  5
BE
102
{ACAD_REACTORS
330
B8
102
}
330
B8
100
AcDbXrecord
340
19
  0
XRECORD
  5
C4
102
{ACAD_REACTORS
330
B8
102
}
330
B8
100
AcDbXrecord
 40
0.0
  0
XRECORD
  5
C7
102
{ACAD_REACTORS
330
B8
102
}
330
B8
100
AcDbXrecord
340
0
  0
XRECORD
  5
CD
102
{ACAD_REACTORS
330
B8
102
}
330
B8
100
AcDbXrecord
 10
0.0
 20
0.0
 30
0.0
  0
XRECORD
  5
C9
102
{ACAD_REACTORS
330
B8
102
}
330
B8
100
AcDbXrecord
 10
0.0
 20
0.0
 30
0.0
  0
XRECORD
  5
CC
102
{ACAD_REACTORS
330
B8
102
}
330
B8
100
AcDbXrecord
 10
0.0
 20
0.0
 30
0.0
  0
XRECORD
  5
CA
102
{ACAD_REACTORS
330
B8
102
}
330
B8
100
AcDbXrecord
 10
0.0
 20
0.0
 30
0.0
  0
XRECORD
  5
CB
102
{ACAD_REACTORS
330
B8
102
}
330
B8
100
AcDbXrecord
 10
0.0
 20
0.0
 30
0.0
  0
XRECORD
  5
C8
102
{ACAD_REACTORS
330
B8
102
}
330
B8
100
AcDbXrecord
 10
0.0
 20
0.0
 30
0.0
  0
XRECORD
  5
C5
102
{ACAD_REACTORS
330
B8
102
}
330
B8
100
AcDbXrecord
340
0
  0
XRECORD
  5
C6
102
{ACAD_REACTORS
330
B8
102
}
330
B8
100
AcDbXrecord
 70
     0
  0
XRECORD
  5
BC
102
{ACAD_REACTORS
330
B8
102
}
330
B8
100
AcDbXrecord
  1

  0
XRECORD
  5
B9
102
{ACAD_REACTORS
330
B8
102
}
330
B8
100
AcDbXrecord
 90
        1
  0
XRECORD
  5
BA
102
{ACAD_REACTORS
330
B8
102
}
330
B8
100
AcDbXrecord
 90
       70
  0
XRECORD
  5
D0
102
{ACAD_REACTORS
330
B8
102
}
330
B8
100
AcDbXrecord
340
0
  0
XRECORD
  5
D6
102
{ACAD_REACTORS
330
B8
102
}
330
B8
100
AcDbXrecord
 10
0.0
 20
0.0
 30
0.0
  0
XRECORD
  5
D2
102
{ACAD_REACTORS
330
B8
102
}
330
B8
100
AcDbXrecord
 10
0.0
 20
0.0
 30
0.0
  0
XRECORD
  5
D5
102
{ACAD_REACTORS
330
B8
102
}
330
B8
100
AcDbXrecord
 10
0.0
 20
0.0
 30
0.0
  0
XRECORD
  5
D3
102
{ACAD_REACTORS
330
B8
102
}
330
B8
100
AcDbXrecord
 10
0.0
 20
0.0
 30
0.0
  0
XRECORD
  5
D4
102
{ACAD_REACTORS
330
B8
102
}
330
B8
100
AcDbXrecord
 10
0.0
 20
0.0
 30
0.0
  0
XRECORD
  5
D1
102
{ACAD_REACTORS
330
B8
102
}
330
B8
100
AcDbXrecord
 10
0.0
 20
0.0
 30
0.0
  0
XRECORD
  5
CE
102
{ACAD_REACTORS
330
B8
102
}
330
B8
100
AcDbXrecord
340
0
  0
XRECORD
  5
CF
102
{ACAD_REACTORS
330
B8
102
}
330
B8
100
AcDbXrecord
 70
     0
  0
XRECORD
  5
C3
102
{ACAD_REACTORS
330
B8
102
}
330
B8
100
AcDbXrecord
  1
{FAEB1C32-E019-11D5-929B-00C0DF256EC4}
  0
DICTIONARYVAR
  5
DD
102
{ACAD_REACTORS
330
D8
102
}
330
D8
100
DictionaryVariables
280
     0
  1
2
  0
DICTIONARYVAR
  5
DE
102
{ACAD_REACTORS
330
D8
102
}
330
D8
100
DictionaryVariables
280
     0
  1
1
  0
DICTIONARYVAR
  5
DC
102
{ACAD_REACTORS
330
D8
102
}
330
D8
100
DictionaryVariables
280
     0
  1
80.000000
  0
DICTIONARYVAR
  5
DB
102
{ACAD_REACTORS
330
D8
102
}
330
D8
100
DictionaryVariables
280
     0
  1
5.000000
  0
DICTIONARY
  5
E1
330
3D
100
AcDbDictionary
280
     1
  3
ACAD_XREC_ROUNDTRIP
360
E2
  0
DICTIONARY
  5
DF
330
3C
100
AcDbDictionary
280
     1
  3
ACAD_XREC_ROUNDTRIP
360
E0
  0
DICTIONARY
  5
E3
330
3E
100
AcDbDictionary
280
     1
  3
ACAD_XREC_ROUNDTRIP
360
E4
  0
XRECORD
  5
E2
102
{ACAD_REACTORS
330
E1
102
}
330
E1
100
AcDbXrecord
102
MATERIAL
148
0.0
149
0.0
149
0.0
 93
        0
 94
      127
282
     0
 72
     1
 77
     1
171
     1
175
     1
179
     1
273
     0
  0
XRECORD
  5
E0
102
{ACAD_REACTORS
330
DF
102
}
330
DF
100
AcDbXrecord
102
MATERIAL
148
0.0
149
0.0
149
0.0
 93
        0
 94
      127
282
     0
 72
     1
 77
     1
171
     1
175
     1
179
     1
273
     0
  0
XRECORD
  5
E4
102
{ACAD_REACTORS
330
E3
102
}
330
E3
100
AcDbXrecord
102
MATERIAL
148
0.0
149
0.0
149
0.0
 93
        0
 94
      127
282
     0
 72
     1
 77
     1
171
     1
175
     1
179
     1
273
     0
  0
ENDSEC
  0
EOF
