  0
SECTION
  2
BLOCKS
  0
ENDSEC
  0
SECTION
  2
ENTITIES
  0
LINE
  8
0
 10
-32.982
 11
-32.982
 20
1.85
 21
6.114
  0
LINE
  8
0
 10
-32.982
 11
-25.532
 20
6.114
 21
8.638
  0
LINE
  8
0
 10
-25.532
 11
-25.422
 20
8.638
 21
9.25
  0
LINE
  8
0
 10
-25.422
 11
-25.252
 20
9.25
 21
10.046
  0
LINE
  8
0
 10
-25.252
 11
-25.058
 20
10.046
 21
10.836
  0
LINE
  8
0
 10
-25.058
 11
-24.838
 20
10.836
 21
11.62
  0
LINE
  8
0
 10
-24.838
 11
-24.594
 20
11.62
 21
12.396
  0
LINE
  8
0
 10
-24.594
 11
-24.326
 20
12.396
 21
13.164
  0
LINE
  8
0
 10
-24.326
 11
-24.318
 20
13.164
 21
13.186
  0
LINE
  8
0
 10
-24.318
 11
-27.049
 20
13.186
 21
15.932
  0
LINE
  8
0
 10
-27.049
 11
-28.149
 20
15.932
 21
17.038
  0
LINE
  8
0
 10
-28.149
 11
-29.764
 20
17.038
 21
18.662
  0
LINE
  8
0
 10
-29.764
 11
-27.632
 20
18.662
 21
22.354
  0
LINE
  8
0
 10
-27.632
 11
-19.918
 20
22.354
 21
20.816
  0
LINE
  8
0
 10
-19.918
 11
-19.868
 20
20.816
 21
20.878
  0
LINE
  8
0
 10
-19.868
 11
-19.336
 20
20.878
 21
21.494
  0
LINE
  8
0
 10
-19.336
 11
-18.784
 20
21.494
 21
22.092
  0
LINE
  8
0
 10
-18.784
 11
-18.216
 20
22.092
 21
22.674
  0
LINE
  8
0
 10
-18.216
 11
-17.628
 20
22.674
 21
23.236
  0
LINE
  8
0
 10
-17.628
 11
-17.022
 20
23.236
 21
23.78
  0
LINE
  8
0
 10
-17.022
 11
-16.592
 20
23.78
 21
24.144
  0
LINE
  8
0
 10
-16.592
 11
-17.584
 20
24.144
 21
27.889
  0
LINE
  8
0
 10
-17.584
 11
-17.984
 20
27.889
 21
29.398
  0
LINE
  8
0
 10
-17.984
 11
-18.57
 20
29.398
 21
31.612
  0
LINE
  8
0
 10
-18.57
 11
-14.876
 20
31.612
 21
33.744
  0
LINE
  8
0
 10
-14.876
 11
-8.964
 20
33.744
 21
28.554
  0
LINE
  8
0
 10
-8.964
 11
-8.638
 20
28.554
 21
28.674
  0
LINE
  8
0
 10
-8.638
 11
-7.866
 20
28.674
 21
28.934
  0
LINE
  8
0
 10
-7.866
 11
-7.086
 20
28.934
 21
29.17
  0
LINE
  8
0
 10
-7.086
 11
-6.3
 20
29.17
 21
29.38
  0
LINE
  8
0
 10
-6.3
 11
-5.508
 20
29.38
 21
29.564
  0
LINE
  8
0
 10
-5.508
 11
-4.71
 20
29.564
 21
29.726
  0
LINE
  8
0
 10
-4.71
 11
-4.422
 20
29.726
 21
29.774
  0
LINE
  8
0
 10
-4.422
 11
-3.409
 20
29.774
 21
33.513
  0
LINE
  8
0
 10
-3.409
 11
-3
 20
33.513
 21
35.02
  0
LINE
  8
0
 10
-3
 11
-2.402
 20
35.02
 21
37.23
  0
LINE
  8
0
 10
-2.402
 11
1.864
 20
37.23
 21
37.23
  0
LINE
  8
0
 10
1.864
 11
4.388
 20
37.23
 21
29.78
  0
LINE
  8
0
 10
4.388
 11
4.552
 20
29.78
 21
29.75
  0
LINE
  8
0
 10
4.552
 11
4.593
 20
29.75
 21
29.743
  0
LINE
  8
0
 10
4.593
 11
4.598
 20
29.743
 21
29.742
  0
LINE
  8
0
 10
4.598
 11
5
 20
29.742
 21
29.67
  0
LINE
  8
0
 10
5
 11
5.03
 20
29.67
 21
29.663
  0
LINE
  8
0
 10
5.03
 11
5.331
 20
29.663
 21
29.599
  0
LINE
  8
0
 10
5.331
 11
5.388
 20
29.599
 21
29.587
  0
LINE
  8
0
 10
5.388
 11
5.397
 20
29.587
 21
29.585
  0
LINE
  8
0
 10
5.397
 11
5.796
 20
29.585
 21
29.5
  0
LINE
  8
0
 10
5.796
 11
5.831
 20
29.5
 21
29.491
  0
LINE
  8
0
 10
5.831
 11
6.124
 20
29.491
 21
29.419
  0
LINE
  8
0
 10
6.124
 11
6.19
 20
29.419
 21
29.403
  0
LINE
  8
0
 10
6.19
 11
6.586
 20
29.403
 21
29.306
  0
LINE
  8
0
 10
6.586
 11
6.912
 20
29.306
 21
29.214
  0
LINE
  8
0
 10
6.912
 11
6.977
 20
29.214
 21
29.196
  0
LINE
  8
0
 10
6.977
 11
7.37
 20
29.196
 21
29.086
  0
LINE
  8
0
 10
7.37
 11
7.693
 20
29.086
 21
28.984
  0
LINE
  8
0
 10
7.693
 11
7.757
 20
28.984
 21
28.964
  0
LINE
  8
0
 10
7.757
 11
8.146
 20
28.964
 21
28.842
  0
LINE
  8
0
 10
8.146
 11
8.466
 20
28.842
 21
28.73
  0
LINE
  8
0
 10
8.466
 11
8.529
 20
28.73
 21
28.708
  0
LINE
  8
0
 10
8.529
 11
8.914
 20
28.708
 21
28.574
  0
LINE
  8
0
 10
8.914
 11
8.934
 20
28.574
 21
28.566
  0
LINE
  8
0
 10
8.934
 11
11.681
 20
28.566
 21
31.298
  0
LINE
  8
0
 10
11.681
 11
14.41
 20
31.298
 21
34.012
  0
LINE
  8
0
 10
14.41
 11
18.104
 20
34.012
 21
31.88
  0
LINE
  8
0
 10
18.104
 11
17.004
 20
31.88
 21
26.363
  0
LINE
  8
0
 10
17.004
 11
16.567
 20
26.363
 21
24.169
  0
LINE
  8
0
 10
16.567
 11
16.566
 20
24.169
 21
24.164
  0
LINE
  8
0
 10
16.566
 11
16.626
 20
24.164
 21
24.116
  0
LINE
  8
0
 10
16.626
 11
16.885
 20
24.116
 21
23.893
  0
LINE
  8
0
 10
16.885
 11
16.933
 20
23.893
 21
23.851
  0
LINE
  8
0
 10
16.933
 11
17.242
 20
23.851
 21
23.584
  0
LINE
  8
0
 10
17.242
 11
17.493
 20
23.584
 21
23.353
  0
LINE
  8
0
 10
17.493
 11
17.541
 20
23.353
 21
23.31
  0
LINE
  8
0
 10
17.541
 11
17.842
 20
23.31
 21
23.034
  0
LINE
  8
0
 10
17.842
 11
18.086
 20
23.034
 21
22.794
  0
LINE
  8
0
 10
18.086
 11
18.131
 20
22.794
 21
22.75
  0
LINE
  8
0
 10
18.131
 11
18.422
 20
22.75
 21
22.464
  0
LINE
  8
0
 10
18.422
 11
18.705
 20
22.464
 21
22.169
  0
LINE
  8
0
 10
18.705
 11
18.942
 20
22.169
 21
21.921
  0
LINE
  8
0
 10
18.942
 11
18.986
 20
21.921
 21
21.876
  0
LINE
  8
0
 10
18.986
 11
19.259
 20
21.876
 21
21.572
  0
LINE
  8
0
 10
19.259
 11
19.488
 20
21.572
 21
21.317
  0
LINE
  8
0
 10
19.488
 11
19.53
 20
21.317
 21
21.27
  0
LINE
  8
0
 10
19.53
 11
19.894
 20
21.27
 21
20.84
  0
LINE
  8
0
 10
19.894
 11
19.9
 20
20.84
 21
20.841
  0
LINE
  8
0
 10
19.9
 11
23.645
 20
20.841
 21
21.833
  0
LINE
  8
0
 10
23.645
 11
27.362
 20
21.833
 21
22.818
  0
LINE
  8
0
 10
27.362
 11
29.494
 20
22.818
 21
19.124
  0
LINE
  8
0
 10
29.494
 11
25.784
 20
19.124
 21
14.898
  0
LINE
  8
0
 10
25.784
 11
24.309
 20
14.898
 21
13.217
  0
LINE
  8
0
 10
24.309
 11
24.304
 20
13.217
 21
13.212
  0
LINE
  8
0
 10
24.304
 11
24.364
 20
13.212
 21
13.049
  0
LINE
  8
0
 10
24.364
 11
24.406
 20
13.049
 21
12.934
  0
LINE
  8
0
 10
24.406
 11
24.424
 20
12.934
 21
12.886
  0
LINE
  8
0
 10
24.424
 11
24.554
 20
12.886
 21
12.499
  0
LINE
  8
0
 10
24.554
 11
24.668
 20
12.499
 21
12.16
  0
LINE
  8
0
 10
24.668
 11
24.684
 20
12.16
 21
12.114
  0
LINE
  8
0
 10
24.684
 11
24.801
 20
12.114
 21
11.723
  0
LINE
  8
0
 10
24.801
 11
24.905
 20
11.723
 21
11.379
  0
LINE
  8
0
 10
24.905
 11
24.905
 20
11.379
 21
11.377
  0
LINE
  8
0
 10
24.905
 11
24.918
 20
11.377
 21
11.334
  0
LINE
  8
0
 10
24.918
 11
25.023
 20
11.334
 21
10.94
  0
LINE
  8
0
 10
25.023
 11
25.117
 20
10.94
 21
10.589
  0
LINE
  8
0
 10
25.117
 11
25.118
 20
10.589
 21
10.587
  0
LINE
  8
0
 10
25.118
 11
25.128
 20
10.587
 21
10.548
  0
LINE
  8
0
 10
25.128
 11
25.221
 20
10.548
 21
10.151
  0
LINE
  8
0
 10
25.221
 11
25.305
 20
10.151
 21
9.794
  0
LINE
  8
0
 10
25.305
 11
25.306
 20
9.794
 21
9.792
  0
LINE
  8
0
 10
25.306
 11
25.314
 20
9.792
 21
9.756
  0
LINE
  8
0
 10
25.314
 11
25.394
 20
9.756
 21
9.356
  0
LINE
  8
0
 10
25.394
 11
25.468
 20
9.356
 21
8.99
  0
LINE
  8
0
 10
25.468
 11
25.468
 20
8.99
 21
8.987
  0
LINE
  8
0
 10
25.468
 11
25.474
 20
8.987
 21
8.958
  0
LINE
  8
0
 10
25.474
 11
25.522
 20
8.958
 21
8.67
  0
LINE
  8
0
 10
25.522
 11
25.53
 20
8.67
 21
8.668
  0
LINE
  8
0
 10
25.53
 11
29.27
 20
8.668
 21
7.655
  0
LINE
  8
0
 10
29.27
 11
32.98
 20
7.655
 21
6.65
  0
LINE
  8
0
 10
32.98
 11
32.98
 20
6.65
 21
2.384
  0
LINE
  8
0
 10
32.98
 11
25.528
 20
2.384
 21
-0.14
  0
LINE
  8
0
 10
25.528
 11
25.474
 20
-0.14
 21
-0.446
  0
LINE
  8
0
 10
25.474
 11
25.441
 20
-0.446
 21
-0.634
  0
LINE
  8
0
 10
25.441
 11
25.44
 20
-0.634
 21
-0.637
  0
LINE
  8
0
 10
25.44
 11
25.42
 20
-0.637
 21
-0.75
  0
LINE
  8
0
 10
25.42
 11
25.335
 20
-0.75
 21
-1.149
  0
LINE
  8
0
 10
25.335
 11
25.273
 20
-1.149
 21
-1.436
  0
LINE
  8
0
 10
25.273
 11
25.272
 20
-1.436
 21
-1.439
  0
LINE
  8
0
 10
25.272
 11
25.25
 20
-1.439
 21
-1.546
  0
LINE
  8
0
 10
25.25
 11
25.153
 20
-1.546
 21
-1.943
  0
LINE
  8
0
 10
25.153
 11
25.081
 20
-1.943
 21
-2.234
  0
LINE
  8
0
 10
25.081
 11
25.081
 20
-2.234
 21
-2.236
  0
LINE
  8
0
 10
25.081
 11
25.056
 20
-2.236
 21
-2.338
  0
LINE
  8
0
 10
25.056
 11
24.946
 20
-2.338
 21
-2.73
  0
LINE
  8
0
 10
24.946
 11
24.864
 20
-2.73
 21
-3.021
  0
LINE
  8
0
 10
24.864
 11
24.836
 20
-3.021
 21
-3.12
  0
LINE
  8
0
 10
24.836
 11
24.714
 20
-3.12
 21
-3.51
  0
LINE
  8
0
 10
24.714
 11
24.622
 20
-3.51
 21
-3.802
  0
LINE
  8
0
 10
24.622
 11
24.592
 20
-3.802
 21
-3.898
  0
LINE
  8
0
 10
24.592
 11
24.458
 20
-3.898
 21
-4.283
  0
LINE
  8
0
 10
24.458
 11
24.356
 20
-4.283
 21
-4.574
  0
LINE
  8
0
 10
24.356
 11
24.324
 20
-4.574
 21
-4.666
  0
LINE
  8
0
 10
24.324
 11
24.316
 20
-4.666
 21
-4.688
  0
LINE
  8
0
 10
24.316
 11
27.047
 20
-4.688
 21
-7.433
  0
LINE
  8
0
 10
27.047
 11
27.051
 20
-7.433
 21
-7.437
  0
LINE
  8
0
 10
27.051
 11
29.762
 20
-7.437
 21
-10.162
  0
LINE
  8
0
 10
29.762
 11
27.63
 20
-10.162
 21
-13.856
  0
LINE
  8
0
 10
27.63
 11
21.85
 20
-13.856
 21
-12.704
  0
LINE
  8
0
 10
21.85
 11
19.921
 20
-12.704
 21
-12.319
  0
LINE
  8
0
 10
19.921
 11
19.916
 20
-12.319
 21
-12.318
  0
LINE
  8
0
 10
19.916
 11
19.866
 20
-12.318
 21
-12.378
  0
LINE
  8
0
 10
19.866
 11
19.599
 20
-12.378
 21
-12.687
  0
LINE
  8
0
 10
19.599
 11
19.39
 20
-12.687
 21
-12.929
  0
LINE
  8
0
 10
19.39
 11
19.334
 20
-12.929
 21
-12.994
  0
LINE
  8
0
 10
19.334
 11
19.057
 20
-12.994
 21
-13.295
  0
LINE
  8
0
 10
19.057
 11
18.84
 20
-13.295
 21
-13.531
  0
LINE
  8
0
 10
18.84
 11
18.782
 20
-13.531
 21
-13.594
  0
LINE
  8
0
 10
18.782
 11
18.497
 20
-13.594
 21
-13.885
  0
LINE
  8
0
 10
18.497
 11
18.273
 20
-13.885
 21
-14.114
  0
LINE
  8
0
 10
18.273
 11
18.214
 20
-14.114
 21
-14.174
  0
LINE
  8
0
 10
18.214
 11
17.982
 20
-14.174
 21
-14.397
  0
LINE
  8
0
 10
17.982
 11
17.921
 20
-14.397
 21
-14.455
  0
LINE
  8
0
 10
17.921
 11
17.626
 20
-14.455
 21
-14.738
  0
LINE
  8
0
 10
17.626
 11
17.387
 20
-14.738
 21
-14.953
  0
LINE
  8
0
 10
17.387
 11
17.324
 20
-14.953
 21
-15.009
  0
LINE
  8
0
 10
17.324
 11
17.02
 20
-15.009
 21
-15.282
  0
LINE
  8
0
 10
17.02
 11
16.59
 20
-15.282
 21
-15.646
  0
LINE
  8
0
 10
16.59
 11
17.582
 20
-15.646
 21
-19.39
  0
LINE
  8
0
 10
17.582
 11
17.583
 20
-19.39
 21
-19.396
  0
LINE
  8
0
 10
17.583
 11
18.568
 20
-19.396
 21
-23.112
  0
LINE
  8
0
 10
18.568
 11
14.874
 20
-23.112
 21
-25.246
  0
LINE
  8
0
 10
14.874
 11
10.648
 20
-25.246
 21
-21.535
  0
LINE
  8
0
 10
10.648
 11
8.965
 20
-21.535
 21
-20.057
  0
LINE
  8
0
 10
8.965
 11
8.962
 20
-20.057
 21
-20.054
  0
LINE
  8
0
 10
8.962
 11
8.96
 20
-20.054
 21
-20.054
  0
LINE
  8
0
 10
8.96
 11
8.894
 20
-20.054
 21
-19.996
  0
LINE
  8
0
 10
8.894
 11
8.932
 20
-19.996
 21
-19.974
  0
LINE
  8
0
 10
8.932
 11
6.318
 20
-19.974
 21
-12.886
  0
LINE
  8
0
 10
6.318
 11
6.32
 20
-12.886
 21
-12.886
  0
LINE
  8
0
 10
6.32
 11
6.362
 20
-12.886
 21
-12.87
  0
LINE
  8
0
 10
6.362
 11
6.41
 20
-12.87
 21
-12.851
  0
LINE
  8
0
 10
6.41
 11
6.474
 20
-12.851
 21
-12.827
  0
LINE
  8
0
 10
6.474
 11
6.536
 20
-12.827
 21
-12.803
  0
LINE
  8
0
 10
6.536
 11
6.756
 20
-12.803
 21
-12.72
  0
LINE
  8
0
 10
6.756
 11
6.783
 20
-12.72
 21
-12.709
  0
LINE
  8
0
 10
6.783
 11
6.836
 20
-12.709
 21
-12.686
  0
LINE
  8
0
 10
6.836
 11
6.88
 20
-12.686
 21
-12.668
  0
LINE
  8
0
 10
6.88
 11
6.901
 20
-12.668
 21
-12.659
  0
LINE
  8
0
 10
6.901
 11
6.938
 20
-12.659
 21
-12.644
  0
LINE
  8
0
 10
6.938
 11
6.977
 20
-12.644
 21
-12.627
  0
LINE
  8
0
 10
6.977
 11
6.997
 20
-12.627
 21
-12.619
  0
LINE
  8
0
 10
6.997
 11
7.02
 20
-12.619
 21
-12.609
  0
LINE
  8
0
 10
7.02
 11
7.286
 20
-12.609
 21
-12.498
  0
LINE
  8
0
 10
7.286
 11
7.296
 20
-12.498
 21
-12.494
  0
LINE
  8
0
 10
7.296
 11
7.387
 20
-12.494
 21
-12.453
  0
LINE
  8
0
 10
7.387
 11
7.439
 20
-12.453
 21
-12.429
  0
LINE
  8
0
 10
7.439
 11
7.471
 20
-12.429
 21
-12.414
  0
LINE
  8
0
 10
7.471
 11
7.488
 20
-12.414
 21
-12.406
  0
LINE
  8
0
 10
7.488
 11
7.517
 20
-12.406
 21
-12.393
  0
LINE
  8
0
 10
7.517
 11
7.545
 20
-12.393
 21
-12.38
  0
LINE
  8
0
 10
7.545
 11
7.808
 20
-12.38
 21
-12.262
  0
LINE
  8
0
 10
7.808
 11
7.821
 20
-12.262
 21
-12.255
  0
LINE
  8
0
 10
7.821
 11
7.845
 20
-12.255
 21
-12.244
  0
LINE
  8
0
 10
7.845
 11
7.868
 20
-12.244
 21
-12.233
  0
LINE
  8
0
 10
7.868
 11
7.879
 20
-12.233
 21
-12.227
  0
LINE
  8
0
 10
7.879
 11
7.897
 20
-12.227
 21
-12.218
  0
LINE
  8
0
 10
7.897
 11
7.913
 20
-12.218
 21
-12.21
  0
LINE
  8
0
 10
7.913
 11
7.921
 20
-12.21
 21
-12.207
  0
LINE
  8
0
 10
7.921
 11
7.933
 20
-12.207
 21
-12.201
  0
LINE
  8
0
 10
7.933
 11
7.954
 20
-12.201
 21
-12.19
  0
LINE
  8
0
 10
7.954
 11
7.967
 20
-12.19
 21
-12.184
  0
LINE
  8
0
 10
7.967
 11
8.031
 20
-12.184
 21
-12.152
  0
LINE
  8
0
 10
8.031
 11
8.065
 20
-12.152
 21
-12.135
  0
LINE
  8
0
 10
8.065
 11
8.324
 20
-12.135
 21
-12.008
  0
LINE
  8
0
 10
8.324
 11
8.5
 20
-12.008
 21
-11.914
  0
LINE
  8
0
 10
8.5
 11
8.555
 20
-11.914
 21
-11.885
  0
LINE
  8
0
 10
8.555
 11
8.576
 20
-11.885
 21
-11.873
  0
LINE
  8
0
 10
8.576
 11
8.83
 20
-11.873
 21
-11.738
  0
LINE
  8
0
 10
8.83
 11
8.875
 20
-11.738
 21
-11.713
  0
LINE
  8
0
 10
8.875
 11
9.078
 20
-11.713
 21
-11.596
  0
LINE
  8
0
 10
9.078
 11
9.328
 20
-11.596
 21
-11.454
  0
LINE
  8
0
 10
9.328
 11
9.372
 20
-11.454
 21
-11.427
  0
LINE
  8
0
 10
9.372
 11
9.439
 20
-11.427
 21
-11.386
  0
LINE
  8
0
 10
9.439
 11
9.506
 20
-11.386
 21
-11.344
  0
LINE
  8
0
 10
9.506
 11
9.571
 20
-11.344
 21
-11.303
  0
LINE
  8
0
 10
9.571
 11
9.816
 20
-11.303
 21
-11.152
  0
LINE
  8
0
 10
9.816
 11
9.989
 20
-11.152
 21
-11.038
  0
LINE
  8
0
 10
9.989
 11
10.055
 20
-11.038
 21
-10.994
  0
LINE
  8
0
 10
10.055
 11
10.296
 20
-10.994
 21
-10.836
  0
LINE
  8
0
 10
10.296
 11
10.299
 20
-10.836
 21
-10.834
  0
LINE
  8
0
 10
10.299
 11
10.368
 20
-10.834
 21
-10.786
  0
LINE
  8
0
 10
10.368
 11
10.529
 20
-10.786
 21
-10.671
  0
LINE
  8
0
 10
10.529
 11
10.764
 20
-10.671
 21
-10.506
  0
LINE
  8
0
 10
10.764
 11
10.833
 20
-10.506
 21
-10.454
  0
LINE
  8
0
 10
10.833
 11
10.904
 20
-10.454
 21
-10.401
  0
LINE
  8
0
 10
10.904
 11
10.973
 20
-10.401
 21
-10.348
  0
LINE
  8
0
 10
10.973
 11
10.992
 20
-10.348
 21
-10.334
  0
LINE
  8
0
 10
10.992
 11
11.222
 20
-10.334
 21
-10.16
  0
LINE
  8
0
 10
11.222
 11
11.425
 20
-10.16
 21
-9.996
  0
LINE
  8
0
 10
11.425
 11
11.445
 20
-9.996
 21
-9.981
  0
LINE
  8
0
 10
11.445
 11
11.67
 20
-9.981
 21
-9.8
  0
LINE
  8
0
 10
11.67
 11
11.722
 20
-9.8
 21
-9.756
  0
LINE
  8
0
 10
11.722
 11
11.795
 20
-9.756
 21
-9.693
  0
LINE
  8
0
 10
11.795
 11
11.887
 20
-9.693
 21
-9.615
  0
LINE
  8
0
 10
11.887
 11
12.106
 20
-9.615
 21
-9.428
  0
LINE
  8
0
 10
12.106
 11
12.226
 20
-9.428
 21
-9.318
  0
LINE
  8
0
 10
12.226
 11
12.299
 20
-9.318
 21
-9.252
  0
LINE
  8
0
 10
12.299
 11
12.316
 20
-9.252
 21
-9.235
  0
LINE
  8
0
 10
12.316
 11
12.528
 20
-9.235
 21
-9.04
  0
LINE
  8
0
 10
12.528
 11
12.585
 20
-9.04
 21
-8.985
  0
LINE
  8
0
 10
12.585
 11
12.733
 20
-8.985
 21
-8.841
  0
LINE
  8
0
 10
12.733
 11
12.94
 20
-8.841
 21
-8.64
  0
LINE
  8
0
 10
12.94
 11
13.14
 20
-8.64
 21
-8.433
  0
LINE
  8
0
 10
13.14
 11
13.193
 20
-8.433
 21
-8.379
  0
LINE
  8
0
 10
13.193
 11
13.269
 20
-8.379
 21
-8.3
  0
LINE
  8
0
 10
13.269
 11
13.338
 20
-8.3
 21
-8.228
  0
LINE
  8
0
 10
13.338
 11
13.532
 20
-8.228
 21
-8.014
  0
LINE
  8
0
 10
13.532
 11
13.54
 20
-8.014
 21
-8.005
  0
LINE
  8
0
 10
13.54
 11
13.724
 20
-8.005
 21
-7.802
  0
LINE
  8
0
 10
13.724
 11
13.911
 20
-7.802
 21
-7.583
  0
LINE
  8
0
 10
13.911
 11
13.917
 20
-7.583
 21
-7.576
  0
LINE
  8
0
 10
13.917
 11
13.995
 20
-7.576
 21
-7.484
  0
LINE
  8
0
 10
13.995
 11
14.096
 20
-7.484
 21
-7.366
  0
LINE
  8
0
 10
14.096
 11
14.276
 20
-7.366
 21
-7.14
  0
LINE
  8
0
 10
14.276
 11
14.355
 20
-7.14
 21
-7.04
  0
LINE
  8
0
 10
14.355
 11
14.434
 20
-7.04
 21
-6.941
  0
LINE
  8
0
 10
14.434
 11
14.454
 20
-6.941
 21
-6.916
  0
LINE
  8
0
 10
14.454
 11
14.627
 20
-6.916
 21
-6.685
  0
LINE
  8
0
 10
14.627
 11
14.687
 20
-6.685
 21
-6.605
  0
LINE
  8
0
 10
14.687
 11
14.77
 20
-6.605
 21
-6.493
  0
LINE
  8
0
 10
14.77
 11
14.798
 20
-6.493
 21
-6.456
  0
LINE
  8
0
 10
14.798
 11
14.962
 20
-6.456
 21
-6.22
  0
LINE
  8
0
 10
14.962
 11
15.097
 20
-6.22
 21
-6.027
  0
LINE
  8
0
 10
15.097
 11
15.126
 20
-6.027
 21
-5.986
  0
LINE
  8
0
 10
15.126
 11
15.283
 20
-5.986
 21
-5.745
  0
LINE
  8
0
 10
15.283
 11
15.34
 20
-5.745
 21
-5.659
  0
LINE
  8
0
 10
15.34
 11
15.44
 20
-5.659
 21
-5.506
  0
LINE
  8
0
 10
15.44
 11
15.59
 20
-5.506
 21
-5.26
  0
LINE
  8
0
 10
15.59
 11
15.642
 20
-5.26
 21
-5.176
  0
LINE
  8
0
 10
15.642
 11
15.728
 20
-5.176
 21
-5.036
  0
LINE
  8
0
 10
15.728
 11
15.74
 20
-5.036
 21
-5.016
  0
LINE
  8
0
 10
15.74
 11
15.881
 20
-5.016
 21
-4.766
  0
LINE
  8
0
 10
15.881
 11
15.957
 20
-4.766
 21
-4.633
  0
LINE
  8
0
 10
15.957
 11
16.022
 20
-4.633
 21
-4.518
  0
LINE
  8
0
 10
16.022
 11
16.156
 20
-4.518
 21
-4.263
  0
LINE
  8
0
 10
16.156
 11
16.183
 20
-4.263
 21
-4.211
  0
LINE
  8
0
 10
16.183
 11
16.29
 20
-4.211
 21
-4.01
  0
LINE
  8
0
 10
16.29
 11
16.416
 20
-4.01
 21
-3.751
  0
LINE
  8
0
 10
16.416
 11
16.439
 20
-3.751
 21
-3.703
  0
LINE
  8
0
 10
16.439
 11
16.534
 20
-3.703
 21
-3.51
  0
LINE
  8
0
 10
16.534
 11
16.542
 20
-3.51
 21
-3.494
  0
LINE
  8
0
 10
16.542
 11
16.659
 20
-3.494
 21
-3.231
  0
LINE
  8
0
 10
16.659
 11
16.75
 20
-3.231
 21
-3.028
  0
LINE
  8
0
 10
16.75
 11
16.776
 20
-3.028
 21
-2.97
  0
LINE
  8
0
 10
16.776
 11
16.885
 20
-2.97
 21
-2.704
  0
LINE
  8
0
 10
16.885
 11
16.968
 20
-2.704
 21
-2.504
  0
LINE
  8
0
 10
16.968
 11
16.994
 20
-2.504
 21
-2.44
  0
LINE
  8
0
 10
16.994
 11
17.095
 20
-2.44
 21
-2.171
  0
LINE
  8
0
 10
17.095
 11
17.171
 20
-2.171
 21
-1.972
  0
LINE
  8
0
 10
17.171
 11
17.196
 20
-1.972
 21
-1.904
  0
LINE
  8
0
 10
17.196
 11
17.289
 20
-1.904
 21
-1.631
  0
LINE
  8
0
 10
17.289
 11
17.355
 20
-1.631
 21
-1.437
  0
LINE
  8
0
 10
17.355
 11
17.382
 20
-1.437
 21
-1.36
  0
LINE
  8
0
 10
17.382
 11
17.465
 20
-1.36
 21
-1.085
  0
LINE
  8
0
 10
17.465
 11
17.539
 20
-1.085
 21
-0.84
  0
LINE
  8
0
 10
17.539
 11
17.548
 20
-0.84
 21
-0.812
  0
LINE
  8
0
 10
17.548
 11
17.7
 20
-0.812
 21
-0.258
  0
LINE
  8
0
 10
17.7
 11
17.766
 20
-0.258
 21
0.022
  0
LINE
  8
0
 10
17.766
 11
17.79
 20
0.022
 21
0.123
  0
LINE
  8
0
 10
17.79
 11
17.832
 20
0.123
 21
0.3
  0
LINE
  8
0
 10
17.832
 11
17.89
 20
0.3
 21
0.582
  0
LINE
  8
0
 10
17.89
 11
17.908
 20
0.582
 21
0.669
  0
LINE
  8
0
 10
17.908
 11
17.948
 20
0.669
 21
0.862
  0
LINE
  8
0
 10
17.948
 11
18.044
 20
0.862
 21
1.428
  0
LINE
  8
0
 10
18.044
 11
18.084
 20
1.428
 21
1.713
  0
LINE
  8
0
 10
18.084
 11
18.104
 20
1.713
 21
1.852
  0
LINE
  8
0
 10
18.104
 11
18.124
 20
1.852
 21
1.996
  0
LINE
  8
0
 10
18.124
 11
18.186
 20
1.996
 21
2.566
  0
LINE
  8
0
 10
18.186
 11
18.23
 20
2.566
 21
3.138
  0
LINE
  8
0
 10
18.23
 11
18.256
 20
3.138
 21
3.712
  0
LINE
  8
0
 10
18.256
 11
18.264
 20
3.712
 21
4.286
  0
LINE
  8
0
 10
18.264
 11
18.259
 20
4.286
 21
4.574
  0
LINE
  8
0
 10
18.259
 11
18.259
 20
4.574
 21
4.588
  0
LINE
  8
0
 10
18.259
 11
18.254
 20
4.588
 21
4.86
  0
LINE
  8
0
 10
18.254
 11
18.226
 20
4.86
 21
5.432
  0
LINE
  8
0
 10
18.226
 11
18.18
 20
5.432
 21
6.004
  0
LINE
  8
0
 10
18.18
 11
18.116
 20
6.004
 21
6.574
  0
LINE
  8
0
 10
18.116
 11
18.075
 20
6.574
 21
6.859
  0
LINE
  8
0
 10
18.075
 11
18.055
 20
6.859
 21
6.991
  0
LINE
  8
0
 10
18.055
 11
18.034
 20
6.991
 21
7.142
  0
LINE
  8
0
 10
18.034
 11
17.984
 20
7.142
 21
7.426
  0
LINE
  8
0
 10
17.984
 11
17.964
 20
7.426
 21
7.534
  0
LINE
  8
0
 10
17.964
 11
17.934
 20
7.534
 21
7.708
  0
LINE
  8
0
 10
17.934
 11
17.816
 20
7.708
 21
8.27
  0
LINE
  8
0
 10
17.816
 11
17.749
 20
8.27
 21
8.55
  0
LINE
  8
0
 10
17.749
 11
17.715
 20
8.55
 21
8.691
  0
LINE
  8
0
 10
17.715
 11
17.682
 20
8.691
 21
8.828
  0
LINE
  8
0
 10
17.682
 11
17.528
 20
8.828
 21
9.38
  0
LINE
  8
0
 10
17.528
 11
17.443
 20
9.38
 21
9.655
  0
LINE
  8
0
 10
17.443
 11
17.441
 20
9.655
 21
9.66
  0
LINE
  8
0
 10
17.441
 11
17.36
 20
9.66
 21
9.923
  0
LINE
  8
0
 10
17.36
 11
17.358
 20
9.923
 21
9.928
  0
LINE
  8
0
 10
17.358
 11
17.172
 20
9.928
 21
10.47
  0
LINE
  8
0
 10
17.172
 11
17.07
 20
10.47
 21
10.74
  0
LINE
  8
0
 10
17.07
 11
17.057
 20
10.74
 21
10.774
  0
LINE
  8
0
 10
17.057
 11
16.968
 20
10.774
 21
11.008
  0
LINE
  8
0
 10
16.968
 11
16.858
 20
11.008
 21
11.273
  0
LINE
  8
0
 10
16.858
 11
16.847
 20
11.273
 21
11.297
  0
LINE
  8
0
 10
16.847
 11
16.753
 20
11.297
 21
11.524
  0
LINE
  8
0
 10
16.753
 11
16.748
 20
11.524
 21
11.536
  0
LINE
  8
0
 10
16.748
 11
16.629
 20
11.536
 21
11.799
  0
LINE
  8
0
 10
16.629
 11
16.518
 20
11.799
 21
12.042
  0
LINE
  8
0
 10
16.518
 11
16.51
 20
12.042
 21
12.06
  0
LINE
  8
0
 10
16.51
 11
16.383
 20
12.06
 21
12.318
  0
LINE
  8
0
 10
16.383
 11
16.298
 20
12.318
 21
12.488
  0
LINE
  8
0
 10
16.298
 11
16.256
 20
12.488
 21
12.574
  0
LINE
  8
0
 10
16.256
 11
16.122
 20
12.574
 21
12.828
  0
LINE
  8
0
 10
16.122
 11
16.075
 20
12.828
 21
12.916
  0
LINE
  8
0
 10
16.075
 11
15.988
 20
12.916
 21
13.08
  0
LINE
  8
0
 10
15.988
 11
15.845
 20
13.08
 21
13.33
  0
LINE
  8
0
 10
15.845
 11
15.797
 20
13.33
 21
13.413
  0
LINE
  8
0
 10
15.797
 11
15.707
 20
13.413
 21
13.569
  0
LINE
  8
0
 10
15.707
 11
15.702
 20
13.569
 21
13.578
  0
LINE
  8
0
 10
15.702
 11
15.552
 20
13.578
 21
13.824
  0
LINE
  8
0
 10
15.552
 11
15.409
 20
13.824
 21
14.056
  0
LINE
  8
0
 10
15.409
 11
15.402
 20
14.056
 21
14.068
  0
LINE
  8
0
 10
15.402
 11
15.244
 20
14.068
 21
14.308
  0
LINE
  8
0
 10
15.244
 11
15.163
 20
14.308
 21
14.429
  0
LINE
  8
0
 10
15.163
 11
15.086
 20
14.429
 21
14.546
  0
LINE
  8
0
 10
15.086
 11
14.92
 20
14.546
 21
14.781
  0
LINE
  8
0
 10
14.92
 11
14.913
 20
14.781
 21
14.79
  0
LINE
  8
0
 10
14.913
 11
14.832
 20
14.79
 21
14.904
  0
LINE
  8
0
 10
14.832
 11
14.754
 20
14.904
 21
15.014
  0
LINE
  8
0
 10
14.754
 11
14.58
 20
15.014
 21
15.245
  0
LINE
  8
0
 10
14.58
 11
14.492
 20
15.245
 21
15.363
  0
LINE
  8
0
 10
14.492
 11
14.409
 20
15.363
 21
15.472
  0
LINE
  8
0
 10
14.409
 11
14.408
 20
15.472
 21
15.474
  0
LINE
  8
0
 10
14.408
 11
14.228
 20
15.474
 21
15.698
  0
LINE
  8
0
 10
14.228
 11
14.052
 20
15.698
 21
15.917
  0
LINE
  8
0
 10
14.052
 11
14.05
 20
15.917
 21
15.92
  0
LINE
  8
0
 10
14.05
 11
13.862
 20
15.92
 21
16.139
  0
LINE
  8
0
 10
13.862
 11
13.785
 20
16.139
 21
16.228
  0
LINE
  8
0
 10
13.785
 11
13.708
 20
16.228
 21
16.318
  0
LINE
  8
0
 10
13.708
 11
13.676
 20
16.318
 21
16.356
  0
LINE
  8
0
 10
13.676
 11
13.481
 20
16.356
 21
16.569
  0
LINE
  8
0
 10
13.481
 11
13.438
 20
16.569
 21
16.616
  0
LINE
  8
0
 10
13.438
 11
13.288
 20
16.616
 21
16.78
  0
LINE
  8
0
 10
13.288
 11
13.087
 20
16.78
 21
16.986
  0
LINE
  8
0
 10
13.087
 11
13.044
 20
16.986
 21
17.03
  0
LINE
  8
0
 10
13.044
 11
12.969
 20
17.03
 21
17.106
  0
LINE
  8
0
 10
12.969
 11
12.895
 20
17.106
 21
17.182
  0
LINE
  8
0
 10
12.895
 11
12.888
 20
17.182
 21
17.19
  0
LINE
  8
0
 10
12.888
 11
12.692
 20
17.19
 21
17.38
  0
LINE
  8
0
 10
12.692
 11
12.683
 20
17.38
 21
17.389
  0
LINE
  8
0
 10
12.683
 11
12.476
 20
17.389
 21
17.59
  0
LINE
  8
0
 10
12.476
 11
12.412
 20
17.59
 21
17.647
  0
LINE
  8
0
 10
12.412
 11
12.34
 20
17.647
 21
17.712
  0
LINE
  8
0
 10
12.34
 11
12.264
 20
17.712
 21
17.781
  0
LINE
  8
0
 10
12.264
 11
12.05
 20
17.781
 21
17.974
  0
LINE
  8
0
 10
12.05
 11
11.912
 20
17.974
 21
18.091
  0
LINE
  8
0
 10
11.912
 11
11.842
 20
18.091
 21
18.151
  0
LINE
  8
0
 10
11.842
 11
11.833
 20
18.151
 21
18.159
  0
LINE
  8
0
 10
11.833
 11
11.614
 20
18.159
 21
18.346
  0
LINE
  8
0
 10
11.614
 11
11.553
 20
18.346
 21
18.394
  0
LINE
  8
0
 10
11.553
 11
11.39
 20
18.394
 21
18.524
  0
LINE
  8
0
 10
11.39
 11
11.164
 20
18.524
 21
18.704
  0
LINE
  8
0
 10
11.164
 11
11.104
 20
18.704
 21
18.749
  0
LINE
  8
0
 10
11.104
 11
11.034
 20
18.749
 21
18.801
  0
LINE
  8
0
 10
11.034
 11
10.967
 20
18.801
 21
18.852
  0
LINE
  8
0
 10
10.967
 11
10.936
 20
18.852
 21
18.875
  0
LINE
  8
0
 10
10.936
 11
10.706
 20
18.875
 21
19.048
  0
LINE
  8
0
 10
10.706
 11
10.505
 20
19.048
 21
19.189
  0
LINE
  8
0
 10
10.505
 11
10.472
 20
19.189
 21
19.212
  0
LINE
  8
0
 10
10.472
 11
10.236
 20
19.212
 21
19.376
  0
LINE
  8
0
 10
10.236
 11
10.201
 20
19.376
 21
19.398
  0
LINE
  8
0
 10
10.201
 11
10.134
 20
19.398
 21
19.442
  0
LINE
  8
0
 10
10.134
 11
9.996
 20
19.442
 21
19.533
  0
LINE
  8
0
 10
9.996
 11
9.754
 20
19.533
 21
19.69
  0
LINE
  8
0
 10
9.754
 11
9.652
 20
19.69
 21
19.752
  0
LINE
  8
0
 10
9.652
 11
9.587
 20
19.752
 21
19.793
  0
LINE
  8
0
 10
9.587
 11
9.521
 20
19.793
 21
19.833
  0
LINE
  8
0
 10
9.521
 11
9.511
 20
19.833
 21
19.84
  0
LINE
  8
0
 10
9.511
 11
9.266
 20
19.84
 21
19.99
  0
LINE
  8
0
 10
9.266
 11
9.028
 20
19.99
 21
20.125
  0
LINE
  8
0
 10
9.028
 11
9.017
 20
20.125
 21
20.131
  0
LINE
  8
0
 10
9.017
 11
8.766
 20
20.131
 21
20.272
  0
LINE
  8
0
 10
8.766
 11
8.723
 20
20.272
 21
20.295
  0
LINE
  8
0
 10
8.723
 11
8.658
 20
20.295
 21
20.329
  0
LINE
  8
0
 10
8.658
 11
8.513
 20
20.329
 21
20.406
  0
LINE
  8
0
 10
8.513
 11
8.258
 20
20.406
 21
20.54
  0
LINE
  8
0
 10
8.258
 11
8.149
 20
20.54
 21
20.593
  0
LINE
  8
0
 10
8.149
 11
8.142
 20
20.593
 21
20.596
  0
LINE
  8
0
 10
8.142
 11
8.135
 20
20.596
 21
20.6
  0
LINE
  8
0
 10
8.135
 11
8.125
 20
20.6
 21
20.605
  0
LINE
  8
0
 10
8.125
 11
8.111
 20
20.605
 21
20.611
  0
LINE
  8
0
 10
8.111
 11
8.096
 20
20.611
 21
20.619
  0
LINE
  8
0
 10
8.096
 11
8.048
 20
20.619
 21
20.643
  0
LINE
  8
0
 10
8.048
 11
8.001
 20
20.643
 21
20.666
  0
LINE
  8
0
 10
8.001
 11
7.742
 20
20.666
 21
20.792
  0
LINE
  8
0
 10
7.742
 11
7.692
 20
20.792
 21
20.814
  0
LINE
  8
0
 10
7.692
 11
7.498
 20
20.814
 21
20.901
  0
LINE
  8
0
 10
7.498
 11
7.482
 20
20.901
 21
20.909
  0
LINE
  8
0
 10
7.482
 11
7.22
 20
20.909
 21
21.026
  0
LINE
  8
0
 10
7.22
 11
7.218
 20
21.026
 21
21.026
  0
LINE
  8
0
 10
7.218
 11
7.199
 20
21.026
 21
21.035
  0
LINE
  8
0
 10
7.199
 11
7.151
 20
21.035
 21
21.054
  0
LINE
  8
0
 10
7.151
 11
7.055
 20
21.054
 21
21.094
  0
LINE
  8
0
 10
7.055
 11
6.955
 20
21.094
 21
21.136
  0
LINE
  8
0
 10
6.955
 11
6.688
 20
21.136
 21
21.246
  0
LINE
  8
0
 10
6.688
 11
6.588
 20
21.246
 21
21.283
  0
LINE
  8
0
 10
6.588
 11
6.567
 20
21.283
 21
21.291
  0
LINE
  8
0
 10
6.567
 11
6.545
 20
21.291
 21
21.299
  0
LINE
  8
0
 10
6.545
 11
6.498
 20
21.299
 21
21.317
  0
LINE
  8
0
 10
6.498
 11
6.421
 20
21.317
 21
21.346
  0
LINE
  8
0
 10
6.421
 11
6.152
 20
21.346
 21
21.446
  0
LINE
  8
0
 10
6.152
 11
6.135
 20
21.446
 21
21.452
  0
LINE
  8
0
 10
6.135
 11
5.929
 20
21.452
 21
21.522
  0
LINE
  8
0
 10
5.929
 11
5.907
 20
21.522
 21
21.53
  0
LINE
  8
0
 10
5.907
 11
5.884
 20
21.53
 21
21.538
  0
LINE
  8
0
 10
5.884
 11
5.881
 20
21.538
 21
21.539
  0
LINE
  8
0
 10
5.881
 11
5.608
 20
21.539
 21
21.632
  0
LINE
  8
0
 10
5.608
 11
5.563
 20
21.632
 21
21.645
  0
LINE
  8
0
 10
5.563
 11
5.47
 20
21.645
 21
21.674
  0
LINE
  8
0
 10
5.47
 11
5.335
 20
21.674
 21
21.716
  0
LINE
  8
0
 10
5.335
 11
5.06
 20
21.716
 21
21.8
  0
LINE
  8
0
 10
5.06
 11
4.985
 20
21.8
 21
21.82
  0
LINE
  8
0
 10
4.985
 11
4.938
 20
21.82
 21
21.832
  0
LINE
  8
0
 10
4.938
 11
4.845
 20
21.832
 21
21.858
  0
LINE
  8
0
 10
4.845
 11
4.784
 20
21.858
 21
21.875
  0
LINE
  8
0
 10
4.784
 11
4.506
 20
21.875
 21
21.95
  0
LINE
  8
0
 10
4.506
 11
4.354
 20
21.95
 21
21.986
  0
LINE
  8
0
 10
4.354
 11
4.308
 20
21.986
 21
21.997
  0
LINE
  8
0
 10
4.308
 11
4.228
 20
21.997
 21
22.016
  0
LINE
  8
0
 10
4.228
 11
3.948
 20
22.016
 21
22.082
  0
LINE
  8
0
 10
3.948
 11
3.934
 20
22.082
 21
22.085
  0
LINE
  8
0
 10
3.934
 11
3.719
 20
22.085
 21
22.129
  0
LINE
  8
0
 10
3.719
 11
3.672
 20
22.129
 21
22.139
  0
LINE
  8
0
 10
3.672
 11
3.668
 20
22.139
 21
22.14
  0
LINE
  8
0
 10
3.668
 11
3.386
 20
22.14
 21
22.198
  0
LINE
  8
0
 10
3.386
 11
3.297
 20
22.198
 21
22.207
  0
LINE
  8
0
 10
3.297
 11
3.239
 20
22.207
 21
22.214
  0
LINE
  8
0
 10
3.239
 11
3.092
 20
22.214
 21
22.23
  0
LINE
  8
0
 10
3.092
 11
2.814
 20
22.23
 21
22.262
  0
LINE
  8
0
 10
2.814
 11
2.793
 20
22.262
 21
22.266
  0
LINE
  8
0
 10
2.793
 11
2.746
 20
22.266
 21
22.275
  0
LINE
  8
0
 10
2.746
 11
2.653
 20
22.275
 21
22.294
  0
LINE
  8
0
 10
2.653
 11
2.534
 20
22.294
 21
22.318
  0
LINE
  8
0
 10
2.534
 11
2.252
 20
22.318
 21
22.374
  0
LINE
  8
0
 10
2.252
 11
2.151
 20
22.374
 21
22.385
  0
LINE
  8
0
 10
2.151
 11
2.105
 20
22.385
 21
22.39
  0
LINE
  8
0
 10
2.105
 11
2.013
 20
22.39
 21
22.4
  0
LINE
  8
0
 10
2.013
 11
1.968
 20
22.4
 21
22.405
  0
LINE
  8
0
 10
1.968
 11
1.682
 20
22.405
 21
22.436
  0
LINE
  8
0
 10
1.682
 11
1.506
 20
22.436
 21
22.45
  0
LINE
  8
0
 10
1.506
 11
1.46
 20
22.45
 21
22.453
  0
LINE
  8
0
 10
1.46
 11
1.397
 20
22.453
 21
22.458
  0
LINE
  8
0
 10
1.397
 11
1.11
 20
22.458
 21
22.48
  0
LINE
  8
0
 10
1.11
 11
1.08
 20
22.48
 21
22.481
  0
LINE
  8
0
 10
1.08
 11
0.859
 20
22.481
 21
22.491
  0
LINE
  8
0
 10
0.859
 11
0.824
 20
22.491
 21
22.493
  0
LINE
  8
0
 10
0.824
 11
0.536
 20
22.493
 21
22.506
  0
LINE
  8
0
 10
0.536
 11
0.524
 20
22.506
 21
22.506
  0
LINE
  8
0
 10
0.524
 11
0.432
 20
22.506
 21
22.507
  0
LINE
  8
0
 10
0.432
 11
0.269
 20
22.507
 21
22.51
  0
LINE
  8
0
 10
0.269
 11
0
 20
22.51
 21
22.514
  0
LINE
  8
0
 10
0
 11
-0.038
 20
22.514
 21
22.514
  0
LINE
  8
0
 10
-0.038
 11
-0.078
 20
22.514
 21
22.513
  0
LINE
  8
0
 10
-0.078
 11
-0.124
 20
22.513
 21
22.513
  0
LINE
  8
0
 10
-0.124
 11
-0.215
 20
22.513
 21
22.512
  0
LINE
  8
0
 10
-0.215
 11
-0.253
 20
22.512
 21
22.511
  0
LINE
  8
0
 10
-0.253
 11
-0.47
 20
22.511
 21
22.508
  0
LINE
  8
0
 10
-0.47
 11
-0.654
 20
22.508
 21
22.5
  0
LINE
  8
0
 10
-0.654
 11
-0.7
 20
22.5
 21
22.498
  0
LINE
  8
0
 10
-0.7
 11
-0.756
 20
22.498
 21
22.496
  0
LINE
  8
0
 10
-0.756
 11
-1.044
 20
22.496
 21
22.484
  0
LINE
  8
0
 10
-1.044
 11
-1.08
 20
22.484
 21
22.481
  0
LINE
  8
0
 10
-1.08
 11
-1.302
 20
22.481
 21
22.465
  0
LINE
  8
0
 10
-1.302
 11
-1.329
 20
22.465
 21
22.463
  0
LINE
  8
0
 10
-1.329
 11
-1.616
 20
22.463
 21
22.442
  0
LINE
  8
0
 10
-1.616
 11
-1.634
 20
22.442
 21
22.44
  0
LINE
  8
0
 10
-1.634
 11
-1.726
 20
22.44
 21
22.431
  0
LINE
  8
0
 10
-1.726
 11
-1.9
 20
22.431
 21
22.413
  0
LINE
  8
0
 10
-1.9
 11
-2.186
 20
22.413
 21
22.384
  0
LINE
  8
0
 10
-2.186
 11
-2.233
 20
22.384
 21
22.377
  0
LINE
  8
0
 10
-2.233
 11
-2.453
 20
22.377
 21
22.347
  0
LINE
  8
0
 10
-2.453
 11
-2.469
 20
22.347
 21
22.345
  0
LINE
  8
0
 10
-2.469
 11
-2.754
 20
22.345
 21
22.306
  0
LINE
  8
0
 10
-2.754
 11
-2.828
 20
22.306
 21
22.293
  0
LINE
  8
0
 10
-2.828
 11
-2.874
 20
22.293
 21
22.285
  0
LINE
  8
0
 10
-2.874
 11
-3.036
 20
22.285
 21
22.258
  0
LINE
  8
0
 10
-3.036
 11
-3.32
 20
22.258
 21
22.21
  0
LINE
  8
0
 10
-3.32
 11
-3.377
 20
22.21
 21
22.199
  0
LINE
  8
0
 10
-3.377
 11
-3.466
 20
22.199
 21
22.181
  0
LINE
  8
0
 10
-3.466
 11
-3.601
 20
22.181
 21
22.154
  0
LINE
  8
0
 10
-3.601
 11
-3.884
 20
22.154
 21
22.098
  0
LINE
  8
0
 10
-3.884
 11
-4.442
 20
22.098
 21
21.966
  0
LINE
  8
0
 10
-4.442
 11
-4.665
 20
21.966
 21
21.906
  0
LINE
  8
0
 10
-4.665
 11
-4.718
 20
21.906
 21
21.892
  0
LINE
  8
0
 10
-4.718
 11
-4.996
 20
21.892
 21
21.818
  0
LINE
  8
0
 10
-4.996
 11
-5.154
 20
21.818
 21
21.77
  0
LINE
  8
0
 10
-5.154
 11
-5.247
 20
21.77
 21
21.742
  0
LINE
  8
0
 10
-5.247
 11
-5.27
 20
21.742
 21
21.735
  0
LINE
  8
0
 10
-5.27
 11
-5.546
 20
21.735
 21
21.652
  0
LINE
  8
0
 10
-5.546
 11
-5.57
 20
21.652
 21
21.644
  0
LINE
  8
0
 10
-5.57
 11
-5.593
 20
21.644
 21
21.636
  0
LINE
  8
0
 10
-5.593
 11
-5.616
 20
21.636
 21
21.629
  0
LINE
  8
0
 10
-5.616
 11
-5.638
 20
21.629
 21
21.621
  0
LINE
  8
0
 10
-5.638
 11
-5.817
 20
21.621
 21
21.561
  0
LINE
  8
0
 10
-5.817
 11
-6.09
 20
21.561
 21
21.47
  0
LINE
  8
0
 10
-6.09
 11
-6.116
 20
21.47
 21
21.46
  0
LINE
  8
0
 10
-6.116
 11
-6.211
 20
21.46
 21
21.425
  0
LINE
  8
0
 10
-6.211
 11
-6.257
 20
21.425
 21
21.407
  0
LINE
  8
0
 10
-6.257
 11
-6.278
 20
21.407
 21
21.399
  0
LINE
  8
0
 10
-6.278
 11
-6.298
 20
21.399
 21
21.392
  0
LINE
  8
0
 10
-6.298
 11
-6.358
 20
21.392
 21
21.37
  0
LINE
  8
0
 10
-6.358
 11
-6.628
 20
21.37
 21
21.27
  0
LINE
  8
0
 10
-6.628
 11
-6.769
 20
21.27
 21
21.212
  0
LINE
  8
0
 10
-6.769
 11
-6.864
 20
21.212
 21
21.173
  0
LINE
  8
0
 10
-6.864
 11
-6.892
 20
21.173
 21
21.162
  0
LINE
  8
0
 10
-6.892
 11
-7.158
 20
21.162
 21
21.054
  0
LINE
  8
0
 10
-7.158
 11
-7.178
 20
21.054
 21
21.045
  0
LINE
  8
0
 10
-7.178
 11
-7.196
 20
21.045
 21
21.037
  0
LINE
  8
0
 10
-7.196
 11
-7.212
 20
21.037
 21
21.03
  0
LINE
  8
0
 10
-7.212
 11
-7.225
 20
21.03
 21
21.024
  0
LINE
  8
0
 10
-7.225
 11
-7.236
 20
21.024
 21
21.019
  0
LINE
  8
0
 10
-7.236
 11
-7.42
 20
21.019
 21
20.937
  0
LINE
  8
0
 10
-7.42
 11
-7.684
 20
20.937
 21
20.82
  0
LINE
  8
0
 10
-7.684
 11
-7.69
 20
20.82
 21
20.817
  0
LINE
  8
0
 10
-7.69
 11
-7.789
 20
20.817
 21
20.769
  0
LINE
  8
0
 10
-7.789
 11
-7.838
 20
20.769
 21
20.745
  0
LINE
  8
0
 10
-7.838
 11
-7.845
 20
20.745
 21
20.742
  0
LINE
  8
0
 10
-7.845
 11
-7.849
 20
20.742
 21
20.74
  0
LINE
  8
0
 10
-7.849
 11
-7.852
 20
20.74
 21
20.738
  0
LINE
  8
0
 10
-7.852
 11
-7.903
 20
20.738
 21
20.714
  0
LINE
  8
0
 10
-7.903
 11
-7.941
 20
20.714
 21
20.695
  0
LINE
  8
0
 10
-7.941
 11
-8.2
 20
20.695
 21
20.57
  0
LINE
  8
0
 10
-8.2
 11
-8.415
 20
20.57
 21
20.458
  0
LINE
  8
0
 10
-8.415
 11
-8.453
 20
20.458
 21
20.438
  0
LINE
  8
0
 10
-8.453
 11
-8.708
 20
20.438
 21
20.306
  0
LINE
  8
0
 10
-8.708
 11
-8.735
 20
20.306
 21
20.29
  0
LINE
  8
0
 10
-8.735
 11
-8.802
 20
20.29
 21
20.253
  0
LINE
  8
0
 10
-8.802
 11
-8.957
 20
20.253
 21
20.165
  0
LINE
  8
0
 10
-8.957
 11
-9.208
 20
20.165
 21
20.024
  0
LINE
  8
0
 10
-9.208
 11
-9.299
 20
20.024
 21
19.968
  0
LINE
  8
0
 10
-9.299
 11
-9.366
 20
19.968
 21
19.928
  0
LINE
  8
0
 10
-9.366
 11
-9.433
 20
19.928
 21
19.887
  0
LINE
  8
0
 10
-9.433
 11
-9.453
 20
19.887
 21
19.875
  0
LINE
  8
0
 10
-9.453
 11
-9.7
 20
19.875
 21
19.726
  0
LINE
  8
0
 10
-9.7
 11
-9.919
 20
19.726
 21
19.583
  0
LINE
  8
0
 10
-9.919
 11
-9.939
 20
19.583
 21
19.57
  0
LINE
  8
0
 10
-9.939
 11
-10.18
 20
19.57
 21
19.414
  0
LINE
  8
0
 10
-10.18
 11
-10.228
 20
19.414
 21
19.381
  0
LINE
  8
0
 10
-10.228
 11
-10.297
 20
19.381
 21
19.333
  0
LINE
  8
0
 10
-10.297
 11
-10.415
 20
19.333
 21
19.251
  0
LINE
  8
0
 10
-10.415
 11
-10.652
 20
19.251
 21
19.088
  0
LINE
  8
0
 10
-10.652
 11
-10.765
 20
19.088
 21
19.004
  0
LINE
  8
0
 10
-10.765
 11
-10.834
 20
19.004
 21
18.952
  0
LINE
  8
0
 10
-10.834
 11
-10.881
 20
18.952
 21
18.918
  0
LINE
  8
0
 10
-10.881
 11
-11.112
 20
18.918
 21
18.746
  0
LINE
  8
0
 10
-11.112
 11
-11.136
 20
18.746
 21
18.727
  0
LINE
  8
0
 10
-11.136
 11
-11.336
 20
18.727
 21
18.569
  0
LINE
  8
0
 10
-11.336
 11
-11.562
 20
18.569
 21
18.39
  0
LINE
  8
0
 10
-11.562
 11
-11.584
 20
18.39
 21
18.371
  0
LINE
  8
0
 10
-11.584
 11
-11.655
 20
18.371
 21
18.311
  0
LINE
  8
0
 10
-11.655
 11
-11.728
 20
18.311
 21
18.25
  0
LINE
  8
0
 10
-11.728
 11
-11.781
 20
18.25
 21
18.206
  0
LINE
  8
0
 10
-11.781
 11
-12.002
 20
18.206
 21
18.02
  0
LINE
  8
0
 10
-12.002
 11
-12.162
 20
18.02
 21
17.875
  0
LINE
  8
0
 10
-12.162
 11
-12.214
 20
17.875
 21
17.829
  0
LINE
  8
0
 10
-12.214
 11
-12.428
 20
17.829
 21
17.636
  0
LINE
  8
0
 10
-12.428
 11
-12.448
 20
17.636
 21
17.616
  0
LINE
  8
0
 10
-12.448
 11
-12.523
 20
17.616
 21
17.545
  0
LINE
  8
0
 10
-12.523
 11
-12.634
 20
17.545
 21
17.438
  0
LINE
  8
0
 10
-12.634
 11
-12.842
 20
17.438
 21
17.238
  0
LINE
  8
0
 10
-12.842
 11
-13.044
 20
17.238
 21
17.032
  0
LINE
  8
0
 10
-13.044
 11
-13.134
 20
17.032
 21
16.941
  0
LINE
  8
0
 10
-13.134
 11
-13.21
 20
16.941
 21
16.863
  0
LINE
  8
0
 10
-13.21
 11
-13.244
 20
16.863
 21
16.828
  0
LINE
  8
0
 10
-13.244
 11
-13.439
 20
16.828
 21
16.616
  0
LINE
  8
0
 10
-13.439
 11
-13.481
 20
16.616
 21
16.571
  0
LINE
  8
0
 10
-13.481
 11
-13.632
 20
16.571
 21
16.406
  0
LINE
  8
0
 10
-13.632
 11
-13.821
 20
16.406
 21
16.188
  0
LINE
  8
0
 10
-13.821
 11
-13.86
 20
16.188
 21
16.142
  0
LINE
  8
0
 10
-13.86
 11
-13.938
 20
16.142
 21
16.052
  0
LINE
  8
0
 10
-13.938
 11
-14.008
 20
16.052
 21
15.972
  0
LINE
  8
0
 10
-14.008
 11
-14.189
 20
15.972
 21
15.748
  0
LINE
  8
0
 10
-14.189
 11
-14.2
 20
15.748
 21
15.735
  0
LINE
  8
0
 10
-14.2
 11
-14.368
 20
15.735
 21
15.526
  0
LINE
  8
0
 10
-14.368
 11
-14.543
 20
15.526
 21
15.297
  0
LINE
  8
0
 10
-14.543
 11
-14.551
 20
15.297
 21
15.285
  0
LINE
  8
0
 10
-14.551
 11
-14.633
 20
15.285
 21
15.179
  0
LINE
  8
0
 10
-14.633
 11
-14.716
 20
15.179
 21
15.07
  0
LINE
  8
0
 10
-14.716
 11
-14.882
 20
15.07
 21
14.835
  0
LINE
  8
0
 10
-14.882
 11
-15.047
 20
14.835
 21
14.604
  0
LINE
  8
0
 10
-15.047
 11
-15.048
 20
14.604
 21
14.602
  0
LINE
  8
0
 10
-15.048
 11
-15.207
 20
14.602
 21
14.362
  0
LINE
  8
0
 10
-15.207
 11
-15.291
 20
14.362
 21
14.237
  0
LINE
  8
0
 10
-15.291
 11
-15.366
 20
14.237
 21
14.124
  0
LINE
  8
0
 10
-15.366
 11
-15.518
 20
14.124
 21
13.879
  0
LINE
  8
0
 10
-15.518
 11
-15.53
 20
13.879
 21
13.86
  0
LINE
  8
0
 10
-15.53
 11
-15.67
 20
13.86
 21
13.636
  0
LINE
  8
0
 10
-15.67
 11
-15.813
 20
13.636
 21
13.387
  0
LINE
  8
0
 10
-15.813
 11
-15.822
 20
13.387
 21
13.372
  0
LINE
  8
0
 10
-15.822
 11
-15.911
 20
13.372
 21
13.219
  0
LINE
  8
0
 10
-15.911
 11
-15.956
 20
13.219
 21
13.14
  0
LINE
  8
0
 10
-15.956
 11
-16.092
 20
13.14
 21
12.886
  0
LINE
  8
0
 10
-16.092
 11
-16.139
 20
12.886
 21
12.799
  0
LINE
  8
0
 10
-16.139
 11
-16.228
 20
12.799
 21
12.634
  0
LINE
  8
0
 10
-16.228
 11
-16.355
 20
12.634
 21
12.376
  0
LINE
  8
0
 10
-16.355
 11
-16.397
 20
12.376
 21
12.291
  0
LINE
  8
0
 10
-16.397
 11
-16.482
 20
12.291
 21
12.12
  0
LINE
  8
0
 10
-16.482
 11
-16.602
 20
12.12
 21
11.859
  0
LINE
  8
0
 10
-16.602
 11
-16.612
 20
11.859
 21
11.838
  0
LINE
  8
0
 10
-16.612
 11
-16.711
 20
11.838
 21
11.626
  0
LINE
  8
0
 10
-16.711
 11
-16.722
 20
11.626
 21
11.6
  0
LINE
  8
0
 10
-16.722
 11
-16.833
 20
11.6
 21
11.334
  0
LINE
  8
0
 10
-16.833
 11
-16.931
 20
11.334
 21
11.102
  0
LINE
  8
0
 10
-16.931
 11
-16.944
 20
11.102
 21
11.07
  0
LINE
  8
0
 10
-16.944
 11
-17.047
 20
11.07
 21
10.801
  0
LINE
  8
0
 10
-17.047
 11
-17.135
 20
10.801
 21
10.574
  0
LINE
  8
0
 10
-17.135
 11
-17.15
 20
10.574
 21
10.534
  0
LINE
  8
0
 10
-17.15
 11
-17.245
 20
10.534
 21
10.262
  0
LINE
  8
0
 10
-17.245
 11
-17.337
 20
10.262
 21
9.999
  0
LINE
  8
0
 10
-17.337
 11
-17.34
 20
9.999
 21
9.992
  0
LINE
  8
0
 10
-17.34
 11
-17.426
 20
9.992
 21
9.718
  0
LINE
  8
0
 10
-17.426
 11
-17.507
 20
9.718
 21
9.463
  0
LINE
  8
0
 10
-17.507
 11
-17.512
 20
9.463
 21
9.446
  0
LINE
  8
0
 10
-17.512
 11
-17.666
 20
9.446
 21
8.892
  0
LINE
  8
0
 10
-17.666
 11
-17.735
 20
8.892
 21
8.613
  0
LINE
  8
0
 10
-17.735
 11
-17.763
 20
8.613
 21
8.501
  0
LINE
  8
0
 10
-17.763
 11
-17.804
 20
8.501
 21
8.336
  0
LINE
  8
0
 10
-17.804
 11
-17.922
 20
8.336
 21
7.774
  0
LINE
  8
0
 10
-17.922
 11
-17.973
 20
7.774
 21
7.491
  0
LINE
  8
0
 10
-17.973
 11
-17.996
 20
7.491
 21
7.368
  0
LINE
  8
0
 10
-17.996
 11
-18.024
 20
7.368
 21
7.21
  0
LINE
  8
0
 10
-18.024
 11
-18.066
 20
7.21
 21
6.925
  0
LINE
  8
0
 10
-18.066
 11
-18.082
 20
6.925
 21
6.823
  0
LINE
  8
0
 10
-18.082
 11
-18.108
 20
6.823
 21
6.642
  0
LINE
  8
0
 10
-18.108
 11
-18.174
 20
6.642
 21
6.072
  0
LINE
  8
0
 10
-18.174
 11
-18.224
 20
6.072
 21
5.5
  0
LINE
  8
0
 10
-18.224
 11
-18.254
 20
5.5
 21
4.928
  0
LINE
  8
0
 10
-18.254
 11
-18.266
 20
4.928
 21
4.354
  0
LINE
  8
0
 10
-18.266
 11
-18.263
 20
4.354
 21
4.066
  0
LINE
  8
0
 10
-18.263
 11
-18.263
 20
4.066
 21
4.033
  0
LINE
  8
0
 10
-18.263
 11
-18.26
 20
4.033
 21
3.78
  0
LINE
  8
0
 10
-18.26
 11
-18.236
 20
3.78
 21
3.206
  0
LINE
  8
0
 10
-18.236
 11
-18.194
 20
3.206
 21
2.634
  0
LINE
  8
0
 10
-18.194
 11
-18.134
 20
2.634
 21
2.064
  0
LINE
  8
0
 10
-18.134
 11
-18.096
 20
2.064
 21
1.779
  0
LINE
  8
0
 10
-18.096
 11
-18.06
 20
1.779
 21
1.511
  0
LINE
  8
0
 10
-18.06
 11
-18.058
 20
1.511
 21
1.496
  0
LINE
  8
0
 10
-18.058
 11
-17.962
 20
1.496
 21
0.93
  0
LINE
  8
0
 10
-17.962
 11
-17.848
 20
0.93
 21
0.368
  0
LINE
  8
0
 10
-17.848
 11
-17.783
 20
0.368
 21
0.087
  0
LINE
  8
0
 10
-17.783
 11
-17.782
 20
0.087
 21
0.081
  0
LINE
  8
0
 10
-17.782
 11
-17.72
 20
0.081
 21
-0.183
  0
LINE
  8
0
 10
-17.72
 11
-17.718
 20
-0.183
 21
-0.192
  0
LINE
  8
0
 10
-17.718
 11
-17.57
 20
-0.192
 21
-0.746
  0
LINE
  8
0
 10
-17.57
 11
-17.487
 20
-0.746
 21
-1.022
  0
LINE
  8
0
 10
-17.487
 11
-17.456
 20
-1.022
 21
-1.127
  0
LINE
  8
0
 10
-17.456
 11
-17.404
 20
-1.127
 21
-1.296
  0
LINE
  8
0
 10
-17.404
 11
-17.313
 20
-1.296
 21
-1.569
  0
LINE
  8
0
 10
-17.313
 11
-17.264
 20
-1.569
 21
-1.715
  0
LINE
  8
0
 10
-17.264
 11
-17.222
 20
-1.715
 21
-1.84
  0
LINE
  8
0
 10
-17.222
 11
-17.122
 20
-1.84
 21
-2.11
  0
LINE
  8
0
 10
-17.122
 11
-17.071
 20
-2.11
 21
-2.246
  0
LINE
  8
0
 10
-17.071
 11
-17.022
 20
-2.246
 21
-2.378
  0
LINE
  8
0
 10
-17.022
 11
-16.914
 20
-2.378
 21
-2.644
  0
LINE
  8
0
 10
-16.914
 11
-16.864
 20
-2.644
 21
-2.765
  0
LINE
  8
0
 10
-16.864
 11
-16.806
 20
-2.765
 21
-2.908
  0
LINE
  8
0
 10
-16.806
 11
-16.689
 20
-2.908
 21
-3.171
  0
LINE
  8
0
 10
-16.689
 11
-16.653
 20
-3.171
 21
-3.251
  0
LINE
  8
0
 10
-16.653
 11
-16.572
 20
-3.251
 21
-3.432
  0
LINE
  8
0
 10
-16.572
 11
-16.447
 20
-3.432
 21
-3.692
  0
LINE
  8
0
 10
-16.447
 11
-16.412
 20
-3.692
 21
-3.765
  0
LINE
  8
0
 10
-16.412
 11
-16.322
 20
-3.765
 21
-3.95
  0
LINE
  8
0
 10
-16.322
 11
-16.19
 20
-3.95
 21
-4.205
  0
LINE
  8
0
 10
-16.19
 11
-16.188
 20
-4.205
 21
-4.211
  0
LINE
  8
0
 10
-16.188
 11
-16.098
 20
-4.211
 21
-4.381
  0
LINE
  8
0
 10
-16.098
 11
-16.058
 20
-4.381
 21
-4.458
  0
LINE
  8
0
 10
-16.058
 11
-15.917
 20
-4.458
 21
-4.709
  0
LINE
  8
0
 10
-15.917
 11
-15.821
 20
-4.709
 21
-4.878
  0
LINE
  8
0
 10
-15.821
 11
-15.776
 20
-4.878
 21
-4.958
  0
LINE
  8
0
 10
-15.776
 11
-15.627
 20
-4.958
 21
-5.205
  0
LINE
  8
0
 10
-15.627
 11
-15.585
 20
-5.205
 21
-5.275
  0
LINE
  8
0
 10
-15.585
 11
-15.5
 20
-5.275
 21
-5.415
  0
LINE
  8
0
 10
-15.5
 11
-15.478
 20
-5.415
 21
-5.45
  0
LINE
  8
0
 10
-15.478
 11
-15.322
 20
-5.45
 21
-5.691
  0
LINE
  8
0
 10
-15.322
 11
-15.191
 20
-5.691
 21
-5.893
  0
LINE
  8
0
 10
-15.191
 11
-15.166
 20
-5.893
 21
-5.93
  0
LINE
  8
0
 10
-15.166
 11
-15.002
 20
-5.93
 21
-6.167
  0
LINE
  8
0
 10
-15.002
 11
-14.944
 20
-6.167
 21
-6.251
  0
LINE
  8
0
 10
-14.944
 11
-14.862
 20
-6.251
 21
-6.368
  0
LINE
  8
0
 10
-14.862
 11
-14.838
 20
-6.368
 21
-6.402
  0
LINE
  8
0
 10
-14.838
 11
-14.667
 20
-6.402
 21
-6.633
  0
LINE
  8
0
 10
-14.667
 11
-14.524
 20
-6.633
 21
-6.827
  0
LINE
  8
0
 10
-14.524
 11
-14.498
 20
-6.827
 21
-6.862
  0
LINE
  8
0
 10
-14.498
 11
-14.318
 20
-6.862
 21
-7.088
  0
LINE
  8
0
 10
-14.318
 11
-14.265
 20
-7.088
 21
-7.155
  0
LINE
  8
0
 10
-14.265
 11
-14.186
 20
-7.155
 21
-7.255
  0
LINE
  8
0
 10
-14.186
 11
-14.14
 20
-7.255
 21
-7.312
  0
LINE
  8
0
 10
-14.14
 11
-13.954
 20
-7.312
 21
-7.532
  0
LINE
  8
0
 10
-13.954
 11
-13.819
 20
-7.532
 21
-7.692
  0
LINE
  8
0
 10
-13.819
 11
-13.77
 20
-7.692
 21
-7.75
  0
LINE
  8
0
 10
-13.77
 11
-13.577
 20
-7.75
 21
-7.965
  0
LINE
  8
0
 10
-13.577
 11
-13.55
 20
-7.965
 21
-7.997
  0
LINE
  8
0
 10
-13.55
 11
-13.475
 20
-7.997
 21
-8.08
  0
LINE
  8
0
 10
-13.475
 11
-13.386
 20
-8.08
 21
-8.178
  0
LINE
  8
0
 10
-13.386
 11
-13.187
 20
-8.178
 21
-8.386
  0
LINE
  8
0
 10
-13.187
 11
-13.083
 20
-8.386
 21
-8.495
  0
LINE
  8
0
 10
-13.083
 11
-13.008
 20
-8.495
 21
-8.573
  0
LINE
  8
0
 10
-13.008
 11
-12.99
 20
-8.573
 21
-8.592
  0
LINE
  8
0
 10
-12.99
 11
-12.935
 20
-8.592
 21
-8.647
  0
LINE
  8
0
 10
-12.935
 11
-12.786
 20
-8.647
 21
-8.792
  0
LINE
  8
0
 10
-12.786
 11
-12.58
 20
-8.792
 21
-8.994
  0
LINE
  8
0
 10
-12.58
 11
-12.524
 20
-8.994
 21
-9.046
  0
LINE
  8
0
 10
-12.524
 11
-12.452
 20
-9.046
 21
-9.112
  0
LINE
  8
0
 10
-12.452
 11
-12.381
 20
-9.112
 21
-9.178
  0
LINE
  8
0
 10
-12.381
 11
-12.37
 20
-9.178
 21
-9.187
  0
LINE
  8
0
 10
-12.37
 11
-12.158
 20
-9.187
 21
-9.382
  0
LINE
  8
0
 10
-12.158
 11
-11.954
 20
-9.382
 21
-9.558
  0
LINE
  8
0
 10
-11.954
 11
-11.942
 20
-9.558
 21
-9.569
  0
LINE
  8
0
 10
-11.942
 11
-11.724
 20
-9.569
 21
-9.758
  0
LINE
  8
0
 10
-11.724
 11
-11.666
 20
-9.758
 21
-9.805
  0
LINE
  8
0
 10
-11.666
 11
-11.596
 20
-9.805
 21
-9.862
  0
LINE
  8
0
 10
-11.596
 11
-11.502
 20
-9.862
 21
-9.937
  0
LINE
  8
0
 10
-11.502
 11
-11.278
 20
-9.937
 21
-10.118
  0
LINE
  8
0
 10
-11.278
 11
-11.148
 20
-10.118
 21
-10.218
  0
LINE
  8
0
 10
-11.148
 11
-11.08
 20
-10.218
 21
-10.27
  0
LINE
  8
0
 10
-11.08
 11
-11.051
 20
-10.27
 21
-10.291
  0
LINE
  8
0
 10
-11.051
 11
-10.822
 20
-10.291
 21
-10.466
  0
LINE
  8
0
 10
-10.822
 11
-10.783
 20
-10.466
 21
-10.494
  0
LINE
  8
0
 10
-10.783
 11
-10.589
 20
-10.494
 21
-10.632
  0
LINE
  8
0
 10
-10.589
 11
-10.354
 20
-10.632
 21
-10.798
  0
LINE
  8
0
 10
-10.354
 11
-10.315
 20
-10.798
 21
-10.824
  0
LINE
  8
0
 10
-10.315
 11
-10.248
 20
-10.824
 21
-10.869
  0
LINE
  8
0
 10
-10.248
 11
-10.182
 20
-10.869
 21
-10.914
  0
LINE
  8
0
 10
-10.182
 11
-10.116
 20
-10.914
 21
-10.957
  0
LINE
  8
0
 10
-10.116
 11
-9.876
 20
-10.957
 21
-11.116
  0
LINE
  8
0
 10
-9.876
 11
-9.701
 20
-11.116
 21
-11.225
  0
LINE
  8
0
 10
-9.701
 11
-9.635
 20
-11.225
 21
-11.266
  0
LINE
  8
0
 10
-9.635
 11
-9.633
 20
-11.266
 21
-11.267
  0
LINE
  8
0
 10
-9.633
 11
-9.388
 20
-11.267
 21
-11.418
  0
LINE
  8
0
 10
-9.388
 11
-9.324
 20
-11.418
 21
-11.451
  0
LINE
  8
0
 10
-9.324
 11
-9.256
 20
-11.451
 21
-11.485
  0
LINE
  8
0
 10
-9.256
 11
-9.124
 20
-11.485
 21
-11.552
  0
LINE
  8
0
 10
-9.124
 11
-8.874
 20
-11.552
 21
-11.676
  0
LINE
  8
0
 10
-8.874
 11
-8.818
 20
-11.676
 21
-11.711
  0
LINE
  8
0
 10
-8.818
 11
-8.753
 20
-11.711
 21
-11.751
  0
LINE
  8
0
 10
-8.753
 11
-8.704
 20
-11.751
 21
-11.782
  0
LINE
  8
0
 10
-8.704
 11
-8.631
 20
-11.782
 21
-11.827
  0
LINE
  8
0
 10
-8.631
 11
-8.386
 20
-11.827
 21
-11.978
  0
LINE
  8
0
 10
-8.386
 11
-8.263
 20
-11.978
 21
-12.039
  0
LINE
  8
0
 10
-8.263
 11
-8.257
 20
-12.039
 21
-12.042
  0
LINE
  8
0
 10
-8.257
 11
-8.247
 20
-12.042
 21
-12.047
  0
LINE
  8
0
 10
-8.247
 11
-8.245
 20
-12.047
 21
-12.048
  0
LINE
  8
0
 10
-8.245
 11
-8.237
 20
-12.048
 21
-12.052
  0
LINE
  8
0
 10
-8.237
 11
-8.233
 20
-12.052
 21
-12.054
  0
LINE
  8
0
 10
-8.233
 11
-8.224
 20
-12.054
 21
-12.059
  0
LINE
  8
0
 10
-8.224
 11
-8.213
 20
-12.059
 21
-12.065
  0
LINE
  8
0
 10
-8.213
 11
-8.205
 20
-12.065
 21
-12.069
  0
LINE
  8
0
 10
-8.205
 11
-8.189
 20
-12.069
 21
-12.077
  0
LINE
  8
0
 10
-8.189
 11
-8.135
 20
-12.077
 21
-12.104
  0
LINE
  8
0
 10
-8.135
 11
-8.13
 20
-12.104
 21
-12.105
  0
LINE
  8
0
 10
-8.13
 11
-7.872
 20
-12.105
 21
-12.232
  0
LINE
  8
0
 10
-7.872
 11
-7.792
 20
-12.232
 21
-12.269
  0
LINE
  8
0
 10
-7.792
 11
-7.774
 20
-12.269
 21
-12.278
  0
LINE
  8
0
 10
-7.774
 11
-7.762
 20
-12.278
 21
-12.283
  0
LINE
  8
0
 10
-7.762
 11
-7.739
 20
-12.283
 21
-12.294
  0
LINE
  8
0
 10
-7.739
 11
-7.715
 20
-12.294
 21
-12.304
  0
LINE
  8
0
 10
-7.715
 11
-7.701
 20
-12.304
 21
-12.311
  0
LINE
  8
0
 10
-7.701
 11
-7.672
 20
-12.311
 21
-12.325
  0
LINE
  8
0
 10
-7.672
 11
-7.644
 20
-12.325
 21
-12.338
  0
LINE
  8
0
 10
-7.644
 11
-7.626
 20
-12.338
 21
-12.346
  0
LINE
  8
0
 10
-7.626
 11
-7.612
 20
-12.346
 21
-12.352
  0
LINE
  8
0
 10
-7.612
 11
-7.35
 20
-12.352
 21
-12.472
  0
LINE
  8
0
 10
-7.35
 11
-7.33
 20
-12.472
 21
-12.481
  0
LINE
  8
0
 10
-7.33
 11
-7.296
 20
-12.481
 21
-12.495
  0
LINE
  8
0
 10
-7.296
 11
-7.277
 20
-12.495
 21
-12.503
  0
LINE
  8
0
 10
-7.277
 11
-7.238
 20
-12.503
 21
-12.52
  0
LINE
  8
0
 10
-7.238
 11
-7.184
 20
-12.52
 21
-12.542
  0
LINE
  8
0
 10
-7.184
 11
-7.096
 20
-12.542
 21
-12.58
  0
LINE
  8
0
 10
-7.096
 11
-7.087
 20
-12.58
 21
-12.583
  0
LINE
  8
0
 10
-7.087
 11
-6.822
 20
-12.583
 21
-12.694
  0
LINE
  8
0
 10
-6.822
 11
-6.794
 20
-12.694
 21
-12.705
  0
LINE
  8
0
 10
-6.794
 11
-6.772
 20
-12.705
 21
-12.714
  0
LINE
  8
0
 10
-6.772
 11
-6.728
 20
-12.714
 21
-12.731
  0
LINE
  8
0
 10
-6.728
 11
-6.664
 20
-12.731
 21
-12.755
  0
LINE
  8
0
 10
-6.664
 11
-6.617
 20
-12.755
 21
-12.774
  0
LINE
  8
0
 10
-6.617
 11
-6.563
 20
-12.774
 21
-12.795
  0
LINE
  8
0
 10
-6.563
 11
-6.555
 20
-12.795
 21
-12.797
  0
LINE
  8
0
 10
-6.555
 11
-6.286
 20
-12.797
 21
-12.9
  0
LINE
  8
0
 10
-6.286
 11
-7.606
 20
-12.9
 21
-16.5
  0
LINE
  8
0
 10
-7.606
 11
-7.614
 20
-16.5
 21
-16.519
  0
LINE
  8
0
 10
-7.614
 11
-7.667
 20
-16.519
 21
-16.666
  0
LINE
  8
0
 10
-7.667
 11
-7.718
 20
-16.666
 21
-16.804
  0
LINE
  8
0
 10
-7.718
 11
-7.745
 20
-16.804
 21
-16.877
  0
LINE
  8
0
 10
-7.745
 11
-7.78
 20
-16.877
 21
-16.973
  0
LINE
  8
0
 10
-7.78
 11
-7.831
 20
-16.973
 21
-17.113
  0
LINE
  8
0
 10
-7.831
 11
-7.859
 20
-17.113
 21
-17.186
  0
LINE
  8
0
 10
-7.859
 11
-7.887
 20
-17.186
 21
-17.267
  0
LINE
  8
0
 10
-7.887
 11
-7.952
 20
-17.267
 21
-17.442
  0
LINE
  8
0
 10
-7.952
 11
-8.017
 20
-17.442
 21
-17.62
  0
LINE
  8
0
 10
-8.017
 11
-8.068
 20
-17.62
 21
-17.759
  0
LINE
  8
0
 10
-8.068
 11
-8.094
 20
-17.759
 21
-17.832
  0
LINE
  8
0
 10
-8.094
 11
-8.114
 20
-17.832
 21
-17.885
  0
LINE
  8
0
 10
-8.114
 11
-8.162
 20
-17.885
 21
-18.016
  0
LINE
  8
0
 10
-8.162
 11
-8.187
 20
-18.016
 21
-18.084
  0
LINE
  8
0
 10
-8.187
 11
-8.202
 20
-18.084
 21
-18.124
  0
LINE
  8
0
 10
-8.202
 11
-8.244
 20
-18.124
 21
-18.239
  0
LINE
  8
0
 10
-8.244
 11
-8.267
 20
-18.239
 21
-18.3
  0
LINE
  8
0
 10
-8.267
 11
-8.277
 20
-18.3
 21
-18.328
  0
LINE
  8
0
 10
-8.277
 11
-8.311
 20
-18.328
 21
-18.423
  0
LINE
  8
0
 10
-8.311
 11
-8.33
 20
-18.423
 21
-18.474
  0
LINE
  8
0
 10
-8.33
 11
-8.337
 20
-18.474
 21
-18.491
  0
LINE
  8
0
 10
-8.337
 11
-8.363
 20
-18.491
 21
-18.564
  0
LINE
  8
0
 10
-8.363
 11
-8.446
 20
-18.564
 21
-18.789
  0
LINE
  8
0
 10
-8.446
 11
-8.471
 20
-18.789
 21
-18.858
  0
LINE
  8
0
 10
-8.471
 11
-8.485
 20
-18.858
 21
-18.895
  0
LINE
  8
0
 10
-8.485
 11
-8.487
 20
-18.895
 21
-18.901
  0
LINE
  8
0
 10
-8.487
 11
-8.501
 20
-18.901
 21
-18.939
  0
LINE
  8
0
 10
-8.501
 11
-8.508
 20
-18.939
 21
-18.959
  0
LINE
  8
0
 10
-8.508
 11
-8.508
 20
-18.959
 21
-18.961
  0
LINE
  8
0
 10
-8.508
 11
-8.511
 20
-18.961
 21
-18.967
  0
LINE
  8
0
 10
-8.511
 11
-8.512
 20
-18.967
 21
-18.97
  0
LINE
  8
0
 10
-8.512
 11
-8.529
 20
-18.97
 21
-19.016
  0
LINE
  8
0
 10
-8.529
 11
-8.53
 20
-19.016
 21
-19.02
  0
LINE
  8
0
 10
-8.53
 11
-8.82
 20
-19.02
 21
-19.811
  0
LINE
  8
0
 10
-8.82
 11
-8.824
 20
-19.811
 21
-19.82
  0
LINE
  8
0
 10
-8.824
 11
-8.827
 20
-19.82
 21
-19.83
  0
LINE
  8
0
 10
-8.827
 11
-8.89
 20
-19.83
 21
-20
  0
LINE
  8
0
 10
-8.89
 11
-8.876
 20
-20
 21
-20.008
  0
LINE
  8
0
 10
-8.876
 11
-8.9
 20
-20.008
 21
-20.032
  0
LINE
  8
0
 10
-8.9
 11
-8.908
 20
-20.032
 21
-20.054
  0
LINE
  8
0
 10
-8.908
 11
-8.916
 20
-20.054
 21
-20.073
  0
LINE
  8
0
 10
-8.916
 11
-8.916
 20
-20.073
 21
-20.076
  0
LINE
  8
0
 10
-8.916
 11
-8.938
 20
-20.076
 21
-20.068
  0
LINE
  8
0
 10
-8.938
 11
-11.683
 20
-20.068
 21
-22.799
  0
LINE
  8
0
 10
-11.683
 11
-12.789
 20
-22.799
 21
-23.9
  0
LINE
  8
0
 10
-12.789
 11
-14.412
 20
-23.9
 21
-25.514
  0
LINE
  8
0
 10
-14.412
 11
-18.106
 20
-25.514
 21
-23.38
  0
LINE
  8
0
 10
-18.106
 11
-16.568
 20
-23.38
 21
-15.666
  0
LINE
  8
0
 10
-16.568
 11
-16.628
 20
-15.666
 21
-15.618
  0
LINE
  8
0
 10
-16.628
 11
-17.244
 20
-15.618
 21
-15.086
  0
LINE
  8
0
 10
-17.244
 11
-17.844
 20
-15.086
 21
-14.534
  0
LINE
  8
0
 10
-17.844
 11
-18.424
 20
-14.534
 21
-13.964
  0
LINE
  8
0
 10
-18.424
 11
-18.988
 20
-13.964
 21
-13.378
  0
LINE
  8
0
 10
-18.988
 11
-19.532
 20
-13.378
 21
-12.772
  0
LINE
  8
0
 10
-19.532
 11
-19.898
 20
-12.772
 21
-12.342
  0
LINE
  8
0
 10
-19.898
 11
-23.642
 20
-12.342
 21
-13.334
  0
LINE
  8
0
 10
-23.642
 11
-25.151
 20
-13.334
 21
-13.733
  0
LINE
  8
0
 10
-25.151
 11
-27.364
 20
-13.733
 21
-14.32
  0
LINE
  8
0
 10
-27.364
 11
-29.496
 20
-14.32
 21
-10.626
  0
LINE
  8
0
 10
-29.496
 11
-24.306
 20
-10.626
 21
-4.714
  0
LINE
  8
0
 10
-24.306
 11
-24.426
 20
-4.714
 21
-4.386
  0
LINE
  8
0
 10
-24.426
 11
-24.686
 20
-4.386
 21
-3.616
  0
LINE
  8
0
 10
-24.686
 11
-24.92
 20
-3.616
 21
-2.836
  0
LINE
  8
0
 10
-24.92
 11
-25.13
 20
-2.836
 21
-2.05
  0
LINE
  8
0
 10
-25.13
 11
-25.316
 20
-2.05
 21
-1.258
  0
LINE
  8
0
 10
-25.316
 11
-25.476
 20
-1.258
 21
-0.46
  0
LINE
  8
0
 10
-25.476
 11
-25.526
 20
-0.46
 21
-0.172
  0
LINE
  8
0
 10
-25.526
 11
-29.265
 20
-0.172
 21
0.842
  0
LINE
  8
0
 10
-29.265
 11
-30.772
 20
0.842
 21
1.251
  0
LINE
  8
0
 10
-30.772
 11
-32.982
 20
1.251
 21
1.85
  0
LINE
  8
0
 10
-16.304
 11
-16.301
 20
4.248
 21
4.506
  0
LINE
  8
0
 10
-16.301
 11
-16.3
 20
4.506
 21
4.586
  0
LINE
  8
0
 10
-16.3
 11
-16.298
 20
4.586
 21
4.762
  0
LINE
  8
0
 10
-16.298
 11
-16.272
 20
4.762
 21
5.274
  0
LINE
  8
0
 10
-16.272
 11
-16.232
 20
5.274
 21
5.784
  0
LINE
  8
0
 10
-16.232
 11
-16.204
 20
5.784
 21
6.04
  0
LINE
  8
0
 10
-16.204
 11
-16.192
 20
6.04
 21
6.147
  0
LINE
  8
0
 10
-16.192
 11
-16.176
 20
6.147
 21
6.294
  0
LINE
  8
0
 10
-16.176
 11
-16.14
 20
6.294
 21
6.549
  0
LINE
  8
0
 10
-16.14
 11
-16.129
 20
6.549
 21
6.629
  0
LINE
  8
0
 10
-16.129
 11
-16.104
 20
6.629
 21
6.802
  0
LINE
  8
0
 10
-16.104
 11
-16.016
 20
6.802
 21
7.306
  0
LINE
  8
0
 10
-16.016
 11
-15.912
 20
7.306
 21
7.808
  0
LINE
  8
0
 10
-15.912
 11
-15.852
 20
7.808
 21
8.058
  0
LINE
  8
0
 10
-15.852
 11
-15.829
 20
8.058
 21
8.152
  0
LINE
  8
0
 10
-15.829
 11
-15.792
 20
8.152
 21
8.306
  0
LINE
  8
0
 10
-15.792
 11
-15.656
 20
8.306
 21
8.8
  0
LINE
  8
0
 10
-15.656
 11
-15.581
 20
8.8
 21
9.046
  0
LINE
  8
0
 10
-15.581
 11
-15.559
 20
9.046
 21
9.118
  0
LINE
  8
0
 10
-15.559
 11
-15.506
 20
9.118
 21
9.29
  0
LINE
  8
0
 10
-15.506
 11
-15.423
 20
9.29
 21
9.534
  0
LINE
  8
0
 10
-15.423
 11
-15.402
 20
9.534
 21
9.596
  0
LINE
  8
0
 10
-15.402
 11
-15.34
 20
9.596
 21
9.776
  0
LINE
  8
0
 10
-15.34
 11
-15.249
 20
9.776
 21
10.017
  0
LINE
  8
0
 10
-15.249
 11
-15.187
 20
10.017
 21
10.18
  0
LINE
  8
0
 10
-15.187
 11
-15.158
 20
10.18
 21
10.256
  0
LINE
  8
0
 10
-15.158
 11
-15.06
 20
10.256
 21
10.493
  0
LINE
  8
0
 10
-15.06
 11
-14.972
 20
10.493
 21
10.704
  0
LINE
  8
0
 10
-14.972
 11
-14.962
 20
10.704
 21
10.728
  0
LINE
  8
0
 10
-14.962
 11
-14.857
 20
10.728
 21
10.963
  0
LINE
  8
0
 10
-14.857
 11
-14.765
 20
10.963
 21
11.166
  0
LINE
  8
0
 10
-14.765
 11
-14.752
 20
11.166
 21
11.196
  0
LINE
  8
0
 10
-14.752
 11
-14.639
 20
11.196
 21
11.427
  0
LINE
  8
0
 10
-14.639
 11
-14.538
 20
11.427
 21
11.632
  0
LINE
  8
0
 10
-14.538
 11
-14.526
 20
11.632
 21
11.656
  0
LINE
  8
0
 10
-14.526
 11
-14.406
 20
11.656
 21
11.884
  0
LINE
  8
0
 10
-14.406
 11
-14.309
 20
11.884
 21
12.067
  0
LINE
  8
0
 10
-14.309
 11
-14.286
 20
12.067
 21
12.11
  0
LINE
  8
0
 10
-14.286
 11
-14.159
 20
12.11
 21
12.333
  0
LINE
  8
0
 10
-14.159
 11
-14.058
 20
12.333
 21
12.508
  0
LINE
  8
0
 10
-14.058
 11
-14.032
 20
12.508
 21
12.554
  0
LINE
  8
0
 10
-14.032
 11
-13.898
 20
12.554
 21
12.774
  0
LINE
  8
0
 10
-13.898
 11
-13.816
 20
12.774
 21
12.906
  0
LINE
  8
0
 10
-13.816
 11
-13.764
 20
12.906
 21
12.992
  0
LINE
  8
0
 10
-13.764
 11
-13.623
 20
12.992
 21
13.207
  0
LINE
  8
0
 10
-13.623
 11
-13.572
 20
13.207
 21
13.284
  0
LINE
  8
0
 10
-13.572
 11
-13.482
 20
13.284
 21
13.42
  0
LINE
  8
0
 10
-13.482
 11
-13.335
 20
13.42
 21
13.631
  0
LINE
  8
0
 10
-13.335
 11
-13.284
 20
13.631
 21
13.703
  0
LINE
  8
0
 10
-13.284
 11
-13.188
 20
13.703
 21
13.84
  0
LINE
  8
0
 10
-13.188
 11
-13.034
 20
13.84
 21
14.046
  0
LINE
  8
0
 10
-13.034
 11
-13.028
 20
14.046
 21
14.054
  0
LINE
  8
0
 10
-13.028
 11
-12.928
 20
14.054
 21
14.185
  0
LINE
  8
0
 10
-12.928
 11
-12.88
 20
14.185
 21
14.25
  0
LINE
  8
0
 10
-12.88
 11
-12.72
 20
14.25
 21
14.451
  0
LINE
  8
0
 10
-12.72
 11
-12.612
 20
14.451
 21
14.585
  0
LINE
  8
0
 10
-12.612
 11
-12.56
 20
14.585
 21
14.65
  0
LINE
  8
0
 10
-12.56
 11
-12.392
 20
14.65
 21
14.846
  0
LINE
  8
0
 10
-12.392
 11
-12.347
 20
14.846
 21
14.898
  0
LINE
  8
0
 10
-12.347
 11
-12.252
 20
14.898
 21
15.01
  0
LINE
  8
0
 10
-12.252
 11
-12.226
 20
15.01
 21
15.04
  0
LINE
  8
0
 10
-12.226
 11
-12.053
 20
15.04
 21
15.23
  0
LINE
  8
0
 10
-12.053
 11
-11.91
 20
15.23
 21
15.388
  0
LINE
  8
0
 10
-11.91
 11
-11.882
 20
15.388
 21
15.418
  0
LINE
  8
0
 10
-11.882
 11
-11.702
 20
15.418
 21
15.603
  0
LINE
  8
0
 10
-11.702
 11
-11.636
 20
15.603
 21
15.671
  0
LINE
  8
0
 10
-11.636
 11
-11.544
 20
15.671
 21
15.766
  0
LINE
  8
0
 10
-11.544
 11
-11.524
 20
15.766
 21
15.786
  0
LINE
  8
0
 10
-11.524
 11
-11.339
 20
15.786
 21
15.966
  0
LINE
  8
0
 10
-11.339
 11
-11.178
 20
15.966
 21
16.122
  0
LINE
  8
0
 10
-11.178
 11
-11.156
 20
16.122
 21
16.144
  0
LINE
  8
0
 10
-11.156
 11
-10.966
 20
16.144
 21
16.317
  0
LINE
  8
0
 10
-10.966
 11
-10.898
 20
16.317
 21
16.379
  0
LINE
  8
0
 10
-10.898
 11
-10.809
 20
16.379
 21
16.46
  0
LINE
  8
0
 10
-10.809
 11
-10.778
 20
16.46
 21
16.488
  0
LINE
  8
0
 10
-10.778
 11
-10.582
 20
16.488
 21
16.655
  0
LINE
  8
0
 10
-10.582
 11
-10.421
 20
16.655
 21
16.792
  0
LINE
  8
0
 10
-10.421
 11
-10.388
 20
16.792
 21
16.82
  0
LINE
  8
0
 10
-10.388
 11
-10.187
 20
16.82
 21
16.981
  0
LINE
  8
0
 10
-10.187
 11
-10.132
 20
16.981
 21
17.026
  0
LINE
  8
0
 10
-10.132
 11
-10.045
 20
17.026
 21
17.096
  0
LINE
  8
0
 10
-10.045
 11
-9.988
 20
17.096
 21
17.142
  0
LINE
  8
0
 10
-9.988
 11
-9.782
 20
17.142
 21
17.296
  0
LINE
  8
0
 10
-9.782
 11
-9.638
 20
17.296
 21
17.405
  0
LINE
  8
0
 10
-9.638
 11
-9.578
 20
17.405
 21
17.45
  0
LINE
  8
0
 10
-9.578
 11
-9.367
 20
17.45
 21
17.597
  0
LINE
  8
0
 10
-9.367
 11
-9.34
 20
17.597
 21
17.615
  0
LINE
  8
0
 10
-9.34
 11
-9.256
 20
17.615
 21
17.675
  0
LINE
  8
0
 10
-9.256
 11
-9.158
 20
17.675
 21
17.744
  0
LINE
  8
0
 10
-9.158
 11
-8.943
 20
17.744
 21
17.885
  0
LINE
  8
0
 10
-8.943
 11
-8.831
 20
17.885
 21
17.959
  0
LINE
  8
0
 10
-8.831
 11
-8.746
 20
17.959
 21
18.015
  0
LINE
  8
0
 10
-8.746
 11
-8.73
 20
18.015
 21
18.026
  0
LINE
  8
0
 10
-8.73
 11
-8.511
 20
18.026
 21
18.16
  0
LINE
  8
0
 10
-8.511
 11
-8.445
 20
18.16
 21
18.201
  0
LINE
  8
0
 10
-8.445
 11
-8.294
 20
18.201
 21
18.294
  0
LINE
  8
0
 10
-8.294
 11
-8.07
 20
18.294
 21
18.421
  0
LINE
  8
0
 10
-8.07
 11
-8.003
 20
18.421
 21
18.459
  0
LINE
  8
0
 10
-8.003
 11
-7.939
 20
18.459
 21
18.496
  0
LINE
  8
0
 10
-7.939
 11
-7.935
 20
18.496
 21
18.498
  0
LINE
  8
0
 10
-7.935
 11
-7.929
 20
18.498
 21
18.501
  0
LINE
  8
0
 10
-7.929
 11
-7.92
 20
18.501
 21
18.506
  0
LINE
  8
0
 10
-7.92
 11
-7.857
 20
18.506
 21
18.542
  0
LINE
  8
0
 10
-7.857
 11
-7.848
 20
18.542
 21
18.548
  0
LINE
  8
0
 10
-7.848
 11
-7.62
 20
18.548
 21
18.668
  0
LINE
  8
0
 10
-7.62
 11
-7.506
 20
18.668
 21
18.729
  0
LINE
  8
0
 10
-7.506
 11
-7.394
 20
18.729
 21
18.788
  0
LINE
  8
0
 10
-7.394
 11
-7.163
 20
18.788
 21
18.9
  0
LINE
  8
0
 10
-7.163
 11
-7.136
 20
18.9
 21
18.913
  0
LINE
  8
0
 10
-7.136
 11
-7.122
 20
18.913
 21
18.92
  0
LINE
  8
0
 10
-7.122
 11
-7.106
 20
18.92
 21
18.928
  0
LINE
  8
0
 10
-7.106
 11
-7.087
 20
18.928
 21
18.938
  0
LINE
  8
0
 10
-7.087
 11
-7.064
 20
18.938
 21
18.949
  0
LINE
  8
0
 10
-7.064
 11
-7.003
 20
18.949
 21
18.979
  0
LINE
  8
0
 10
-7.003
 11
-6.934
 20
18.979
 21
19.012
  0
LINE
  8
0
 10
-6.934
 11
-6.7
 20
19.012
 21
19.118
  0
LINE
  8
0
 10
-6.7
 11
-6.648
 20
19.118
 21
19.142
  0
LINE
  8
0
 10
-6.648
 11
-6.499
 20
19.142
 21
19.21
  0
LINE
  8
0
 10
-6.499
 11
-6.473
 20
19.21
 21
19.221
  0
LINE
  8
0
 10
-6.473
 11
-6.468
 20
19.221
 21
19.224
  0
LINE
  8
0
 10
-6.468
 11
-6.23
 20
19.224
 21
19.322
  0
LINE
  8
0
 10
-6.23
 11
-6.209
 20
19.322
 21
19.33
  0
LINE
  8
0
 10
-6.209
 11
-6.15
 20
19.33
 21
19.355
  0
LINE
  8
0
 10
-6.15
 11
-6.03
 20
19.355
 21
19.405
  0
LINE
  8
0
 10
-6.03
 11
-5.994
 20
19.405
 21
19.42
  0
LINE
  8
0
 10
-5.994
 11
-5.634
 20
19.42
 21
19.555
  0
LINE
  8
0
 10
-5.634
 11
-5.606
 20
19.555
 21
19.566
  0
LINE
  8
0
 10
-5.606
 11
-5.577
 20
19.566
 21
19.576
  0
LINE
  8
0
 10
-5.577
 11
-5.548
 20
19.576
 21
19.587
  0
LINE
  8
0
 10
-5.548
 11
-5.514
 20
19.587
 21
19.6
  0
LINE
  8
0
 10
-5.514
 11
-5.271
 20
19.6
 21
19.683
  0
LINE
  8
0
 10
-5.271
 11
-5.246
 20
19.683
 21
19.692
  0
LINE
  8
0
 10
-5.246
 11
-5.129
 20
19.692
 21
19.732
  0
LINE
  8
0
 10
-5.129
 11
-5.03
 20
19.732
 21
19.766
  0
LINE
  8
0
 10
-5.03
 11
-4.784
 20
19.766
 21
19.842
  0
LINE
  8
0
 10
-4.784
 11
-4.72
 20
19.842
 21
19.862
  0
LINE
  8
0
 10
-4.72
 11
-4.54
 20
19.862
 21
19.918
  0
LINE
  8
0
 10
-4.54
 11
-4.044
 20
19.918
 21
20.052
  0
LINE
  8
0
 10
-4.044
 11
-3.546
 20
20.052
 21
20.172
  0
LINE
  8
0
 10
-3.546
 11
-3.294
 20
20.172
 21
20.224
  0
LINE
  8
0
 10
-3.294
 11
-3.227
 20
20.224
 21
20.238
  0
LINE
  8
0
 10
-3.227
 11
-3.171
 20
20.238
 21
20.25
  0
LINE
  8
0
 10
-3.171
 11
-3.059
 20
20.25
 21
20.273
  0
LINE
  8
0
 10
-3.059
 11
-3.044
 20
20.273
 21
20.276
  0
LINE
  8
0
 10
-3.044
 11
-2.791
 20
20.276
 21
20.32
  0
LINE
  8
0
 10
-2.791
 11
-2.633
 20
20.32
 21
20.348
  0
LINE
  8
0
 10
-2.633
 11
-2.576
 20
20.348
 21
20.358
  0
LINE
  8
0
 10
-2.576
 11
-2.54
 20
20.358
 21
20.364
  0
LINE
  8
0
 10
-2.54
 11
-2.285
 20
20.364
 21
20.4
  0
LINE
  8
0
 10
-2.285
 11
-2.207
 20
20.4
 21
20.411
  0
LINE
  8
0
 10
-2.207
 11
-2.034
 20
20.411
 21
20.436
  0
LINE
  8
0
 10
-2.034
 11
-2.032
 20
20.436
 21
20.436
  0
LINE
  8
0
 10
-2.032
 11
-1.776
 20
20.436
 21
20.465
  0
LINE
  8
0
 10
-1.776
 11
-1.603
 20
20.465
 21
20.484
  0
LINE
  8
0
 10
-1.603
 11
-1.522
 20
20.484
 21
20.494
  0
LINE
  8
0
 10
-1.522
 11
-1.266
 20
20.494
 21
20.514
  0
LINE
  8
0
 10
-1.266
 11
-1.233
 20
20.514
 21
20.516
  0
LINE
  8
0
 10
-1.233
 11
-1.176
 20
20.516
 21
20.521
  0
LINE
  8
0
 10
-1.176
 11
-1.012
 20
20.521
 21
20.534
  0
LINE
  8
0
 10
-1.012
 11
-0.755
 20
20.534
 21
20.546
  0
LINE
  8
0
 10
-0.755
 11
-0.743
 20
20.546
 21
20.546
  0
LINE
  8
0
 10
-0.743
 11
-0.629
 20
20.546
 21
20.551
  0
LINE
  8
0
 10
-0.629
 11
-0.571
 20
20.551
 21
20.554
  0
LINE
  8
0
 10
-0.571
 11
-0.5
 20
20.554
 21
20.558
  0
LINE
  8
0
 10
-0.5
 11
-0.243
 20
20.558
 21
20.562
  0
LINE
  8
0
 10
-0.243
 11
-0.139
 20
20.562
 21
20.563
  0
LINE
  8
0
 10
-0.139
 11
-0.024
 20
20.563
 21
20.565
  0
LINE
  8
0
 10
-0.024
 11
0.012
 20
20.565
 21
20.566
  0
LINE
  8
0
 10
0.012
 11
0.035
 20
20.566
 21
20.565
  0
LINE
  8
0
 10
0.035
 11
0.209
 20
20.565
 21
20.562
  0
LINE
  8
0
 10
0.209
 11
0.268
 20
20.562
 21
20.562
  0
LINE
  8
0
 10
0.268
 11
0.526
 20
20.562
 21
20.558
  0
LINE
  8
0
 10
0.526
 11
0.583
 20
20.558
 21
20.555
  0
LINE
  8
0
 10
0.583
 11
0.641
 20
20.555
 21
20.552
  0
LINE
  8
0
 10
0.641
 11
0.781
 20
20.552
 21
20.546
  0
LINE
  8
0
 10
0.781
 11
1.038
 20
20.546
 21
20.534
  0
LINE
  8
0
 10
1.038
 11
1.073
 20
20.534
 21
20.531
  0
LINE
  8
0
 10
1.073
 11
1.189
 20
20.531
 21
20.522
  0
LINE
  8
0
 10
1.189
 11
1.246
 20
20.522
 21
20.517
  0
LINE
  8
0
 10
1.246
 11
1.292
 20
20.517
 21
20.514
  0
LINE
  8
0
 10
1.292
 11
1.548
 20
20.514
 21
20.494
  0
LINE
  8
0
 10
1.548
 11
1.676
 20
20.494
 21
20.479
  0
LINE
  8
0
 10
1.676
 11
1.792
 20
20.479
 21
20.466
  0
LINE
  8
0
 10
1.792
 11
1.802
 20
20.466
 21
20.465
  0
LINE
  8
0
 10
1.802
 11
2.058
 20
20.465
 21
20.436
  0
LINE
  8
0
 10
2.058
 11
2.107
 20
20.436
 21
20.429
  0
LINE
  8
0
 10
2.107
 11
2.279
 20
20.429
 21
20.405
  0
LINE
  8
0
 10
2.279
 11
2.311
 20
20.405
 21
20.4
  0
LINE
  8
0
 10
2.311
 11
2.566
 20
20.4
 21
20.364
  0
LINE
  8
0
 10
2.566
 11
2.651
 20
20.364
 21
20.349
  0
LINE
  8
0
 10
2.651
 11
2.71
 20
20.349
 21
20.339
  0
LINE
  8
0
 10
2.71
 11
2.817
 20
20.339
 21
20.32
  0
LINE
  8
0
 10
2.817
 11
3.07
 20
20.32
 21
20.276
  0
LINE
  8
0
 10
3.07
 11
3.132
 20
20.276
 21
20.263
  0
LINE
  8
0
 10
3.132
 11
3.248
 20
20.263
 21
20.239
  0
LINE
  8
0
 10
3.248
 11
3.307
 20
20.239
 21
20.227
  0
LINE
  8
0
 10
3.307
 11
3.32
 20
20.227
 21
20.224
  0
LINE
  8
0
 10
3.32
 11
3.572
 20
20.224
 21
20.172
  0
LINE
  8
0
 10
3.572
 11
3.727
 20
20.172
 21
20.135
  0
LINE
  8
0
 10
3.727
 11
3.82
 20
20.135
 21
20.112
  0
LINE
  8
0
 10
3.82
 11
4.07
 20
20.112
 21
20.052
  0
LINE
  8
0
 10
4.07
 11
4.094
 20
20.052
 21
20.045
  0
LINE
  8
0
 10
4.094
 11
4.153
 20
20.045
 21
20.029
  0
LINE
  8
0
 10
4.153
 11
4.317
 20
20.029
 21
19.985
  0
LINE
  8
0
 10
4.317
 11
4.566
 20
19.985
 21
19.918
  0
LINE
  8
0
 10
4.566
 11
4.684
 20
19.918
 21
19.881
  0
LINE
  8
0
 10
4.684
 11
4.743
 20
19.881
 21
19.863
  0
LINE
  8
0
 10
4.743
 11
4.81
 20
19.863
 21
19.842
  0
LINE
  8
0
 10
4.81
 11
5.056
 20
19.842
 21
19.766
  0
LINE
  8
0
 10
5.056
 11
5.151
 20
19.766
 21
19.733
  0
LINE
  8
0
 10
5.151
 11
5.268
 20
19.733
 21
19.693
  0
LINE
  8
0
 10
5.268
 11
5.297
 20
19.693
 21
19.683
  0
LINE
  8
0
 10
5.297
 11
5.54
 20
19.683
 21
19.6
  0
LINE
  8
0
 10
5.54
 11
5.57
 20
19.6
 21
19.589
  0
LINE
  8
0
 10
5.57
 11
5.628
 20
19.589
 21
19.567
  0
LINE
  8
0
 10
5.628
 11
5.779
 20
19.567
 21
19.51
  0
LINE
  8
0
 10
5.779
 11
6.02
 20
19.51
 21
19.42
  0
LINE
  8
0
 10
6.02
 11
6.025
 20
19.42
 21
19.417
  0
LINE
  8
0
 10
6.025
 11
6.144
 20
19.417
 21
19.368
  0
LINE
  8
0
 10
6.144
 11
6.203
 20
19.368
 21
19.343
  0
LINE
  8
0
 10
6.203
 11
6.231
 20
19.343
 21
19.332
  0
LINE
  8
0
 10
6.231
 11
6.256
 20
19.332
 21
19.322
  0
LINE
  8
0
 10
6.256
 11
6.494
 20
19.322
 21
19.224
  0
LINE
  8
0
 10
6.494
 11
6.496
 20
19.224
 21
19.223
  0
LINE
  8
0
 10
6.496
 11
6.647
 20
19.223
 21
19.154
  0
LINE
  8
0
 10
6.647
 11
6.726
 20
19.154
 21
19.118
  0
LINE
  8
0
 10
6.726
 11
6.96
 20
19.118
 21
19.012
  0
LINE
  8
0
 10
6.96
 11
7
 20
19.012
 21
18.992
  0
LINE
  8
0
 10
7
 11
7.061
 20
18.992
 21
18.963
  0
LINE
  8
0
 10
7.061
 11
7.085
 20
18.963
 21
18.951
  0
LINE
  8
0
 10
7.085
 11
7.108
 20
18.951
 21
18.94
  0
LINE
  8
0
 10
7.108
 11
7.189
 20
18.94
 21
18.9
  0
LINE
  8
0
 10
7.189
 11
7.42
 20
18.9
 21
18.788
  0
LINE
  8
0
 10
7.42
 11
7.482
 20
18.788
 21
18.755
  0
LINE
  8
0
 10
7.482
 11
7.603
 20
18.755
 21
18.69
  0
LINE
  8
0
 10
7.603
 11
7.646
 20
18.69
 21
18.668
  0
LINE
  8
0
 10
7.646
 11
7.874
 20
18.668
 21
18.548
  0
LINE
  8
0
 10
7.874
 11
7.893
 20
18.548
 21
18.537
  0
LINE
  8
0
 10
7.893
 11
7.912
 20
18.537
 21
18.525
  0
LINE
  8
0
 10
7.912
 11
7.929
 20
18.525
 21
18.516
  0
LINE
  8
0
 10
7.929
 11
7.942
 20
18.516
 21
18.508
  0
LINE
  8
0
 10
7.942
 11
7.951
 20
18.508
 21
18.503
  0
LINE
  8
0
 10
7.951
 11
7.96
 20
18.503
 21
18.498
  0
LINE
  8
0
 10
7.96
 11
8.095
 20
18.498
 21
18.421
  0
LINE
  8
0
 10
8.095
 11
8.318
 20
18.421
 21
18.294
  0
LINE
  8
0
 10
8.318
 11
8.402
 20
18.294
 21
18.242
  0
LINE
  8
0
 10
8.402
 11
8.484
 20
18.242
 21
18.192
  0
LINE
  8
0
 10
8.484
 11
8.536
 20
18.192
 21
18.16
  0
LINE
  8
0
 10
8.536
 11
8.756
 20
18.16
 21
18.026
  0
LINE
  8
0
 10
8.756
 11
8.772
 20
18.026
 21
18.015
  0
LINE
  8
0
 10
8.772
 11
8.969
 20
18.015
 21
17.885
  0
LINE
  8
0
 10
8.969
 11
9.184
 20
17.885
 21
17.744
  0
LINE
  8
0
 10
9.184
 11
9.199
 20
17.744
 21
17.733
  0
LINE
  8
0
 10
9.199
 11
9.283
 20
17.733
 21
17.674
  0
LINE
  8
0
 10
9.283
 11
9.366
 20
17.674
 21
17.615
  0
LINE
  8
0
 10
9.366
 11
9.393
 20
17.615
 21
17.597
  0
LINE
  8
0
 10
9.393
 11
9.604
 20
17.597
 21
17.45
  0
LINE
  8
0
 10
9.604
 11
9.78
 20
17.45
 21
17.316
  0
LINE
  8
0
 10
9.78
 11
9.808
 20
17.316
 21
17.296
  0
LINE
  8
0
 10
9.808
 11
10.014
 20
17.296
 21
17.142
  0
LINE
  8
0
 10
10.014
 11
10.072
 20
17.142
 21
17.095
  0
LINE
  8
0
 10
10.072
 11
10.158
 20
17.095
 21
17.026
  0
LINE
  8
0
 10
10.158
 11
10.213
 20
17.026
 21
16.981
  0
LINE
  8
0
 10
10.213
 11
10.414
 20
16.981
 21
16.82
  0
LINE
  8
0
 10
10.414
 11
10.553
 20
16.82
 21
16.701
  0
LINE
  8
0
 10
10.553
 11
10.608
 20
16.701
 21
16.655
  0
LINE
  8
0
 10
10.608
 11
10.804
 20
16.655
 21
16.488
  0
LINE
  8
0
 10
10.804
 11
10.835
 20
16.488
 21
16.459
  0
LINE
  8
0
 10
10.835
 11
10.924
 20
16.459
 21
16.379
  0
LINE
  8
0
 10
10.924
 11
10.992
 20
16.379
 21
16.317
  0
LINE
  8
0
 10
10.992
 11
11.182
 20
16.317
 21
16.144
  0
LINE
  8
0
 10
11.182
 11
11.297
 20
16.144
 21
16.032
  0
LINE
  8
0
 10
11.297
 11
11.365
 20
16.032
 21
15.966
  0
LINE
  8
0
 10
11.365
 11
11.55
 20
15.966
 21
15.786
  0
LINE
  8
0
 10
11.55
 11
11.73
 20
15.786
 21
15.601
  0
LINE
  8
0
 10
11.73
 11
11.75
 20
15.601
 21
15.58
  0
LINE
  8
0
 10
11.75
 11
11.841
 20
15.58
 21
15.487
  0
LINE
  8
0
 10
11.841
 11
11.908
 20
15.487
 21
15.418
  0
LINE
  8
0
 10
11.908
 11
12.081
 20
15.418
 21
15.228
  0
LINE
  8
0
 10
12.081
 11
12.186
 20
15.228
 21
15.112
  0
LINE
  8
0
 10
12.186
 11
12.252
 20
15.112
 21
15.04
  0
LINE
  8
0
 10
12.252
 11
12.42
 20
15.04
 21
14.844
  0
LINE
  8
0
 10
12.42
 11
12.446
 20
14.844
 21
14.813
  0
LINE
  8
0
 10
12.446
 11
12.54
 20
14.813
 21
14.703
  0
LINE
  8
0
 10
12.54
 11
12.586
 20
14.703
 21
14.65
  0
LINE
  8
0
 10
12.586
 11
12.746
 20
14.65
 21
14.449
  0
LINE
  8
0
 10
12.746
 11
12.86
 20
14.449
 21
14.307
  0
LINE
  8
0
 10
12.86
 11
12.906
 20
14.307
 21
14.25
  0
LINE
  8
0
 10
12.906
 11
13.06
 20
14.25
 21
14.044
  0
LINE
  8
0
 10
13.06
 11
13.109
 20
14.044
 21
13.978
  0
LINE
  8
0
 10
13.109
 11
13.207
 20
13.978
 21
13.848
  0
LINE
  8
0
 10
13.207
 11
13.214
 20
13.848
 21
13.84
  0
LINE
  8
0
 10
13.214
 11
13.361
 20
13.84
 21
13.629
  0
LINE
  8
0
 10
13.361
 11
13.5
 20
13.629
 21
13.431
  0
LINE
  8
0
 10
13.5
 11
13.508
 20
13.431
 21
13.42
  0
LINE
  8
0
 10
13.508
 11
13.649
 20
13.42
 21
13.205
  0
LINE
  8
0
 10
13.649
 11
13.74
 20
13.205
 21
13.067
  0
LINE
  8
0
 10
13.74
 11
13.79
 20
13.067
 21
12.992
  0
LINE
  8
0
 10
13.79
 11
13.924
 20
12.992
 21
12.772
  0
LINE
  8
0
 10
13.924
 11
13.976
 20
12.772
 21
12.687
  0
LINE
  8
0
 10
13.976
 11
14.058
 20
12.687
 21
12.554
  0
LINE
  8
0
 10
14.058
 11
14.185
 20
12.554
 21
12.331
  0
LINE
  8
0
 10
14.185
 11
14.21
 20
12.331
 21
12.286
  0
LINE
  8
0
 10
14.21
 11
14.312
 20
12.286
 21
12.11
  0
LINE
  8
0
 10
14.312
 11
14.432
 20
12.11
 21
11.882
  0
LINE
  8
0
 10
14.432
 11
14.454
 20
11.882
 21
11.84
  0
LINE
  8
0
 10
14.454
 11
14.552
 20
11.84
 21
11.656
  0
LINE
  8
0
 10
14.552
 11
14.664
 20
11.656
 21
11.425
  0
LINE
  8
0
 10
14.664
 11
14.676
 20
11.425
 21
11.4
  0
LINE
  8
0
 10
14.676
 11
14.776
 20
11.4
 21
11.196
  0
LINE
  8
0
 10
14.776
 11
14.882
 20
11.196
 21
10.961
  0
LINE
  8
0
 10
14.882
 11
14.891
 20
10.961
 21
10.94
  0
LINE
  8
0
 10
14.891
 11
14.988
 20
10.94
 21
10.728
  0
LINE
  8
0
 10
14.988
 11
15.086
 20
10.728
 21
10.491
  0
LINE
  8
0
 10
15.086
 11
15.098
 20
10.491
 21
10.462
  0
LINE
  8
0
 10
15.098
 11
15.184
 20
10.462
 21
10.256
  0
LINE
  8
0
 10
15.184
 11
15.275
 20
10.256
 21
10.015
  0
LINE
  8
0
 10
15.275
 11
15.303
 20
10.015
 21
9.941
  0
LINE
  8
0
 10
15.303
 11
15.366
 20
9.941
 21
9.776
  0
LINE
  8
0
 10
15.366
 11
15.449
 20
9.776
 21
9.532
  0
LINE
  8
0
 10
15.449
 11
15.51
 20
9.532
 21
9.352
  0
LINE
  8
0
 10
15.51
 11
15.532
 20
9.352
 21
9.29
  0
LINE
  8
0
 10
15.532
 11
15.607
 20
9.29
 21
9.044
  0
LINE
  8
0
 10
15.607
 11
15.66
 20
9.044
 21
8.872
  0
LINE
  8
0
 10
15.66
 11
15.682
 20
8.872
 21
8.8
  0
LINE
  8
0
 10
15.682
 11
15.818
 20
8.8
 21
8.306
  0
LINE
  8
0
 10
15.818
 11
15.877
 20
8.306
 21
8.056
  0
LINE
  8
0
 10
15.877
 11
15.914
 20
8.056
 21
7.902
  0
LINE
  8
0
 10
15.914
 11
15.936
 20
7.902
 21
7.808
  0
LINE
  8
0
 10
15.936
 11
15.988
 20
7.808
 21
7.556
  0
LINE
  8
0
 10
15.988
 11
16.018
 20
7.556
 21
7.414
  0
LINE
  8
0
 10
16.018
 11
16.04
 20
7.414
 21
7.306
  0
LINE
  8
0
 10
16.04
 11
16.13
 20
7.306
 21
6.802
  0
LINE
  8
0
 10
16.13
 11
16.202
 20
6.802
 21
6.294
  0
LINE
  8
0
 10
16.202
 11
16.23
 20
6.294
 21
6.038
  0
LINE
  8
0
 10
16.23
 11
16.249
 20
6.038
 21
5.863
  0
LINE
  8
0
 10
16.249
 11
16.258
 20
5.863
 21
5.784
  0
LINE
  8
0
 10
16.258
 11
16.298
 20
5.784
 21
5.274
  0
LINE
  8
0
 10
16.298
 11
16.322
 20
5.274
 21
4.762
  0
LINE
  8
0
 10
16.322
 11
16.328
 20
4.762
 21
4.248
  0
LINE
  8
0
 10
16.328
 11
16.325
 20
4.248
 21
3.991
  0
LINE
  8
0
 10
16.325
 11
16.324
 20
3.991
 21
3.911
  0
LINE
  8
0
 10
16.324
 11
16.322
 20
3.911
 21
3.736
  0
LINE
  8
0
 10
16.322
 11
16.298
 20
3.736
 21
3.224
  0
LINE
  8
0
 10
16.298
 11
16.258
 20
3.224
 21
2.712
  0
LINE
  8
0
 10
16.258
 11
16.23
 20
2.712
 21
2.457
  0
LINE
  8
0
 10
16.23
 11
16.218
 20
2.457
 21
2.349
  0
LINE
  8
0
 10
16.218
 11
16.202
 20
2.349
 21
2.204
  0
LINE
  8
0
 10
16.202
 11
16.166
 20
2.204
 21
1.949
  0
LINE
  8
0
 10
16.166
 11
16.154
 20
1.949
 21
1.868
  0
LINE
  8
0
 10
16.154
 11
16.13
 20
1.868
 21
1.696
  0
LINE
  8
0
 10
16.13
 11
16.04
 20
1.696
 21
1.19
  0
LINE
  8
0
 10
16.04
 11
15.936
 20
1.19
 21
0.69
  0
LINE
  8
0
 10
15.936
 11
15.877
 20
0.69
 21
0.439
  0
LINE
  8
0
 10
15.877
 11
15.855
 20
0.439
 21
0.345
  0
LINE
  8
0
 10
15.855
 11
15.818
 20
0.345
 21
0.19
  0
LINE
  8
0
 10
15.818
 11
15.682
 20
0.19
 21
-0.304
  0
LINE
  8
0
 10
15.682
 11
15.607
 20
-0.304
 21
-0.55
  0
LINE
  8
0
 10
15.607
 11
15.588
 20
-0.55
 21
-0.613
  0
LINE
  8
0
 10
15.588
 11
15.532
 20
-0.613
 21
-0.794
  0
LINE
  8
0
 10
15.532
 11
15.449
 20
-0.794
 21
-1.037
  0
LINE
  8
0
 10
15.449
 11
15.389
 20
-1.037
 21
-1.211
  0
LINE
  8
0
 10
15.389
 11
15.366
 20
-1.211
 21
-1.278
  0
LINE
  8
0
 10
15.366
 11
15.275
 20
-1.278
 21
-1.519
  0
LINE
  8
0
 10
15.275
 11
15.212
 20
-1.519
 21
-1.684
  0
LINE
  8
0
 10
15.212
 11
15.184
 20
-1.684
 21
-1.758
  0
LINE
  8
0
 10
15.184
 11
15.086
 20
-1.758
 21
-1.996
  0
LINE
  8
0
 10
15.086
 11
14.997
 20
-1.996
 21
-2.208
  0
LINE
  8
0
 10
14.997
 11
14.988
 20
-2.208
 21
-2.232
  0
LINE
  8
0
 10
14.988
 11
14.882
 20
-2.232
 21
-2.466
  0
LINE
  8
0
 10
14.882
 11
14.789
 20
-2.466
 21
-2.669
  0
LINE
  8
0
 10
14.789
 11
14.776
 20
-2.669
 21
-2.698
  0
LINE
  8
0
 10
14.776
 11
14.664
 20
-2.698
 21
-2.93
  0
LINE
  8
0
 10
14.664
 11
14.564
 20
-2.93
 21
-3.135
  0
LINE
  8
0
 10
14.564
 11
14.552
 20
-3.135
 21
-3.16
  0
LINE
  8
0
 10
14.552
 11
14.432
 20
-3.16
 21
-3.387
  0
LINE
  8
0
 10
14.432
 11
14.336
 20
-3.387
 21
-3.566
  0
LINE
  8
0
 10
14.336
 11
14.312
 20
-3.566
 21
-3.612
  0
LINE
  8
0
 10
14.312
 11
14.185
 20
-3.612
 21
-3.836
  0
LINE
  8
0
 10
14.185
 11
14.105
 20
-3.836
 21
-3.974
  0
LINE
  8
0
 10
14.105
 11
14.058
 20
-3.974
 21
-4.058
  0
LINE
  8
0
 10
14.058
 11
13.924
 20
-4.058
 21
-4.277
  0
LINE
  8
0
 10
13.924
 11
13.842
 20
-4.277
 21
-4.409
  0
LINE
  8
0
 10
13.842
 11
13.79
 20
-4.409
 21
-4.494
  0
LINE
  8
0
 10
13.79
 11
13.649
 20
-4.494
 21
-4.71
  0
LINE
  8
0
 10
13.649
 11
13.597
 20
-4.71
 21
-4.788
  0
LINE
  8
0
 10
13.597
 11
13.508
 20
-4.788
 21
-4.924
  0
LINE
  8
0
 10
13.508
 11
13.361
 20
-4.924
 21
-5.134
  0
LINE
  8
0
 10
13.361
 11
13.309
 20
-5.134
 21
-5.207
  0
LINE
  8
0
 10
13.309
 11
13.214
 20
-5.207
 21
-5.342
  0
LINE
  8
0
 10
13.214
 11
13.06
 20
-5.342
 21
-5.548
  0
LINE
  8
0
 10
13.06
 11
13.053
 20
-5.548
 21
-5.557
  0
LINE
  8
0
 10
13.053
 11
12.954
 20
-5.557
 21
-5.688
  0
LINE
  8
0
 10
12.954
 11
12.906
 20
-5.688
 21
-5.752
  0
LINE
  8
0
 10
12.906
 11
12.746
 20
-5.752
 21
-5.953
  0
LINE
  8
0
 10
12.746
 11
12.637
 20
-5.953
 21
-6.088
  0
LINE
  8
0
 10
12.637
 11
12.586
 20
-6.088
 21
-6.152
  0
LINE
  8
0
 10
12.586
 11
12.418
 20
-6.152
 21
-6.348
  0
LINE
  8
0
 10
12.418
 11
12.373
 20
-6.348
 21
-6.401
  0
LINE
  8
0
 10
12.373
 11
12.277
 20
-6.401
 21
-6.513
  0
LINE
  8
0
 10
12.277
 11
12.252
 20
-6.513
 21
-6.542
  0
LINE
  8
0
 10
12.252
 11
12.079
 20
-6.542
 21
-6.733
  0
LINE
  8
0
 10
12.079
 11
11.935
 20
-6.733
 21
-6.892
  0
LINE
  8
0
 10
11.935
 11
11.908
 20
-6.892
 21
-6.922
  0
LINE
  8
0
 10
11.908
 11
11.728
 20
-6.922
 21
-7.107
  0
LINE
  8
0
 10
11.728
 11
11.662
 20
-7.107
 21
-7.175
  0
LINE
  8
0
 10
11.662
 11
11.57
 20
-7.175
 21
-7.27
  0
LINE
  8
0
 10
11.57
 11
11.55
 20
-7.27
 21
-7.29
  0
LINE
  8
0
 10
11.55
 11
11.388
 20
-7.29
 21
-7.447
  0
LINE
  8
0
 10
11.388
 11
11.367
 20
-7.447
 21
-7.467
  0
LINE
  8
0
 10
11.367
 11
11.182
 20
-7.467
 21
-7.646
  0
LINE
  8
0
 10
11.182
 11
11.113
 20
-7.646
 21
-7.71
  0
LINE
  8
0
 10
11.113
 11
11.023
 20
-7.71
 21
-7.791
  0
LINE
  8
0
 10
11.023
 11
10.994
 20
-7.791
 21
-7.818
  0
LINE
  8
0
 10
10.994
 11
10.804
 20
-7.818
 21
-7.992
  0
LINE
  8
0
 10
10.804
 11
10.641
 20
-7.992
 21
-8.13
  0
LINE
  8
0
 10
10.641
 11
10.61
 20
-8.13
 21
-8.158
  0
LINE
  8
0
 10
10.61
 11
10.414
 20
-8.158
 21
-8.324
  0
LINE
  8
0
 10
10.414
 11
10.358
 20
-8.324
 21
-8.369
  0
LINE
  8
0
 10
10.358
 11
10.27
 20
-8.369
 21
-8.439
  0
LINE
  8
0
 10
10.27
 11
10.215
 20
-8.439
 21
-8.484
  0
LINE
  8
0
 10
10.215
 11
10.014
 20
-8.484
 21
-8.644
  0
LINE
  8
0
 10
10.014
 11
9.868
 20
-8.644
 21
-8.754
  0
LINE
  8
0
 10
9.868
 11
9.81
 20
-8.754
 21
-8.798
  0
LINE
  8
0
 10
9.81
 11
9.604
 20
-8.798
 21
-8.952
  0
LINE
  8
0
 10
9.604
 11
9.577
 20
-8.952
 21
-8.971
  0
LINE
  8
0
 10
9.577
 11
9.492
 20
-8.971
 21
-9.031
  0
LINE
  8
0
 10
9.492
 11
9.395
 20
-9.031
 21
-9.099
  0
LINE
  8
0
 10
9.395
 11
9.184
 20
-9.099
 21
-9.246
  0
LINE
  8
0
 10
9.184
 11
9.07
 20
-9.246
 21
-9.321
  0
LINE
  8
0
 10
9.07
 11
8.987
 20
-9.321
 21
-9.377
  0
LINE
  8
0
 10
8.987
 11
8.971
 20
-9.377
 21
-9.387
  0
LINE
  8
0
 10
8.971
 11
8.756
 20
-9.387
 21
-9.528
  0
LINE
  8
0
 10
8.756
 11
8.703
 20
-9.528
 21
-9.561
  0
LINE
  8
0
 10
8.703
 11
8.538
 20
-9.561
 21
-9.662
  0
LINE
  8
0
 10
8.538
 11
8.318
 20
-9.662
 21
-9.796
  0
LINE
  8
0
 10
8.318
 11
8.302
 20
-9.796
 21
-9.806
  0
LINE
  8
0
 10
8.302
 11
8.219
 20
-9.806
 21
-9.853
  0
LINE
  8
0
 10
8.219
 11
8.187
 20
-9.853
 21
-9.871
  0
LINE
  8
0
 10
8.187
 11
8.171
 20
-9.871
 21
-9.881
  0
LINE
  8
0
 10
8.171
 11
8.165
 20
-9.881
 21
-9.884
  0
LINE
  8
0
 10
8.165
 11
8.153
 20
-9.884
 21
-9.891
  0
LINE
  8
0
 10
8.153
 11
8.13
 20
-9.891
 21
-9.904
  0
LINE
  8
0
 10
8.13
 11
8.122
 20
-9.904
 21
-9.909
  0
LINE
  8
0
 10
8.122
 11
8.105
 20
-9.909
 21
-9.919
  0
LINE
  8
0
 10
8.105
 11
8.097
 20
-9.919
 21
-9.923
  0
LINE
  8
0
 10
8.097
 11
7.874
 20
-9.923
 21
-10.05
  0
LINE
  8
0
 10
7.874
 11
7.851
 20
-10.05
 21
-10.063
  0
LINE
  8
0
 10
7.851
 11
7.84
 20
-10.063
 21
-10.068
  0
LINE
  8
0
 10
7.84
 11
7.819
 20
-10.068
 21
-10.079
  0
LINE
  8
0
 10
7.819
 11
7.781
 20
-10.079
 21
-10.099
  0
LINE
  8
0
 10
7.781
 11
7.769
 20
-10.099
 21
-10.106
  0
LINE
  8
0
 10
7.769
 11
7.744
 20
-10.106
 21
-10.119
  0
LINE
  8
0
 10
7.744
 11
7.706
 20
-10.119
 21
-10.14
  0
LINE
  8
0
 10
7.706
 11
7.648
 20
-10.14
 21
-10.17
  0
LINE
  8
0
 10
7.648
 11
7.42
 20
-10.17
 21
-10.29
  0
LINE
  8
0
 10
7.42
 11
7.361
 20
-10.29
 21
-10.319
  0
LINE
  8
0
 10
7.361
 11
7.318
 20
-10.319
 21
-10.34
  0
LINE
  8
0
 10
7.318
 11
7.303
 20
-10.34
 21
-10.347
  0
LINE
  8
0
 10
7.303
 11
7.274
 20
-10.347
 21
-10.362
  0
LINE
  8
0
 10
7.274
 11
7.227
 20
-10.362
 21
-10.385
  0
LINE
  8
0
 10
7.227
 11
7.21
 20
-10.385
 21
-10.394
  0
LINE
  8
0
 10
7.21
 11
7.191
 20
-10.394
 21
-10.403
  0
LINE
  8
0
 10
7.191
 11
6.96
 20
-10.403
 21
-10.516
  0
LINE
  8
0
 10
6.96
 11
6.947
 20
-10.516
 21
-10.522
  0
LINE
  8
0
 10
6.947
 11
6.906
 20
-10.522
 21
-10.54
  0
LINE
  8
0
 10
6.906
 11
6.791
 20
-10.54
 21
-10.593
  0
LINE
  8
0
 10
6.791
 11
6.74
 20
-10.593
 21
-10.616
  0
LINE
  8
0
 10
6.74
 11
6.728
 20
-10.616
 21
-10.621
  0
LINE
  8
0
 10
6.728
 11
6.494
 20
-10.621
 21
-10.726
  0
LINE
  8
0
 10
6.494
 11
6.488
 20
-10.726
 21
-10.729
  0
LINE
  8
0
 10
6.488
 11
6.452
 20
-10.729
 21
-10.744
  0
LINE
  8
0
 10
6.452
 11
6.398
 20
-10.744
 21
-10.766
  0
LINE
  8
0
 10
6.398
 11
6.378
 20
-10.766
 21
-10.774
  0
LINE
  8
0
 10
6.378
 11
6.34
 20
-10.774
 21
-10.79
  0
LINE
  8
0
 10
6.34
 11
6.299
 20
-10.79
 21
-10.807
  0
LINE
  8
0
 10
6.299
 11
6.258
 20
-10.807
 21
-10.824
  0
LINE
  8
0
 10
6.258
 11
6.02
 20
-10.824
 21
-10.922
  0
LINE
  8
0
 10
6.02
 11
5.832
 20
-10.922
 21
-10.993
  0
LINE
  8
0
 10
5.832
 11
5.76
 20
-10.993
 21
-11.021
  0
LINE
  8
0
 10
5.76
 11
5.705
 20
-11.021
 21
-11.042
  0
LINE
  8
0
 10
5.705
 11
5.684
 20
-11.042
 21
-11.05
  0
LINE
  8
0
 10
5.684
 11
5.646
 20
-11.05
 21
-11.064
  0
LINE
  8
0
 10
5.646
 11
5.191
 20
-11.064
 21
-9.829
  0
LINE
  8
0
 10
5.191
 11
5.188
 20
-9.829
 21
-9.821
  0
LINE
  8
0
 10
5.188
 11
5.131
 20
-9.821
 21
-9.667
  0
LINE
  8
0
 10
5.131
 11
5.11
 20
-9.667
 21
-9.611
  0
LINE
  8
0
 10
5.11
 11
5.071
 20
-9.611
 21
-9.506
  0
LINE
  8
0
 10
5.071
 11
5.034
 20
-9.506
 21
-9.406
  0
LINE
  8
0
 10
5.034
 11
4.909
 20
-9.406
 21
-9.069
  0
LINE
  8
0
 10
4.909
 11
4.876
 20
-9.069
 21
-8.976
  0
LINE
  8
0
 10
4.876
 11
4.738
 20
-8.976
 21
-8.602
  0
LINE
  8
0
 10
4.738
 11
4.879
 20
-8.602
 21
-8.549
  0
LINE
  8
0
 10
4.879
 11
4.896
 20
-8.549
 21
-8.542
  0
LINE
  8
0
 10
4.896
 11
5.054
 20
-8.542
 21
-8.482
  0
LINE
  8
0
 10
5.054
 11
5.254
 20
-8.482
 21
-8.4
  0
LINE
  8
0
 10
5.254
 11
5.265
 20
-8.4
 21
-8.396
  0
LINE
  8
0
 10
5.265
 11
5.409
 20
-8.396
 21
-8.336
  0
LINE
  8
0
 10
5.409
 11
5.436
 20
-8.336
 21
-8.325
  0
LINE
  8
0
 10
5.436
 11
5.452
 20
-8.325
 21
-8.318
  0
LINE
  8
0
 10
5.452
 11
5.649
 20
-8.318
 21
-8.23
  0
LINE
  8
0
 10
5.649
 11
5.659
 20
-8.23
 21
-8.226
  0
LINE
  8
0
 10
5.659
 11
5.672
 20
-8.226
 21
-8.22
  0
LINE
  8
0
 10
5.672
 11
5.743
 20
-8.22
 21
-8.187
  0
LINE
  8
0
 10
5.743
 11
5.768
 20
-8.187
 21
-8.176
  0
LINE
  8
0
 10
5.768
 11
5.78
 20
-8.176
 21
-8.17
  0
LINE
  8
0
 10
5.78
 11
5.844
 20
-8.17
 21
-8.142
  0
LINE
  8
0
 10
5.844
 11
6.038
 20
-8.142
 21
-8.047
  0
LINE
  8
0
 10
6.038
 11
6.045
 20
-8.047
 21
-8.043
  0
LINE
  8
0
 10
6.045
 11
6.193
 20
-8.043
 21
-7.97
  0
LINE
  8
0
 10
6.193
 11
6.217
 20
-7.97
 21
-7.958
  0
LINE
  8
0
 10
6.217
 11
6.23
 20
-7.958
 21
-7.952
  0
LINE
  8
0
 10
6.23
 11
6.421
 20
-7.952
 21
-7.851
  0
LINE
  8
0
 10
6.421
 11
6.431
 20
-7.851
 21
-7.846
  0
LINE
  8
0
 10
6.431
 11
6.442
 20
-7.846
 21
-7.84
  0
LINE
  8
0
 10
6.442
 11
6.511
 20
-7.84
 21
-7.803
  0
LINE
  8
0
 10
6.511
 11
6.532
 20
-7.803
 21
-7.791
  0
LINE
  8
0
 10
6.532
 11
6.543
 20
-7.791
 21
-7.786
  0
LINE
  8
0
 10
6.543
 11
6.61
 20
-7.786
 21
-7.75
  0
LINE
  8
0
 10
6.61
 11
6.798
 20
-7.75
 21
-7.644
  0
LINE
  8
0
 10
6.798
 11
6.948
 20
-7.644
 21
-7.558
  0
LINE
  8
0
 10
6.948
 11
6.97
 20
-7.558
 21
-7.546
  0
LINE
  8
0
 10
6.97
 11
6.984
 20
-7.546
 21
-7.538
  0
LINE
  8
0
 10
6.984
 11
7.168
 20
-7.538
 21
-7.425
  0
LINE
  8
0
 10
7.168
 11
7.172
 20
-7.425
 21
-7.422
  0
LINE
  8
0
 10
7.172
 11
7.181
 20
-7.422
 21
-7.416
  0
LINE
  8
0
 10
7.181
 11
7.243
 20
-7.416
 21
-7.378
  0
LINE
  8
0
 10
7.243
 11
7.26
 20
-7.378
 21
-7.368
  0
LINE
  8
0
 10
7.26
 11
7.268
 20
-7.368
 21
-7.363
  0
LINE
  8
0
 10
7.268
 11
7.324
 20
-7.363
 21
-7.328
  0
LINE
  8
0
 10
7.324
 11
7.35
 20
-7.328
 21
-7.312
  0
LINE
  8
0
 10
7.35
 11
7.531
 20
-7.312
 21
-7.194
  0
LINE
  8
0
 10
7.531
 11
7.657
 20
-7.194
 21
-7.111
  0
LINE
  8
0
 10
7.657
 11
7.678
 20
-7.111
 21
-7.097
  0
LINE
  8
0
 10
7.678
 11
7.691
 20
-7.097
 21
-7.089
  0
LINE
  8
0
 10
7.691
 11
7.698
 20
-7.089
 21
-7.084
  0
LINE
  8
0
 10
7.698
 11
7.71
 20
-7.084
 21
-7.076
  0
LINE
  8
0
 10
7.71
 11
7.887
 20
-7.076
 21
-6.953
  0
LINE
  8
0
 10
7.887
 11
7.923
 20
-6.953
 21
-6.927
  0
LINE
  8
0
 10
7.923
 11
7.934
 20
-6.927
 21
-6.919
  0
LINE
  8
0
 10
7.934
 11
7.94
 20
-6.919
 21
-6.915
  0
LINE
  8
0
 10
7.94
 11
7.981
 20
-6.915
 21
-6.886
  0
LINE
  8
0
 10
7.981
 11
7.99
 20
-6.886
 21
-6.88
  0
LINE
  8
0
 10
7.99
 11
7.994
 20
-6.88
 21
-6.877
  0
LINE
  8
0
 10
7.994
 11
8.026
 20
-6.877
 21
-6.855
  0
LINE
  8
0
 10
8.026
 11
8.033
 20
-6.855
 21
-6.85
  0
LINE
  8
0
 10
8.033
 11
8.036
 20
-6.85
 21
-6.848
  0
LINE
  8
0
 10
8.036
 11
8.057
 20
-6.848
 21
-6.833
  0
LINE
  8
0
 10
8.057
 11
8.062
 20
-6.833
 21
-6.83
  0
LINE
  8
0
 10
8.062
 11
8.235
 20
-6.83
 21
-6.701
  0
LINE
  8
0
 10
8.235
 11
8.239
 20
-6.701
 21
-6.697
  0
LINE
  8
0
 10
8.239
 11
8.367
 20
-6.697
 21
-6.601
  0
LINE
  8
0
 10
8.367
 11
8.406
 20
-6.601
 21
-6.572
  0
LINE
  8
0
 10
8.406
 11
8.575
 20
-6.572
 21
-6.437
  0
LINE
  8
0
 10
8.575
 11
8.675
 20
-6.437
 21
-6.356
  0
LINE
  8
0
 10
8.675
 11
8.742
 20
-6.356
 21
-6.302
  0
LINE
  8
0
 10
8.742
 11
8.905
 20
-6.302
 21
-6.162
  0
LINE
  8
0
 10
8.905
 11
8.928
 20
-6.162
 21
-6.142
  0
LINE
  8
0
 10
8.928
 11
9.038
 20
-6.142
 21
-6.048
  0
LINE
  8
0
 10
9.038
 11
9.068
 20
-6.048
 21
-6.022
  0
LINE
  8
0
 10
9.068
 11
9.227
 20
-6.022
 21
-5.878
  0
LINE
  8
0
 10
9.227
 11
9.356
 20
-5.878
 21
-5.761
  0
LINE
  8
0
 10
9.356
 11
9.386
 20
-5.761
 21
-5.734
  0
LINE
  8
0
 10
9.386
 11
9.541
 20
-5.734
 21
-5.584
  0
LINE
  8
0
 10
9.541
 11
9.623
 20
-5.584
 21
-5.504
  0
LINE
  8
0
 10
9.623
 11
9.696
 20
-5.504
 21
-5.434
  0
LINE
  8
0
 10
9.696
 11
9.845
 20
-5.434
 21
-5.28
  0
LINE
  8
0
 10
9.845
 11
9.886
 20
-5.28
 21
-5.237
  0
LINE
  8
0
 10
9.886
 11
9.994
 20
-5.237
 21
-5.126
  0
LINE
  8
0
 10
9.994
 11
10.139
 20
-5.126
 21
-4.966
  0
LINE
  8
0
 10
10.139
 11
10.177
 20
-4.966
 21
-4.924
  0
LINE
  8
0
 10
10.177
 11
10.284
 20
-4.924
 21
-4.806
  0
LINE
  8
0
 10
10.284
 11
10.424
 20
-4.806
 21
-4.643
  0
LINE
  8
0
 10
10.424
 11
10.433
 20
-4.643
 21
-4.634
  0
LINE
  8
0
 10
10.433
 11
10.55
 20
-4.634
 21
-4.495
  0
LINE
  8
0
 10
10.55
 11
10.564
 20
-4.495
 21
-4.48
  0
LINE
  8
0
 10
10.564
 11
10.698
 20
-4.48
 21
-4.311
  0
LINE
  8
0
 10
10.698
 11
10.818
 20
-4.311
 21
-4.162
  0
LINE
  8
0
 10
10.818
 11
10.832
 20
-4.162
 21
-4.144
  0
LINE
  8
0
 10
10.832
 11
10.961
 20
-4.144
 21
-3.971
  0
LINE
  8
0
 10
10.961
 11
11.067
 20
-3.971
 21
-3.832
  0
LINE
  8
0
 10
11.067
 11
11.09
 20
-3.832
 21
-3.8
  0
LINE
  8
0
 10
11.09
 11
11.214
 20
-3.8
 21
-3.623
  0
LINE
  8
0
 10
11.214
 11
11.314
 20
-3.623
 21
-3.483
  0
LINE
  8
0
 10
11.314
 11
11.338
 20
-3.483
 21
-3.448
  0
LINE
  8
0
 10
11.338
 11
11.456
 20
-3.448
 21
-3.267
  0
LINE
  8
0
 10
11.456
 11
11.549
 20
-3.267
 21
-3.126
  0
LINE
  8
0
 10
11.549
 11
11.574
 20
-3.126
 21
-3.088
  0
LINE
  8
0
 10
11.574
 11
11.687
 20
-3.088
 21
-2.904
  0
LINE
  8
0
 10
11.687
 11
11.787
 20
-2.904
 21
-2.742
  0
LINE
  8
0
 10
11.787
 11
11.8
 20
-2.742
 21
-2.722
  0
LINE
  8
0
 10
11.8
 11
12.012
 20
-2.722
 21
-2.348
  0
LINE
  8
0
 10
12.012
 11
12.113
 20
-2.348
 21
-2.157
  0
LINE
  8
0
 10
12.113
 11
12.124
 20
-2.157
 21
-2.137
  0
LINE
  8
0
 10
12.124
 11
12.214
 20
-2.137
 21
-1.968
  0
LINE
  8
0
 10
12.214
 11
12.308
 20
-1.968
 21
-1.774
  0
LINE
  8
0
 10
12.308
 11
12.316
 20
-1.774
 21
-1.758
  0
LINE
  8
0
 10
12.316
 11
12.402
 20
-1.758
 21
-1.582
  0
LINE
  8
0
 10
12.402
 11
12.491
 20
-1.582
 21
-1.385
  0
LINE
  8
0
 10
12.491
 11
12.537
 20
-1.385
 21
-1.285
  0
LINE
  8
0
 10
12.537
 11
12.58
 20
-1.285
 21
-1.19
  0
LINE
  8
0
 10
12.58
 11
12.744
 20
-1.19
 21
-0.792
  0
LINE
  8
0
 10
12.744
 11
12.82
 20
-0.792
 21
-0.59
  0
LINE
  8
0
 10
12.82
 11
12.834
 20
-0.59
 21
-0.554
  0
LINE
  8
0
 10
12.834
 11
12.896
 20
-0.554
 21
-0.39
  0
LINE
  8
0
 10
12.896
 11
12.966
 20
-0.39
 21
-0.185
  0
LINE
  8
0
 10
12.966
 11
12.976
 20
-0.185
 21
-0.154
  0
LINE
  8
0
 10
12.976
 11
13.036
 20
-0.154
 21
0.018
  0
LINE
  8
0
 10
13.036
 11
13.162
 20
0.018
 21
0.428
  0
LINE
  8
0
 10
13.162
 11
13.219
 20
0.428
 21
0.637
  0
LINE
  8
0
 10
13.219
 11
13.238
 20
0.637
 21
0.706
  0
LINE
  8
0
 10
13.238
 11
13.276
 20
0.706
 21
0.844
  0
LINE
  8
0
 10
13.276
 11
13.376
 20
0.844
 21
1.262
  0
LINE
  8
0
 10
13.376
 11
13.464
 20
1.262
 21
1.682
  0
LINE
  8
0
 10
13.464
 11
13.501
 20
1.682
 21
1.895
  0
LINE
  8
0
 10
13.501
 11
13.526
 20
1.895
 21
2.042
  0
LINE
  8
0
 10
13.526
 11
13.538
 20
2.042
 21
2.106
  0
LINE
  8
0
 10
13.538
 11
13.568
 20
2.106
 21
2.32
  0
LINE
  8
0
 10
13.568
 11
13.586
 20
2.32
 21
2.449
  0
LINE
  8
0
 10
13.586
 11
13.598
 20
2.449
 21
2.532
  0
LINE
  8
0
 10
13.598
 11
13.646
 20
2.532
 21
2.96
  0
LINE
  8
0
 10
13.646
 11
13.678
 20
2.96
 21
3.388
  0
LINE
  8
0
 10
13.678
 11
13.7
 20
3.388
 21
3.818
  0
LINE
  8
0
 10
13.7
 11
13.703
 20
3.818
 21
4.034
  0
LINE
  8
0
 10
13.703
 11
13.705
 20
4.034
 21
4.189
  0
LINE
  8
0
 10
13.705
 11
13.706
 20
4.189
 21
4.248
  0
LINE
  8
0
 10
13.706
 11
13.7
 20
4.248
 21
4.678
  0
LINE
  8
0
 10
13.7
 11
13.678
 20
4.678
 21
5.108
  0
LINE
  8
0
 10
13.678
 11
13.646
 20
5.108
 21
5.538
  0
LINE
  8
0
 10
13.646
 11
13.598
 20
5.538
 21
5.964
  0
LINE
  8
0
 10
13.598
 11
13.568
 20
5.964
 21
6.178
  0
LINE
  8
0
 10
13.568
 11
13.559
 20
6.178
 21
6.24
  0
LINE
  8
0
 10
13.559
 11
13.538
 20
6.24
 21
6.39
  0
LINE
  8
0
 10
13.538
 11
13.464
 20
6.39
 21
6.814
  0
LINE
  8
0
 10
13.464
 11
13.376
 20
6.814
 21
7.236
  0
LINE
  8
0
 10
13.376
 11
13.326
 20
7.236
 21
7.446
  0
LINE
  8
0
 10
13.326
 11
13.29
 20
7.446
 21
7.593
  0
LINE
  8
0
 10
13.29
 11
13.276
 20
7.593
 21
7.654
  0
LINE
  8
0
 10
13.276
 11
13.219
 20
7.654
 21
7.862
  0
LINE
  8
0
 10
13.219
 11
13.181
 20
7.862
 21
7.998
  0
LINE
  8
0
 10
13.181
 11
13.162
 20
7.998
 21
8.068
  0
LINE
  8
0
 10
13.162
 11
13.036
 20
8.068
 21
8.48
  0
LINE
  8
0
 10
13.036
 11
12.966
 20
8.48
 21
8.684
  0
LINE
  8
0
 10
12.966
 11
12.909
 20
8.684
 21
8.848
  0
LINE
  8
0
 10
12.909
 11
12.896
 20
8.848
 21
8.886
  0
LINE
  8
0
 10
12.896
 11
12.744
 20
8.886
 21
9.29
  0
LINE
  8
0
 10
12.744
 11
12.662
 20
9.29
 21
9.489
  0
LINE
  8
0
 10
12.662
 11
12.62
 20
9.489
 21
9.589
  0
LINE
  8
0
 10
12.62
 11
12.58
 20
9.589
 21
9.686
  0
LINE
  8
0
 10
12.58
 11
12.491
 20
9.686
 21
9.883
  0
LINE
  8
0
 10
12.491
 11
12.448
 20
9.883
 21
9.977
  0
LINE
  8
0
 10
12.448
 11
12.402
 20
9.977
 21
10.078
  0
LINE
  8
0
 10
12.402
 11
12.308
 20
10.078
 21
10.272
  0
LINE
  8
0
 10
12.308
 11
12.224
 20
10.272
 21
10.443
  0
LINE
  8
0
 10
12.224
 11
12.214
 20
10.443
 21
10.464
  0
LINE
  8
0
 10
12.214
 11
12.012
 20
10.464
 21
10.846
  0
LINE
  8
0
 10
12.012
 11
11.906
 20
10.846
 21
11.033
  0
LINE
  8
0
 10
11.906
 11
11.892
 20
11.033
 21
11.056
  0
LINE
  8
0
 10
11.892
 11
11.8
 20
11.056
 21
11.218
  0
LINE
  8
0
 10
11.8
 11
11.687
 20
11.218
 21
11.403
  0
LINE
  8
0
 10
11.687
 11
11.674
 20
11.403
 21
11.422
  0
LINE
  8
0
 10
11.674
 11
11.574
 20
11.422
 21
11.586
  0
LINE
  8
0
 10
11.574
 11
11.456
 20
11.586
 21
11.767
  0
LINE
  8
0
 10
11.456
 11
11.433
 20
11.767
 21
11.801
  0
LINE
  8
0
 10
11.433
 11
11.338
 20
11.801
 21
11.946
  0
LINE
  8
0
 10
11.338
 11
11.214
 20
11.946
 21
12.123
  0
LINE
  8
0
 10
11.214
 11
11.189
 20
12.123
 21
12.156
  0
LINE
  8
0
 10
11.189
 11
11.09
 20
12.156
 21
12.298
  0
LINE
  8
0
 10
11.09
 11
10.961
 20
12.298
 21
12.47
  0
LINE
  8
0
 10
10.961
 11
10.938
 20
12.47
 21
12.5
  0
LINE
  8
0
 10
10.938
 11
10.832
 20
12.5
 21
12.64
  0
LINE
  8
0
 10
10.832
 11
10.698
 20
12.64
 21
12.809
  0
LINE
  8
0
 10
10.698
 11
10.685
 20
12.809
 21
12.824
  0
LINE
  8
0
 10
10.685
 11
10.57
 20
12.824
 21
12.967
  0
LINE
  8
0
 10
10.57
 11
10.564
 20
12.967
 21
12.976
  0
LINE
  8
0
 10
10.564
 11
10.424
 20
12.976
 21
13.14
  0
LINE
  8
0
 10
10.424
 11
10.293
 20
13.14
 21
13.294
  0
LINE
  8
0
 10
10.293
 11
10.284
 20
13.294
 21
13.304
  0
LINE
  8
0
 10
10.284
 11
10.139
 20
13.304
 21
13.463
  0
LINE
  8
0
 10
10.139
 11
10.034
 20
13.463
 21
13.578
  0
LINE
  8
0
 10
10.034
 11
9.994
 20
13.578
 21
13.622
  0
LINE
  8
0
 10
9.994
 11
9.845
 20
13.622
 21
13.776
  0
LINE
  8
0
 10
9.845
 11
9.773
 20
13.776
 21
13.85
  0
LINE
  8
0
 10
9.773
 11
9.696
 20
13.85
 21
13.93
  0
LINE
  8
0
 10
9.696
 11
9.541
 20
13.93
 21
14.08
  0
LINE
  8
0
 10
9.541
 11
9.468
 20
14.08
 21
14.15
  0
LINE
  8
0
 10
9.468
 11
9.386
 20
14.15
 21
14.23
  0
LINE
  8
0
 10
9.386
 11
9.227
 20
14.23
 21
14.375
  0
LINE
  8
0
 10
9.227
 11
9.199
 20
14.375
 21
14.401
  0
LINE
  8
0
 10
9.199
 11
9.09
 20
14.401
 21
14.5
  0
LINE
  8
0
 10
9.09
 11
9.068
 20
14.5
 21
14.52
  0
LINE
  8
0
 10
9.068
 11
8.905
 20
14.52
 21
14.66
  0
LINE
  8
0
 10
8.905
 11
8.765
 20
14.66
 21
14.779
  0
LINE
  8
0
 10
8.765
 11
8.742
 20
14.779
 21
14.8
  0
LINE
  8
0
 10
8.742
 11
8.573
 20
14.8
 21
14.934
  0
LINE
  8
0
 10
8.573
 11
8.507
 20
14.934
 21
14.986
  0
LINE
  8
0
 10
8.507
 11
8.406
 20
14.986
 21
15.068
  0
LINE
  8
0
 10
8.406
 11
8.233
 20
15.068
 21
15.197
  0
LINE
  8
0
 10
8.233
 11
8.228
 20
15.197
 21
15.2
  0
LINE
  8
0
 10
8.228
 11
8.062
 20
15.2
 21
15.326
  0
LINE
  8
0
 10
8.062
 11
7.885
 20
15.326
 21
15.45
  0
LINE
  8
0
 10
7.885
 11
7.881
 20
15.45
 21
15.453
  0
LINE
  8
0
 10
7.881
 11
7.871
 20
15.453
 21
15.46
  0
LINE
  8
0
 10
7.871
 11
7.859
 20
15.46
 21
15.469
  0
LINE
  8
0
 10
7.859
 11
7.842
 20
15.469
 21
15.481
  0
LINE
  8
0
 10
7.842
 11
7.82
 20
15.481
 21
15.496
  0
LINE
  8
0
 10
7.82
 11
7.795
 20
15.496
 21
15.514
  0
LINE
  8
0
 10
7.795
 11
7.715
 20
15.514
 21
15.569
  0
LINE
  8
0
 10
7.715
 11
7.71
 20
15.569
 21
15.574
  0
LINE
  8
0
 10
7.71
 11
7.529
 20
15.574
 21
15.692
  0
LINE
  8
0
 10
7.529
 11
7.378
 20
15.692
 21
15.791
  0
LINE
  8
0
 10
7.378
 11
7.35
 20
15.791
 21
15.81
  0
LINE
  8
0
 10
7.35
 11
7.166
 20
15.81
 21
15.922
  0
LINE
  8
0
 10
7.166
 11
7.123
 20
15.922
 21
15.949
  0
LINE
  8
0
 10
7.123
 11
7.093
 20
15.949
 21
15.967
  0
LINE
  8
0
 10
7.093
 11
7.061
 20
15.967
 21
15.986
  0
LINE
  8
0
 10
7.061
 11
6.984
 20
15.986
 21
16.034
  0
LINE
  8
0
 10
6.984
 11
6.796
 20
16.034
 21
16.141
  0
LINE
  8
0
 10
6.796
 11
6.642
 20
16.141
 21
16.229
  0
LINE
  8
0
 10
6.642
 11
6.61
 20
16.229
 21
16.248
  0
LINE
  8
0
 10
6.61
 11
6.419
 20
16.248
 21
16.348
  0
LINE
  8
0
 10
6.419
 11
6.37
 20
16.348
 21
16.374
  0
LINE
  8
0
 10
6.37
 11
6.335
 20
16.374
 21
16.392
  0
LINE
  8
0
 10
6.335
 11
6.299
 20
16.392
 21
16.411
  0
LINE
  8
0
 10
6.299
 11
6.23
 20
16.411
 21
16.448
  0
LINE
  8
0
 10
6.23
 11
6.036
 20
16.448
 21
16.543
  0
LINE
  8
0
 10
6.036
 11
6.028
 20
16.543
 21
16.547
  0
LINE
  8
0
 10
6.028
 11
5.877
 20
16.547
 21
16.621
  0
LINE
  8
0
 10
5.877
 11
5.844
 20
16.621
 21
16.638
  0
LINE
  8
0
 10
5.844
 11
5.647
 20
16.638
 21
16.727
  0
LINE
  8
0
 10
5.647
 11
5.591
 20
16.727
 21
16.752
  0
LINE
  8
0
 10
5.591
 11
5.554
 20
16.752
 21
16.769
  0
LINE
  8
0
 10
5.554
 11
5.517
 20
16.769
 21
16.786
  0
LINE
  8
0
 10
5.517
 11
5.452
 20
16.786
 21
16.816
  0
LINE
  8
0
 10
5.452
 11
5.252
 20
16.816
 21
16.898
  0
LINE
  8
0
 10
5.252
 11
5.241
 20
16.898
 21
16.902
  0
LINE
  8
0
 10
5.241
 11
5.091
 20
16.902
 21
16.964
  0
LINE
  8
0
 10
5.091
 11
5.054
 20
16.964
 21
16.98
  0
LINE
  8
0
 10
5.054
 11
4.852
 20
16.98
 21
17.056
  0
LINE
  8
0
 10
4.852
 11
4.794
 20
17.056
 21
17.077
  0
LINE
  8
0
 10
4.794
 11
4.718
 20
17.077
 21
17.106
  0
LINE
  8
0
 10
4.718
 11
4.652
 20
17.106
 21
17.132
  0
LINE
  8
0
 10
4.652
 11
4.447
 20
17.132
 21
17.202
  0
LINE
  8
0
 10
4.447
 11
4.364
 20
17.202
 21
17.23
  0
LINE
  8
0
 10
4.364
 11
4.264
 20
17.23
 21
17.264
  0
LINE
  8
0
 10
4.264
 11
4.244
 20
17.264
 21
17.272
  0
LINE
  8
0
 10
4.244
 11
4.038
 20
17.272
 21
17.335
  0
LINE
  8
0
 10
4.038
 11
3.984
 20
17.335
 21
17.351
  0
LINE
  8
0
 10
3.984
 11
3.834
 20
17.351
 21
17.398
  0
LINE
  8
0
 10
3.834
 11
3.625
 20
17.398
 21
17.455
  0
LINE
  8
0
 10
3.625
 11
3.522
 20
17.455
 21
17.483
  0
LINE
  8
0
 10
3.522
 11
3.447
 20
17.483
 21
17.504
  0
LINE
  8
0
 10
3.447
 11
3.418
 20
17.504
 21
17.512
  0
LINE
  8
0
 10
3.418
 11
3.208
 20
17.512
 21
17.562
  0
LINE
  8
0
 10
3.208
 11
3.088
 20
17.562
 21
17.59
  0
LINE
  8
0
 10
3.088
 11
3
 20
17.59
 21
17.612
  0
LINE
  8
0
 10
3
 11
2.788
 20
17.612
 21
17.655
  0
LINE
  8
0
 10
2.788
 11
2.771
 20
17.655
 21
17.658
  0
LINE
  8
0
 10
2.771
 11
2.696
 20
17.658
 21
17.674
  0
LINE
  8
0
 10
2.696
 11
2.578
 20
17.674
 21
17.698
  0
LINE
  8
0
 10
2.578
 11
2.365
 20
17.698
 21
17.735
  0
LINE
  8
0
 10
2.365
 11
2.333
 20
17.735
 21
17.741
  0
LINE
  8
0
 10
2.333
 11
2.226
 20
17.741
 21
17.759
  0
LINE
  8
0
 10
2.226
 11
2.154
 20
17.759
 21
17.772
  0
LINE
  8
0
 10
2.154
 11
1.941
 20
17.772
 21
17.803
  0
LINE
  8
0
 10
1.941
 11
1.939
 20
17.803
 21
17.803
  0
LINE
  8
0
 10
1.939
 11
1.79
 20
17.803
 21
17.825
  0
LINE
  8
0
 10
1.79
 11
1.73
 20
17.825
 21
17.834
  0
LINE
  8
0
 10
1.73
 11
1.515
 20
17.834
 21
17.857
  0
LINE
  8
0
 10
1.515
 11
1.466
 20
17.857
 21
17.862
  0
LINE
  8
0
 10
1.466
 11
1.392
 20
17.862
 21
17.87
  0
LINE
  8
0
 10
1.392
 11
1.302
 20
17.87
 21
17.88
  0
LINE
  8
0
 10
1.302
 11
1.086
 20
17.88
 21
17.897
  0
LINE
  8
0
 10
1.086
 11
1.028
 20
17.897
 21
17.902
  0
LINE
  8
0
 10
1.028
 11
0.917
 20
17.902
 21
17.91
  0
LINE
  8
0
 10
0.917
 11
0.872
 20
17.91
 21
17.914
  0
LINE
  8
0
 10
0.872
 11
0.657
 20
17.914
 21
17.924
  0
LINE
  8
0
 10
0.657
 11
0.628
 20
17.924
 21
17.925
  0
LINE
  8
0
 10
0.628
 11
0.48
 20
17.925
 21
17.932
  0
LINE
  8
0
 10
0.48
 11
0.444
 20
17.932
 21
17.934
  0
LINE
  8
0
 10
0.444
 11
0.227
 20
17.934
 21
17.938
  0
LINE
  8
0
 10
0.227
 11
0.152
 20
17.938
 21
17.939
  0
LINE
  8
0
 10
0.152
 11
0.078
 20
17.939
 21
17.94
  0
LINE
  8
0
 10
0.078
 11
0.012
 20
17.94
 21
17.942
  0
LINE
  8
0
 10
0.012
 11
-0.069
 20
17.942
 21
17.94
  0
LINE
  8
0
 10
-0.069
 11
-0.181
 20
17.94
 21
17.938
  0
LINE
  8
0
 10
-0.181
 11
-0.202
 20
17.938
 21
17.938
  0
LINE
  8
0
 10
-0.202
 11
-0.418
 20
17.938
 21
17.934
  0
LINE
  8
0
 10
-0.418
 11
-0.471
 20
17.934
 21
17.932
  0
LINE
  8
0
 10
-0.471
 11
-0.617
 20
17.932
 21
17.925
  0
LINE
  8
0
 10
-0.617
 11
-0.631
 20
17.925
 21
17.924
  0
LINE
  8
0
 10
-0.631
 11
-0.846
 20
17.924
 21
17.914
  0
LINE
  8
0
 10
-0.846
 11
-0.945
 20
17.914
 21
17.906
  0
LINE
  8
0
 10
-0.945
 11
-1.017
 20
17.906
 21
17.9
  0
LINE
  8
0
 10
-1.017
 11
-1.06
 20
17.9
 21
17.897
  0
LINE
  8
0
 10
-1.06
 11
-1.276
 20
17.897
 21
17.88
  0
LINE
  8
0
 10
-1.276
 11
-1.379
 20
17.88
 21
17.869
  0
LINE
  8
0
 10
-1.379
 11
-1.489
 20
17.869
 21
17.857
  0
LINE
  8
0
 10
-1.489
 11
-1.704
 20
17.857
 21
17.834
  0
LINE
  8
0
 10
-1.704
 11
-1.818
 20
17.834
 21
17.817
  0
LINE
  8
0
 10
-1.818
 11
-1.916
 20
17.817
 21
17.803
  0
LINE
  8
0
 10
-1.916
 11
-2.13
 20
17.803
 21
17.772
  0
LINE
  8
0
 10
-2.13
 11
-2.176
 20
17.772
 21
17.764
  0
LINE
  8
0
 10
-2.176
 11
-2.248
 20
17.764
 21
17.751
  0
LINE
  8
0
 10
-2.248
 11
-2.34
 20
17.751
 21
17.735
  0
LINE
  8
0
 10
-2.34
 11
-2.552
 20
17.735
 21
17.698
  0
LINE
  8
0
 10
-2.552
 11
-2.571
 20
17.698
 21
17.694
  0
LINE
  8
0
 10
-2.571
 11
-2.714
 20
17.694
 21
17.665
  0
LINE
  8
0
 10
-2.714
 11
-2.762
 20
17.665
 21
17.655
  0
LINE
  8
0
 10
-2.762
 11
-2.974
 20
17.655
 21
17.612
  0
LINE
  8
0
 10
-2.974
 11
-2.997
 20
17.612
 21
17.606
  0
LINE
  8
0
 10
-2.997
 11
-3.182
 20
17.606
 21
17.562
  0
LINE
  8
0
 10
-3.182
 11
-3.392
 20
17.562
 21
17.512
  0
LINE
  8
0
 10
-3.392
 11
-3.808
 20
17.512
 21
17.398
  0
LINE
  8
0
 10
-3.808
 11
-4.218
 20
17.398
 21
17.272
  0
LINE
  8
0
 10
-4.218
 11
-4.626
 20
17.272
 21
17.132
  0
LINE
  8
0
 10
-4.626
 11
-4.773
 20
17.132
 21
17.076
  0
LINE
  8
0
 10
-4.773
 11
-4.826
 20
17.076
 21
17.056
  0
LINE
  8
0
 10
-4.826
 11
-5.028
 20
17.056
 21
16.98
  0
LINE
  8
0
 10
-5.028
 11
-5.07
 20
16.98
 21
16.962
  0
LINE
  8
0
 10
-5.07
 11
-5.22
 20
16.962
 21
16.9
  0
LINE
  8
0
 10
-5.22
 11
-5.226
 20
16.9
 21
16.898
  0
LINE
  8
0
 10
-5.226
 11
-5.426
 20
16.898
 21
16.816
  0
LINE
  8
0
 10
-5.426
 11
-5.496
 20
16.816
 21
16.784
  0
LINE
  8
0
 10
-5.496
 11
-5.533
 20
16.784
 21
16.767
  0
LINE
  8
0
 10
-5.533
 11
-5.57
 20
16.767
 21
16.751
  0
LINE
  8
0
 10
-5.57
 11
-5.605
 20
16.751
 21
16.734
  0
LINE
  8
0
 10
-5.605
 11
-5.621
 20
16.734
 21
16.727
  0
LINE
  8
0
 10
-5.621
 11
-5.818
 20
16.727
 21
16.638
  0
LINE
  8
0
 10
-5.818
 11
-5.891
 20
16.638
 21
16.602
  0
LINE
  8
0
 10
-5.891
 11
-6.01
 20
16.602
 21
16.543
  0
LINE
  8
0
 10
-6.01
 11
-6.204
 20
16.543
 21
16.448
  0
LINE
  8
0
 10
-6.204
 11
-6.237
 20
16.448
 21
16.431
  0
LINE
  8
0
 10
-6.237
 11
-6.314
 20
16.431
 21
16.39
  0
LINE
  8
0
 10
-6.314
 11
-6.349
 20
16.39
 21
16.372
  0
LINE
  8
0
 10
-6.349
 11
-6.38
 20
16.372
 21
16.354
  0
LINE
  8
0
 10
-6.38
 11
-6.393
 20
16.354
 21
16.348
  0
LINE
  8
0
 10
-6.393
 11
-6.584
 20
16.348
 21
16.248
  0
LINE
  8
0
 10
-6.584
 11
-6.651
 20
16.248
 21
16.209
  0
LINE
  8
0
 10
-6.651
 11
-6.77
 20
16.209
 21
16.141
  0
LINE
  8
0
 10
-6.77
 11
-6.958
 20
16.141
 21
16.034
  0
LINE
  8
0
 10
-6.958
 11
-6.994
 20
16.034
 21
16.012
  0
LINE
  8
0
 10
-6.994
 11
-7.073
 20
16.012
 21
15.964
  0
LINE
  8
0
 10
-7.073
 11
-7.102
 20
15.964
 21
15.946
  0
LINE
  8
0
 10
-7.102
 11
-7.127
 20
15.946
 21
15.93
  0
LINE
  8
0
 10
-7.127
 11
-7.14
 20
15.93
 21
15.922
  0
LINE
  8
0
 10
-7.14
 11
-7.324
 20
15.922
 21
15.81
  0
LINE
  8
0
 10
-7.324
 11
-7.332
 20
15.81
 21
15.804
  0
LINE
  8
0
 10
-7.332
 11
-7.35
 20
15.804
 21
15.793
  0
LINE
  8
0
 10
-7.35
 11
-7.416
 20
15.793
 21
15.749
  0
LINE
  8
0
 10
-7.416
 11
-7.503
 20
15.749
 21
15.692
  0
LINE
  8
0
 10
-7.503
 11
-7.684
 20
15.692
 21
15.574
  0
LINE
  8
0
 10
-7.684
 11
-7.757
 20
15.574
 21
15.522
  0
LINE
  8
0
 10
-7.757
 11
-7.838
 20
15.522
 21
15.465
  0
LINE
  8
0
 10
-7.838
 11
-7.85
 20
15.465
 21
15.457
  0
LINE
  8
0
 10
-7.85
 11
-7.855
 20
15.457
 21
15.453
  0
LINE
  8
0
 10
-7.855
 11
-7.859
 20
15.453
 21
15.45
  0
LINE
  8
0
 10
-7.859
 11
-8.036
 20
15.45
 21
15.326
  0
LINE
  8
0
 10
-8.036
 11
-8.039
 20
15.326
 21
15.324
  0
LINE
  8
0
 10
-8.039
 11
-8.122
 20
15.324
 21
15.261
  0
LINE
  8
0
 10
-8.122
 11
-8.207
 20
15.261
 21
15.197
  0
LINE
  8
0
 10
-8.207
 11
-8.38
 20
15.197
 21
15.068
  0
LINE
  8
0
 10
-8.38
 11
-8.463
 20
15.068
 21
15.002
  0
LINE
  8
0
 10
-8.463
 11
-8.547
 20
15.002
 21
14.934
  0
LINE
  8
0
 10
-8.547
 11
-8.716
 20
14.934
 21
14.8
  0
LINE
  8
0
 10
-8.716
 11
-8.739
 20
14.8
 21
14.779
  0
LINE
  8
0
 10
-8.739
 11
-8.85
 20
14.779
 21
14.685
  0
LINE
  8
0
 10
-8.85
 11
-8.879
 20
14.685
 21
14.66
  0
LINE
  8
0
 10
-8.879
 11
-9.042
 20
14.66
 21
14.52
  0
LINE
  8
0
 10
-9.042
 11
-9.172
 20
14.52
 21
14.402
  0
LINE
  8
0
 10
-9.172
 11
-9.201
 20
14.402
 21
14.375
  0
LINE
  8
0
 10
-9.201
 11
-9.36
 20
14.375
 21
14.23
  0
LINE
  8
0
 10
-9.36
 11
-9.442
 20
14.23
 21
14.15
  0
LINE
  8
0
 10
-9.442
 11
-9.515
 20
14.15
 21
14.08
  0
LINE
  8
0
 10
-9.515
 11
-9.67
 20
14.08
 21
13.93
  0
LINE
  8
0
 10
-9.67
 11
-9.819
 20
13.93
 21
13.776
  0
LINE
  8
0
 10
-9.819
 11
-9.86
 20
13.776
 21
13.733
  0
LINE
  8
0
 10
-9.86
 11
-9.968
 20
13.733
 21
13.622
  0
LINE
  8
0
 10
-9.968
 11
-10.113
 20
13.622
 21
13.463
  0
LINE
  8
0
 10
-10.113
 11
-10.152
 20
13.463
 21
13.42
  0
LINE
  8
0
 10
-10.152
 11
-10.258
 20
13.42
 21
13.304
  0
LINE
  8
0
 10
-10.258
 11
-10.398
 20
13.304
 21
13.14
  0
LINE
  8
0
 10
-10.398
 11
-10.407
 20
13.14
 21
13.129
  0
LINE
  8
0
 10
-10.407
 11
-10.526
 20
13.129
 21
12.991
  0
LINE
  8
0
 10
-10.526
 11
-10.538
 20
12.991
 21
12.976
  0
LINE
  8
0
 10
-10.538
 11
-10.672
 20
12.976
 21
12.807
  0
LINE
  8
0
 10
-10.672
 11
-10.793
 20
12.807
 21
12.657
  0
LINE
  8
0
 10
-10.793
 11
-10.806
 20
12.657
 21
12.64
  0
LINE
  8
0
 10
-10.806
 11
-10.935
 20
12.64
 21
12.468
  0
LINE
  8
0
 10
-10.935
 11
-11.041
 20
12.468
 21
12.329
  0
LINE
  8
0
 10
-11.041
 11
-11.064
 20
12.329
 21
12.298
  0
LINE
  8
0
 10
-11.064
 11
-11.188
 20
12.298
 21
12.121
  0
LINE
  8
0
 10
-11.188
 11
-11.288
 20
12.121
 21
11.98
  0
LINE
  8
0
 10
-11.288
 11
-11.312
 20
11.98
 21
11.946
  0
LINE
  8
0
 10
-11.312
 11
-11.43
 20
11.946
 21
11.765
  0
LINE
  8
0
 10
-11.43
 11
-11.524
 20
11.765
 21
11.623
  0
LINE
  8
0
 10
-11.524
 11
-11.548
 20
11.623
 21
11.586
  0
LINE
  8
0
 10
-11.548
 11
-11.661
 20
11.586
 21
11.401
  0
LINE
  8
0
 10
-11.661
 11
-11.761
 20
11.401
 21
11.238
  0
LINE
  8
0
 10
-11.761
 11
-11.774
 20
11.238
 21
11.218
  0
LINE
  8
0
 10
-11.774
 11
-11.986
 20
11.218
 21
10.846
  0
LINE
  8
0
 10
-11.986
 11
-12.087
 20
10.846
 21
10.654
  0
LINE
  8
0
 10
-12.087
 11
-12.098
 20
10.654
 21
10.633
  0
LINE
  8
0
 10
-12.098
 11
-12.188
 20
10.633
 21
10.464
  0
LINE
  8
0
 10
-12.188
 11
-12.282
 20
10.464
 21
10.27
  0
LINE
  8
0
 10
-12.282
 11
-12.29
 20
10.27
 21
10.253
  0
LINE
  8
0
 10
-12.29
 11
-12.376
 20
10.253
 21
10.078
  0
LINE
  8
0
 10
-12.376
 11
-12.465
 20
10.078
 21
9.881
  0
LINE
  8
0
 10
-12.465
 11
-12.511
 20
9.881
 21
9.78
  0
LINE
  8
0
 10
-12.511
 11
-12.554
 20
9.78
 21
9.686
  0
LINE
  8
0
 10
-12.554
 11
-12.718
 20
9.686
 21
9.29
  0
LINE
  8
0
 10
-12.718
 11
-12.794
 20
9.29
 21
9.087
  0
LINE
  8
0
 10
-12.794
 11
-12.809
 20
9.087
 21
9.05
  0
LINE
  8
0
 10
-12.809
 11
-12.87
 20
9.05
 21
8.886
  0
LINE
  8
0
 10
-12.87
 11
-12.94
 20
8.886
 21
8.682
  0
LINE
  8
0
 10
-12.94
 11
-12.951
 20
8.682
 21
8.651
  0
LINE
  8
0
 10
-12.951
 11
-13.01
 20
8.651
 21
8.48
  0
LINE
  8
0
 10
-13.01
 11
-13.136
 20
8.48
 21
8.068
  0
LINE
  8
0
 10
-13.136
 11
-13.193
 20
8.068
 21
7.86
  0
LINE
  8
0
 10
-13.193
 11
-13.213
 20
7.86
 21
7.789
  0
LINE
  8
0
 10
-13.213
 11
-13.25
 20
7.789
 21
7.654
  0
LINE
  8
0
 10
-13.25
 11
-13.35
 20
7.654
 21
7.236
  0
LINE
  8
0
 10
-13.35
 11
-13.438
 20
7.236
 21
6.814
  0
LINE
  8
0
 10
-13.438
 11
-13.475
 20
6.814
 21
6.601
  0
LINE
  8
0
 10
-13.475
 11
-13.501
 20
6.601
 21
6.454
  0
LINE
  8
0
 10
-13.501
 11
-13.512
 20
6.454
 21
6.39
  0
LINE
  8
0
 10
-13.512
 11
-13.542
 20
6.39
 21
6.176
  0
LINE
  8
0
 10
-13.542
 11
-13.56
 20
6.176
 21
6.049
  0
LINE
  8
0
 10
-13.56
 11
-13.572
 20
6.049
 21
5.964
  0
LINE
  8
0
 10
-13.572
 11
-13.62
 20
5.964
 21
5.538
  0
LINE
  8
0
 10
-13.62
 11
-13.654
 20
5.538
 21
5.108
  0
LINE
  8
0
 10
-13.654
 11
-13.674
 20
5.108
 21
4.678
  0
LINE
  8
0
 10
-13.674
 11
-13.677
 20
4.678
 21
4.462
  0
LINE
  8
0
 10
-13.677
 11
-13.68
 20
4.462
 21
4.306
  0
LINE
  8
0
 10
-13.68
 11
-13.68
 20
4.306
 21
4.248
  0
LINE
  8
0
 10
-13.68
 11
-13.674
 20
4.248
 21
3.818
  0
LINE
  8
0
 10
-13.674
 11
-13.654
 20
3.818
 21
3.388
  0
LINE
  8
0
 10
-13.654
 11
-13.62
 20
3.388
 21
2.96
  0
LINE
  8
0
 10
-13.62
 11
-13.572
 20
2.96
 21
2.532
  0
LINE
  8
0
 10
-13.572
 11
-13.542
 20
2.532
 21
2.318
  0
LINE
  8
0
 10
-13.542
 11
-13.533
 20
2.318
 21
2.254
  0
LINE
  8
0
 10
-13.533
 11
-13.512
 20
2.254
 21
2.106
  0
LINE
  8
0
 10
-13.512
 11
-13.438
 20
2.106
 21
1.682
  0
LINE
  8
0
 10
-13.438
 11
-13.35
 20
1.682
 21
1.262
  0
LINE
  8
0
 10
-13.35
 11
-13.3
 20
1.262
 21
1.052
  0
LINE
  8
0
 10
-13.3
 11
-13.265
 20
1.052
 21
0.905
  0
LINE
  8
0
 10
-13.265
 11
-13.25
 20
0.905
 21
0.844
  0
LINE
  8
0
 10
-13.25
 11
-13.193
 20
0.844
 21
0.635
  0
LINE
  8
0
 10
-13.193
 11
-13.156
 20
0.635
 21
0.5
  0
LINE
  8
0
 10
-13.156
 11
-13.136
 20
0.5
 21
0.428
  0
LINE
  8
0
 10
-13.136
 11
-13.01
 20
0.428
 21
0.018
  0
LINE
  8
0
 10
-13.01
 11
-12.94
 20
0.018
 21
-0.187
  0
LINE
  8
0
 10
-12.94
 11
-12.883
 20
-0.187
 21
-0.352
  0
LINE
  8
0
 10
-12.883
 11
-12.87
 20
-0.352
 21
-0.39
  0
LINE
  8
0
 10
-12.87
 11
-12.718
 20
-0.39
 21
-0.792
  0
LINE
  8
0
 10
-12.718
 11
-12.636
 20
-0.792
 21
-0.992
  0
LINE
  8
0
 10
-12.636
 11
-12.595
 20
-0.992
 21
-1.092
  0
LINE
  8
0
 10
-12.595
 11
-12.554
 20
-1.092
 21
-1.19
  0
LINE
  8
0
 10
-12.554
 11
-12.465
 20
-1.19
 21
-1.387
  0
LINE
  8
0
 10
-12.465
 11
-12.422
 20
-1.387
 21
-1.48
  0
LINE
  8
0
 10
-12.422
 11
-12.376
 20
-1.48
 21
-1.582
  0
LINE
  8
0
 10
-12.376
 11
-12.282
 20
-1.582
 21
-1.776
  0
LINE
  8
0
 10
-12.282
 11
-12.199
 20
-1.776
 21
-1.947
  0
LINE
  8
0
 10
-12.199
 11
-12.188
 20
-1.947
 21
-1.968
  0
LINE
  8
0
 10
-12.188
 11
-11.986
 20
-1.968
 21
-2.348
  0
LINE
  8
0
 10
-11.986
 11
-11.88
 20
-2.348
 21
-2.536
  0
LINE
  8
0
 10
-11.88
 11
-11.867
 20
-2.536
 21
-2.559
  0
LINE
  8
0
 10
-11.867
 11
-11.774
 20
-2.559
 21
-2.722
  0
LINE
  8
0
 10
-11.774
 11
-11.661
 20
-2.722
 21
-2.906
  0
LINE
  8
0
 10
-11.661
 11
-11.648
 20
-2.906
 21
-2.925
  0
LINE
  8
0
 10
-11.648
 11
-11.548
 20
-2.925
 21
-3.088
  0
LINE
  8
0
 10
-11.548
 11
-11.43
 20
-3.088
 21
-3.269
  0
LINE
  8
0
 10
-11.43
 11
-11.408
 20
-3.269
 21
-3.304
  0
LINE
  8
0
 10
-11.408
 11
-11.312
 20
-3.304
 21
-3.448
  0
LINE
  8
0
 10
-11.312
 11
-11.188
 20
-3.448
 21
-3.625
  0
LINE
  8
0
 10
-11.188
 11
-11.164
 20
-3.625
 21
-3.659
  0
LINE
  8
0
 10
-11.164
 11
-11.064
 20
-3.659
 21
-3.8
  0
LINE
  8
0
 10
-11.064
 11
-10.935
 20
-3.8
 21
-3.973
  0
LINE
  8
0
 10
-10.935
 11
-10.912
 20
-3.973
 21
-4.004
  0
LINE
  8
0
 10
-10.912
 11
-10.806
 20
-4.004
 21
-4.144
  0
LINE
  8
0
 10
-10.806
 11
-10.672
 20
-4.144
 21
-4.313
  0
LINE
  8
0
 10
-10.672
 11
-10.66
 20
-4.313
 21
-4.328
  0
LINE
  8
0
 10
-10.66
 11
-10.545
 20
-4.328
 21
-4.471
  0
LINE
  8
0
 10
-10.545
 11
-10.538
 20
-4.471
 21
-4.48
  0
LINE
  8
0
 10
-10.538
 11
-10.398
 20
-4.48
 21
-4.643
  0
LINE
  8
0
 10
-10.398
 11
-10.267
 20
-4.643
 21
-4.796
  0
LINE
  8
0
 10
-10.267
 11
-10.258
 20
-4.796
 21
-4.806
  0
LINE
  8
0
 10
-10.258
 11
-10.113
 20
-4.806
 21
-4.966
  0
LINE
  8
0
 10
-10.113
 11
-10.009
 20
-4.966
 21
-5.082
  0
LINE
  8
0
 10
-10.009
 11
-9.968
 20
-5.082
 21
-5.126
  0
LINE
  8
0
 10
-9.968
 11
-9.819
 20
-5.126
 21
-5.28
  0
LINE
  8
0
 10
-9.819
 11
-9.748
 20
-5.28
 21
-5.354
  0
LINE
  8
0
 10
-9.748
 11
-9.67
 20
-5.354
 21
-5.434
  0
LINE
  8
0
 10
-9.67
 11
-9.597
 20
-5.434
 21
-5.504
  0
LINE
  8
0
 10
-9.597
 11
-9.515
 20
-5.504
 21
-5.584
  0
LINE
  8
0
 10
-9.515
 11
-9.36
 20
-5.584
 21
-5.734
  0
LINE
  8
0
 10
-9.36
 11
-9.332
 20
-5.734
 21
-5.76
  0
LINE
  8
0
 10
-9.332
 11
-9.223
 20
-5.76
 21
-5.859
  0
LINE
  8
0
 10
-9.223
 11
-9.201
 20
-5.859
 21
-5.878
  0
LINE
  8
0
 10
-9.201
 11
-9.042
 20
-5.878
 21
-6.022
  0
LINE
  8
0
 10
-9.042
 11
-8.902
 20
-6.022
 21
-6.142
  0
LINE
  8
0
 10
-8.902
 11
-8.879
 20
-6.142
 21
-6.162
  0
LINE
  8
0
 10
-8.879
 11
-8.716
 20
-6.162
 21
-6.302
  0
LINE
  8
0
 10
-8.716
 11
-8.632
 20
-6.302
 21
-6.37
  0
LINE
  8
0
 10
-8.632
 11
-8.55
 20
-6.37
 21
-6.435
  0
LINE
  8
0
 10
-8.55
 11
-8.549
 20
-6.435
 21
-6.437
  0
LINE
  8
0
 10
-8.549
 11
-8.38
 20
-6.437
 21
-6.572
  0
LINE
  8
0
 10
-8.38
 11
-8.25
 20
-6.572
 21
-6.669
  0
LINE
  8
0
 10
-8.25
 11
-8.241
 20
-6.669
 21
-6.676
  0
LINE
  8
0
 10
-8.241
 11
-8.236
 20
-6.676
 21
-6.68
  0
LINE
  8
0
 10
-8.236
 11
-8.234
 20
-6.68
 21
-6.682
  0
LINE
  8
0
 10
-8.234
 11
-8.222
 20
-6.682
 21
-6.69
  0
LINE
  8
0
 10
-8.222
 11
-8.22
 20
-6.69
 21
-6.692
  0
LINE
  8
0
 10
-8.22
 11
-8.217
 20
-6.692
 21
-6.694
  0
LINE
  8
0
 10
-8.217
 11
-8.209
 20
-6.694
 21
-6.701
  0
LINE
  8
0
 10
-8.209
 11
-8.036
 20
-6.701
 21
-6.83
  0
LINE
  8
0
 10
-8.036
 11
-8.023
 20
-6.83
 21
-6.839
  0
LINE
  8
0
 10
-8.023
 11
-8.02
 20
-6.839
 21
-6.841
  0
LINE
  8
0
 10
-8.02
 11
-8.013
 20
-6.841
 21
-6.846
  0
LINE
  8
0
 10
-8.013
 11
-7.991
 20
-6.846
 21
-6.861
  0
LINE
  8
0
 10
-7.991
 11
-7.861
 20
-6.861
 21
-6.953
  0
LINE
  8
0
 10
-7.861
 11
-7.684
 20
-6.953
 21
-7.076
  0
LINE
  8
0
 10
-7.684
 11
-7.667
 20
-7.076
 21
-7.088
  0
LINE
  8
0
 10
-7.667
 11
-7.635
 20
-7.088
 21
-7.109
  0
LINE
  8
0
 10
-7.635
 11
-7.62
 20
-7.109
 21
-7.118
  0
LINE
  8
0
 10
-7.62
 11
-7.58
 20
-7.118
 21
-7.145
  0
LINE
  8
0
 10
-7.58
 11
-7.574
 20
-7.145
 21
-7.149
  0
LINE
  8
0
 10
-7.574
 11
-7.562
 20
-7.149
 21
-7.157
  0
LINE
  8
0
 10
-7.562
 11
-7.513
 20
-7.157
 21
-7.189
  0
LINE
  8
0
 10
-7.513
 11
-7.506
 20
-7.189
 21
-7.194
  0
LINE
  8
0
 10
-7.506
 11
-7.324
 20
-7.194
 21
-7.312
  0
LINE
  8
0
 10
-7.324
 11
-7.311
 20
-7.312
 21
-7.321
  0
LINE
  8
0
 10
-7.311
 11
-7.254
 20
-7.321
 21
-7.355
  0
LINE
  8
0
 10
-7.254
 11
-7.23
 20
-7.355
 21
-7.37
  0
LINE
  8
0
 10
-7.23
 11
-7.208
 20
-7.37
 21
-7.384
  0
LINE
  8
0
 10
-7.208
 11
-7.142
 20
-7.384
 21
-7.425
  0
LINE
  8
0
 10
-7.142
 11
-6.958
 20
-7.425
 21
-7.538
  0
LINE
  8
0
 10
-6.958
 11
-6.874
 20
-7.538
 21
-7.586
  0
LINE
  8
0
 10
-6.874
 11
-6.813
 20
-7.586
 21
-7.621
  0
LINE
  8
0
 10
-6.813
 11
-6.803
 20
-7.621
 21
-7.626
  0
LINE
  8
0
 10
-6.803
 11
-6.785
 20
-7.626
 21
-7.637
  0
LINE
  8
0
 10
-6.785
 11
-6.772
 20
-7.637
 21
-7.644
  0
LINE
  8
0
 10
-6.772
 11
-6.584
 20
-7.644
 21
-7.75
  0
LINE
  8
0
 10
-6.584
 11
-6.53
 20
-7.75
 21
-7.779
  0
LINE
  8
0
 10
-6.53
 11
-6.52
 20
-7.779
 21
-7.785
  0
LINE
  8
0
 10
-6.52
 11
-6.499
 20
-7.785
 21
-7.796
  0
LINE
  8
0
 10
-6.499
 11
-6.474
 20
-7.796
 21
-7.809
  0
LINE
  8
0
 10
-6.474
 11
-6.395
 20
-7.809
 21
-7.851
  0
LINE
  8
0
 10
-6.395
 11
-6.204
 20
-7.851
 21
-7.952
  0
LINE
  8
0
 10
-6.204
 11
-6.136
 20
-7.952
 21
-7.986
  0
LINE
  8
0
 10
-6.136
 11
-6.067
 20
-7.986
 21
-8.019
  0
LINE
  8
0
 10
-6.067
 11
-6.056
 20
-8.019
 21
-8.025
  0
LINE
  8
0
 10
-6.056
 11
-6.033
 20
-8.025
 21
-8.037
  0
LINE
  8
0
 10
-6.033
 11
-6.012
 20
-8.037
 21
-8.047
  0
LINE
  8
0
 10
-6.012
 11
-5.818
 20
-8.047
 21
-8.142
  0
LINE
  8
0
 10
-5.818
 11
-5.768
 20
-8.142
 21
-8.165
  0
LINE
  8
0
 10
-5.768
 11
-5.755
 20
-8.165
 21
-8.17
  0
LINE
  8
0
 10
-5.755
 11
-5.73
 20
-8.17
 21
-8.182
  0
LINE
  8
0
 10
-5.73
 11
-5.659
 20
-8.182
 21
-8.214
  0
LINE
  8
0
 10
-5.659
 11
-5.647
 20
-8.214
 21
-8.22
  0
LINE
  8
0
 10
-5.647
 11
-5.623
 20
-8.22
 21
-8.23
  0
LINE
  8
0
 10
-5.623
 11
-5.426
 20
-8.23
 21
-8.318
  0
LINE
  8
0
 10
-5.426
 11
-5.424
 20
-8.318
 21
-8.319
  0
LINE
  8
0
 10
-5.424
 11
-5.397
 20
-8.319
 21
-8.331
  0
LINE
  8
0
 10
-5.397
 11
-5.253
 20
-8.331
 21
-8.39
  0
LINE
  8
0
 10
-5.253
 11
-5.228
 20
-8.39
 21
-8.4
  0
LINE
  8
0
 10
-5.228
 11
-5.028
 20
-8.4
 21
-8.482
  0
LINE
  8
0
 10
-5.028
 11
-4.712
 20
-8.482
 21
-8.602
  0
LINE
  8
0
 10
-4.712
 11
-5.164
 20
-8.602
 21
-9.838
  0
LINE
  8
0
 10
-5.164
 11
-5.35
 20
-9.838
 21
-10.345
  0
LINE
  8
0
 10
-5.35
 11
-5.473
 20
-10.345
 21
-10.682
  0
LINE
  8
0
 10
-5.473
 11
-5.511
 20
-10.682
 21
-10.786
  0
LINE
  8
0
 10
-5.511
 11
-5.551
 20
-10.786
 21
-10.894
  0
LINE
  8
0
 10
-5.551
 11
-5.572
 20
-10.894
 21
-10.949
  0
LINE
  8
0
 10
-5.572
 11
-5.614
 20
-10.949
 21
-11.066
  0
LINE
  8
0
 10
-5.614
 11
-5.628
 20
-11.066
 21
-11.061
  0
LINE
  8
0
 10
-5.628
 11
-5.67
 20
-11.061
 21
-11.046
  0
LINE
  8
0
 10
-5.67
 11
-5.69
 20
-11.046
 21
-11.038
  0
LINE
  8
0
 10
-5.69
 11
-5.745
 20
-11.038
 21
-11.017
  0
LINE
  8
0
 10
-5.745
 11
-5.784
 20
-11.017
 21
-11.002
  0
LINE
  8
0
 10
-5.784
 11
-5.803
 20
-11.002
 21
-10.994
  0
LINE
  8
0
 10
-5.803
 11
-5.994
 20
-10.994
 21
-10.922
  0
LINE
  8
0
 10
-5.994
 11
-6.232
 20
-10.922
 21
-10.824
  0
LINE
  8
0
 10
-6.232
 11
-6.285
 20
-10.824
 21
-10.802
  0
LINE
  8
0
 10
-6.285
 11
-6.398
 20
-10.802
 21
-10.755
  0
LINE
  8
0
 10
-6.398
 11
-6.44
 20
-10.755
 21
-10.738
  0
LINE
  8
0
 10
-6.44
 11
-6.468
 20
-10.738
 21
-10.726
  0
LINE
  8
0
 10
-6.468
 11
-6.702
 20
-10.726
 21
-10.621
  0
LINE
  8
0
 10
-6.702
 11
-6.71
 20
-10.621
 21
-10.618
  0
LINE
  8
0
 10
-6.71
 11
-6.729
 20
-10.618
 21
-10.609
  0
LINE
  8
0
 10
-6.729
 11
-6.779
 20
-10.609
 21
-10.586
  0
LINE
  8
0
 10
-6.779
 11
-6.812
 20
-10.586
 21
-10.571
  0
LINE
  8
0
 10
-6.812
 11
-6.829
 20
-10.571
 21
-10.563
  0
LINE
  8
0
 10
-6.829
 11
-6.877
 20
-10.563
 21
-10.542
  0
LINE
  8
0
 10
-6.877
 11
-6.934
 20
-10.542
 21
-10.516
  0
LINE
  8
0
 10
-6.934
 11
-7.165
 20
-10.516
 21
-10.403
  0
LINE
  8
0
 10
-7.165
 11
-7.222
 20
-10.403
 21
-10.375
  0
LINE
  8
0
 10
-7.222
 11
-7.262
 20
-10.375
 21
-10.355
  0
LINE
  8
0
 10
-7.262
 11
-7.291
 20
-10.355
 21
-10.341
  0
LINE
  8
0
 10
-7.291
 11
-7.306
 20
-10.341
 21
-10.334
  0
LINE
  8
0
 10
-7.306
 11
-7.349
 20
-10.334
 21
-10.313
  0
LINE
  8
0
 10
-7.349
 11
-7.375
 20
-10.313
 21
-10.3
  0
LINE
  8
0
 10
-7.375
 11
-7.388
 20
-10.3
 21
-10.293
  0
LINE
  8
0
 10
-7.388
 11
-7.394
 20
-10.293
 21
-10.29
  0
LINE
  8
0
 10
-7.394
 11
-7.622
 20
-10.29
 21
-10.17
  0
LINE
  8
0
 10
-7.622
 11
-7.654
 20
-10.17
 21
-10.154
  0
LINE
  8
0
 10
-7.654
 11
-7.676
 20
-10.154
 21
-10.142
  0
LINE
  8
0
 10
-7.676
 11
-7.686
 20
-10.142
 21
-10.136
  0
LINE
  8
0
 10
-7.686
 11
-7.716
 20
-10.136
 21
-10.12
  0
LINE
  8
0
 10
-7.716
 11
-7.734
 20
-10.12
 21
-10.111
  0
LINE
  8
0
 10
-7.734
 11
-7.743
 20
-10.111
 21
-10.106
  0
LINE
  8
0
 10
-7.743
 11
-7.767
 20
-10.106
 21
-10.093
  0
LINE
  8
0
 10
-7.767
 11
-7.848
 20
-10.093
 21
-10.05
  0
LINE
  8
0
 10
-7.848
 11
-8.072
 20
-10.05
 21
-9.923
  0
LINE
  8
0
 10
-8.072
 11
-8.102
 20
-9.923
 21
-9.906
  0
LINE
  8
0
 10
-8.102
 11
-8.142
 20
-9.906
 21
-9.883
  0
LINE
  8
0
 10
-8.142
 11
-8.154
 20
-9.883
 21
-9.876
  0
LINE
  8
0
 10
-8.154
 11
-8.16
 20
-9.876
 21
-9.873
  0
LINE
  8
0
 10
-8.16
 11
-8.176
 20
-9.873
 21
-9.864
  0
LINE
  8
0
 10
-8.176
 11
-8.183
 20
-9.864
 21
-9.86
  0
LINE
  8
0
 10
-8.183
 11
-8.186
 20
-9.86
 21
-9.858
  0
LINE
  8
0
 10
-8.186
 11
-8.195
 20
-9.858
 21
-9.853
  0
LINE
  8
0
 10
-8.195
 11
-8.198
 20
-9.853
 21
-9.851
  0
LINE
  8
0
 10
-8.198
 11
-8.206
 20
-9.851
 21
-9.847
  0
LINE
  8
0
 10
-8.206
 11
-8.213
 20
-9.847
 21
-9.843
  0
LINE
  8
0
 10
-8.213
 11
-8.294
 20
-9.843
 21
-9.796
  0
LINE
  8
0
 10
-8.294
 11
-8.513
 20
-9.796
 21
-9.662
  0
LINE
  8
0
 10
-8.513
 11
-8.601
 20
-9.662
 21
-9.608
  0
LINE
  8
0
 10
-8.601
 11
-8.664
 20
-9.608
 21
-9.569
  0
LINE
  8
0
 10
-8.664
 11
-8.73
 20
-9.569
 21
-9.528
  0
LINE
  8
0
 10
-8.73
 11
-8.945
 20
-9.528
 21
-9.387
  0
LINE
  8
0
 10
-8.945
 11
-8.961
 20
-9.387
 21
-9.377
  0
LINE
  8
0
 10
-8.961
 11
-9.158
 20
-9.377
 21
-9.246
  0
LINE
  8
0
 10
-9.158
 11
-9.369
 20
-9.246
 21
-9.099
  0
LINE
  8
0
 10
-9.369
 11
-9.385
 20
-9.099
 21
-9.089
  0
LINE
  8
0
 10
-9.385
 11
-9.467
 20
-9.089
 21
-9.03
  0
LINE
  8
0
 10
-9.467
 11
-9.551
 20
-9.03
 21
-8.971
  0
LINE
  8
0
 10
-9.551
 11
-9.578
 20
-8.971
 21
-8.952
  0
LINE
  8
0
 10
-9.578
 11
-9.784
 20
-8.952
 21
-8.798
  0
LINE
  8
0
 10
-9.784
 11
-9.961
 20
-8.798
 21
-8.665
  0
LINE
  8
0
 10
-9.961
 11
-9.988
 20
-8.665
 21
-8.644
  0
LINE
  8
0
 10
-9.988
 11
-10.189
 20
-8.644
 21
-8.484
  0
LINE
  8
0
 10
-10.189
 11
-10.246
 20
-8.484
 21
-8.438
  0
LINE
  8
0
 10
-10.246
 11
-10.332
 20
-8.438
 21
-8.369
  0
LINE
  8
0
 10
-10.332
 11
-10.388
 20
-8.369
 21
-8.324
  0
LINE
  8
0
 10
-10.388
 11
-10.584
 20
-8.324
 21
-8.158
  0
LINE
  8
0
 10
-10.584
 11
-10.722
 20
-8.158
 21
-8.039
  0
LINE
  8
0
 10
-10.722
 11
-10.778
 20
-8.039
 21
-7.992
  0
LINE
  8
0
 10
-10.778
 11
-10.968
 20
-7.992
 21
-7.818
  0
LINE
  8
0
 10
-10.968
 11
-10.999
 20
-7.818
 21
-7.79
  0
LINE
  8
0
 10
-10.999
 11
-11.087
 20
-7.79
 21
-7.71
  0
LINE
  8
0
 10
-11.087
 11
-11.156
 20
-7.71
 21
-7.646
  0
LINE
  8
0
 10
-11.156
 11
-11.341
 20
-7.646
 21
-7.467
  0
LINE
  8
0
 10
-11.341
 11
-11.456
 20
-7.467
 21
-7.357
  0
LINE
  8
0
 10
-11.456
 11
-11.524
 20
-7.357
 21
-7.29
  0
LINE
  8
0
 10
-11.524
 11
-11.704
 20
-7.29
 21
-7.105
  0
LINE
  8
0
 10
-11.704
 11
-11.725
 20
-7.105
 21
-7.084
  0
LINE
  8
0
 10
-11.725
 11
-11.815
 20
-7.084
 21
-6.991
  0
LINE
  8
0
 10
-11.815
 11
-11.882
 20
-6.991
 21
-6.922
  0
LINE
  8
0
 10
-11.882
 11
-12.055
 20
-6.922
 21
-6.731
  0
LINE
  8
0
 10
-12.055
 11
-12.161
 20
-6.731
 21
-6.615
  0
LINE
  8
0
 10
-12.161
 11
-12.226
 20
-6.615
 21
-6.542
  0
LINE
  8
0
 10
-12.226
 11
-12.394
 20
-6.542
 21
-6.346
  0
LINE
  8
0
 10
-12.394
 11
-12.42
 20
-6.346
 21
-6.316
  0
LINE
  8
0
 10
-12.42
 11
-12.514
 20
-6.316
 21
-6.206
  0
LINE
  8
0
 10
-12.514
 11
-12.56
 20
-6.206
 21
-6.152
  0
LINE
  8
0
 10
-12.56
 11
-12.72
 20
-6.152
 21
-5.951
  0
LINE
  8
0
 10
-12.72
 11
-12.835
 20
-5.951
 21
-5.809
  0
LINE
  8
0
 10
-12.835
 11
-12.88
 20
-5.809
 21
-5.752
  0
LINE
  8
0
 10
-12.88
 11
-13.034
 20
-5.752
 21
-5.546
  0
LINE
  8
0
 10
-13.034
 11
-13.084
 20
-5.546
 21
-5.481
  0
LINE
  8
0
 10
-13.084
 11
-13.182
 20
-5.481
 21
-5.351
  0
LINE
  8
0
 10
-13.182
 11
-13.188
 20
-5.351
 21
-5.342
  0
LINE
  8
0
 10
-13.188
 11
-13.335
 20
-5.342
 21
-5.132
  0
LINE
  8
0
 10
-13.335
 11
-13.475
 20
-5.132
 21
-4.935
  0
LINE
  8
0
 10
-13.475
 11
-13.482
 20
-4.935
 21
-4.924
  0
LINE
  8
0
 10
-13.482
 11
-13.623
 20
-4.924
 21
-4.708
  0
LINE
  8
0
 10
-13.623
 11
-13.715
 20
-4.708
 21
-4.57
  0
LINE
  8
0
 10
-13.715
 11
-13.764
 20
-4.57
 21
-4.494
  0
LINE
  8
0
 10
-13.764
 11
-13.898
 20
-4.494
 21
-4.275
  0
LINE
  8
0
 10
-13.898
 11
-13.95
 20
-4.275
 21
-4.191
  0
LINE
  8
0
 10
-13.95
 11
-14.032
 20
-4.191
 21
-4.058
  0
LINE
  8
0
 10
-14.032
 11
-14.159
 20
-4.058
 21
-3.834
  0
LINE
  8
0
 10
-14.159
 11
-14.207
 20
-3.834
 21
-3.751
  0
LINE
  8
0
 10
-14.207
 11
-14.286
 20
-3.751
 21
-3.612
  0
LINE
  8
0
 10
-14.286
 11
-14.406
 20
-3.612
 21
-3.385
  0
LINE
  8
0
 10
-14.406
 11
-14.431
 20
-3.385
 21
-3.339
  0
LINE
  8
0
 10
-14.431
 11
-14.526
 20
-3.339
 21
-3.16
  0
LINE
  8
0
 10
-14.526
 11
-14.639
 20
-3.16
 21
-2.928
  0
LINE
  8
0
 10
-14.639
 11
-14.651
 20
-2.928
 21
-2.904
  0
LINE
  8
0
 10
-14.651
 11
-14.752
 20
-2.904
 21
-2.698
  0
LINE
  8
0
 10
-14.752
 11
-14.857
 20
-2.698
 21
-2.464
  0
LINE
  8
0
 10
-14.857
 11
-14.866
 20
-2.464
 21
-2.445
  0
LINE
  8
0
 10
-14.866
 11
-14.962
 20
-2.445
 21
-2.232
  0
LINE
  8
0
 10
-14.962
 11
-15.06
 20
-2.232
 21
-1.994
  0
LINE
  8
0
 10
-15.06
 11
-15.073
 20
-1.994
 21
-1.964
  0
LINE
  8
0
 10
-15.073
 11
-15.158
 20
-1.964
 21
-1.758
  0
LINE
  8
0
 10
-15.158
 11
-15.249
 20
-1.758
 21
-1.517
  0
LINE
  8
0
 10
-15.249
 11
-15.278
 20
-1.517
 21
-1.443
  0
LINE
  8
0
 10
-15.278
 11
-15.34
 20
-1.443
 21
-1.278
  0
LINE
  8
0
 10
-15.34
 11
-15.423
 20
-1.278
 21
-1.035
  0
LINE
  8
0
 10
-15.423
 11
-15.447
 20
-1.035
 21
-0.967
  0
LINE
  8
0
 10
-15.447
 11
-15.506
 20
-0.967
 21
-0.794
  0
LINE
  8
0
 10
-15.506
 11
-15.581
 20
-0.794
 21
-0.548
  0
LINE
  8
0
 10
-15.581
 11
-15.637
 20
-0.548
 21
-0.367
  0
LINE
  8
0
 10
-15.637
 11
-15.656
 20
-0.367
 21
-0.304
  0
LINE
  8
0
 10
-15.656
 11
-15.792
 20
-0.304
 21
0.19
  0
LINE
  8
0
 10
-15.792
 11
-15.852
 20
0.19
 21
0.441
  0
LINE
  8
0
 10
-15.852
 11
-15.889
 20
0.441
 21
0.594
  0
LINE
  8
0
 10
-15.889
 11
-15.912
 20
0.594
 21
0.69
  0
LINE
  8
0
 10
-15.912
 11
-15.964
 20
0.69
 21
0.941
  0
LINE
  8
0
 10
-15.964
 11
-15.993
 20
0.941
 21
1.08
  0
LINE
  8
0
 10
-15.993
 11
-16.016
 20
1.08
 21
1.19
  0
LINE
  8
0
 10
-16.016
 11
-16.104
 20
1.19
 21
1.696
  0
LINE
  8
0
 10
-16.104
 11
-16.176
 20
1.696
 21
2.204
  0
LINE
  8
0
 10
-16.176
 11
-16.204
 20
2.204
 21
2.459
  0
LINE
  8
0
 10
-16.204
 11
-16.223
 20
2.459
 21
2.633
  0
LINE
  8
0
 10
-16.223
 11
-16.232
 20
2.633
 21
2.712
  0
LINE
  8
0
 10
-16.232
 11
-16.272
 20
2.712
 21
3.224
  0
LINE
  8
0
 10
-16.272
 11
-16.298
 20
3.224
 21
3.736
  0
LINE
  8
0
 10
-16.298
 11
-16.304
 20
3.736
 21
4.248
  0
LINE
  8
0
 10
-5.172
 11
-5.168
 20
-32.69
 21
-32.646
  0
LINE
  8
0
 10
-5.168
 11
-5.156
 20
-32.646
 21
-32.602
  0
LINE
  8
0
 10
-5.156
 11
-4.634
 20
-32.602
 21
-31.25
  0
LINE
  8
0
 10
-4.634
 11
-4.614
 20
-31.25
 21
-31.222
  0
LINE
  8
0
 10
-4.614
 11
-4.594
 20
-31.222
 21
-31.196
  0
LINE
  8
0
 10
-4.594
 11
-4.57
 20
-31.196
 21
-31.17
  0
LINE
  8
0
 10
-4.57
 11
-4.546
 20
-31.17
 21
-31.146
  0
LINE
  8
0
 10
-4.546
 11
-4.522
 20
-31.146
 21
-31.124
  0
LINE
  8
0
 10
-4.522
 11
-4.496
 20
-31.124
 21
-31.102
  0
LINE
  8
0
 10
-4.496
 11
-4.468
 20
-31.102
 21
-31.084
  0
LINE
  8
0
 10
-4.468
 11
-4.438
 20
-31.084
 21
-31.066
  0
LINE
  8
0
 10
-4.438
 11
-4.41
 20
-31.066
 21
-31.048
  0
LINE
  8
0
 10
-4.41
 11
-4.378
 20
-31.048
 21
-31.034
  0
LINE
  8
0
 10
-4.378
 11
-4.348
 20
-31.034
 21
-31.02
  0
LINE
  8
0
 10
-4.348
 11
-4.316
 20
-31.02
 21
-31.01
  0
LINE
  8
0
 10
-4.316
 11
-4.278
 20
-31.01
 21
-31.007
  0
LINE
  8
0
 10
-4.278
 11
-1.127
 20
-31.007
 21
-30.725
  0
LINE
  8
0
 10
-1.127
 11
-0.079
 20
-30.725
 21
-30.632
  0
LINE
  8
0
 10
-0.079
 11
-0.037
 20
-30.632
 21
-30.628
  0
LINE
  8
0
 10
-0.037
 11
0.005
 20
-30.628
 21
-30.624
  0
LINE
  8
0
 10
0.005
 11
0.048
 20
-30.624
 21
-30.62
  0
LINE
  8
0
 10
0.048
 11
0.09
 20
-30.62
 21
-30.617
  0
LINE
  8
0
 10
0.09
 11
0.132
 20
-30.617
 21
-30.613
  0
LINE
  8
0
 10
0.132
 11
0.173
 20
-30.613
 21
-30.609
  0
LINE
  8
0
 10
0.173
 11
0.215
 20
-30.609
 21
-30.605
  0
LINE
  8
0
 10
0.215
 11
0.257
 20
-30.605
 21
-30.602
  0
LINE
  8
0
 10
0.257
 11
0.281
 20
-30.602
 21
-30.599
  0
LINE
  8
0
 10
0.281
 11
4.906
 20
-30.599
 21
-30.186
  0
LINE
  8
0
 10
4.906
 11
4.95
 20
-30.186
 21
-30.186
  0
LINE
  8
0
 10
4.95
 11
4.996
 20
-30.186
 21
-30.194
  0
LINE
  8
0
 10
4.996
 11
5.012
 20
-30.194
 21
-30.2
  0
LINE
  8
0
 10
5.012
 11
5.017
 20
-30.2
 21
-30.201
  0
LINE
  8
0
 10
5.017
 11
5.038
 20
-30.201
 21
-30.208
  0
LINE
  8
0
 10
5.038
 11
5.078
 20
-30.208
 21
-30.23
  0
LINE
  8
0
 10
5.078
 11
5.114
 20
-30.23
 21
-30.258
  0
LINE
  8
0
 10
5.114
 11
5.129
 20
-30.258
 21
-30.275
  0
LINE
  8
0
 10
5.129
 11
5.144
 20
-30.275
 21
-30.292
  0
LINE
  8
0
 10
5.144
 11
5.168
 20
-30.292
 21
-30.33
  0
LINE
  8
0
 10
5.168
 11
5.184
 20
-30.33
 21
-30.372
  0
LINE
  8
0
 10
5.184
 11
5.194
 20
-30.372
 21
-30.416
  0
LINE
  8
0
 10
5.194
 11
5.198
 20
-30.416
 21
-30.462
  0
LINE
  8
0
 10
5.198
 11
5.192
 20
-30.462
 21
-30.506
  0
LINE
  8
0
 10
5.192
 11
5.18
 20
-30.506
 21
-30.55
  0
LINE
  8
0
 10
5.18
 11
4.918
 20
-30.55
 21
-31.228
  0
LINE
  8
0
 10
4.918
 11
4.888
 20
-31.228
 21
-31.303
  0
LINE
  8
0
 10
4.888
 11
4.852
 20
-31.303
 21
-31.398
  0
LINE
  8
0
 10
4.852
 11
4.819
 20
-31.398
 21
-31.486
  0
LINE
  8
0
 10
4.819
 11
4.786
 20
-31.486
 21
-31.57
  0
LINE
  8
0
 10
4.786
 11
4.756
 20
-31.57
 21
-31.65
  0
LINE
  8
0
 10
4.756
 11
4.726
 20
-31.65
 21
-31.726
  0
LINE
  8
0
 10
4.726
 11
4.698
 20
-31.726
 21
-31.798
  0
LINE
  8
0
 10
4.698
 11
4.672
 20
-31.798
 21
-31.867
  0
LINE
  8
0
 10
4.672
 11
4.658
 20
-31.867
 21
-31.902
  0
LINE
  8
0
 10
4.658
 11
4.64
 20
-31.902
 21
-31.93
  0
LINE
  8
0
 10
4.64
 11
4.629
 20
-31.93
 21
-31.943
  0
LINE
  8
0
 10
4.629
 11
4.625
 20
-31.943
 21
-31.947
  0
LINE
  8
0
 10
4.625
 11
4.618
 20
-31.947
 21
-31.956
  0
LINE
  8
0
 10
4.618
 11
4.596
 20
-31.956
 21
-31.982
  0
LINE
  8
0
 10
4.596
 11
4.586
 20
-31.982
 21
-31.992
  0
LINE
  8
0
 10
4.586
 11
4.584
 20
-31.992
 21
-31.994
  0
LINE
  8
0
 10
4.584
 11
4.572
 20
-31.994
 21
-32.006
  0
LINE
  8
0
 10
4.572
 11
4.546
 20
-32.006
 21
-32.028
  0
LINE
  8
0
 10
4.546
 11
4.52
 20
-32.028
 21
-32.048
  0
LINE
  8
0
 10
4.52
 11
4.492
 20
-32.048
 21
-32.068
  0
LINE
  8
0
 10
4.492
 11
4.464
 20
-32.068
 21
-32.086
  0
LINE
  8
0
 10
4.464
 11
4.462
 20
-32.086
 21
-32.087
  0
LINE
  8
0
 10
4.462
 11
4.449
 20
-32.087
 21
-32.095
  0
LINE
  8
0
 10
4.449
 11
4.434
 20
-32.095
 21
-32.104
  0
LINE
  8
0
 10
4.434
 11
4.404
 20
-32.104
 21
-32.118
  0
LINE
  8
0
 10
4.404
 11
4.372
 20
-32.118
 21
-32.132
  0
LINE
  8
0
 10
4.372
 11
4.34
 20
-32.132
 21
-32.142
  0
LINE
  8
0
 10
4.34
 11
3.638
 20
-32.142
 21
-32.205
  0
LINE
  8
0
 10
3.638
 11
-0.095
 20
-32.205
 21
-32.538
  0
LINE
  8
0
 10
-0.095
 11
-0.256
 20
-32.538
 21
-32.553
  0
LINE
  8
0
 10
-0.256
 11
-4.88
 20
-32.553
 21
-32.966
  0
LINE
  8
0
 10
-4.88
 11
-4.926
 20
-32.966
 21
-32.966
  0
LINE
  8
0
 10
-4.926
 11
-4.97
 20
-32.966
 21
-32.958
  0
LINE
  8
0
 10
-4.97
 11
-5.014
 20
-32.958
 21
-32.944
  0
LINE
  8
0
 10
-5.014
 11
-5.054
 20
-32.944
 21
-32.922
  0
LINE
  8
0
 10
-5.054
 11
-5.088
 20
-32.922
 21
-32.894
  0
LINE
  8
0
 10
-5.088
 11
-5.118
 20
-32.894
 21
-32.86
  0
LINE
  8
0
 10
-5.118
 11
-5.142
 20
-32.86
 21
-32.822
  0
LINE
  8
0
 10
-5.142
 11
-5.16
 20
-32.822
 21
-32.78
  0
LINE
  8
0
 10
-5.16
 11
-5.17
 20
-32.78
 21
-32.736
  0
LINE
  8
0
 10
-5.17
 11
-5.172
 20
-32.736
 21
-32.69
  0
LINE
  8
0
 10
-5.172
 11
-5.168
 20
-29.474
 21
-29.43
  0
LINE
  8
0
 10
-5.168
 11
-5.156
 20
-29.43
 21
-29.386
  0
LINE
  8
0
 10
-5.156
 11
-4.634
 20
-29.386
 21
-28.034
  0
LINE
  8
0
 10
-4.634
 11
-4.614
 20
-28.034
 21
-28.006
  0
LINE
  8
0
 10
-4.614
 11
-4.594
 20
-28.006
 21
-27.98
  0
LINE
  8
0
 10
-4.594
 11
-4.57
 20
-27.98
 21
-27.954
  0
LINE
  8
0
 10
-4.57
 11
-4.546
 20
-27.954
 21
-27.93
  0
LINE
  8
0
 10
-4.546
 11
-4.522
 20
-27.93
 21
-27.908
  0
LINE
  8
0
 10
-4.522
 11
-4.496
 20
-27.908
 21
-27.886
  0
LINE
  8
0
 10
-4.496
 11
-4.468
 20
-27.886
 21
-27.868
  0
LINE
  8
0
 10
-4.468
 11
-4.438
 20
-27.868
 21
-27.848
  0
LINE
  8
0
 10
-4.438
 11
-4.41
 20
-27.848
 21
-27.832
  0
LINE
  8
0
 10
-4.41
 11
-4.378
 20
-27.832
 21
-27.818
  0
LINE
  8
0
 10
-4.378
 11
-4.348
 20
-27.818
 21
-27.804
  0
LINE
  8
0
 10
-4.348
 11
-4.316
 20
-27.804
 21
-27.794
  0
LINE
  8
0
 10
-4.316
 11
-4.013
 20
-27.794
 21
-27.767
  0
LINE
  8
0
 10
-4.013
 11
-1.84
 20
-27.767
 21
-27.573
  0
LINE
  8
0
 10
-1.84
 11
-0.317
 20
-27.573
 21
-27.437
  0
LINE
  8
0
 10
-0.317
 11
-0.255
 20
-27.437
 21
-27.432
  0
LINE
  8
0
 10
-0.255
 11
-0.194
 20
-27.432
 21
-27.426
  0
LINE
  8
0
 10
-0.194
 11
-0.133
 20
-27.426
 21
-27.421
  0
LINE
  8
0
 10
-0.133
 11
-0.072
 20
-27.421
 21
-27.415
  0
LINE
  8
0
 10
-0.072
 11
-0.011
 20
-27.415
 21
-27.41
  0
LINE
  8
0
 10
-0.011
 11
0.05
 20
-27.41
 21
-27.404
  0
LINE
  8
0
 10
0.05
 11
0.112
 20
-27.404
 21
-27.399
  0
LINE
  8
0
 10
0.112
 11
0.172
 20
-27.399
 21
-27.393
  0
LINE
  8
0
 10
0.172
 11
0.233
 20
-27.393
 21
-27.388
  0
LINE
  8
0
 10
0.233
 11
0.281
 20
-27.388
 21
-27.383
  0
LINE
  8
0
 10
0.281
 11
4.906
 20
-27.383
 21
-26.97
  0
LINE
  8
0
 10
4.906
 11
4.95
 20
-26.97
 21
-26.97
  0
LINE
  8
0
 10
4.95
 11
4.996
 20
-26.97
 21
-26.978
  0
LINE
  8
0
 10
4.996
 11
5.038
 20
-26.978
 21
-26.992
  0
LINE
  8
0
 10
5.038
 11
5.047
 20
-26.992
 21
-26.998
  0
LINE
  8
0
 10
5.047
 11
5.058
 20
-26.998
 21
-27.003
  0
LINE
  8
0
 10
5.058
 11
5.078
 20
-27.003
 21
-27.014
  0
LINE
  8
0
 10
5.078
 11
5.114
 20
-27.014
 21
-27.042
  0
LINE
  8
0
 10
5.114
 11
5.144
 20
-27.042
 21
-27.076
  0
LINE
  8
0
 10
5.144
 11
5.168
 20
-27.076
 21
-27.114
  0
LINE
  8
0
 10
5.168
 11
5.176
 20
-27.114
 21
-27.135
  0
LINE
  8
0
 10
5.176
 11
5.182
 20
-27.135
 21
-27.151
  0
LINE
  8
0
 10
5.182
 11
5.184
 20
-27.151
 21
-27.156
  0
LINE
  8
0
 10
5.184
 11
5.194
 20
-27.156
 21
-27.2
  0
LINE
  8
0
 10
5.194
 11
5.198
 20
-27.2
 21
-27.246
  0
LINE
  8
0
 10
5.198
 11
5.192
 20
-27.246
 21
-27.29
  0
LINE
  8
0
 10
5.192
 11
5.186
 20
-27.29
 21
-27.312
  0
LINE
  8
0
 10
5.186
 11
5.18
 20
-27.312
 21
-27.331
  0
LINE
  8
0
 10
5.18
 11
5.18
 20
-27.331
 21
-27.334
  0
LINE
  8
0
 10
5.18
 11
4.918
 20
-27.334
 21
-28.012
  0
LINE
  8
0
 10
4.918
 11
4.862
 20
-28.012
 21
-28.157
  0
LINE
  8
0
 10
4.862
 11
4.809
 20
-28.157
 21
-28.295
  0
LINE
  8
0
 10
4.809
 11
4.759
 20
-28.295
 21
-28.426
  0
LINE
  8
0
 10
4.759
 11
4.711
 20
-28.426
 21
-28.549
  0
LINE
  8
0
 10
4.711
 11
4.666
 20
-28.549
 21
-28.667
  0
LINE
  8
0
 10
4.666
 11
4.658
 20
-28.667
 21
-28.686
  0
LINE
  8
0
 10
4.658
 11
4.64
 20
-28.686
 21
-28.714
  0
LINE
  8
0
 10
4.64
 11
4.618
 20
-28.714
 21
-28.74
  0
LINE
  8
0
 10
4.618
 11
4.596
 20
-28.74
 21
-28.766
  0
LINE
  8
0
 10
4.596
 11
4.588
 20
-28.766
 21
-28.774
  0
LINE
  8
0
 10
4.588
 11
4.584
 20
-28.774
 21
-28.778
  0
LINE
  8
0
 10
4.584
 11
4.572
 20
-28.778
 21
-28.79
  0
LINE
  8
0
 10
4.572
 11
4.546
 20
-28.79
 21
-28.812
  0
LINE
  8
0
 10
4.546
 11
4.52
 20
-28.812
 21
-28.832
  0
LINE
  8
0
 10
4.52
 11
4.492
 20
-28.832
 21
-28.852
  0
LINE
  8
0
 10
4.492
 11
4.488
 20
-28.852
 21
-28.855
  0
LINE
  8
0
 10
4.488
 11
4.478
 20
-28.855
 21
-28.861
  0
LINE
  8
0
 10
4.478
 11
4.464
 20
-28.861
 21
-28.87
  0
LINE
  8
0
 10
4.464
 11
4.434
 20
-28.87
 21
-28.888
  0
LINE
  8
0
 10
4.434
 11
4.404
 20
-28.888
 21
-28.902
  0
LINE
  8
0
 10
4.404
 11
4.34
 20
-28.902
 21
-28.926
  0
LINE
  8
0
 10
4.34
 11
4.315
 20
-28.926
 21
-28.929
  0
LINE
  8
0
 10
4.315
 11
4.265
 20
-28.929
 21
-28.933
  0
LINE
  8
0
 10
4.265
 11
4.215
 20
-28.933
 21
-28.938
  0
LINE
  8
0
 10
4.215
 11
4.165
 20
-28.938
 21
-28.942
  0
LINE
  8
0
 10
4.165
 11
2.923
 20
-28.942
 21
-29.053
  0
LINE
  8
0
 10
2.923
 11
0.171
 20
-29.053
 21
-29.299
  0
LINE
  8
0
 10
0.171
 11
-0.256
 20
-29.299
 21
-29.337
  0
LINE
  8
0
 10
-0.256
 11
-4.88
 20
-29.337
 21
-29.75
  0
LINE
  8
0
 10
-4.88
 11
-4.926
 20
-29.75
 21
-29.75
  0
LINE
  8
0
 10
-4.926
 11
-4.97
 20
-29.75
 21
-29.742
  0
LINE
  8
0
 10
-4.97
 11
-5.014
 20
-29.742
 21
-29.728
  0
LINE
  8
0
 10
-5.014
 11
-5.054
 20
-29.728
 21
-29.706
  0
LINE
  8
0
 10
-5.054
 11
-5.088
 20
-29.706
 21
-29.678
  0
LINE
  8
0
 10
-5.088
 11
-5.118
 20
-29.678
 21
-29.644
  0
LINE
  8
0
 10
-5.118
 11
-5.142
 20
-29.644
 21
-29.606
  0
LINE
  8
0
 10
-5.142
 11
-5.16
 20
-29.606
 21
-29.564
  0
LINE
  8
0
 10
-5.16
 11
-5.17
 20
-29.564
 21
-29.52
  0
LINE
  8
0
 10
-5.17
 11
-5.172
 20
-29.52
 21
-29.474
  0
LINE
  8
0
 10
-5.172
 11
-5.168
 20
-26.258
 21
-26.214
  0
LINE
  8
0
 10
-5.168
 11
-5.156
 20
-26.214
 21
-26.17
  0
LINE
  8
0
 10
-5.156
 11
-4.634
 20
-26.17
 21
-24.818
  0
LINE
  8
0
 10
-4.634
 11
-4.614
 20
-24.818
 21
-24.79
  0
LINE
  8
0
 10
-4.614
 11
-4.594
 20
-24.79
 21
-24.764
  0
LINE
  8
0
 10
-4.594
 11
-4.57
 20
-24.764
 21
-24.738
  0
LINE
  8
0
 10
-4.57
 11
-4.546
 20
-24.738
 21
-24.714
  0
LINE
  8
0
 10
-4.546
 11
-4.522
 20
-24.714
 21
-24.692
  0
LINE
  8
0
 10
-4.522
 11
-4.496
 20
-24.692
 21
-24.67
  0
LINE
  8
0
 10
-4.496
 11
-4.468
 20
-24.67
 21
-24.65
  0
LINE
  8
0
 10
-4.468
 11
-4.438
 20
-24.65
 21
-24.632
  0
LINE
  8
0
 10
-4.438
 11
-4.41
 20
-24.632
 21
-24.616
  0
LINE
  8
0
 10
-4.41
 11
-4.378
 20
-24.616
 21
-24.602
  0
LINE
  8
0
 10
-4.378
 11
-4.348
 20
-24.602
 21
-24.588
  0
LINE
  8
0
 10
-4.348
 11
-4.316
 20
-24.588
 21
-24.578
  0
LINE
  8
0
 10
-4.316
 11
-3.748
 20
-24.578
 21
-24.527
  0
LINE
  8
0
 10
-3.748
 11
-2.555
 20
-24.527
 21
-24.42
  0
LINE
  8
0
 10
-2.555
 11
-0.555
 20
-24.42
 21
-24.242
  0
LINE
  8
0
 10
-0.555
 11
-0.475
 20
-24.242
 21
-24.235
  0
LINE
  8
0
 10
-0.475
 11
-0.395
 20
-24.235
 21
-24.228
  0
LINE
  8
0
 10
-0.395
 11
-0.314
 20
-24.228
 21
-24.221
  0
LINE
  8
0
 10
-0.314
 11
-0.234
 20
-24.221
 21
-24.214
  0
LINE
  8
0
 10
-0.234
 11
-0.154
 20
-24.214
 21
-24.206
  0
LINE
  8
0
 10
-0.154
 11
-0.073
 20
-24.206
 21
-24.199
  0
LINE
  8
0
 10
-0.073
 11
0.007
 20
-24.199
 21
-24.192
  0
LINE
  8
0
 10
0.007
 11
0.088
 20
-24.192
 21
-24.185
  0
LINE
  8
0
 10
0.088
 11
0.167
 20
-24.185
 21
-24.178
  0
LINE
  8
0
 10
0.167
 11
0.247
 20
-24.178
 21
-24.17
  0
LINE
  8
0
 10
0.247
 11
0.281
 20
-24.17
 21
-24.167
  0
LINE
  8
0
 10
0.281
 11
4.906
 20
-24.167
 21
-23.754
  0
LINE
  8
0
 10
4.906
 11
4.95
 20
-23.754
 21
-23.754
  0
LINE
  8
0
 10
4.95
 11
4.996
 20
-23.754
 21
-23.762
  0
LINE
  8
0
 10
4.996
 11
4.998
 20
-23.762
 21
-23.763
  0
LINE
  8
0
 10
4.998
 11
5.017
 20
-23.763
 21
-23.769
  0
LINE
  8
0
 10
5.017
 11
5.038
 20
-23.769
 21
-23.776
  0
LINE
  8
0
 10
5.038
 11
5.078
 20
-23.776
 21
-23.798
  0
LINE
  8
0
 10
5.078
 11
5.114
 20
-23.798
 21
-23.826
  0
LINE
  8
0
 10
5.114
 11
5.144
 20
-23.826
 21
-23.86
  0
LINE
  8
0
 10
5.144
 11
5.156
 20
-23.86
 21
-23.879
  0
LINE
  8
0
 10
5.156
 11
5.165
 20
-23.879
 21
-23.894
  0
LINE
  8
0
 10
5.165
 11
5.168
 20
-23.894
 21
-23.898
  0
LINE
  8
0
 10
5.168
 11
5.184
 20
-23.898
 21
-23.94
  0
LINE
  8
0
 10
5.184
 11
5.194
 20
-23.94
 21
-23.984
  0
LINE
  8
0
 10
5.194
 11
5.198
 20
-23.984
 21
-24.03
  0
LINE
  8
0
 10
5.198
 11
5.192
 20
-24.03
 21
-24.074
  0
LINE
  8
0
 10
5.192
 11
5.18
 20
-24.074
 21
-24.118
  0
LINE
  8
0
 10
5.18
 11
4.918
 20
-24.118
 21
-24.796
  0
LINE
  8
0
 10
4.918
 11
4.91
 20
-24.796
 21
-24.817
  0
LINE
  8
0
 10
4.91
 11
4.835
 20
-24.817
 21
-25.01
  0
LINE
  8
0
 10
4.835
 11
4.765
 20
-25.01
 21
-25.193
  0
LINE
  8
0
 10
4.765
 11
4.699
 20
-25.193
 21
-25.365
  0
LINE
  8
0
 10
4.699
 11
4.658
 20
-25.365
 21
-25.47
  0
LINE
  8
0
 10
4.658
 11
4.64
 20
-25.47
 21
-25.498
  0
LINE
  8
0
 10
4.64
 11
4.618
 20
-25.498
 21
-25.524
  0
LINE
  8
0
 10
4.618
 11
4.607
 20
-25.524
 21
-25.537
  0
LINE
  8
0
 10
4.607
 11
4.603
 20
-25.537
 21
-25.541
  0
LINE
  8
0
 10
4.603
 11
4.596
 20
-25.541
 21
-25.55
  0
LINE
  8
0
 10
4.596
 11
4.572
 20
-25.55
 21
-25.574
  0
LINE
  8
0
 10
4.572
 11
4.546
 20
-25.574
 21
-25.596
  0
LINE
  8
0
 10
4.546
 11
4.52
 20
-25.596
 21
-25.616
  0
LINE
  8
0
 10
4.52
 11
4.492
 20
-25.616
 21
-25.636
  0
LINE
  8
0
 10
4.492
 11
4.485
 20
-25.636
 21
-25.641
  0
LINE
  8
0
 10
4.485
 11
4.478
 20
-25.641
 21
-25.645
  0
LINE
  8
0
 10
4.478
 11
4.464
 20
-25.645
 21
-25.654
  0
LINE
  8
0
 10
4.464
 11
4.434
 20
-25.654
 21
-25.67
  0
LINE
  8
0
 10
4.434
 11
4.404
 20
-25.67
 21
-25.686
  0
LINE
  8
0
 10
4.404
 11
4.34
 20
-25.686
 21
-25.71
  0
LINE
  8
0
 10
4.34
 11
4.272
 20
-25.71
 21
-25.717
  0
LINE
  8
0
 10
4.272
 11
4.203
 20
-25.717
 21
-25.723
  0
LINE
  8
0
 10
4.203
 11
4.135
 20
-25.723
 21
-25.729
  0
LINE
  8
0
 10
4.135
 11
4.065
 20
-25.729
 21
-25.735
  0
LINE
  8
0
 10
4.065
 11
3.996
 20
-25.735
 21
-25.741
  0
LINE
  8
0
 10
3.996
 11
3.926
 20
-25.741
 21
-25.747
  0
LINE
  8
0
 10
3.926
 11
2.209
 20
-25.747
 21
-25.9
  0
LINE
  8
0
 10
2.209
 11
0.436
 20
-25.9
 21
-26.059
  0
LINE
  8
0
 10
0.436
 11
-0.256
 20
-26.059
 21
-26.121
  0
LINE
  8
0
 10
-0.256
 11
-4.88
 20
-26.121
 21
-26.534
  0
LINE
  8
0
 10
-4.88
 11
-4.926
 20
-26.534
 21
-26.534
  0
LINE
  8
0
 10
-4.926
 11
-4.97
 20
-26.534
 21
-26.526
  0
LINE
  8
0
 10
-4.97
 11
-5.014
 20
-26.526
 21
-26.512
  0
LINE
  8
0
 10
-5.014
 11
-5.054
 20
-26.512
 21
-26.49
  0
LINE
  8
0
 10
-5.054
 11
-5.088
 20
-26.49
 21
-26.462
  0
LINE
  8
0
 10
-5.088
 11
-5.118
 20
-26.462
 21
-26.428
  0
LINE
  8
0
 10
-5.118
 11
-5.142
 20
-26.428
 21
-26.39
  0
LINE
  8
0
 10
-5.142
 11
-5.16
 20
-26.39
 21
-26.348
  0
LINE
  8
0
 10
-5.16
 11
-5.17
 20
-26.348
 21
-26.304
  0
LINE
  8
0
 10
-5.17
 11
-5.172
 20
-26.304
 21
-26.258
  0
LINE
  8
0
 10
-5.172
 11
-5.168
 20
-23.042
 21
-22.998
  0
LINE
  8
0
 10
-5.168
 11
-5.162
 20
-22.998
 21
-22.976
  0
LINE
  8
0
 10
-5.162
 11
-5.156
 20
-22.976
 21
-22.954
  0
LINE
  8
0
 10
-5.156
 11
-4.634
 20
-22.954
 21
-21.602
  0
LINE
  8
0
 10
-4.634
 11
-4.614
 20
-21.602
 21
-21.574
  0
LINE
  8
0
 10
-4.614
 11
-4.594
 20
-21.574
 21
-21.548
  0
LINE
  8
0
 10
-4.594
 11
-4.57
 20
-21.548
 21
-21.522
  0
LINE
  8
0
 10
-4.57
 11
-4.546
 20
-21.522
 21
-21.498
  0
LINE
  8
0
 10
-4.546
 11
-4.522
 20
-21.498
 21
-21.476
  0
LINE
  8
0
 10
-4.522
 11
-4.496
 20
-21.476
 21
-21.454
  0
LINE
  8
0
 10
-4.496
 11
-4.468
 20
-21.454
 21
-21.434
  0
LINE
  8
0
 10
-4.468
 11
-4.438
 20
-21.434
 21
-21.416
  0
LINE
  8
0
 10
-4.438
 11
-4.41
 20
-21.416
 21
-21.4
  0
LINE
  8
0
 10
-4.41
 11
-4.378
 20
-21.4
 21
-21.386
  0
LINE
  8
0
 10
-4.378
 11
-4.348
 20
-21.386
 21
-21.372
  0
LINE
  8
0
 10
-4.348
 11
-4.316
 20
-21.372
 21
-21.36
  0
LINE
  8
0
 10
-4.316
 11
-3.483
 20
-21.36
 21
-21.286
  0
LINE
  8
0
 10
-3.483
 11
-3.269
 20
-21.286
 21
-21.267
  0
LINE
  8
0
 10
-3.269
 11
-0.794
 20
-21.267
 21
-21.046
  0
LINE
  8
0
 10
-0.794
 11
-0.694
 20
-21.046
 21
-21.037
  0
LINE
  8
0
 10
-0.694
 11
-0.594
 20
-21.037
 21
-21.028
  0
LINE
  8
0
 10
-0.594
 11
-0.495
 20
-21.028
 21
-21.019
  0
LINE
  8
0
 10
-0.495
 11
-0.396
 20
-21.019
 21
-21.011
  0
LINE
  8
0
 10
-0.396
 11
-0.296
 20
-21.011
 21
-21.002
  0
LINE
  8
0
 10
-0.296
 11
-0.196
 20
-21.002
 21
-20.993
  0
LINE
  8
0
 10
-0.196
 11
-0.097
 20
-20.993
 21
-20.984
  0
LINE
  8
0
 10
-0.097
 11
0.002
 20
-20.984
 21
-20.975
  0
LINE
  8
0
 10
0.002
 11
0.102
 20
-20.975
 21
-20.966
  0
LINE
  8
0
 10
0.102
 11
0.2
 20
-20.966
 21
-20.957
  0
LINE
  8
0
 10
0.2
 11
0.281
 20
-20.957
 21
-20.95
  0
LINE
  8
0
 10
0.281
 11
4.906
 20
-20.95
 21
-20.538
  0
LINE
  8
0
 10
4.906
 11
4.95
 20
-20.538
 21
-20.538
  0
LINE
  8
0
 10
4.95
 11
4.996
 20
-20.538
 21
-20.546
  0
LINE
  8
0
 10
4.996
 11
5.038
 20
-20.546
 21
-20.56
  0
LINE
  8
0
 10
5.038
 11
5.078
 20
-20.56
 21
-20.582
  0
LINE
  8
0
 10
5.078
 11
5.114
 20
-20.582
 21
-20.61
  0
LINE
  8
0
 10
5.114
 11
5.144
 20
-20.61
 21
-20.644
  0
LINE
  8
0
 10
5.144
 11
5.156
 20
-20.644
 21
-20.663
  0
LINE
  8
0
 10
5.156
 11
5.168
 20
-20.663
 21
-20.682
  0
LINE
  8
0
 10
5.168
 11
5.184
 20
-20.682
 21
-20.724
  0
LINE
  8
0
 10
5.184
 11
5.194
 20
-20.724
 21
-20.768
  0
LINE
  8
0
 10
5.194
 11
5.198
 20
-20.768
 21
-20.814
  0
LINE
  8
0
 10
5.198
 11
5.192
 20
-20.814
 21
-20.858
  0
LINE
  8
0
 10
5.192
 11
5.18
 20
-20.858
 21
-20.902
  0
LINE
  8
0
 10
5.18
 11
4.918
 20
-20.902
 21
-21.58
  0
LINE
  8
0
 10
4.918
 11
4.901
 20
-21.58
 21
-21.623
  0
LINE
  8
0
 10
4.901
 11
4.809
 20
-21.623
 21
-21.864
  0
LINE
  8
0
 10
4.809
 11
4.721
 20
-21.864
 21
-22.089
  0
LINE
  8
0
 10
4.721
 11
4.658
 20
-22.089
 21
-22.254
  0
LINE
  8
0
 10
4.658
 11
4.64
 20
-22.254
 21
-22.282
  0
LINE
  8
0
 10
4.64
 11
4.618
 20
-22.282
 21
-22.308
  0
LINE
  8
0
 10
4.618
 11
4.596
 20
-22.308
 21
-22.334
  0
LINE
  8
0
 10
4.596
 11
4.572
 20
-22.334
 21
-22.356
  0
LINE
  8
0
 10
4.572
 11
4.546
 20
-22.356
 21
-22.38
  0
LINE
  8
0
 10
4.546
 11
4.52
 20
-22.38
 21
-22.4
  0
LINE
  8
0
 10
4.52
 11
4.492
 20
-22.4
 21
-22.42
  0
LINE
  8
0
 10
4.492
 11
4.464
 20
-22.42
 21
-22.438
  0
LINE
  8
0
 10
4.464
 11
4.455
 20
-22.438
 21
-22.443
  0
LINE
  8
0
 10
4.455
 11
4.449
 20
-22.443
 21
-22.446
  0
LINE
  8
0
 10
4.449
 11
4.434
 20
-22.446
 21
-22.454
  0
LINE
  8
0
 10
4.434
 11
4.404
 20
-22.454
 21
-22.47
  0
LINE
  8
0
 10
4.404
 11
4.34
 20
-22.47
 21
-22.494
  0
LINE
  8
0
 10
4.34
 11
4.306
 20
-22.494
 21
-22.498
  0
LINE
  8
0
 10
4.306
 11
4.217
 20
-22.498
 21
-22.505
  0
LINE
  8
0
 10
4.217
 11
4.13
 20
-22.505
 21
-22.513
  0
LINE
  8
0
 10
4.13
 11
4.041
 20
-22.513
 21
-22.521
  0
LINE
  8
0
 10
4.041
 11
3.865
 20
-22.521
 21
-22.537
  0
LINE
  8
0
 10
3.865
 11
3.777
 20
-22.537
 21
-22.545
  0
LINE
  8
0
 10
3.777
 11
3.689
 20
-22.545
 21
-22.553
  0
LINE
  8
0
 10
3.689
 11
1.496
 20
-22.553
 21
-22.748
  0
LINE
  8
0
 10
1.496
 11
0.701
 20
-22.748
 21
-22.819
  0
LINE
  8
0
 10
0.701
 11
-0.256
 20
-22.819
 21
-22.905
  0
LINE
  8
0
 10
-0.256
 11
-4.88
 20
-22.905
 21
-23.318
  0
LINE
  8
0
 10
-4.88
 11
-4.926
 20
-23.318
 21
-23.318
  0
LINE
  8
0
 10
-4.926
 11
-4.97
 20
-23.318
 21
-23.31
  0
LINE
  8
0
 10
-4.97
 11
-5.014
 20
-23.31
 21
-23.296
  0
LINE
  8
0
 10
-5.014
 11
-5.054
 20
-23.296
 21
-23.274
  0
LINE
  8
0
 10
-5.054
 11
-5.088
 20
-23.274
 21
-23.246
  0
LINE
  8
0
 10
-5.088
 11
-5.118
 20
-23.246
 21
-23.212
  0
LINE
  8
0
 10
-5.118
 11
-5.142
 20
-23.212
 21
-23.174
  0
LINE
  8
0
 10
-5.142
 11
-5.16
 20
-23.174
 21
-23.132
  0
LINE
  8
0
 10
-5.16
 11
-5.165
 20
-23.132
 21
-23.11
  0
LINE
  8
0
 10
-5.165
 11
-5.169
 20
-23.11
 21
-23.095
  0
LINE
  8
0
 10
-5.169
 11
-5.17
 20
-23.095
 21
-23.088
  0
LINE
  8
0
 10
-5.17
 11
-5.172
 20
-23.088
 21
-23.042
  0
LINE
  8
0
 10
-1.306
 11
1.332
 20
-34.462
 21
-34.228
  0
LINE
  8
0
 10
1.332
 11
1.332
 20
-34.228
 21
-36.9
  0
LINE
  8
0
 10
1.332
 11
1.328
 20
-36.9
 21
-36.942
  0
LINE
  8
0
 10
1.328
 11
1.32
 20
-36.942
 21
-36.986
  0
LINE
  8
0
 10
1.32
 11
1.306
 20
-36.986
 21
-37.026
  0
LINE
  8
0
 10
1.306
 11
1.286
 20
-37.026
 21
-37.066
  0
LINE
  8
0
 10
1.286
 11
1.262
 20
-37.066
 21
-37.102
  0
LINE
  8
0
 10
1.262
 11
1.234
 20
-37.102
 21
-37.134
  0
LINE
  8
0
 10
1.234
 11
1.202
 20
-37.134
 21
-37.164
  0
LINE
  8
0
 10
1.202
 11
1.166
 20
-37.164
 21
-37.188
  0
LINE
  8
0
 10
1.166
 11
1.126
 20
-37.188
 21
-37.208
  0
LINE
  8
0
 10
1.126
 11
1.084
 20
-37.208
 21
-37.222
  0
LINE
  8
0
 10
1.084
 11
1.042
 20
-37.222
 21
-37.23
  0
LINE
  8
0
 10
1.042
 11
1.027
 20
-37.23
 21
-37.231
  0
LINE
  8
0
 10
1.027
 11
1.02
 20
-37.231
 21
-37.231
  0
LINE
  8
0
 10
1.02
 11
0.998
 20
-37.231
 21
-37.232
  0
LINE
  8
0
 10
0.998
 11
0.496
 20
-37.232
 21
-37.232
  0
LINE
  8
0
 10
0.496
 11
-0.007
 20
-37.232
 21
-37.231
  0
LINE
  8
0
 10
-0.007
 11
-1.018
 20
-37.231
 21
-37.23
  0
LINE
  8
0
 10
-1.018
 11
-1.06
 20
-37.23
 21
-37.222
  0
LINE
  8
0
 10
-1.06
 11
-1.102
 20
-37.222
 21
-37.208
  0
LINE
  8
0
 10
-1.102
 11
-1.142
 20
-37.208
 21
-37.19
  0
LINE
  8
0
 10
-1.142
 11
-1.178
 20
-37.19
 21
-37.166
  0
LINE
  8
0
 10
-1.178
 11
-1.212
 20
-37.166
 21
-37.136
  0
LINE
  8
0
 10
-1.212
 11
-1.24
 20
-37.136
 21
-37.104
  0
LINE
  8
0
 10
-1.24
 11
-1.264
 20
-37.104
 21
-37.068
  0
LINE
  8
0
 10
-1.264
 11
-1.284
 20
-37.068
 21
-37.028
  0
LINE
  8
0
 10
-1.284
 11
-1.296
 20
-37.028
 21
-36.986
  0
LINE
  8
0
 10
-1.296
 11
-1.304
 20
-36.986
 21
-36.944
  0
LINE
  8
0
 10
-1.304
 11
-1.306
 20
-36.944
 21
-34.462
  0
LINE
  8
0
 10
-1.306
 11
-1.298
 20
0.65
 21
0.672
  0
LINE
  8
0
 10
-1.298
 11
1.332
 20
0.672
 21
0.672
  0
LINE
  8
0
 10
1.332
 11
1.332
 20
0.672
 21
-19.146
  0
LINE
  8
0
 10
1.332
 11
-1.298
 20
-19.146
 21
-19.382
  0
LINE
  8
0
 10
-1.298
 11
-1.3
 20
-19.382
 21
-16.183
  0
LINE
  8
0
 10
-1.3
 11
-1.302
 20
-16.183
 21
-11.598
  0
LINE
  8
0
 10
-1.302
 11
-1.302
 20
-11.598
 21
-9.396
  0
LINE
  8
0
 10
-1.302
 11
-1.306
 20
-9.396
 21
0.65
  0
ENDSEC
  0
SECTION
  2
OBJECTS
  0
DICTIONARY
  0
ENDSEC
  0
EOF
