  0
SECTION
  2
BLOCKS
  0
ENDSEC
  0
SECTION
  2
ENTITIES
  0
LINE
  8
0
 10
-32.982
 11
-32.982
 20
1.85
 21
6.114
  0
LINE
  8
0
 10
-32.982
 11
-26.587
 20
6.114
 21
8.281
  0
LINE
  8
0
 10
-26.587
 11
-25.528
 20
8.281
 21
8.639
  0
LINE
  8
0
 10
-25.528
 11
-25.516
 20
8.639
 21
8.644
  0
LINE
  8
0
 10
-25.516
 11
-25.436
 20
8.644
 21
9.104
  0
LINE
  8
0
 10
-25.436
 11
-25.424
 20
9.104
 21
9.159
  0
LINE
  8
0
 10
-25.424
 11
-25.424
 20
9.159
 21
9.164
  0
LINE
  8
0
 10
-25.424
 11
-25.294
 20
9.164
 21
9.787
  0
LINE
  8
0
 10
-25.294
 11
-25.27
 20
9.787
 21
9.9
  0
LINE
  8
0
 10
-25.27
 11
-25.255
 20
9.9
 21
9.965
  0
LINE
  8
0
 10
-25.255
 11
-25.255
 20
9.965
 21
9.969
  0
LINE
  8
0
 10
-25.255
 11
-25.107
 20
9.969
 21
10.58
  0
LINE
  8
0
 10
-25.107
 11
-25.08
 20
10.58
 21
10.692
  0
LINE
  8
0
 10
-25.08
 11
-25.061
 20
10.692
 21
10.762
  0
LINE
  8
0
 10
-25.061
 11
-25.061
 20
10.762
 21
10.766
  0
LINE
  8
0
 10
-25.061
 11
-24.896
 20
10.766
 21
11.365
  0
LINE
  8
0
 10
-24.896
 11
-24.866
 20
11.365
 21
11.476
  0
LINE
  8
0
 10
-24.866
 11
-24.842
 20
11.476
 21
11.553
  0
LINE
  8
0
 10
-24.842
 11
-24.842
 20
11.553
 21
11.555
  0
LINE
  8
0
 10
-24.842
 11
-24.66
 20
11.555
 21
12.144
  0
LINE
  8
0
 10
-24.66
 11
-24.626
 20
12.144
 21
12.254
  0
LINE
  8
0
 10
-24.626
 11
-24.6
 20
12.254
 21
12.333
  0
LINE
  8
0
 10
-24.6
 11
-24.599
 20
12.333
 21
12.335
  0
LINE
  8
0
 10
-24.599
 11
-24.399
 20
12.335
 21
12.915
  0
LINE
  8
0
 10
-24.399
 11
-24.362
 20
12.915
 21
13.024
  0
LINE
  8
0
 10
-24.362
 11
-24.333
 20
13.024
 21
13.105
  0
LINE
  8
0
 10
-24.333
 11
-24.331
 20
13.105
 21
13.106
  0
LINE
  8
0
 10
-24.331
 11
-24.322
 20
13.106
 21
13.13
  0
LINE
  8
0
 10
-24.322
 11
-24.306
 20
13.13
 21
13.174
  0
LINE
  8
0
 10
-24.306
 11
-24.316
 20
13.174
 21
13.184
  0
LINE
  8
0
 10
-24.316
 11
-26.203
 20
13.184
 21
15.082
  0
LINE
  8
0
 10
-26.203
 11
-29.764
 20
15.082
 21
18.662
  0
LINE
  8
0
 10
-29.764
 11
-27.632
 20
18.662
 21
22.354
  0
LINE
  8
0
 10
-27.632
 11
-21.011
 20
22.354
 21
21.034
  0
LINE
  8
0
 10
-21.011
 11
-19.916
 20
21.034
 21
20.816
  0
LINE
  8
0
 10
-19.916
 11
-19.906
 20
20.816
 21
20.814
  0
LINE
  8
0
 10
-19.906
 11
-19.876
 20
20.814
 21
20.85
  0
LINE
  8
0
 10
-19.876
 11
-19.874
 20
20.85
 21
20.851
  0
LINE
  8
0
 10
-19.874
 11
-19.495
 20
20.851
 21
21.294
  0
LINE
  8
0
 10
-19.495
 11
-19.42
 20
21.294
 21
21.382
  0
LINE
  8
0
 10
-19.42
 11
-19.35
 20
21.382
 21
21.461
  0
LINE
  8
0
 10
-19.35
 11
-19.348
 20
21.461
 21
21.461
  0
LINE
  8
0
 10
-19.348
 11
-18.95
 20
21.461
 21
21.899
  0
LINE
  8
0
 10
-18.95
 11
-18.872
 20
21.899
 21
21.984
  0
LINE
  8
0
 10
-18.872
 11
-18.798
 20
21.984
 21
22.061
  0
LINE
  8
0
 10
-18.798
 11
-18.796
 20
22.061
 21
22.061
  0
LINE
  8
0
 10
-18.796
 11
-18.386
 20
22.061
 21
22.485
  0
LINE
  8
0
 10
-18.386
 11
-18.306
 20
22.485
 21
22.568
  0
LINE
  8
0
 10
-18.306
 11
-18.223
 20
22.568
 21
22.648
  0
LINE
  8
0
 10
-18.223
 11
-18.146
 20
22.648
 21
22.724
  0
LINE
  8
0
 10
-18.146
 11
-17.722
 20
22.724
 21
23.134
  0
LINE
  8
0
 10
-17.722
 11
-17.637
 20
23.134
 21
23.212
  0
LINE
  8
0
 10
-17.637
 11
-17.556
 20
23.212
 21
23.284
  0
LINE
  8
0
 10
-17.556
 11
-17.12
 20
23.284
 21
23.682
  0
LINE
  8
0
 10
-17.12
 11
-17.033
 20
23.682
 21
23.757
  0
LINE
  8
0
 10
-17.033
 11
-16.952
 20
23.757
 21
23.825
  0
LINE
  8
0
 10
-16.952
 11
-16.59
 20
23.825
 21
24.134
  0
LINE
  8
0
 10
-16.59
 11
-16.592
 20
24.134
 21
24.143
  0
LINE
  8
0
 10
-16.592
 11
-17.278
 20
24.143
 21
26.732
  0
LINE
  8
0
 10
-17.278
 11
-18.57
 20
26.732
 21
31.612
  0
LINE
  8
0
 10
-18.57
 11
-14.876
 20
31.612
 21
33.744
  0
LINE
  8
0
 10
-14.876
 11
-9.801
 20
33.744
 21
29.289
  0
LINE
  8
0
 10
-9.801
 11
-8.963
 20
29.289
 21
28.553
  0
LINE
  8
0
 10
-8.963
 11
-8.96
 20
28.553
 21
28.55
  0
LINE
  8
0
 10
-8.96
 11
-8.762
 20
28.55
 21
28.624
  0
LINE
  8
0
 10
-8.762
 11
-8.653
 20
28.624
 21
28.661
  0
LINE
  8
0
 10
-8.653
 11
-8.547
 20
28.661
 21
28.697
  0
LINE
  8
0
 10
-8.547
 11
-7.992
 20
28.697
 21
28.888
  0
LINE
  8
0
 10
-7.992
 11
-7.882
 20
28.888
 21
28.922
  0
LINE
  8
0
 10
-7.882
 11
-7.774
 20
28.922
 21
28.955
  0
LINE
  8
0
 10
-7.774
 11
-7.216
 20
28.955
 21
29.128
  0
LINE
  8
0
 10
-7.216
 11
-7.105
 20
29.128
 21
29.158
  0
LINE
  8
0
 10
-7.105
 11
-6.995
 20
29.158
 21
29.187
  0
LINE
  8
0
 10
-6.995
 11
-6.993
 20
29.187
 21
29.187
  0
LINE
  8
0
 10
-6.993
 11
-6.43
 20
29.187
 21
29.342
  0
LINE
  8
0
 10
-6.43
 11
-6.318
 20
29.342
 21
29.369
  0
LINE
  8
0
 10
-6.318
 11
-6.208
 20
29.369
 21
29.395
  0
LINE
  8
0
 10
-6.208
 11
-6.206
 20
29.395
 21
29.395
  0
LINE
  8
0
 10
-6.206
 11
-5.638
 20
29.395
 21
29.532
  0
LINE
  8
0
 10
-5.638
 11
-5.525
 20
29.532
 21
29.555
  0
LINE
  8
0
 10
-5.525
 11
-5.414
 20
29.555
 21
29.578
  0
LINE
  8
0
 10
-5.414
 11
-4.842
 20
29.578
 21
29.696
  0
LINE
  8
0
 10
-4.842
 11
-4.728
 20
29.696
 21
29.716
  0
LINE
  8
0
 10
-4.728
 11
-4.632
 20
29.716
 21
29.734
  0
LINE
  8
0
 10
-4.632
 11
-4.422
 20
29.734
 21
29.77
  0
LINE
  8
0
 10
-4.422
 11
-4.422
 20
29.77
 21
29.773
  0
LINE
  8
0
 10
-4.422
 11
-3.721
 20
29.773
 21
32.358
  0
LINE
  8
0
 10
-3.721
 11
-2.402
 20
32.358
 21
37.23
  0
LINE
  8
0
 10
-2.402
 11
1.864
 20
37.23
 21
37.23
  0
LINE
  8
0
 10
1.864
 11
4.388
 20
37.23
 21
29.78
  0
LINE
  8
0
 10
4.388
 11
4.868
 20
29.78
 21
29.696
  0
LINE
  8
0
 10
4.868
 11
4.981
 20
29.696
 21
29.673
  0
LINE
  8
0
 10
4.981
 11
5.082
 20
29.673
 21
29.652
  0
LINE
  8
0
 10
5.082
 11
5.092
 20
29.652
 21
29.649
  0
LINE
  8
0
 10
5.092
 11
5.094
 20
29.649
 21
29.649
  0
LINE
  8
0
 10
5.094
 11
5.146
 20
29.649
 21
29.638
  0
LINE
  8
0
 10
5.146
 11
5.664
 20
29.638
 21
29.532
  0
LINE
  8
0
 10
5.664
 11
5.776
 20
29.532
 21
29.505
  0
LINE
  8
0
 10
5.776
 11
5.874
 20
29.505
 21
29.481
  0
LINE
  8
0
 10
5.874
 11
5.888
 20
29.481
 21
29.478
  0
LINE
  8
0
 10
5.888
 11
5.95
 20
29.478
 21
29.462
  0
LINE
  8
0
 10
5.95
 11
6.456
 20
29.462
 21
29.342
  0
LINE
  8
0
 10
6.456
 11
7.24
 20
29.342
 21
29.128
  0
LINE
  8
0
 10
7.24
 11
8.018
 20
29.128
 21
28.888
  0
LINE
  8
0
 10
8.018
 11
8.788
 20
28.888
 21
28.624
  0
LINE
  8
0
 10
8.788
 11
8.936
 20
28.624
 21
28.568
  0
LINE
  8
0
 10
8.936
 11
14.41
 20
28.568
 21
34.012
  0
LINE
  8
0
 10
14.41
 11
18.104
 20
34.012
 21
31.88
  0
LINE
  8
0
 10
18.104
 11
17.554
 20
31.88
 21
29.121
  0
LINE
  8
0
 10
17.554
 11
16.786
 20
29.121
 21
25.265
  0
LINE
  8
0
 10
16.786
 11
16.568
 20
25.265
 21
24.174
  0
LINE
  8
0
 10
16.568
 11
17.146
 20
24.174
 21
23.682
  0
LINE
  8
0
 10
17.146
 11
17.748
 20
23.682
 21
23.134
  0
LINE
  8
0
 10
17.748
 11
18.332
 20
23.134
 21
22.568
  0
LINE
  8
0
 10
18.332
 11
18.898
 20
22.568
 21
21.984
  0
LINE
  8
0
 10
18.898
 11
19.446
 20
21.984
 21
21.382
  0
LINE
  8
0
 10
19.446
 11
19.906
 20
21.382
 21
20.842
  0
LINE
  8
0
 10
19.906
 11
27.362
 20
20.842
 21
22.818
  0
LINE
  8
0
 10
27.362
 11
29.494
 20
22.818
 21
19.124
  0
LINE
  8
0
 10
29.494
 11
27.639
 20
19.124
 21
17.011
  0
LINE
  8
0
 10
27.639
 11
25.048
 20
17.011
 21
14.058
  0
LINE
  8
0
 10
25.048
 11
24.314
 20
14.058
 21
13.222
  0
LINE
  8
0
 10
24.314
 11
24.388
 20
13.222
 21
13.024
  0
LINE
  8
0
 10
24.388
 11
24.652
 20
13.024
 21
12.254
  0
LINE
  8
0
 10
24.652
 11
24.892
 20
12.254
 21
11.476
  0
LINE
  8
0
 10
24.892
 11
25.106
 20
11.476
 21
10.692
  0
LINE
  8
0
 10
25.106
 11
25.296
 20
10.692
 21
9.9
  0
LINE
  8
0
 10
25.296
 11
25.462
 20
9.9
 21
9.104
  0
LINE
  8
0
 10
25.462
 11
25.538
 20
9.104
 21
8.666
  0
LINE
  8
0
 10
25.538
 11
32.98
 20
8.666
 21
6.65
  0
LINE
  8
0
 10
32.98
 11
32.98
 20
6.65
 21
2.384
  0
LINE
  8
0
 10
32.98
 11
28.209
 20
2.384
 21
0.768
  0
LINE
  8
0
 10
28.209
 11
26.597
 20
0.768
 21
0.221
  0
LINE
  8
0
 10
26.597
 11
25.544
 20
0.221
 21
-0.136
  0
LINE
  8
0
 10
25.544
 11
25.462
 20
-0.136
 21
-0.606
  0
LINE
  8
0
 10
25.462
 11
25.296
 20
-0.606
 21
-1.404
  0
LINE
  8
0
 10
25.296
 11
25.106
 20
-1.404
 21
-2.194
  0
LINE
  8
0
 10
25.106
 11
24.892
 20
-2.194
 21
-2.98
  0
LINE
  8
0
 10
24.892
 11
24.652
 20
-2.98
 21
-3.758
  0
LINE
  8
0
 10
24.652
 11
24.388
 20
-3.758
 21
-4.528
  0
LINE
  8
0
 10
24.388
 11
24.324
 20
-4.528
 21
-4.696
  0
LINE
  8
0
 10
24.324
 11
29.762
 20
-4.696
 21
-10.162
  0
LINE
  8
0
 10
29.762
 11
27.63
 20
-10.162
 21
-13.856
  0
LINE
  8
0
 10
27.63
 11
24.74
 20
-13.856
 21
-13.28
  0
LINE
  8
0
 10
24.74
 11
21.019
 20
-13.28
 21
-12.538
  0
LINE
  8
0
 10
21.019
 11
19.928
 20
-12.538
 21
-12.32
  0
LINE
  8
0
 10
19.928
 11
19.446
 20
-12.32
 21
-12.884
  0
LINE
  8
0
 10
19.446
 11
18.898
 20
-12.884
 21
-13.486
  0
LINE
  8
0
 10
18.898
 11
18.332
 20
-13.486
 21
-14.07
  0
LINE
  8
0
 10
18.332
 11
17.748
 20
-14.07
 21
-14.638
  0
LINE
  8
0
 10
17.748
 11
17.146
 20
-14.638
 21
-15.184
  0
LINE
  8
0
 10
17.146
 11
16.592
 20
-15.184
 21
-15.658
  0
LINE
  8
0
 10
16.592
 11
18.568
 20
-15.658
 21
-23.112
  0
LINE
  8
0
 10
18.568
 11
14.874
 20
-23.112
 21
-25.246
  0
LINE
  8
0
 10
14.874
 11
12.761
 20
-25.246
 21
-23.39
  0
LINE
  8
0
 10
12.761
 11
9.804
 20
-23.39
 21
-20.794
  0
LINE
  8
0
 10
9.804
 11
8.968
 20
-20.794
 21
-20.06
  0
LINE
  8
0
 10
8.968
 11
8.788
 20
-20.06
 21
-20.128
  0
LINE
  8
0
 10
8.788
 11
8.148
 20
-20.128
 21
-20.346
  0
LINE
  8
0
 10
8.148
 11
8.148
 20
-20.346
 21
-34.232
  0
LINE
  8
0
 10
8.148
 11
8.142
 20
-34.232
 21
-34.624
  0
LINE
  8
0
 10
8.142
 11
8.08
 20
-34.624
 21
-35.01
  0
LINE
  8
0
 10
8.08
 11
7.968
 20
-35.01
 21
-35.382
  0
LINE
  8
0
 10
7.968
 11
7.806
 20
-35.382
 21
-35.738
  0
LINE
  8
0
 10
7.806
 11
7.596
 20
-35.738
 21
-36.068
  0
LINE
  8
0
 10
7.596
 11
7.344
 20
-36.068
 21
-36.366
  0
LINE
  8
0
 10
7.344
 11
7.054
 20
-36.366
 21
-36.626
  0
LINE
  8
0
 10
7.054
 11
6.73
 20
-36.626
 21
-36.846
  0
LINE
  8
0
 10
6.73
 11
6.38
 20
-36.846
 21
-37.018
  0
LINE
  8
0
 10
6.38
 11
6.01
 20
-37.018
 21
-37.142
  0
LINE
  8
0
 10
6.01
 11
5.626
 20
-37.142
 21
-37.212
  0
LINE
  8
0
 10
5.626
 11
5.236
 20
-37.212
 21
-37.232
  0
LINE
  8
0
 10
5.236
 11
-5.254
 20
-37.232
 21
-37.232
  0
LINE
  8
0
 10
-5.254
 11
-5.644
 20
-37.232
 21
-37.212
  0
LINE
  8
0
 10
-5.644
 11
-6.028
 20
-37.212
 21
-37.142
  0
LINE
  8
0
 10
-6.028
 11
-6.398
 20
-37.142
 21
-37.018
  0
LINE
  8
0
 10
-6.398
 11
-6.748
 20
-37.018
 21
-36.846
  0
LINE
  8
0
 10
-6.748
 11
-7.072
 20
-36.846
 21
-36.626
  0
LINE
  8
0
 10
-7.072
 11
-7.362
 20
-36.626
 21
-36.366
  0
LINE
  8
0
 10
-7.362
 11
-7.616
 20
-36.366
 21
-36.068
  0
LINE
  8
0
 10
-7.616
 11
-7.824
 20
-36.068
 21
-35.738
  0
LINE
  8
0
 10
-7.824
 11
-7.988
 20
-35.738
 21
-35.382
  0
LINE
  8
0
 10
-7.988
 11
-8.1
 20
-35.382
 21
-35.01
  0
LINE
  8
0
 10
-8.1
 11
-8.162
 20
-35.01
 21
-34.624
  0
LINE
  8
0
 10
-8.162
 11
-8.168
 20
-34.624
 21
-34.232
  0
LINE
  8
0
 10
-8.168
 11
-8.168
 20
-34.232
 21
-20.33
  0
LINE
  8
0
 10
-8.168
 11
-8.762
 20
-20.33
 21
-20.128
  0
LINE
  8
0
 10
-8.762
 11
-8.871
 20
-20.128
 21
-20.087
  0
LINE
  8
0
 10
-8.871
 11
-8.927
 20
-20.087
 21
-20.066
  0
LINE
  8
0
 10
-8.927
 11
-8.934
 20
-20.066
 21
-20.064
  0
LINE
  8
0
 10
-8.934
 11
-8.937
 20
-20.064
 21
-20.067
  0
LINE
  8
0
 10
-8.937
 11
-10.834
 20
-20.067
 21
-21.955
  0
LINE
  8
0
 10
-10.834
 11
-14.412
 20
-21.955
 21
-25.514
  0
LINE
  8
0
 10
-14.412
 11
-18.106
 20
-25.514
 21
-23.38
  0
LINE
  8
0
 10
-18.106
 11
-16.786
 20
-23.38
 21
-16.759
  0
LINE
  8
0
 10
-16.786
 11
-16.568
 20
-16.759
 21
-15.665
  0
LINE
  8
0
 10
-16.568
 11
-16.568
 20
-15.665
 21
-15.658
  0
LINE
  8
0
 10
-16.568
 11
-17.12
 20
-15.658
 21
-15.184
  0
LINE
  8
0
 10
-17.12
 11
-17.205
 20
-15.184
 21
-15.107
  0
LINE
  8
0
 10
-17.205
 11
-17.312
 20
-15.107
 21
-15.011
  0
LINE
  8
0
 10
-17.312
 11
-17.313
 20
-15.011
 21
-15.009
  0
LINE
  8
0
 10
-17.313
 11
-17.722
 20
-15.009
 21
-14.638
  0
LINE
  8
0
 10
-17.722
 11
-17.805
 20
-14.638
 21
-14.558
  0
LINE
  8
0
 10
-17.805
 11
-17.909
 20
-14.558
 21
-14.456
  0
LINE
  8
0
 10
-17.909
 11
-18.306
 20
-14.456
 21
-14.07
  0
LINE
  8
0
 10
-18.306
 11
-18.407
 20
-14.07
 21
-13.967
  0
LINE
  8
0
 10
-18.407
 11
-18.409
 20
-13.967
 21
-13.967
  0
LINE
  8
0
 10
-18.409
 11
-18.792
 20
-13.967
 21
-13.569
  0
LINE
  8
0
 10
-18.792
 11
-18.872
 20
-13.569
 21
-13.486
  0
LINE
  8
0
 10
-18.872
 11
-18.972
 20
-13.486
 21
-13.38
  0
LINE
  8
0
 10
-18.972
 11
-18.972
 20
-13.38
 21
-13.378
  0
LINE
  8
0
 10
-18.972
 11
-19.342
 20
-13.378
 21
-12.969
  0
LINE
  8
0
 10
-19.342
 11
-19.42
 20
-12.969
 21
-12.884
  0
LINE
  8
0
 10
-19.42
 11
-19.516
 20
-12.884
 21
-12.772
  0
LINE
  8
0
 10
-19.516
 11
-19.518
 20
-12.772
 21
-12.772
  0
LINE
  8
0
 10
-19.518
 11
-19.875
 20
-12.772
 21
-12.353
  0
LINE
  8
0
 10
-19.875
 11
-19.888
 20
-12.353
 21
-12.338
  0
LINE
  8
0
 10
-19.888
 11
-19.897
 20
-12.338
 21
-12.341
  0
LINE
  8
0
 10
-19.897
 11
-22.485
 20
-12.341
 21
-13.026
  0
LINE
  8
0
 10
-22.485
 11
-27.364
 20
-13.026
 21
-14.32
  0
LINE
  8
0
 10
-27.364
 11
-29.496
 20
-14.32
 21
-10.626
  0
LINE
  8
0
 10
-29.496
 11
-25.041
 20
-10.626
 21
-5.551
  0
LINE
  8
0
 10
-25.041
 11
-24.305
 20
-5.551
 21
-4.713
  0
LINE
  8
0
 10
-24.305
 11
-24.296
 20
-4.713
 21
-4.704
  0
LINE
  8
0
 10
-24.296
 11
-24.362
 20
-4.704
 21
-4.528
  0
LINE
  8
0
 10
-24.362
 11
-24.417
 20
-4.528
 21
-4.368
  0
LINE
  8
0
 10
-24.417
 11
-24.419
 20
-4.368
 21
-4.367
  0
LINE
  8
0
 10
-24.419
 11
-24.589
 20
-4.367
 21
-3.867
  0
LINE
  8
0
 10
-24.589
 11
-24.626
 20
-3.867
 21
-3.758
  0
LINE
  8
0
 10
-24.626
 11
-24.678
 20
-3.758
 21
-3.593
  0
LINE
  8
0
 10
-24.678
 11
-24.678
 20
-3.593
 21
-3.591
  0
LINE
  8
0
 10
-24.678
 11
-24.832
 20
-3.591
 21
-3.09
  0
LINE
  8
0
 10
-24.832
 11
-24.866
 20
-3.09
 21
-2.98
  0
LINE
  8
0
 10
-24.866
 11
-24.912
 20
-2.98
 21
-2.808
  0
LINE
  8
0
 10
-24.912
 11
-24.914
 20
-2.808
 21
-2.805
  0
LINE
  8
0
 10
-24.914
 11
-25.05
 20
-2.805
 21
-2.305
  0
LINE
  8
0
 10
-25.05
 11
-25.08
 20
-2.305
 21
-2.194
  0
LINE
  8
0
 10
-25.08
 11
-25.123
 20
-2.194
 21
-2.017
  0
LINE
  8
0
 10
-25.123
 11
-25.125
 20
-2.017
 21
-2.014
  0
LINE
  8
0
 10
-25.125
 11
-25.243
 20
-2.014
 21
-1.516
  0
LINE
  8
0
 10
-25.243
 11
-25.27
 20
-1.516
 21
-1.404
  0
LINE
  8
0
 10
-25.27
 11
-25.309
 20
-1.404
 21
-1.215
  0
LINE
  8
0
 10
-25.309
 11
-25.311
 20
-1.215
 21
-1.21
  0
LINE
  8
0
 10
-25.311
 11
-25.412
 20
-1.21
 21
-0.719
  0
LINE
  8
0
 10
-25.412
 11
-25.436
 20
-0.719
 21
-0.606
  0
LINE
  8
0
 10
-25.436
 11
-25.47
 20
-0.606
 21
-0.407
  0
LINE
  8
0
 10
-25.47
 11
-25.472
 20
-0.407
 21
-0.4
  0
LINE
  8
0
 10
-25.472
 11
-25.488
 20
-0.4
 21
-0.308
  0
LINE
  8
0
 10
-25.488
 11
-25.512
 20
-0.308
 21
-0.176
  0
LINE
  8
0
 10
-25.512
 11
-25.524
 20
-0.176
 21
-0.173
  0
LINE
  8
0
 10
-25.524
 11
-28.11
 20
-0.173
 21
0.529
  0
LINE
  8
0
 10
-28.11
 11
-32.982
 20
0.529
 21
1.85
  0
ENDSEC
  0
SECTION
  2
OBJECTS
  0
DICTIONARY
  0
ENDSEC
  0
EOF
