  0
SECTION
  2
HEADER
  9
$ACADVER
  1
AC1014
  9
$ACADMAINTVER
 70
     9
  9
$DWGCODEPAGE
  3
ANSI_1252
  9
$INSBASE
 10
0.0
 20
0.0
 30
0.0
  9
$EXTMIN
 10
1.000000000000000E+20
 20
1.000000000000000E+20
 30
1.000000000000000E+20
  9
$EXTMAX
 10
-1.000000000000000E+20
 20
-1.000000000000000E+20
 30
-1.000000000000000E+20
  9
$LIMMIN
 10
0.0
 20
0.0
  9
$LIMMAX
 10
420.0
 20
297.0
  9
$ORTHOMODE
 70
     0
  9
$REGENMODE
 70
     1
  9
$FILLMODE
 70
     1
  9
$QTEXTMODE
 70
     0
  9
$MIRRTEXT
 70
     1
  9
$DRAGMODE
 70
     2
  9
$LTSCALE
 40
1.0
  9
$OSMODE
 70
    37
  9
$ATTMODE
 70
     1
  9
$TEXTSIZE
 40
2.5
  9
$TRACEWID
 40
1.0
  9
$TEXTSTYLE
  7
STANDARD
  9
$CLAYER
  8
0
  9
$CELTYPE
  6
BYLAYER
  9
$CECOLOR
 62
   256
  9
$CELTSCALE
 40
1.0
  9
$DELOBJ
 70
     1
  9
$DISPSILH
 70
     0
  9
$DIMSCALE
 40
1.0
  9
$DIMASZ
 40
2.286
  9
$DIMEXO
 40
0.625
  9
$DIMDLI
 40
3.75
  9
$DIMRND
 40
0.0
  9
$DIMDLE
 40
0.0
  9
$DIMEXE
 40
1.25
  9
$DIMTP
 40
0.0
  9
$DIMTM
 40
0.0
  9
$DIMTXT
 40
1.336918010447422
  9
$DIMCEN
 40
2.5
  9
$DIMTSZ
 40
0.0
  9
$DIMTOL
 70
     0
  9
$DIMLIM
 70
     0
  9
$DIMTIH
 70
     0
  9
$DIMTOH
 70
     0
  9
$DIMSE1
 70
     0
  9
$DIMSE2
 70
     0
  9
$DIMTAD
 70
     1
  9
$DIMZIN
 70
     8
  9
$DIMBLK
  1

  9
$DIMASO
 70
     1
  9
$DIMSHO
 70
     1
  9
$DIMPOST
  1

  9
$DIMAPOST
  1

  9
$DIMALT
 70
     0
  9
$DIMALTD
 70
     3
  9
$DIMALTF
 40
0.03937007874016
  9
$DIMLFAC
 40
1.0
  9
$DIMTOFL
 70
     1
  9
$DIMTVP
 40
0.0
  9
$DIMTIX
 70
     0
  9
$DIMSOXD
 70
     0
  9
$DIMSAH
 70
     0
  9
$DIMBLK1
  1

  9
$DIMBLK2
  1

  9
$DIMSTYLE
  2
ISO-25
  9
$DIMCLRD
 70
     0
  9
$DIMCLRE
 70
     0
  9
$DIMCLRT
 70
     0
  9
$DIMTFAC
 40
1.0
  9
$DIMGAP
 40
0.625
  9
$DIMJUST
 70
     0
  9
$DIMSD1
 70
     0
  9
$DIMSD2
 70
     0
  9
$DIMTOLJ
 70
     0
  9
$DIMTZIN
 70
     8
  9
$DIMALTZ
 70
     0
  9
$DIMALTTZ
 70
     0
  9
$DIMFIT
 70
     3
  9
$DIMUPT
 70
     0
  9
$DIMUNIT
 70
     2
  9
$DIMDEC
 70
     2
  9
$DIMTDEC
 70
     2
  9
$DIMALTU
 70
     2
  9
$DIMALTTD
 70
     3
  9
$DIMTXSTY
  7
STANDARD
  9
$DIMAUNIT
 70
     0
  9
$LUNITS
 70
     2
  9
$LUPREC
 70
     4
  9
$SKETCHINC
 40
1.0
  9
$FILLETRAD
 40
10.0
  9
$AUNITS
 70
     0
  9
$AUPREC
 70
     0
  9
$MENU
  1
.
  9
$ELEVATION
 40
0.0
  9
$PELEVATION
 40
0.0
  9
$THICKNESS
 40
0.0
  9
$LIMCHECK
 70
     0
  9
$CHAMFERA
 40
10.0
  9
$CHAMFERB
 40
10.0
  9
$CHAMFERC
 40
20.0
  9
$CHAMFERD
 40
0.0
  9
$SKPOLY
 70
     0
  9
$TDCREATE
 40
2456119.495954711
  9
$TDUPDATE
 40
2456119.495954954
  9
$TDINDWG
 40
0.0000000116
  9
$TDUSRTIMER
 40
0.0000000116
  9
$USRTIMER
 70
     1
  9
$ANGBASE
 50
0.0
  9
$ANGDIR
 70
     0
  9
$PDMODE
 70
     0
  9
$PDSIZE
 40
0.0
  9
$PLINEWID
 40
0.0
  9
$COORDS
 70
     1
  9
$SPLFRAME
 70
     0
  9
$SPLINETYPE
 70
     6
  9
$SPLINESEGS
 70
     8
  9
$ATTDIA
 70
     0
  9
$ATTREQ
 70
     1
  9
$HANDLING
 70
     1
  9
$HANDSEED
  5
120
  9
$SURFTAB1
 70
     6
  9
$SURFTAB2
 70
     6
  9
$SURFTYPE
 70
     6
  9
$SURFU
 70
     6
  9
$SURFV
 70
     6
  9
$UCSNAME
  2

  9
$UCSORG
 10
0.0
 20
0.0
 30
0.0
  9
$UCSXDIR
 10
1.0
 20
0.0
 30
0.0
  9
$UCSYDIR
 10
0.0
 20
1.0
 30
0.0
  9
$PUCSNAME
  2

  9
$PUCSORG
 10
0.0
 20
0.0
 30
0.0
  9
$PUCSXDIR
 10
1.0
 20
0.0
 30
0.0
  9
$PUCSYDIR
 10
0.0
 20
1.0
 30
0.0
  9
$USERI1
 70
     0
  9
$USERI2
 70
     0
  9
$USERI3
 70
     0
  9
$USERI4
 70
     0
  9
$USERI5
 70
     0
  9
$USERR1
 40
0.0
  9
$USERR2
 40
0.0
  9
$USERR3
 40
0.0
  9
$USERR4
 40
0.0
  9
$USERR5
 40
0.0
  9
$WORLDVIEW
 70
     1
  9
$SHADEDGE
 70
     3
  9
$SHADEDIF
 70
    70
  9
$TILEMODE
 70
     1
  9
$MAXACTVP
 70
    64
  9
$PINSBASE
 10
0.0
 20
0.0
 30
0.0
  9
$PLIMCHECK
 70
     0
  9
$PEXTMIN
 10
1.000000000000000E+20
 20
1.000000000000000E+20
 30
1.000000000000000E+20
  9
$PEXTMAX
 10
-1.000000000000000E+20
 20
-1.000000000000000E+20
 30
-1.000000000000000E+20
  9
$PLIMMIN
 10
0.0
 20
0.0
  9
$PLIMMAX
 10
420.0
 20
297.0
  9
$UNITMODE
 70
     0
  9
$VISRETAIN
 70
     1
  9
$PLINEGEN
 70
     0
  9
$PSLTSCALE
 70
     1
  9
$TREEDEPTH
 70
  3020
  9
$PICKSTYLE
 70
     1
  9
$CMLSTYLE
  2
STANDARD
  9
$CMLJUST
 70
     0
  9
$CMLSCALE
 40
20.0
  9
$PROXYGRAPHICS
 70
     1
  9
$MEASUREMENT
 70
     1
  0
ENDSEC
  0
SECTION
  2
CLASSES
  0
CLASS
  1
ACDBDICTIONARYWDFLT
  2
AcDbDictionaryWithDefault
  3
ObjectDBX Classes
 90
        0
280
     0
281
     0
  0
CLASS
  1
VISUALSTYLE
  2
AcDbVisualStyle
  3
ObjectDBX Classes
 90
     4095
280
     0
281
     0
  0
CLASS
  1
MATERIAL
  2
AcDbMaterial
  3
ObjectDBX Classes
 90
     1153
280
     0
281
     0
  0
CLASS
  1
DICTIONARYVAR
  2
AcDbDictionaryVar
  3
ObjectDBX Classes
 90
        0
280
     0
281
     0
  0
CLASS
  1
XRECORD
  2
AcDbXrecord
  3
AutoCAD 2000
 90
        0
280
     0
281
     0
  0
CLASS
  1
LWPOLYLINE
  2
AcDbPolyline
  3
AutoCAD 2000
 90
        0
280
     0
281
     1
  0
CLASS
  1
HATCH
  2
AcDbHatch
  3
AutoCAD 2000
 90
        0
280
     0
281
     1
  0
CLASS
  1
ACDBPLACEHOLDER
  2
AcDbPlaceHolder
  3
ObjectDBX Classes
 90
        0
280
     0
281
     0
  0
CLASS
  1
LAYOUT
  2
AcDbLayout
  3
ObjectDBX Classes
 90
        0
280
     0
281
     0
  0
ENDSEC
  0
SECTION
  2
TABLES
  0
TABLE
  2
VPORT
  5
8
330
0
100
AcDbSymbolTable
 70
     1
  0
VPORT
  5
29
330
8
100
AcDbSymbolTableRecord
100
AcDbViewportTableRecord
  2
*ACTIVE
 70
     0
 10
0.0
 20
0.0
 11
1.0
 21
1.0
 12
344.1869158878504
 22
148.5
 13
0.0
 23
0.0
 14
10.0
 24
10.0
 15
10.0
 25
10.0
 16
0.0
 26
0.0
 36
1.0
 17
0.0
 27
0.0
 37
0.0
 40
297.0
 41
1.972972972850329
 42
50.0
 43
0.0
 44
0.0
 50
0.0
 51
0.0
 71
     0
 72
   100
 73
     1
 74
     3
 75
     0
 76
     0
 77
     0
 78
     0
  0
ENDTAB
  0
TABLE
  2
LTYPE
  5
5
330
0
100
AcDbSymbolTable
 70
     1
  0
LTYPE
  5
14
330
5
100
AcDbSymbolTableRecord
100
AcDbLinetypeTableRecord
  2
BYBLOCK
 70
     0
  3

 72
    65
 73
     0
 40
0.0
  0
LTYPE
  5
15
330
5
100
AcDbSymbolTableRecord
100
AcDbLinetypeTableRecord
  2
BYLAYER
 70
     0
  3

 72
    65
 73
     0
 40
0.0
  0
LTYPE
  5
16
330
5
100
AcDbSymbolTableRecord
100
AcDbLinetypeTableRecord
  2
CONTINUOUS
 70
     0
  3
Solid line
 72
    65
 73
     0
 40
0.0
  0
ENDTAB
  0
TABLE
  2
LAYER
  5
2
330
0
100
AcDbSymbolTable
 70
     2
  0
LAYER
  5
10
330
2
100
AcDbSymbolTableRecord
100
AcDbLayerTableRecord
  2
0
 70
     0
 62
     7
  6
CONTINUOUS
  0
LAYER
  5
3F
330
2
100
AcDbSymbolTableRecord
100
AcDbLayerTableRecord
  2
CONTINUOUS
 70
     0
 62
     7
  6
CONTINUOUS
  0
ENDTAB
  0
TABLE
  2
STYLE
  5
3
330
0
100
AcDbSymbolTable
 70
     1
  0
STYLE
  5
11
330
3
100
AcDbSymbolTableRecord
100
AcDbTextStyleTableRecord
  2
STANDARD
 70
     0
 40
0.0
 41
1.0
 50
0.0
 71
     0
 42
2.5
  3
txt
  4

  0
ENDTAB
  0
TABLE
  2
VIEW
  5
6
330
0
100
AcDbSymbolTable
 70
     0
  0
ENDTAB
  0
TABLE
  2
UCS
  5
7
330
0
100
AcDbSymbolTable
 70
     0
  0
ENDTAB
  0
TABLE
  2
APPID
  5
9
330
0
100
AcDbSymbolTable
 70
     1
  0
APPID
  5
12
330
9
100
AcDbSymbolTableRecord
100
AcDbRegAppTableRecord
  2
ACAD
 70
     0
  0
ENDTAB
  0
TABLE
  2
DIMSTYLE
  5
A
330
0
100
AcDbSymbolTable
 70
     1
  0
DIMSTYLE
105
27
330
A
100
AcDbSymbolTableRecord
100
AcDbDimStyleTableRecord
  2
ISO-25
 70
     0
  3

  4

  5

  6

  7

 40
1.0
 41
2.5
 42
0.625
 43
3.75
 44
1.25
 45
0.0
 46
0.0
 47
0.0
 48
0.0
140
2.5
141
2.5
142
0.0
143
0.03937007874016
144
1.0
145
0.0
146
1.0
147
0.625
 71
     0
 72
     0
 73
     0
 74
     0
 75
     0
 76
     0
 77
     1
 78
     8
170
     0
171
     3
172
     1
173
     0
174
     0
175
     0
176
     0
177
     0
178
     0
270
     2
271
     2
272
     2
273
     2
274
     3
340
11
275
     0
280
     0
281
     0
282
     0
283
     0
284
     8
285
     0
286
     0
287
     3
288
     0
  0
ENDTAB
  0
TABLE
  2
BLOCK_RECORD
  5
1
330
0
100
AcDbSymbolTable
 70
     1
  0
BLOCK_RECORD
  5
1F
330
1
100
AcDbSymbolTableRecord
100
AcDbBlockTableRecord
  2
*MODEL_SPACE
  0
BLOCK_RECORD
  5
1B
330
1
100
AcDbSymbolTableRecord
100
AcDbBlockTableRecord
  2
*PAPER_SPACE
  0
ENDTAB
  0
ENDSEC
  0
SECTION
  2
BLOCKS
  0
BLOCK
  5
20
330
1F
100
AcDbEntity
  8
0
100
AcDbBlockBegin
  2
*MODEL_SPACE
 70
     0
 10
0.0
 20
0.0
 30
0.0
  3
*MODEL_SPACE
  1

  0
ENDBLK
  5
21
330
1F
100
AcDbEntity
  8
0
100
AcDbBlockEnd
  0
BLOCK
  5
1C
330
1B
100
AcDbEntity
 67
     1
  8
0
100
AcDbBlockBegin
  2
*PAPER_SPACE
 70
     0
 10
0.0
 20
0.0
 30
0.0
  3
*PAPER_SPACE
  1

  0
ENDBLK
  5
1D
330
1B
100
AcDbEntity
 67
     1
  8
0
100
AcDbBlockEnd
  0
ENDSEC
  0
SECTION
  2
ENTITIES
  0
SPLINE
  5
40
330
1F
100
AcDbEntity
  8
CONTINUOUS
  6
CONTINUOUS
 62
     1
100
AcDbSpline
210
0.0
220
0.0
230
1.0
 70
     8
 71
     3
 72
     8
 73
     4
 74
     0
 42
0.000000001
 43
0.000001
 12
1.0
 22
0.0
 32
0.0
 13
1.0
 23
0.0
 33
0.0
 40
0.0
 40
0.0
 40
0.0
 40
0.0
 40
1.0
 40
1.0
 40
1.0
 40
1.0
 10
-194.000007
 20
89.99998900000003
 30
0.0
 10
-195.430961
 20
90.00283300000001
 30
0.0
 10
-196.754435
 20
89.24106200000006
 30
0.0
 10
-197.470734
 20
88.00229200000001
 30
0.0
  0
SPLINE
  5
41
330
1F
100
AcDbEntity
  8
CONTINUOUS
  6
CONTINUOUS
 62
     1
100
AcDbSpline
210
0.0
220
0.0
230
1.0
 70
     8
 71
     3
 72
     8
 73
     4
 74
     0
 42
0.000000001
 43
0.000001
 12
1.0
 22
0.0
 32
0.0
 13
1.0
 23
0.0
 33
0.0
 40
0.0
 40
0.0
 40
0.0
 40
0.0
 40
1.0
 40
1.0
 40
1.0
 40
1.0
 10
-197.470734
 20
88.00229200000001
 30
0.0
 10
-198.187033
 20
86.76352199999997
 30
0.0
 10
-198.187033
 20
85.23647200000005
 30
0.0
 10
-197.470734
 20
83.997702
 30
0.0
  0
SPLINE
  5
42
330
1F
100
AcDbEntity
  8
CONTINUOUS
  6
CONTINUOUS
 62
     1
100
AcDbSpline
210
0.0
220
0.0
230
1.0
 70
     8
 71
     3
 72
     8
 73
     4
 74
     0
 42
0.000000001
 43
0.000001
 12
1.0
 22
0.0
 32
0.0
 13
1.0
 23
0.0
 33
0.0
 40
0.0
 40
0.0
 40
0.0
 40
0.0
 40
1.0
 40
1.0
 40
1.0
 40
1.0
 10
-197.470734
 20
83.997702
 30
0.0
 10
-196.754435
 20
82.75893199999996
 30
0.0
 10
-195.430961
 20
81.997161
 30
0.0
 10
-194.000007
 20
82.00000499999999
 30
0.0
  0
SPLINE
  5
43
330
1F
100
AcDbEntity
  8
CONTINUOUS
  6
CONTINUOUS
 62
     1
100
AcDbSpline
210
0.0
220
0.0
230
1.0
 70
     8
 71
     3
 72
     8
 73
     4
 74
     0
 42
0.000000001
 43
0.000001
 12
1.0
 22
0.0
 32
0.0
 13
1.0
 23
0.0
 33
0.0
 40
0.0
 40
0.0
 40
0.0
 40
0.0
 40
1.0
 40
1.0
 40
1.0
 40
1.0
 10
-194.000007
 20
82.00000499999999
 30
0.0
 10
-192.569054
 20
81.997161
 30
0.0
 10
-191.24558
 20
82.75893199999996
 30
0.0
 10
-190.529281
 20
83.997702
 30
0.0
  0
SPLINE
  5
44
330
1F
100
AcDbEntity
  8
CONTINUOUS
  6
CONTINUOUS
 62
     1
100
AcDbSpline
210
0.0
220
0.0
230
1.0
 70
     8
 71
     3
 72
     8
 73
     4
 74
     0
 42
0.000000001
 43
0.000001
 12
1.0
 22
0.0
 32
0.0
 13
1.0
 23
0.0
 33
0.0
 40
0.0
 40
0.0
 40
0.0
 40
0.0
 40
1.0
 40
1.0
 40
1.0
 40
1.0
 10
-190.529281
 20
83.997702
 30
0.0
 10
-189.812982
 20
85.23647200000005
 30
0.0
 10
-189.812982
 20
86.76352199999997
 30
0.0
 10
-190.529281
 20
88.00229200000001
 30
0.0
  0
SPLINE
  5
45
330
1F
100
AcDbEntity
  8
CONTINUOUS
  6
CONTINUOUS
 62
     1
100
AcDbSpline
210
0.0
220
0.0
230
1.0
 70
     8
 71
     3
 72
     8
 73
     4
 74
     0
 42
0.000000001
 43
0.000001
 12
1.0
 22
0.0
 32
0.0
 13
1.0
 23
0.0
 33
0.0
 40
0.0
 40
0.0
 40
0.0
 40
0.0
 40
1.0
 40
1.0
 40
1.0
 40
1.0
 10
-190.529281
 20
88.00229200000001
 30
0.0
 10
-191.24558
 20
89.24106200000006
 30
0.0
 10
-192.569054
 20
90.00283300000001
 30
0.0
 10
-194.000007
 20
89.99998900000003
 30
0.0
  0
SPLINE
  5
46
330
1F
100
AcDbEntity
  8
CONTINUOUS
  6
CONTINUOUS
 62
     1
100
AcDbSpline
210
0.0
220
0.0
230
1.0
 70
     8
 71
     3
 72
     8
 73
     4
 74
     0
 42
0.000000001
 43
0.000001
 12
1.0
 22
0.0
 32
0.0
 13
1.0
 23
0.0
 33
0.0
 40
0.0
 40
0.0
 40
0.0
 40
0.0
 40
1.0
 40
1.0
 40
1.0
 40
1.0
 10
-164.000011
 20
98.999999
 30
0.0
 10
-168.644464
 20
98.999999
 30
0.0
 10
-172.936116
 20
96.52221299999997
 30
0.0
 10
-175.258343
 20
92.499998
 30
0.0
  0
SPLINE
  5
47
330
1F
100
AcDbEntity
  8
CONTINUOUS
  6
CONTINUOUS
 62
     1
100
AcDbSpline
210
0.0
220
0.0
230
1.0
 70
     8
 71
     3
 72
     8
 73
     4
 74
     0
 42
0.000000001
 43
0.000001
 12
1.0
 22
0.0
 32
0.0
 13
1.0
 23
0.0
 33
0.0
 40
0.0
 40
0.0
 40
0.0
 40
0.0
 40
1.0
 40
1.0
 40
1.0
 40
1.0
 10
-175.258343
 20
92.499998
 30
0.0
 10
-177.58057
 20
88.47778300000004
 30
0.0
 10
-177.58057
 20
83.52220999999997
 30
0.0
 10
-175.258343
 20
79.49999600000001
 30
0.0
  0
SPLINE
  5
48
330
1F
100
AcDbEntity
  8
CONTINUOUS
  6
CONTINUOUS
 62
     1
100
AcDbSpline
210
0.0
220
0.0
230
1.0
 70
     8
 71
     3
 72
     8
 73
     4
 74
     0
 42
0.000000001
 43
0.000001
 12
1.0
 22
0.0
 32
0.0
 13
1.0
 23
0.0
 33
0.0
 40
0.0
 40
0.0
 40
0.0
 40
0.0
 40
1.0
 40
1.0
 40
1.0
 40
1.0
 10
-175.258343
 20
79.49999600000001
 30
0.0
 10
-172.936116
 20
75.47778100000005
 30
0.0
 10
-168.644464
 20
72.99999500000001
 30
0.0
 10
-164.000011
 20
72.99999500000001
 30
0.0
  0
SPLINE
  5
49
330
1F
100
AcDbEntity
  8
CONTINUOUS
  6
CONTINUOUS
 62
     1
100
AcDbSpline
210
0.0
220
0.0
230
1.0
 70
     8
 71
     3
 72
     8
 73
     4
 74
     0
 42
0.000000001
 43
0.000001
 12
1.0
 22
0.0
 32
0.0
 13
1.0
 23
0.0
 33
0.0
 40
0.0
 40
0.0
 40
0.0
 40
0.0
 40
1.0
 40
1.0
 40
1.0
 40
1.0
 10
-164.000011
 20
72.99999500000001
 30
0.0
 10
-159.355557
 20
72.99999400000002
 30
0.0
 10
-155.063905
 20
75.47778100000005
 30
0.0
 10
-152.741678
 20
79.49999500000001
 30
0.0
  0
SPLINE
  5
4A
330
1F
100
AcDbEntity
  8
CONTINUOUS
  6
CONTINUOUS
 62
     1
100
AcDbSpline
210
0.0
220
0.0
230
1.0
 70
     8
 71
     3
 72
     8
 73
     4
 74
     0
 42
0.000000001
 43
0.000001
 12
1.0
 22
0.0
 32
0.0
 13
1.0
 23
0.0
 33
0.0
 40
0.0
 40
0.0
 40
0.0
 40
0.0
 40
1.0
 40
1.0
 40
1.0
 40
1.0
 10
-152.741678
 20
79.49999500000001
 30
0.0
 10
-150.419451
 20
83.52220999999997
 30
0.0
 10
-150.419451
 20
88.47778300000004
 30
0.0
 10
-152.741678
 20
92.499998
 30
0.0
  0
SPLINE
  5
4B
330
1F
100
AcDbEntity
  8
CONTINUOUS
  6
CONTINUOUS
 62
     1
100
AcDbSpline
210
0.0
220
0.0
230
1.0
 70
     8
 71
     3
 72
     8
 73
     4
 74
     0
 42
0.000000001
 43
0.000001
 12
1.0
 22
0.0
 32
0.0
 13
1.0
 23
0.0
 33
0.0
 40
0.0
 40
0.0
 40
0.0
 40
0.0
 40
1.0
 40
1.0
 40
1.0
 40
1.0
 10
-152.741678
 20
92.499998
 30
0.0
 10
-155.063905
 20
96.52221299999997
 30
0.0
 10
-159.355557
 20
99.0
 30
0.0
 10
-164.000011
 20
98.999999
 30
0.0
  0
SPLINE
  5
4C
330
1F
100
AcDbEntity
  8
CONTINUOUS
  6
CONTINUOUS
 62
     1
100
AcDbSpline
210
0.0
220
0.0
230
1.0
 70
     8
 71
     3
 72
     8
 73
     4
 74
     0
 42
0.000000001
 43
0.000001
 12
1.0
 22
0.0
 32
0.0
 13
1.0
 23
0.0
 33
0.0
 40
0.0
 40
0.0
 40
0.0
 40
0.0
 40
1.0
 40
1.0
 40
1.0
 40
1.0
 10
-148.5
 20
103.200002
 30
0.0
 10
-149.107354
 20
103.200002
 30
0.0
 10
-149.668572
 20
102.875982
 30
0.0
 10
-149.97225
 20
102.349998
 30
0.0
  0
SPLINE
  5
4D
330
1F
100
AcDbEntity
  8
CONTINUOUS
  6
CONTINUOUS
 62
     1
100
AcDbSpline
210
0.0
220
0.0
230
1.0
 70
     8
 71
     3
 72
     8
 73
     4
 74
     0
 42
0.000000001
 43
0.000001
 12
1.0
 22
0.0
 32
0.0
 13
1.0
 23
0.0
 33
0.0
 40
0.0
 40
0.0
 40
0.0
 40
0.0
 40
1.0
 40
1.0
 40
1.0
 40
1.0
 10
-149.97225
 20
102.349998
 30
0.0
 10
-150.275927
 20
101.824014
 30
0.0
 10
-150.275927
 20
101.175974
 30
0.0
 10
-149.97225
 20
100.64999
 30
0.0
  0
SPLINE
  5
4E
330
1F
100
AcDbEntity
  8
CONTINUOUS
  6
CONTINUOUS
 62
     1
100
AcDbSpline
210
0.0
220
0.0
230
1.0
 70
     8
 71
     3
 72
     8
 73
     4
 74
     0
 42
0.000000001
 43
0.000001
 12
1.0
 22
0.0
 32
0.0
 13
1.0
 23
0.0
 33
0.0
 40
0.0
 40
0.0
 40
0.0
 40
0.0
 40
1.0
 40
1.0
 40
1.0
 40
1.0
 10
-149.97225
 20
100.64999
 30
0.0
 10
-149.668572
 20
100.124006
 30
0.0
 10
-149.107354
 20
99.79998599999999
 30
0.0
 10
-148.5
 20
99.79998599999999
 30
0.0
  0
SPLINE
  5
4F
330
1F
100
AcDbEntity
  8
CONTINUOUS
  6
CONTINUOUS
 62
     1
100
AcDbSpline
210
0.0
220
0.0
230
1.0
 70
     8
 71
     3
 72
     8
 73
     4
 74
     0
 42
0.000000001
 43
0.000001
 12
1.0
 22
0.0
 32
0.0
 13
1.0
 23
0.0
 33
0.0
 40
0.0
 40
0.0
 40
0.0
 40
0.0
 40
1.0
 40
1.0
 40
1.0
 40
1.0
 10
-148.5
 20
99.79998599999999
 30
0.0
 10
-147.892645
 20
99.79998599999999
 30
0.0
 10
-147.331427
 20
100.124006
 30
0.0
 10
-147.02775
 20
100.64999
 30
0.0
  0
SPLINE
  5
50
330
1F
100
AcDbEntity
  8
CONTINUOUS
  6
CONTINUOUS
 62
     1
100
AcDbSpline
210
0.0
220
0.0
230
1.0
 70
     8
 71
     3
 72
     8
 73
     4
 74
     0
 42
0.000000001
 43
0.000001
 12
1.0
 22
0.0
 32
0.0
 13
1.0
 23
0.0
 33
0.0
 40
0.0
 40
0.0
 40
0.0
 40
0.0
 40
1.0
 40
1.0
 40
1.0
 40
1.0
 10
-147.02775
 20
100.64999
 30
0.0
 10
-146.724072
 20
101.175974
 30
0.0
 10
-146.724072
 20
101.824014
 30
0.0
 10
-147.02775
 20
102.349998
 30
0.0
  0
SPLINE
  5
51
330
1F
100
AcDbEntity
  8
CONTINUOUS
  6
CONTINUOUS
 62
     1
100
AcDbSpline
210
0.0
220
0.0
230
1.0
 70
     8
 71
     3
 72
     8
 73
     4
 74
     0
 42
0.000000001
 43
0.000001
 12
1.0
 22
0.0
 32
0.0
 13
1.0
 23
0.0
 33
0.0
 40
0.0
 40
0.0
 40
0.0
 40
0.0
 40
1.0
 40
1.0
 40
1.0
 40
1.0
 10
-147.02775
 20
102.349998
 30
0.0
 10
-147.331427
 20
102.875982
 30
0.0
 10
-147.892645
 20
103.200002
 30
0.0
 10
-148.5
 20
103.200002
 30
0.0
  0
SPLINE
  5
52
330
1F
100
AcDbEntity
  8
CONTINUOUS
  6
CONTINUOUS
 62
     1
100
AcDbSpline
210
0.0
220
0.0
230
1.0
 70
     8
 71
     3
 72
     8
 73
     4
 74
     0
 42
0.000000001
 43
0.000001
 12
1.0
 22
0.0
 32
0.0
 13
1.0
 23
0.0
 33
0.0
 40
0.0
 40
0.0
 40
0.0
 40
0.0
 40
1.0
 40
1.0
 40
1.0
 40
1.0
 10
-179.499994
 20
103.200002
 30
0.0
 10
-180.107348
 20
103.200002
 30
0.0
 10
-180.668567
 20
102.875982
 30
0.0
 10
-180.972244
 20
102.349998
 30
0.0
  0
SPLINE
  5
53
330
1F
100
AcDbEntity
  8
CONTINUOUS
  6
CONTINUOUS
 62
     1
100
AcDbSpline
210
0.0
220
0.0
230
1.0
 70
     8
 71
     3
 72
     8
 73
     4
 74
     0
 42
0.000000001
 43
0.000001
 12
1.0
 22
0.0
 32
0.0
 13
1.0
 23
0.0
 33
0.0
 40
0.0
 40
0.0
 40
0.0
 40
0.0
 40
1.0
 40
1.0
 40
1.0
 40
1.0
 10
-180.972244
 20
102.349998
 30
0.0
 10
-181.275921
 20
101.824014
 30
0.0
 10
-181.275921
 20
101.175974
 30
0.0
 10
-180.972244
 20
100.64999
 30
0.0
  0
SPLINE
  5
54
330
1F
100
AcDbEntity
  8
CONTINUOUS
  6
CONTINUOUS
 62
     1
100
AcDbSpline
210
0.0
220
0.0
230
1.0
 70
     8
 71
     3
 72
     8
 73
     4
 74
     0
 42
0.000000001
 43
0.000001
 12
1.0
 22
0.0
 32
0.0
 13
1.0
 23
0.0
 33
0.0
 40
0.0
 40
0.0
 40
0.0
 40
0.0
 40
1.0
 40
1.0
 40
1.0
 40
1.0
 10
-180.972244
 20
100.64999
 30
0.0
 10
-180.668567
 20
100.124006
 30
0.0
 10
-180.107348
 20
99.79998599999999
 30
0.0
 10
-179.499994
 20
99.79998599999999
 30
0.0
  0
SPLINE
  5
55
330
1F
100
AcDbEntity
  8
CONTINUOUS
  6
CONTINUOUS
 62
     1
100
AcDbSpline
210
0.0
220
0.0
230
1.0
 70
     8
 71
     3
 72
     8
 73
     4
 74
     0
 42
0.000000001
 43
0.000001
 12
1.0
 22
0.0
 32
0.0
 13
1.0
 23
0.0
 33
0.0
 40
0.0
 40
0.0
 40
0.0
 40
0.0
 40
1.0
 40
1.0
 40
1.0
 40
1.0
 10
-179.499994
 20
99.79998599999999
 30
0.0
 10
-178.89264
 20
99.79998599999999
 30
0.0
 10
-178.331421
 20
100.124006
 30
0.0
 10
-178.027744
 20
100.64999
 30
0.0
  0
SPLINE
  5
56
330
1F
100
AcDbEntity
  8
CONTINUOUS
  6
CONTINUOUS
 62
     1
100
AcDbSpline
210
0.0
220
0.0
230
1.0
 70
     8
 71
     3
 72
     8
 73
     4
 74
     0
 42
0.000000001
 43
0.000001
 12
1.0
 22
0.0
 32
0.0
 13
1.0
 23
0.0
 33
0.0
 40
0.0
 40
0.0
 40
0.0
 40
0.0
 40
1.0
 40
1.0
 40
1.0
 40
1.0
 10
-178.027744
 20
100.64999
 30
0.0
 10
-177.724067
 20
101.175974
 30
0.0
 10
-177.724067
 20
101.824014
 30
0.0
 10
-178.027744
 20
102.349998
 30
0.0
  0
SPLINE
  5
57
330
1F
100
AcDbEntity
  8
CONTINUOUS
  6
CONTINUOUS
 62
     1
100
AcDbSpline
210
0.0
220
0.0
230
1.0
 70
     8
 71
     3
 72
     8
 73
     4
 74
     0
 42
0.000000001
 43
0.000001
 12
1.0
 22
0.0
 32
0.0
 13
1.0
 23
0.0
 33
0.0
 40
0.0
 40
0.0
 40
0.0
 40
0.0
 40
1.0
 40
1.0
 40
1.0
 40
1.0
 10
-178.027744
 20
102.349998
 30
0.0
 10
-178.331421
 20
102.875982
 30
0.0
 10
-178.89264
 20
103.200002
 30
0.0
 10
-179.499994
 20
103.200002
 30
0.0
  0
SPLINE
  5
58
330
1F
100
AcDbEntity
  8
CONTINUOUS
  6
CONTINUOUS
 62
     1
100
AcDbSpline
210
0.0
220
0.0
230
1.0
 70
     8
 71
     3
 72
     8
 73
     4
 74
     0
 42
0.000000001
 43
0.000001
 12
1.0
 22
0.0
 32
0.0
 13
1.0
 23
0.0
 33
0.0
 40
0.0
 40
0.0
 40
0.0
 40
0.0
 40
1.0
 40
1.0
 40
1.0
 40
1.0
 10
-179.499994
 20
72.20000800000003
 30
0.0
 10
-180.107348
 20
72.20000800000003
 30
0.0
 10
-180.668567
 20
71.875988
 30
0.0
 10
-180.972244
 20
71.35000400000001
 30
0.0
  0
SPLINE
  5
59
330
1F
100
AcDbEntity
  8
CONTINUOUS
  6
CONTINUOUS
 62
     1
100
AcDbSpline
210
0.0
220
0.0
230
1.0
 70
     8
 71
     3
 72
     8
 73
     4
 74
     0
 42
0.000000001
 43
0.000001
 12
1.0
 22
0.0
 32
0.0
 13
1.0
 23
0.0
 33
0.0
 40
0.0
 40
0.0
 40
0.0
 40
0.0
 40
1.0
 40
1.0
 40
1.0
 40
1.0
 10
-180.972244
 20
71.35000400000001
 30
0.0
 10
-181.275921
 20
70.82401900000002
 30
0.0
 10
-181.275921
 20
70.17597999999998
 30
0.0
 10
-180.972244
 20
69.64999599999999
 30
0.0
  0
SPLINE
  5
5A
330
1F
100
AcDbEntity
  8
CONTINUOUS
  6
CONTINUOUS
 62
     1
100
AcDbSpline
210
0.0
220
0.0
230
1.0
 70
     8
 71
     3
 72
     8
 73
     4
 74
     0
 42
0.000000001
 43
0.000001
 12
1.0
 22
0.0
 32
0.0
 13
1.0
 23
0.0
 33
0.0
 40
0.0
 40
0.0
 40
0.0
 40
0.0
 40
1.0
 40
1.0
 40
1.0
 40
1.0
 10
-180.972244
 20
69.64999599999999
 30
0.0
 10
-180.668567
 20
69.124011
 30
0.0
 10
-180.107348
 20
68.79999199999997
 30
0.0
 10
-179.499994
 20
68.79999199999997
 30
0.0
  0
SPLINE
  5
5B
330
1F
100
AcDbEntity
  8
CONTINUOUS
  6
CONTINUOUS
 62
     1
100
AcDbSpline
210
0.0
220
0.0
230
1.0
 70
     8
 71
     3
 72
     8
 73
     4
 74
     0
 42
0.000000001
 43
0.000001
 12
1.0
 22
0.0
 32
0.0
 13
1.0
 23
0.0
 33
0.0
 40
0.0
 40
0.0
 40
0.0
 40
0.0
 40
1.0
 40
1.0
 40
1.0
 40
1.0
 10
-179.499994
 20
68.79999199999997
 30
0.0
 10
-178.89264
 20
68.79999199999997
 30
0.0
 10
-178.331421
 20
69.124011
 30
0.0
 10
-178.027744
 20
69.64999599999999
 30
0.0
  0
SPLINE
  5
5C
330
1F
100
AcDbEntity
  8
CONTINUOUS
  6
CONTINUOUS
 62
     1
100
AcDbSpline
210
0.0
220
0.0
230
1.0
 70
     8
 71
     3
 72
     8
 73
     4
 74
     0
 42
0.000000001
 43
0.000001
 12
1.0
 22
0.0
 32
0.0
 13
1.0
 23
0.0
 33
0.0
 40
0.0
 40
0.0
 40
0.0
 40
0.0
 40
1.0
 40
1.0
 40
1.0
 40
1.0
 10
-178.027744
 20
69.64999599999999
 30
0.0
 10
-177.724067
 20
70.17597999999998
 30
0.0
 10
-177.724067
 20
70.82401900000002
 30
0.0
 10
-178.027744
 20
71.35000400000001
 30
0.0
  0
SPLINE
  5
5D
330
1F
100
AcDbEntity
  8
CONTINUOUS
  6
CONTINUOUS
 62
     1
100
AcDbSpline
210
0.0
220
0.0
230
1.0
 70
     8
 71
     3
 72
     8
 73
     4
 74
     0
 42
0.000000001
 43
0.000001
 12
1.0
 22
0.0
 32
0.0
 13
1.0
 23
0.0
 33
0.0
 40
0.0
 40
0.0
 40
0.0
 40
0.0
 40
1.0
 40
1.0
 40
1.0
 40
1.0
 10
-178.027744
 20
71.35000400000001
 30
0.0
 10
-178.331421
 20
71.875988
 30
0.0
 10
-178.89264
 20
72.20000800000003
 30
0.0
 10
-179.499994
 20
72.20000800000003
 30
0.0
  0
SPLINE
  5
5E
330
1F
100
AcDbEntity
  8
CONTINUOUS
  6
CONTINUOUS
 62
     1
100
AcDbSpline
210
0.0
220
0.0
230
1.0
 70
     8
 71
     3
 72
     8
 73
     4
 74
     0
 42
0.000000001
 43
0.000001
 12
1.0
 22
0.0
 32
0.0
 13
1.0
 23
0.0
 33
0.0
 40
0.0
 40
0.0
 40
0.0
 40
0.0
 40
1.0
 40
1.0
 40
1.0
 40
1.0
 10
-148.5
 20
72.20000800000003
 30
0.0
 10
-149.107354
 20
72.20000800000003
 30
0.0
 10
-149.668572
 20
71.875988
 30
0.0
 10
-149.97225
 20
71.35000400000001
 30
0.0
  0
SPLINE
  5
5F
330
1F
100
AcDbEntity
  8
CONTINUOUS
  6
CONTINUOUS
 62
     1
100
AcDbSpline
210
0.0
220
0.0
230
1.0
 70
     8
 71
     3
 72
     8
 73
     4
 74
     0
 42
0.000000001
 43
0.000001
 12
1.0
 22
0.0
 32
0.0
 13
1.0
 23
0.0
 33
0.0
 40
0.0
 40
0.0
 40
0.0
 40
0.0
 40
1.0
 40
1.0
 40
1.0
 40
1.0
 10
-149.97225
 20
71.35000400000001
 30
0.0
 10
-150.275927
 20
70.82401900000002
 30
0.0
 10
-150.275927
 20
70.17597999999998
 30
0.0
 10
-149.97225
 20
69.64999599999999
 30
0.0
  0
SPLINE
  5
60
330
1F
100
AcDbEntity
  8
CONTINUOUS
  6
CONTINUOUS
 62
     1
100
AcDbSpline
210
0.0
220
0.0
230
1.0
 70
     8
 71
     3
 72
     8
 73
     4
 74
     0
 42
0.000000001
 43
0.000001
 12
1.0
 22
0.0
 32
0.0
 13
1.0
 23
0.0
 33
0.0
 40
0.0
 40
0.0
 40
0.0
 40
0.0
 40
1.0
 40
1.0
 40
1.0
 40
1.0
 10
-149.97225
 20
69.64999599999999
 30
0.0
 10
-149.668572
 20
69.124011
 30
0.0
 10
-149.107354
 20
68.79999199999997
 30
0.0
 10
-148.5
 20
68.79999199999997
 30
0.0
  0
SPLINE
  5
61
330
1F
100
AcDbEntity
  8
CONTINUOUS
  6
CONTINUOUS
 62
     1
100
AcDbSpline
210
0.0
220
0.0
230
1.0
 70
     8
 71
     3
 72
     8
 73
     4
 74
     0
 42
0.000000001
 43
0.000001
 12
1.0
 22
0.0
 32
0.0
 13
1.0
 23
0.0
 33
0.0
 40
0.0
 40
0.0
 40
0.0
 40
0.0
 40
1.0
 40
1.0
 40
1.0
 40
1.0
 10
-148.5
 20
68.79999199999997
 30
0.0
 10
-147.892645
 20
68.79999199999997
 30
0.0
 10
-147.331427
 20
69.124011
 30
0.0
 10
-147.02775
 20
69.64999599999999
 30
0.0
  0
SPLINE
  5
62
330
1F
100
AcDbEntity
  8
CONTINUOUS
  6
CONTINUOUS
 62
     1
100
AcDbSpline
210
0.0
220
0.0
230
1.0
 70
     8
 71
     3
 72
     8
 73
     4
 74
     0
 42
0.000000001
 43
0.000001
 12
1.0
 22
0.0
 32
0.0
 13
1.0
 23
0.0
 33
0.0
 40
0.0
 40
0.0
 40
0.0
 40
0.0
 40
1.0
 40
1.0
 40
1.0
 40
1.0
 10
-147.02775
 20
69.64999599999999
 30
0.0
 10
-146.724072
 20
70.17597999999998
 30
0.0
 10
-146.724072
 20
70.82401900000002
 30
0.0
 10
-147.02775
 20
71.35000400000001
 30
0.0
  0
SPLINE
  5
63
330
1F
100
AcDbEntity
  8
CONTINUOUS
  6
CONTINUOUS
 62
     1
100
AcDbSpline
210
0.0
220
0.0
230
1.0
 70
     8
 71
     3
 72
     8
 73
     4
 74
     0
 42
0.000000001
 43
0.000001
 12
1.0
 22
0.0
 32
0.0
 13
1.0
 23
0.0
 33
0.0
 40
0.0
 40
0.0
 40
0.0
 40
0.0
 40
1.0
 40
1.0
 40
1.0
 40
1.0
 10
-147.02775
 20
71.35000400000001
 30
0.0
 10
-147.331427
 20
71.875988
 30
0.0
 10
-147.892645
 20
72.20000800000003
 30
0.0
 10
-148.5
 20
72.20000800000003
 30
0.0
  0
SPLINE
  5
64
330
1F
100
AcDbEntity
  8
CONTINUOUS
  6
CONTINUOUS
 62
     1
100
AcDbSpline
210
0.0
220
0.0
230
1.0
 70
    24
 71
     3
 72
     8
 73
     4
 74
     0
 42
0.000000001
 43
0.000001
 12
1.0
 22
0.0
 32
0.0
 13
1.0
 23
0.0
 33
0.0
 40
0.0
 40
0.0
 40
0.0
 40
0.0
 40
1.0
 40
1.0
 40
1.0
 40
1.0
 10
-132.899997
 20
115.999993
 30
0.0
 10
-132.899997
 20
115.999993
 30
0.0
 10
-196.000003
 20
115.999993
 30
0.0
 10
-196.000003
 20
115.999993
 30
0.0
  0
SPLINE
  5
65
330
1F
100
AcDbEntity
  8
CONTINUOUS
  6
CONTINUOUS
 62
     1
100
AcDbSpline
210
0.0
220
0.0
230
1.0
 70
     8
 71
     3
 72
     8
 73
     4
 74
     0
 42
0.000000001
 43
0.000001
 12
1.0
 22
0.0
 32
0.0
 13
1.0
 23
0.0
 33
0.0
 40
0.0
 40
0.0
 40
0.0
 40
0.0
 40
1.0
 40
1.0
 40
1.0
 40
1.0
 10
-196.000003
 20
115.999993
 30
0.0
 10
-198.652171
 20
115.999996
 30
0.0
 10
-201.195714
 20
114.946427
 30
0.0
 10
-203.071079
 20
113.071061
 30
0.0
  0
SPLINE
  5
66
330
1F
100
AcDbEntity
  8
CONTINUOUS
  6
CONTINUOUS
 62
     1
100
AcDbSpline
210
0.0
220
0.0
230
1.0
 70
     8
 71
     3
 72
     8
 73
     4
 74
     0
 42
0.000000001
 43
0.000001
 12
1.0
 22
0.0
 32
0.0
 13
1.0
 23
0.0
 33
0.0
 40
0.0
 40
0.0
 40
0.0
 40
0.0
 40
1.0
 40
1.0
 40
1.0
 40
1.0
 10
-203.071079
 20
113.071061
 30
0.0
 10
-204.946445
 20
111.195695
 30
0.0
 10
-206.000014
 20
108.652153
 30
0.0
 10
-206.000012
 20
105.999985
 30
0.0
  0
SPLINE
  5
67
330
1F
100
AcDbEntity
  8
CONTINUOUS
  6
CONTINUOUS
 62
     1
100
AcDbSpline
210
0.0
220
0.0
230
1.0
 70
     8
 71
     3
 72
     8
 73
     4
 74
     0
 42
0.000000001
 43
0.000001
 12
1.0
 22
0.0
 32
0.0
 13
1.0
 23
0.0
 33
0.0
 40
0.0
 40
0.0
 40
0.0
 40
0.0
 40
1.0
 40
1.0
 40
1.0
 40
1.0
 10
-105.000016
 20
49.10000600000001
 30
0.0
 10
-105.750274
 20
49.10000600000001
 30
0.0
 10
-106.443542
 20
48.699748
 30
0.0
 10
-106.818671
 20
48.05000500000006
 30
0.0
  0
SPLINE
  5
68
330
1F
100
AcDbEntity
  8
CONTINUOUS
  6
CONTINUOUS
 62
     1
100
AcDbSpline
210
0.0
220
0.0
230
1.0
 70
     8
 71
     3
 72
     8
 73
     4
 74
     0
 42
0.000000001
 43
0.000001
 12
1.0
 22
0.0
 32
0.0
 13
1.0
 23
0.0
 33
0.0
 40
0.0
 40
0.0
 40
0.0
 40
0.0
 40
1.0
 40
1.0
 40
1.0
 40
1.0
 10
-106.818671
 20
48.05000500000006
 30
0.0
 10
-107.1938
 20
47.400262
 30
0.0
 10
-107.1938
 20
46.59974599999998
 30
0.0
 10
-106.818671
 20
45.95000300000004
 30
0.0
  0
SPLINE
  5
69
330
1F
100
AcDbEntity
  8
CONTINUOUS
  6
CONTINUOUS
 62
     1
100
AcDbSpline
210
0.0
220
0.0
230
1.0
 70
     8
 71
     3
 72
     8
 73
     4
 74
     0
 42
0.000000001
 43
0.000001
 12
1.0
 22
0.0
 32
0.0
 13
1.0
 23
0.0
 33
0.0
 40
0.0
 40
0.0
 40
0.0
 40
0.0
 40
1.0
 40
1.0
 40
1.0
 40
1.0
 10
-106.818671
 20
45.95000300000004
 30
0.0
 10
-106.443542
 20
45.30026099999998
 30
0.0
 10
-105.750274
 20
44.90000299999997
 30
0.0
 10
-105.000016
 20
44.90000299999997
 30
0.0
  0
SPLINE
  5
6A
330
1F
100
AcDbEntity
  8
CONTINUOUS
  6
CONTINUOUS
 62
     1
100
AcDbSpline
210
0.0
220
0.0
230
1.0
 70
     8
 71
     3
 72
     8
 73
     4
 74
     0
 42
0.000000001
 43
0.000001
 12
1.0
 22
0.0
 32
0.0
 13
1.0
 23
0.0
 33
0.0
 40
0.0
 40
0.0
 40
0.0
 40
0.0
 40
1.0
 40
1.0
 40
1.0
 40
1.0
 10
-105.000016
 20
44.90000299999997
 30
0.0
 10
-104.249758
 20
44.90000299999997
 30
0.0
 10
-103.55649
 20
45.30026099999998
 30
0.0
 10
-103.181361
 20
45.95000300000004
 30
0.0
  0
SPLINE
  5
6B
330
1F
100
AcDbEntity
  8
CONTINUOUS
  6
CONTINUOUS
 62
     1
100
AcDbSpline
210
0.0
220
0.0
230
1.0
 70
     8
 71
     3
 72
     8
 73
     4
 74
     0
 42
0.000000001
 43
0.000001
 12
1.0
 22
0.0
 32
0.0
 13
1.0
 23
0.0
 33
0.0
 40
0.0
 40
0.0
 40
0.0
 40
0.0
 40
1.0
 40
1.0
 40
1.0
 40
1.0
 10
-103.181361
 20
45.95000300000004
 30
0.0
 10
-102.806232
 20
46.59974599999998
 30
0.0
 10
-102.806232
 20
47.400262
 30
0.0
 10
-103.181361
 20
48.05000500000006
 30
0.0
  0
SPLINE
  5
6C
330
1F
100
AcDbEntity
  8
CONTINUOUS
  6
CONTINUOUS
 62
     1
100
AcDbSpline
210
0.0
220
0.0
230
1.0
 70
     8
 71
     3
 72
     8
 73
     4
 74
     0
 42
0.000000001
 43
0.000001
 12
1.0
 22
0.0
 32
0.0
 13
1.0
 23
0.0
 33
0.0
 40
0.0
 40
0.0
 40
0.0
 40
0.0
 40
1.0
 40
1.0
 40
1.0
 40
1.0
 10
-103.181361
 20
48.05000500000006
 30
0.0
 10
-103.55649
 20
48.699748
 30
0.0
 10
-104.249758
 20
49.10000600000001
 30
0.0
 10
-105.000016
 20
49.10000600000001
 30
0.0
  0
SPLINE
  5
6D
330
1F
100
AcDbEntity
  8
CONTINUOUS
  6
CONTINUOUS
 62
     1
100
AcDbSpline
210
0.0
220
0.0
230
1.0
 70
     8
 71
     3
 72
     8
 73
     4
 74
     0
 42
0.000000001
 43
0.000001
 12
1.0
 22
0.0
 32
0.0
 13
1.0
 23
0.0
 33
0.0
 40
0.0
 40
0.0
 40
0.0
 40
0.0
 40
1.0
 40
1.0
 40
1.0
 40
1.0
 10
-105.000016
 20
31.09998500000006
 30
0.0
 10
-105.750274
 20
31.09998500000006
 30
0.0
 10
-106.443541
 20
30.69972700000005
 30
0.0
 10
-106.818671
 20
30.04998499999999
 30
0.0
  0
SPLINE
  5
6E
330
1F
100
AcDbEntity
  8
CONTINUOUS
  6
CONTINUOUS
 62
     1
100
AcDbSpline
210
0.0
220
0.0
230
1.0
 70
     8
 71
     3
 72
     8
 73
     4
 74
     0
 42
0.000000001
 43
0.000001
 12
1.0
 22
0.0
 32
0.0
 13
1.0
 23
0.0
 33
0.0
 40
0.0
 40
0.0
 40
0.0
 40
0.0
 40
1.0
 40
1.0
 40
1.0
 40
1.0
 10
-106.818671
 20
30.04998499999999
 30
0.0
 10
-107.1938
 20
29.40024200000005
 30
0.0
 10
-107.1938
 20
28.59972600000003
 30
0.0
 10
-106.818671
 20
27.94998300000003
 30
0.0
  0
SPLINE
  5
6F
330
1F
100
AcDbEntity
  8
CONTINUOUS
  6
CONTINUOUS
 62
     1
100
AcDbSpline
210
0.0
220
0.0
230
1.0
 70
     8
 71
     3
 72
     8
 73
     4
 74
     0
 42
0.000000001
 43
0.000001
 12
1.0
 22
0.0
 32
0.0
 13
1.0
 23
0.0
 33
0.0
 40
0.0
 40
0.0
 40
0.0
 40
0.0
 40
1.0
 40
1.0
 40
1.0
 40
1.0
 10
-106.818671
 20
27.94998300000003
 30
0.0
 10
-106.443541
 20
27.30024000000003
 30
0.0
 10
-105.750274
 20
26.89998200000002
 30
0.0
 10
-105.000016
 20
26.89998200000002
 30
0.0
  0
SPLINE
  5
70
330
1F
100
AcDbEntity
  8
CONTINUOUS
  6
CONTINUOUS
 62
     1
100
AcDbSpline
210
0.0
220
0.0
230
1.0
 70
     8
 71
     3
 72
     8
 73
     4
 74
     0
 42
0.000000001
 43
0.000001
 12
1.0
 22
0.0
 32
0.0
 13
1.0
 23
0.0
 33
0.0
 40
0.0
 40
0.0
 40
0.0
 40
0.0
 40
1.0
 40
1.0
 40
1.0
 40
1.0
 10
-105.000016
 20
26.89998200000002
 30
0.0
 10
-104.249758
 20
26.89998200000002
 30
0.0
 10
-103.55649
 20
27.30024000000003
 30
0.0
 10
-103.181361
 20
27.94998300000003
 30
0.0
  0
SPLINE
  5
71
330
1F
100
AcDbEntity
  8
CONTINUOUS
  6
CONTINUOUS
 62
     1
100
AcDbSpline
210
0.0
220
0.0
230
1.0
 70
     8
 71
     3
 72
     8
 73
     4
 74
     0
 42
0.000000001
 43
0.000001
 12
1.0
 22
0.0
 32
0.0
 13
1.0
 23
0.0
 33
0.0
 40
0.0
 40
0.0
 40
0.0
 40
0.0
 40
1.0
 40
1.0
 40
1.0
 40
1.0
 10
-103.181361
 20
27.94998300000003
 30
0.0
 10
-102.806232
 20
28.59972600000003
 30
0.0
 10
-102.806232
 20
29.40024200000005
 30
0.0
 10
-103.181361
 20
30.04998499999999
 30
0.0
  0
SPLINE
  5
72
330
1F
100
AcDbEntity
  8
CONTINUOUS
  6
CONTINUOUS
 62
     1
100
AcDbSpline
210
0.0
220
0.0
230
1.0
 70
     8
 71
     3
 72
     8
 73
     4
 74
     0
 42
0.000000001
 43
0.000001
 12
1.0
 22
0.0
 32
0.0
 13
1.0
 23
0.0
 33
0.0
 40
0.0
 40
0.0
 40
0.0
 40
0.0
 40
1.0
 40
1.0
 40
1.0
 40
1.0
 10
-103.181361
 20
30.04998499999999
 30
0.0
 10
-103.55649
 20
30.69972800000005
 30
0.0
 10
-104.249758
 20
31.09998600000006
 30
0.0
 10
-105.000016
 20
31.09998500000006
 30
0.0
  0
SPLINE
  5
73
330
1F
100
AcDbEntity
  8
CONTINUOUS
  6
CONTINUOUS
 62
     1
100
AcDbSpline
210
0.0
220
0.0
230
1.0
 70
     8
 71
     3
 72
     8
 73
     4
 74
     0
 42
0.000000001
 43
0.000001
 12
1.0
 22
0.0
 32
0.0
 13
1.0
 23
0.0
 33
0.0
 40
0.0
 40
0.0
 40
0.0
 40
0.0
 40
1.0
 40
1.0
 40
1.0
 40
1.0
 10
-194.000007
 20
99.69999500000006
 30
0.0
 10
-194.608451
 20
99.701639
 30
0.0
 10
-195.171381
 20
99.37798199999997
 30
0.0
 10
-195.476079
 20
98.85132699999997
 30
0.0
  0
SPLINE
  5
74
330
1F
100
AcDbEntity
  8
CONTINUOUS
  6
CONTINUOUS
 62
     1
100
AcDbSpline
210
0.0
220
0.0
230
1.0
 70
     8
 71
     3
 72
     8
 73
     4
 74
     0
 42
0.000000001
 43
0.000001
 12
1.0
 22
0.0
 32
0.0
 13
1.0
 23
0.0
 33
0.0
 40
0.0
 40
0.0
 40
0.0
 40
0.0
 40
1.0
 40
1.0
 40
1.0
 40
1.0
 10
-195.476079
 20
98.85132699999997
 30
0.0
 10
-195.780776
 20
98.32467199999996
 30
0.0
 10
-195.780776
 20
97.67533000000003
 30
0.0
 10
-195.476079
 20
97.14867500000003
 30
0.0
  0
SPLINE
  5
75
330
1F
100
AcDbEntity
  8
CONTINUOUS
  6
CONTINUOUS
 62
     1
100
AcDbSpline
210
0.0
220
0.0
230
1.0
 70
     8
 71
     3
 72
     8
 73
     4
 74
     0
 42
0.000000001
 43
0.000001
 12
1.0
 22
0.0
 32
0.0
 13
1.0
 23
0.0
 33
0.0
 40
0.0
 40
0.0
 40
0.0
 40
0.0
 40
1.0
 40
1.0
 40
1.0
 40
1.0
 10
-195.476079
 20
97.14867500000003
 30
0.0
 10
-195.171381
 20
96.62202000000002
 30
0.0
 10
-194.608451
 20
96.298363
 30
0.0
 10
-194.000007
 20
96.30000700000005
 30
0.0
  0
SPLINE
  5
76
330
1F
100
AcDbEntity
  8
CONTINUOUS
  6
CONTINUOUS
 62
     1
100
AcDbSpline
210
0.0
220
0.0
230
1.0
 70
     8
 71
     3
 72
     8
 73
     4
 74
     0
 42
0.000000001
 43
0.000001
 12
1.0
 22
0.0
 32
0.0
 13
1.0
 23
0.0
 33
0.0
 40
0.0
 40
0.0
 40
0.0
 40
0.0
 40
1.0
 40
1.0
 40
1.0
 40
1.0
 10
-194.000007
 20
96.30000700000005
 30
0.0
 10
-193.391564
 20
96.298363
 30
0.0
 10
-192.828634
 20
96.62202000000002
 30
0.0
 10
-192.523936
 20
97.14867500000003
 30
0.0
  0
SPLINE
  5
77
330
1F
100
AcDbEntity
  8
CONTINUOUS
  6
CONTINUOUS
 62
     1
100
AcDbSpline
210
0.0
220
0.0
230
1.0
 70
     8
 71
     3
 72
     8
 73
     4
 74
     0
 42
0.000000001
 43
0.000001
 12
1.0
 22
0.0
 32
0.0
 13
1.0
 23
0.0
 33
0.0
 40
0.0
 40
0.0
 40
0.0
 40
0.0
 40
1.0
 40
1.0
 40
1.0
 40
1.0
 10
-192.523936
 20
97.14867500000003
 30
0.0
 10
-192.219238
 20
97.67533000000003
 30
0.0
 10
-192.219238
 20
98.32467199999996
 30
0.0
 10
-192.523936
 20
98.85132699999997
 30
0.0
  0
SPLINE
  5
78
330
1F
100
AcDbEntity
  8
CONTINUOUS
  6
CONTINUOUS
 62
     1
100
AcDbSpline
210
0.0
220
0.0
230
1.0
 70
     8
 71
     3
 72
     8
 73
     4
 74
     0
 42
0.000000001
 43
0.000001
 12
1.0
 22
0.0
 32
0.0
 13
1.0
 23
0.0
 33
0.0
 40
0.0
 40
0.0
 40
0.0
 40
0.0
 40
1.0
 40
1.0
 40
1.0
 40
1.0
 10
-192.523936
 20
98.85132699999997
 30
0.0
 10
-192.828634
 20
99.37798199999997
 30
0.0
 10
-193.391564
 20
99.701639
 30
0.0
 10
-194.000007
 20
99.69999500000006
 30
0.0
  0
SPLINE
  5
79
330
1F
100
AcDbEntity
  8
CONTINUOUS
  6
CONTINUOUS
 62
     1
100
AcDbSpline
210
0.0
220
0.0
230
1.0
 70
     8
 71
     3
 72
     8
 73
     4
 74
     0
 42
0.000000001
 43
0.000001
 12
1.0
 22
0.0
 32
0.0
 13
1.0
 23
0.0
 33
0.0
 40
0.0
 40
0.0
 40
0.0
 40
0.0
 40
1.0
 40
1.0
 40
1.0
 40
1.0
 10
-194.000007
 20
75.699986
 30
0.0
 10
-194.608451
 20
75.70163100000002
 30
0.0
 10
-195.1713809999999
 20
75.37797400000001
 30
0.0
 10
-195.4760789999999
 20
74.85131899999998
 30
0.0
  0
SPLINE
  5
7A
330
1F
100
AcDbEntity
  8
CONTINUOUS
  6
CONTINUOUS
 62
     1
100
AcDbSpline
210
0.0
220
0.0
230
1.0
 70
     8
 71
     3
 72
     8
 73
     4
 74
     0
 42
0.000000001
 43
0.000001
 12
1.0
 22
0.0
 32
0.0
 13
1.0
 23
0.0
 33
0.0
 40
0.0
 40
0.0
 40
0.0
 40
0.0
 40
1.0
 40
1.0
 40
1.0
 40
1.0
 10
-195.4760789999999
 20
74.85131899999995
 30
0.0
 10
-195.7807759999999
 20
74.32466299999993
 30
0.0
 10
-195.7807759999999
 20
73.675322
 30
0.0
 10
-195.4760789999998
 20
73.148667
 30
0.0
  0
SPLINE
  5
7B
330
1F
100
AcDbEntity
  8
CONTINUOUS
  6
CONTINUOUS
 62
     1
100
AcDbSpline
210
0.0
220
0.0
230
1.0
 70
     8
 71
     3
 72
     8
 73
     4
 74
     0
 42
0.000000001
 43
0.000001
 12
1.0
 22
0.0
 32
0.0
 13
1.0
 23
0.0
 33
0.0
 40
0.0
 40
0.0
 40
0.0
 40
0.0
 40
1.0
 40
1.0
 40
1.0
 40
1.0
 10
-195.4760789999998
 20
73.14866700000002
 30
0.0
 10
-195.1713809999998
 20
72.62201100000009
 30
0.0
 10
-194.6084509999999
 20
72.29835400000006
 30
0.0
 10
-194.0000069999999
 20
72.29999899999999
 30
0.0
  0
SPLINE
  5
7C
330
1F
100
AcDbEntity
  8
CONTINUOUS
  6
CONTINUOUS
 62
     1
100
AcDbSpline
210
0.0
220
0.0
230
1.0
 70
     8
 71
     3
 72
     8
 73
     4
 74
     0
 42
0.000000001
 43
0.000001
 12
1.0
 22
0.0
 32
0.0
 13
1.0
 23
0.0
 33
0.0
 40
0.0
 40
0.0
 40
0.0
 40
0.0
 40
1.0
 40
1.0
 40
1.0
 40
1.0
 10
-194.0000069999999
 20
72.29999899999999
 30
0.0
 10
-193.3915639999999
 20
72.29835400000012
 30
0.0
 10
-192.8286339999998
 20
72.6220110000001
 30
0.0
 10
-192.5239359999998
 20
73.14866700000015
 30
0.0
  0
SPLINE
  5
7D
330
1F
100
AcDbEntity
  8
CONTINUOUS
  6
CONTINUOUS
 62
     1
100
AcDbSpline
210
0.0
220
0.0
230
1.0
 70
     8
 71
     3
 72
     8
 73
     4
 74
     0
 42
0.000000001
 43
0.000001
 12
1.0
 22
0.0
 32
0.0
 13
1.0
 23
0.0
 33
0.0
 40
0.0
 40
0.0
 40
0.0
 40
0.0
 40
1.0
 40
1.0
 40
1.0
 40
1.0
 10
-192.5239359999998
 20
73.14866700000015
 30
0.0
 10
-192.2192379999998
 20
73.67532200000015
 30
0.0
 10
-192.2192379999999
 20
74.32466300000009
 30
0.0
 10
-192.5239359999999
 20
74.85131900000009
 30
0.0
  0
SPLINE
  5
7E
330
1F
100
AcDbEntity
  8
CONTINUOUS
  6
CONTINUOUS
 62
     1
100
AcDbSpline
210
0.0
220
0.0
230
1.0
 70
     8
 71
     3
 72
     8
 73
     4
 74
     0
 42
0.000000001
 43
0.000001
 12
1.0
 22
0.0
 32
0.0
 13
1.0
 23
0.0
 33
0.0
 40
0.0
 40
0.0
 40
0.0
 40
0.0
 40
1.0
 40
1.0
 40
1.0
 40
1.0
 10
-192.5239359999999
 20
74.8513190000001
 30
0.0
 10
-192.8286339999999
 20
75.37797400000007
 30
0.0
 10
-193.391564
 20
75.70163100000016
 30
0.0
 10
-194.000007
 20
75.69998600000001
 30
0.0
  0
SPLINE
  5
7F
330
1F
100
AcDbEntity
  8
CONTINUOUS
  6
CONTINUOUS
 62
     1
100
AcDbSpline
210
0.0
220
0.0
230
1.0
 70
     8
 71
     3
 72
     8
 73
     4
 74
     0
 42
0.000000001
 43
0.000001
 12
1.0
 22
0.0
 32
0.0
 13
1.0
 23
0.0
 33
0.0
 40
0.0
 40
0.0
 40
0.0
 40
0.0
 40
1.0
 40
1.0
 40
1.0
 40
1.0
 10
0.0
 20
49.10000600000001
 30
0.0
 10
-0.7502589999999998
 20
49.10000600000001
 30
0.0
 10
-1.443525999999991
 20
48.699748
 30
0.0
 10
-1.818655000000007
 20
48.05000500000006
 30
0.0
  0
SPLINE
  5
80
330
1F
100
AcDbEntity
  8
CONTINUOUS
  6
CONTINUOUS
 62
     1
100
AcDbSpline
210
0.0
220
0.0
230
1.0
 70
     8
 71
     3
 72
     8
 73
     4
 74
     0
 42
0.000000001
 43
0.000001
 12
1.0
 22
0.0
 32
0.0
 13
1.0
 23
0.0
 33
0.0
 40
0.0
 40
0.0
 40
0.0
 40
0.0
 40
1.0
 40
1.0
 40
1.0
 40
1.0
 10
-1.818655000000007
 20
48.05000500000006
 30
0.0
 10
-2.193783999999994
 20
47.400262
 30
0.0
 10
-2.193783999999994
 20
46.59974599999998
 30
0.0
 10
-1.818655000000007
 20
45.95000300000004
 30
0.0
  0
SPLINE
  5
81
330
1F
100
AcDbEntity
  8
CONTINUOUS
  6
CONTINUOUS
 62
     1
100
AcDbSpline
210
0.0
220
0.0
230
1.0
 70
     8
 71
     3
 72
     8
 73
     4
 74
     0
 42
0.000000001
 43
0.000001
 12
1.0
 22
0.0
 32
0.0
 13
1.0
 23
0.0
 33
0.0
 40
0.0
 40
0.0
 40
0.0
 40
0.0
 40
1.0
 40
1.0
 40
1.0
 40
1.0
 10
-1.818655000000007
 20
45.95000300000004
 30
0.0
 10
-1.443525999999991
 20
45.30026099999998
 30
0.0
 10
-0.7502589999999998
 20
44.90000299999997
 30
0.0
 10
0.0
 20
44.90000299999997
 30
0.0
  0
SPLINE
  5
82
330
1F
100
AcDbEntity
  8
CONTINUOUS
  6
CONTINUOUS
 62
     1
100
AcDbSpline
210
0.0
220
0.0
230
1.0
 70
     8
 71
     3
 72
     8
 73
     4
 74
     0
 42
0.000000001
 43
0.000001
 12
1.0
 22
0.0
 32
0.0
 13
1.0
 23
0.0
 33
0.0
 40
0.0
 40
0.0
 40
0.0
 40
0.0
 40
1.0
 40
1.0
 40
1.0
 40
1.0
 10
0.0
 20
44.90000299999997
 30
0.0
 10
0.7502580000000023
 20
44.90000299999997
 30
0.0
 10
1.443525999999991
 20
45.30026099999998
 30
0.0
 10
1.818655000000007
 20
45.95000300000004
 30
0.0
  0
SPLINE
  5
83
330
1F
100
AcDbEntity
  8
CONTINUOUS
  6
CONTINUOUS
 62
     1
100
AcDbSpline
210
0.0
220
0.0
230
1.0
 70
     8
 71
     3
 72
     8
 73
     4
 74
     0
 42
0.000000001
 43
0.000001
 12
1.0
 22
0.0
 32
0.0
 13
1.0
 23
0.0
 33
0.0
 40
0.0
 40
0.0
 40
0.0
 40
0.0
 40
1.0
 40
1.0
 40
1.0
 40
1.0
 10
1.818655000000007
 20
45.95000300000004
 30
0.0
 10
2.193783999999994
 20
46.59974599999998
 30
0.0
 10
2.193783999999994
 20
47.400262
 30
0.0
 10
1.818655000000007
 20
48.05000500000006
 30
0.0
  0
SPLINE
  5
84
330
1F
100
AcDbEntity
  8
CONTINUOUS
  6
CONTINUOUS
 62
     1
100
AcDbSpline
210
0.0
220
0.0
230
1.0
 70
     8
 71
     3
 72
     8
 73
     4
 74
     0
 42
0.000000001
 43
0.000001
 12
1.0
 22
0.0
 32
0.0
 13
1.0
 23
0.0
 33
0.0
 40
0.0
 40
0.0
 40
0.0
 40
0.0
 40
1.0
 40
1.0
 40
1.0
 40
1.0
 10
1.818655000000007
 20
48.05000500000006
 30
0.0
 10
1.443525999999991
 20
48.699748
 30
0.0
 10
0.7502580000000023
 20
49.10000600000001
 30
0.0
 10
0.0
 20
49.10000600000001
 30
0.0
  0
SPLINE
  5
85
330
1F
100
AcDbEntity
  8
CONTINUOUS
  6
CONTINUOUS
 62
     1
100
AcDbSpline
210
0.0
220
0.0
230
1.0
 70
     8
 71
     3
 72
     8
 73
     4
 74
     0
 42
0.000000001
 43
0.000001
 12
1.0
 22
0.0
 32
0.0
 13
1.0
 23
0.0
 33
0.0
 40
0.0
 40
0.0
 40
0.0
 40
0.0
 40
1.0
 40
1.0
 40
1.0
 40
1.0
 10
0.0
 20
31.09998500000006
 30
0.0
 10
-0.7502580000000023
 20
31.09998500000006
 30
0.0
 10
-1.443525999999991
 20
30.69972700000005
 30
0.0
 10
-1.818655000000007
 20
30.04998499999999
 30
0.0
  0
SPLINE
  5
86
330
1F
100
AcDbEntity
  8
CONTINUOUS
  6
CONTINUOUS
 62
     1
100
AcDbSpline
210
0.0
220
0.0
230
1.0
 70
     8
 71
     3
 72
     8
 73
     4
 74
     0
 42
0.000000001
 43
0.000001
 12
1.0
 22
0.0
 32
0.0
 13
1.0
 23
0.0
 33
0.0
 40
0.0
 40
0.0
 40
0.0
 40
0.0
 40
1.0
 40
1.0
 40
1.0
 40
1.0
 10
-1.818655000000007
 20
30.04998499999999
 30
0.0
 10
-2.193783999999994
 20
29.40024200000005
 30
0.0
 10
-2.193783999999994
 20
28.59972600000003
 30
0.0
 10
-1.818655000000007
 20
27.94998300000003
 30
0.0
  0
SPLINE
  5
87
330
1F
100
AcDbEntity
  8
CONTINUOUS
  6
CONTINUOUS
 62
     1
100
AcDbSpline
210
0.0
220
0.0
230
1.0
 70
     8
 71
     3
 72
     8
 73
     4
 74
     0
 42
0.000000001
 43
0.000001
 12
1.0
 22
0.0
 32
0.0
 13
1.0
 23
0.0
 33
0.0
 40
0.0
 40
0.0
 40
0.0
 40
0.0
 40
1.0
 40
1.0
 40
1.0
 40
1.0
 10
-1.818655000000007
 20
27.94998300000003
 30
0.0
 10
-1.443525999999991
 20
27.30024000000003
 30
0.0
 10
-0.7502580000000023
 20
26.89998200000002
 30
0.0
 10
0.0
 20
26.89998200000002
 30
0.0
  0
SPLINE
  5
88
330
1F
100
AcDbEntity
  8
CONTINUOUS
  6
CONTINUOUS
 62
     1
100
AcDbSpline
210
0.0
220
0.0
230
1.0
 70
     8
 71
     3
 72
     8
 73
     4
 74
     0
 42
0.000000001
 43
0.000001
 12
1.0
 22
0.0
 32
0.0
 13
1.0
 23
0.0
 33
0.0
 40
0.0
 40
0.0
 40
0.0
 40
0.0
 40
1.0
 40
1.0
 40
1.0
 40
1.0
 10
0.0
 20
26.89998200000002
 30
0.0
 10
0.7502580000000023
 20
26.89998200000002
 30
0.0
 10
1.443525999999991
 20
27.30024000000003
 30
0.0
 10
1.818655000000007
 20
27.94998300000003
 30
0.0
  0
SPLINE
  5
89
330
1F
100
AcDbEntity
  8
CONTINUOUS
  6
CONTINUOUS
 62
     1
100
AcDbSpline
210
0.0
220
0.0
230
1.0
 70
     8
 71
     3
 72
     8
 73
     4
 74
     0
 42
0.000000001
 43
0.000001
 12
1.0
 22
0.0
 32
0.0
 13
1.0
 23
0.0
 33
0.0
 40
0.0
 40
0.0
 40
0.0
 40
0.0
 40
1.0
 40
1.0
 40
1.0
 40
1.0
 10
1.818655000000007
 20
27.94998300000003
 30
0.0
 10
2.193783999999994
 20
28.59972600000003
 30
0.0
 10
2.193783999999994
 20
29.40024200000005
 30
0.0
 10
1.818655000000007
 20
30.04998499999999
 30
0.0
  0
SPLINE
  5
8A
330
1F
100
AcDbEntity
  8
CONTINUOUS
  6
CONTINUOUS
 62
     1
100
AcDbSpline
210
0.0
220
0.0
230
1.0
 70
     8
 71
     3
 72
     8
 73
     4
 74
     0
 42
0.000000001
 43
0.000001
 12
1.0
 22
0.0
 32
0.0
 13
1.0
 23
0.0
 33
0.0
 40
0.0
 40
0.0
 40
0.0
 40
0.0
 40
1.0
 40
1.0
 40
1.0
 40
1.0
 10
1.818655000000007
 20
30.04998499999999
 30
0.0
 10
1.443525999999991
 20
30.69972800000005
 30
0.0
 10
0.7502580000000023
 20
31.09998600000006
 30
0.0
 10
0.0
 20
31.09998500000006
 30
0.0
  0
SPLINE
  5
8B
330
1F
100
AcDbEntity
  8
CONTINUOUS
  6
CONTINUOUS
 62
     1
100
AcDbSpline
210
0.0
220
0.0
230
1.0
 70
     8
 71
     3
 72
     8
 73
     4
 74
     0
 42
0.000000001
 43
0.000001
 12
1.0
 22
0.0
 32
0.0
 13
1.0
 23
0.0
 33
0.0
 40
0.0
 40
0.0
 40
0.0
 40
0.0
 40
1.0
 40
1.0
 40
1.0
 40
1.0
 10
-90.00001799999998
 20
77.99998500000005
 30
0.0
 10
-92.85814699999999
 20
77.99998500000004
 30
0.0
 10
-95.499167
 20
79.52477799999997
 30
0.0
 10
-96.92823200000001
 20
81.99999100000001
 30
0.0
  0
SPLINE
  5
8C
330
1F
100
AcDbEntity
  8
CONTINUOUS
  6
CONTINUOUS
 62
     1
100
AcDbSpline
210
0.0
220
0.0
230
1.0
 70
     8
 71
     3
 72
     8
 73
     4
 74
     0
 42
0.000000001
 43
0.000001
 12
1.0
 22
0.0
 32
0.0
 13
1.0
 23
0.0
 33
0.0
 40
0.0
 40
0.0
 40
0.0
 40
0.0
 40
1.0
 40
1.0
 40
1.0
 40
1.0
 10
-96.92823200000001
 20
81.99999100000002
 30
0.0
 10
-98.357296
 20
84.47520299999996
 30
0.0
 10
-98.357296
 20
87.52479100000005
 30
0.0
 10
-96.92823200000001
 20
90.00000299999999
 30
0.0
  0
SPLINE
  5
8D
330
1F
100
AcDbEntity
  8
CONTINUOUS
  6
CONTINUOUS
 62
     1
100
AcDbSpline
210
0.0
220
0.0
230
1.0
 70
     8
 71
     3
 72
     8
 73
     4
 74
     0
 42
0.000000001
 43
0.000001
 12
1.0
 22
0.0
 32
0.0
 13
1.0
 23
0.0
 33
0.0
 40
0.0
 40
0.0
 40
0.0
 40
0.0
 40
1.0
 40
1.0
 40
1.0
 40
1.0
 10
-96.92823200000001
 20
90.00000299999999
 30
0.0
 10
-95.499167
 20
92.47521500000005
 30
0.0
 10
-92.858147
 20
94.00000899999998
 30
0.0
 10
-90.000018
 20
94.00000899999998
 30
0.0
  0
SPLINE
  5
8E
330
1F
100
AcDbEntity
  8
CONTINUOUS
  6
CONTINUOUS
 62
     1
100
AcDbSpline
210
0.0
220
0.0
230
1.0
 70
     8
 71
     3
 72
     8
 73
     4
 74
     0
 42
0.000000001
 43
0.000001
 12
1.0
 22
0.0
 32
0.0
 13
1.0
 23
0.0
 33
0.0
 40
0.0
 40
0.0
 40
0.0
 40
0.0
 40
1.0
 40
1.0
 40
1.0
 40
1.0
 10
194.000007
 20
89.99998900000003
 30
0.0
 10
192.569053
 20
90.002833
 30
0.0
 10
191.245579
 20
89.24106200000006
 30
0.0
 10
190.52928
 20
88.00229200000003
 30
0.0
  0
SPLINE
  5
8F
330
1F
100
AcDbEntity
  8
CONTINUOUS
  6
CONTINUOUS
 62
     1
100
AcDbSpline
210
0.0
220
0.0
230
1.0
 70
     8
 71
     3
 72
     8
 73
     4
 74
     0
 42
0.000000001
 43
0.000001
 12
1.0
 22
0.0
 32
0.0
 13
1.0
 23
0.0
 33
0.0
 40
0.0
 40
0.0
 40
0.0
 40
0.0
 40
1.0
 40
1.0
 40
1.0
 40
1.0
 10
190.52928
 20
88.00229200000004
 30
0.0
 10
189.8129809999999
 20
86.76352200000002
 30
0.0
 10
189.8129809999999
 20
85.2364720000001
 30
0.0
 10
190.5292799999999
 20
83.99770200000003
 30
0.0
  0
SPLINE
  5
90
330
1F
100
AcDbEntity
  8
CONTINUOUS
  6
CONTINUOUS
 62
     1
100
AcDbSpline
210
0.0
220
0.0
230
1.0
 70
     8
 71
     3
 72
     8
 73
     4
 74
     0
 42
0.000000001
 43
0.000001
 12
1.0
 22
0.0
 32
0.0
 13
1.0
 23
0.0
 33
0.0
 40
0.0
 40
0.0
 40
0.0
 40
0.0
 40
1.0
 40
1.0
 40
1.0
 40
1.0
 10
190.5292799999999
 20
83.99770200000003
 30
0.0
 10
191.2455789999999
 20
82.75893200000002
 30
0.0
 10
192.5690529999999
 20
81.99716100000003
 30
0.0
 10
194.0000069999999
 20
82.00000500000003
 30
0.0
  0
SPLINE
  5
91
330
1F
100
AcDbEntity
  8
CONTINUOUS
  6
CONTINUOUS
 62
     1
100
AcDbSpline
210
0.0
220
0.0
230
1.0
 70
     8
 71
     3
 72
     8
 73
     4
 74
     0
 42
0.000000001
 43
0.000001
 12
1.0
 22
0.0
 32
0.0
 13
1.0
 23
0.0
 33
0.0
 40
0.0
 40
0.0
 40
0.0
 40
0.0
 40
1.0
 40
1.0
 40
1.0
 40
1.0
 10
194.0000069999999
 20
82.00000500000003
 30
0.0
 10
195.4309599999999
 20
81.99716100000005
 30
0.0
 10
196.7544339999999
 20
82.75893199999997
 30
0.0
 10
197.4707329999999
 20
83.99770200000002
 30
0.0
  0
SPLINE
  5
92
330
1F
100
AcDbEntity
  8
CONTINUOUS
  6
CONTINUOUS
 62
     1
100
AcDbSpline
210
0.0
220
0.0
230
1.0
 70
     8
 71
     3
 72
     8
 73
     4
 74
     0
 42
0.000000001
 43
0.000001
 12
1.0
 22
0.0
 32
0.0
 13
1.0
 23
0.0
 33
0.0
 40
0.0
 40
0.0
 40
0.0
 40
0.0
 40
1.0
 40
1.0
 40
1.0
 40
1.0
 10
197.4707329999999
 20
83.99770200000002
 30
0.0
 10
198.1870329999999
 20
85.23647200000008
 30
0.0
 10
198.187033
 20
86.763522
 30
0.0
 10
197.4707329999999
 20
88.00229200000003
 30
0.0
  0
SPLINE
  5
93
330
1F
100
AcDbEntity
  8
CONTINUOUS
  6
CONTINUOUS
 62
     1
100
AcDbSpline
210
0.0
220
0.0
230
1.0
 70
     8
 71
     3
 72
     8
 73
     4
 74
     0
 42
0.000000001
 43
0.000001
 12
1.0
 22
0.0
 32
0.0
 13
1.0
 23
0.0
 33
0.0
 40
0.0
 40
0.0
 40
0.0
 40
0.0
 40
1.0
 40
1.0
 40
1.0
 40
1.0
 10
197.4707329999999
 20
88.00229200000004
 30
0.0
 10
196.754434
 20
89.24106200000008
 30
0.0
 10
195.43096
 20
90.00283300000005
 30
0.0
 10
194.000007
 20
89.99998900000006
 30
0.0
  0
SPLINE
  5
94
330
1F
100
AcDbEntity
  8
CONTINUOUS
  6
CONTINUOUS
 62
     1
100
AcDbSpline
210
0.0
220
0.0
230
1.0
 70
     8
 71
     3
 72
     8
 73
     4
 74
     0
 42
0.000000001
 43
0.000001
 12
1.0
 22
0.0
 32
0.0
 13
1.0
 23
0.0
 33
0.0
 40
0.0
 40
0.0
 40
0.0
 40
0.0
 40
1.0
 40
1.0
 40
1.0
 40
1.0
 10
89.99998899999997
 20
77.99998500000004
 30
0.0
 10
92.85811799999999
 20
77.99998500000004
 30
0.0
 10
95.49913800000002
 20
79.52477799999997
 30
0.0
 10
96.928203
 20
81.99999100000002
 30
0.0
  0
SPLINE
  5
95
330
1F
100
AcDbEntity
  8
CONTINUOUS
  6
CONTINUOUS
 62
     1
100
AcDbSpline
210
0.0
220
0.0
230
1.0
 70
     8
 71
     3
 72
     8
 73
     4
 74
     0
 42
0.000000001
 43
0.000001
 12
1.0
 22
0.0
 32
0.0
 13
1.0
 23
0.0
 33
0.0
 40
0.0
 40
0.0
 40
0.0
 40
0.0
 40
1.0
 40
1.0
 40
1.0
 40
1.0
 10
96.928203
 20
81.99999100000002
 30
0.0
 10
98.35726699999998
 20
84.47520299999996
 30
0.0
 10
98.35726699999998
 20
87.52479100000005
 30
0.0
 10
96.928203
 20
90.00000299999999
 30
0.0
  0
SPLINE
  5
96
330
1F
100
AcDbEntity
  8
CONTINUOUS
  6
CONTINUOUS
 62
     1
100
AcDbSpline
210
0.0
220
0.0
230
1.0
 70
     8
 71
     3
 72
     8
 73
     4
 74
     0
 42
0.000000001
 43
0.000001
 12
1.0
 22
0.0
 32
0.0
 13
1.0
 23
0.0
 33
0.0
 40
0.0
 40
0.0
 40
0.0
 40
0.0
 40
1.0
 40
1.0
 40
1.0
 40
1.0
 10
96.92820300000001
 20
90.00000299999999
 30
0.0
 10
95.49913800000002
 20
92.47521500000003
 30
0.0
 10
92.85811799999999
 20
94.00000899999996
 30
0.0
 10
89.99998899999997
 20
94.00000899999995
 30
0.0
  0
SPLINE
  5
97
330
1F
100
AcDbEntity
  8
CONTINUOUS
  6
CONTINUOUS
 62
     1
100
AcDbSpline
210
0.0
220
0.0
230
1.0
 70
     8
 71
     3
 72
     8
 73
     4
 74
     0
 42
0.000000001
 43
0.000001
 12
1.0
 22
0.0
 32
0.0
 13
1.0
 23
0.0
 33
0.0
 40
0.0
 40
0.0
 40
0.0
 40
0.0
 40
1.0
 40
1.0
 40
1.0
 40
1.0
 10
163.9999820000001
 20
98.99999900000006
 30
0.0
 10
159.3555290000001
 20
98.99999900000003
 30
0.0
 10
155.0638770000001
 20
96.52221299999995
 30
0.0
 10
152.7416500000001
 20
92.499998
 30
0.0
  0
SPLINE
  5
98
330
1F
100
AcDbEntity
  8
CONTINUOUS
  6
CONTINUOUS
 62
     1
100
AcDbSpline
210
0.0
220
0.0
230
1.0
 70
     8
 71
     3
 72
     8
 73
     4
 74
     0
 42
0.000000001
 43
0.000001
 12
1.0
 22
0.0
 32
0.0
 13
1.0
 23
0.0
 33
0.0
 40
0.0
 40
0.0
 40
0.0
 40
0.0
 40
1.0
 40
1.0
 40
1.0
 40
1.0
 10
152.7416500000001
 20
92.499998
 30
0.0
 10
150.4194230000001
 20
88.47778300000006
 30
0.0
 10
150.4194230000001
 20
83.52220999999999
 30
0.0
 10
152.7416500000001
 20
79.49999600000001
 30
0.0
  0
SPLINE
  5
99
330
1F
100
AcDbEntity
  8
CONTINUOUS
  6
CONTINUOUS
 62
     1
100
AcDbSpline
210
0.0
220
0.0
230
1.0
 70
     8
 71
     3
 72
     8
 73
     4
 74
     0
 42
0.000000001
 43
0.000001
 12
1.0
 22
0.0
 32
0.0
 13
1.0
 23
0.0
 33
0.0
 40
0.0
 40
0.0
 40
0.0
 40
0.0
 40
1.0
 40
1.0
 40
1.0
 40
1.0
 10
152.7416500000001
 20
79.49999600000001
 30
0.0
 10
155.0638770000001
 20
75.47778100000008
 30
0.0
 10
159.3555290000001
 20
72.99999500000006
 30
0.0
 10
163.9999820000001
 20
72.99999500000007
 30
0.0
  0
SPLINE
  5
9A
330
1F
100
AcDbEntity
  8
CONTINUOUS
  6
CONTINUOUS
 62
     1
100
AcDbSpline
210
0.0
220
0.0
230
1.0
 70
     8
 71
     3
 72
     8
 73
     4
 74
     0
 42
0.000000001
 43
0.000001
 12
1.0
 22
0.0
 32
0.0
 13
1.0
 23
0.0
 33
0.0
 40
0.0
 40
0.0
 40
0.0
 40
0.0
 40
1.0
 40
1.0
 40
1.0
 40
1.0
 10
163.9999820000001
 20
72.99999500000007
 30
0.0
 10
168.6444360000001
 20
72.9999939999999
 30
0.0
 10
172.9360880000001
 20
75.47778099999995
 30
0.0
 10
175.2583150000002
 20
79.49999499999983
 30
0.0
  0
SPLINE
  5
9B
330
1F
100
AcDbEntity
  8
CONTINUOUS
  6
CONTINUOUS
 62
     1
100
AcDbSpline
210
0.0
220
0.0
230
1.0
 70
     8
 71
     3
 72
     8
 73
     4
 74
     0
 42
0.000000001
 43
0.000001
 12
1.0
 22
0.0
 32
0.0
 13
1.0
 23
0.0
 33
0.0
 40
0.0
 40
0.0
 40
0.0
 40
0.0
 40
1.0
 40
1.0
 40
1.0
 40
1.0
 10
175.2583150000002
 20
79.49999499999983
 30
0.0
 10
177.5805420000001
 20
83.52220999999982
 30
0.0
 10
177.580542
 20
88.47778299999989
 30
0.0
 10
175.2583149999999
 20
92.49999799999982
 30
0.0
  0
SPLINE
  5
9C
330
1F
100
AcDbEntity
  8
CONTINUOUS
  6
CONTINUOUS
 62
     1
100
AcDbSpline
210
0.0
220
0.0
230
1.0
 70
     8
 71
     3
 72
     8
 73
     4
 74
     0
 42
0.000000001
 43
0.000001
 12
1.0
 22
0.0
 32
0.0
 13
1.0
 23
0.0
 33
0.0
 40
0.0
 40
0.0
 40
0.0
 40
0.0
 40
1.0
 40
1.0
 40
1.0
 40
1.0
 10
175.2583149999999
 20
92.49999799999983
 30
0.0
 10
172.936088
 20
96.52221299999982
 30
0.0
 10
168.6444360000001
 20
98.99999999999994
 30
0.0
 10
163.9999820000001
 20
98.99999900000006
 30
0.0
  0
SPLINE
  5
9D
330
1F
100
AcDbEntity
  8
CONTINUOUS
  6
CONTINUOUS
 62
     1
100
AcDbSpline
210
0.0
220
0.0
230
1.0
 70
     8
 71
     3
 72
     8
 73
     4
 74
     0
 42
0.000000001
 43
0.000001
 12
1.0
 22
0.0
 32
0.0
 13
1.0
 23
0.0
 33
0.0
 40
0.0
 40
0.0
 40
0.0
 40
0.0
 40
1.0
 40
1.0
 40
1.0
 40
1.0
 10
148.499999
 20
103.2000020000001
 30
0.0
 10
147.892645
 20
103.200002
 30
0.0
 10
147.331426
 20
102.875982
 30
0.0
 10
147.027749
 20
102.349998
 30
0.0
  0
SPLINE
  5
9E
330
1F
100
AcDbEntity
  8
CONTINUOUS
  6
CONTINUOUS
 62
     1
100
AcDbSpline
210
0.0
220
0.0
230
1.0
 70
     8
 71
     3
 72
     8
 73
     4
 74
     0
 42
0.000000001
 43
0.000001
 12
1.0
 22
0.0
 32
0.0
 13
1.0
 23
0.0
 33
0.0
 40
0.0
 40
0.0
 40
0.0
 40
0.0
 40
1.0
 40
1.0
 40
1.0
 40
1.0
 10
147.027749
 20
102.349998
 30
0.0
 10
146.724072
 20
101.824014
 30
0.0
 10
146.7240719999999
 20
101.175974
 30
0.0
 10
147.027749
 20
100.64999
 30
0.0
  0
SPLINE
  5
9F
330
1F
100
AcDbEntity
  8
CONTINUOUS
  6
CONTINUOUS
 62
     1
100
AcDbSpline
210
0.0
220
0.0
230
1.0
 70
     8
 71
     3
 72
     8
 73
     4
 74
     0
 42
0.000000001
 43
0.000001
 12
1.0
 22
0.0
 32
0.0
 13
1.0
 23
0.0
 33
0.0
 40
0.0
 40
0.0
 40
0.0
 40
0.0
 40
1.0
 40
1.0
 40
1.0
 40
1.0
 10
147.027749
 20
100.64999
 30
0.0
 10
147.331426
 20
100.124006
 30
0.0
 10
147.892645
 20
99.79998599999999
 30
0.0
 10
148.499999
 20
99.79998599999999
 30
0.0
  0
SPLINE
  5
A0
330
1F
100
AcDbEntity
  8
CONTINUOUS
  6
CONTINUOUS
 62
     1
100
AcDbSpline
210
0.0
220
0.0
230
1.0
 70
     8
 71
     3
 72
     8
 73
     4
 74
     0
 42
0.000000001
 43
0.000001
 12
1.0
 22
0.0
 32
0.0
 13
1.0
 23
0.0
 33
0.0
 40
0.0
 40
0.0
 40
0.0
 40
0.0
 40
1.0
 40
1.0
 40
1.0
 40
1.0
 10
148.499999
 20
99.79998599999999
 30
0.0
 10
149.107353
 20
99.79998599999999
 30
0.0
 10
149.668572
 20
100.124006
 30
0.0
 10
149.972249
 20
100.64999
 30
0.0
  0
SPLINE
  5
A1
330
1F
100
AcDbEntity
  8
CONTINUOUS
  6
CONTINUOUS
 62
     1
100
AcDbSpline
210
0.0
220
0.0
230
1.0
 70
     8
 71
     3
 72
     8
 73
     4
 74
     0
 42
0.000000001
 43
0.000001
 12
1.0
 22
0.0
 32
0.0
 13
1.0
 23
0.0
 33
0.0
 40
0.0
 40
0.0
 40
0.0
 40
0.0
 40
1.0
 40
1.0
 40
1.0
 40
1.0
 10
149.972249
 20
100.64999
 30
0.0
 10
150.275926
 20
101.175974
 30
0.0
 10
150.2759259999999
 20
101.824014
 30
0.0
 10
149.9722489999999
 20
102.349998
 30
0.0
  0
SPLINE
  5
A2
330
1F
100
AcDbEntity
  8
CONTINUOUS
  6
CONTINUOUS
 62
     1
100
AcDbSpline
210
0.0
220
0.0
230
1.0
 70
     8
 71
     3
 72
     8
 73
     4
 74
     0
 42
0.000000001
 43
0.000001
 12
1.0
 22
0.0
 32
0.0
 13
1.0
 23
0.0
 33
0.0
 40
0.0
 40
0.0
 40
0.0
 40
0.0
 40
1.0
 40
1.0
 40
1.0
 40
1.0
 10
149.9722489999999
 20
102.349998
 30
0.0
 10
149.668572
 20
102.875982
 30
0.0
 10
149.107353
 20
103.200002
 30
0.0
 10
148.499999
 20
103.200002
 30
0.0
  0
SPLINE
  5
A3
330
1F
100
AcDbEntity
  8
CONTINUOUS
  6
CONTINUOUS
 62
     1
100
AcDbSpline
210
0.0
220
0.0
230
1.0
 70
     8
 71
     3
 72
     8
 73
     4
 74
     0
 42
0.000000001
 43
0.000001
 12
1.0
 22
0.0
 32
0.0
 13
1.0
 23
0.0
 33
0.0
 40
0.0
 40
0.0
 40
0.0
 40
0.0
 40
1.0
 40
1.0
 40
1.0
 40
1.0
 10
179.499994
 20
103.2000020000001
 30
0.0
 10
178.892639
 20
103.200002
 30
0.0
 10
178.331421
 20
102.875982
 30
0.0
 10
178.027744
 20
102.349998
 30
0.0
  0
SPLINE
  5
A4
330
1F
100
AcDbEntity
  8
CONTINUOUS
  6
CONTINUOUS
 62
     1
100
AcDbSpline
210
0.0
220
0.0
230
1.0
 70
     8
 71
     3
 72
     8
 73
     4
 74
     0
 42
0.000000001
 43
0.000001
 12
1.0
 22
0.0
 32
0.0
 13
1.0
 23
0.0
 33
0.0
 40
0.0
 40
0.0
 40
0.0
 40
0.0
 40
1.0
 40
1.0
 40
1.0
 40
1.0
 10
178.027744
 20
102.349998
 30
0.0
 10
177.724066
 20
101.8240140000001
 30
0.0
 10
177.724066
 20
101.175974
 30
0.0
 10
178.027744
 20
100.64999
 30
0.0
  0
SPLINE
  5
A5
330
1F
100
AcDbEntity
  8
CONTINUOUS
  6
CONTINUOUS
 62
     1
100
AcDbSpline
210
0.0
220
0.0
230
1.0
 70
     8
 71
     3
 72
     8
 73
     4
 74
     0
 42
0.000000001
 43
0.000001
 12
1.0
 22
0.0
 32
0.0
 13
1.0
 23
0.0
 33
0.0
 40
0.0
 40
0.0
 40
0.0
 40
0.0
 40
1.0
 40
1.0
 40
1.0
 40
1.0
 10
178.027744
 20
100.64999
 30
0.0
 10
178.3314209999999
 20
100.124006
 30
0.0
 10
178.8926389999999
 20
99.79998599999998
 30
0.0
 10
179.499994
 20
99.79998599999999
 30
0.0
  0
SPLINE
  5
A6
330
1F
100
AcDbEntity
  8
CONTINUOUS
  6
CONTINUOUS
 62
     1
100
AcDbSpline
210
0.0
220
0.0
230
1.0
 70
     8
 71
     3
 72
     8
 73
     4
 74
     0
 42
0.000000001
 43
0.000001
 12
1.0
 22
0.0
 32
0.0
 13
1.0
 23
0.0
 33
0.0
 40
0.0
 40
0.0
 40
0.0
 40
0.0
 40
1.0
 40
1.0
 40
1.0
 40
1.0
 10
179.499994
 20
99.79998599999999
 30
0.0
 10
180.107348
 20
99.79998599999998
 30
0.0
 10
180.668566
 20
100.124006
 30
0.0
 10
180.972244
 20
100.64999
 30
0.0
  0
SPLINE
  5
A7
330
1F
100
AcDbEntity
  8
CONTINUOUS
  6
CONTINUOUS
 62
     1
100
AcDbSpline
210
0.0
220
0.0
230
1.0
 70
     8
 71
     3
 72
     8
 73
     4
 74
     0
 42
0.000000001
 43
0.000001
 12
1.0
 22
0.0
 32
0.0
 13
1.0
 23
0.0
 33
0.0
 40
0.0
 40
0.0
 40
0.0
 40
0.0
 40
1.0
 40
1.0
 40
1.0
 40
1.0
 10
180.972244
 20
100.64999
 30
0.0
 10
181.275921
 20
101.175974
 30
0.0
 10
181.275921
 20
101.824014
 30
0.0
 10
180.972244
 20
102.349998
 30
0.0
  0
SPLINE
  5
A8
330
1F
100
AcDbEntity
  8
CONTINUOUS
  6
CONTINUOUS
 62
     1
100
AcDbSpline
210
0.0
220
0.0
230
1.0
 70
     8
 71
     3
 72
     8
 73
     4
 74
     0
 42
0.000000001
 43
0.000001
 12
1.0
 22
0.0
 32
0.0
 13
1.0
 23
0.0
 33
0.0
 40
0.0
 40
0.0
 40
0.0
 40
0.0
 40
1.0
 40
1.0
 40
1.0
 40
1.0
 10
180.972244
 20
102.349998
 30
0.0
 10
180.668566
 20
102.875982
 30
0.0
 10
180.107348
 20
103.2000020000001
 30
0.0
 10
179.499994
 20
103.2000020000001
 30
0.0
  0
SPLINE
  5
A9
330
1F
100
AcDbEntity
  8
CONTINUOUS
  6
CONTINUOUS
 62
     1
100
AcDbSpline
210
0.0
220
0.0
230
1.0
 70
     8
 71
     3
 72
     8
 73
     4
 74
     0
 42
0.000000001
 43
0.000001
 12
1.0
 22
0.0
 32
0.0
 13
1.0
 23
0.0
 33
0.0
 40
0.0
 40
0.0
 40
0.0
 40
0.0
 40
1.0
 40
1.0
 40
1.0
 40
1.0
 10
179.499994
 20
72.20000800000003
 30
0.0
 10
178.892639
 20
72.20000800000003
 30
0.0
 10
178.331421
 20
71.875988
 30
0.0
 10
178.027744
 20
71.35000400000001
 30
0.0
  0
SPLINE
  5
AA
330
1F
100
AcDbEntity
  8
CONTINUOUS
  6
CONTINUOUS
 62
     1
100
AcDbSpline
210
0.0
220
0.0
230
1.0
 70
     8
 71
     3
 72
     8
 73
     4
 74
     0
 42
0.000000001
 43
0.000001
 12
1.0
 22
0.0
 32
0.0
 13
1.0
 23
0.0
 33
0.0
 40
0.0
 40
0.0
 40
0.0
 40
0.0
 40
1.0
 40
1.0
 40
1.0
 40
1.0
 10
178.027744
 20
71.35000400000001
 30
0.0
 10
177.724066
 20
70.82401900000002
 30
0.0
 10
177.724066
 20
70.17597999999998
 30
0.0
 10
178.027744
 20
69.64999599999999
 30
0.0
  0
SPLINE
  5
AB
330
1F
100
AcDbEntity
  8
CONTINUOUS
  6
CONTINUOUS
 62
     1
100
AcDbSpline
210
0.0
220
0.0
230
1.0
 70
     8
 71
     3
 72
     8
 73
     4
 74
     0
 42
0.000000001
 43
0.000001
 12
1.0
 22
0.0
 32
0.0
 13
1.0
 23
0.0
 33
0.0
 40
0.0
 40
0.0
 40
0.0
 40
0.0
 40
1.0
 40
1.0
 40
1.0
 40
1.0
 10
178.027744
 20
69.64999599999999
 30
0.0
 10
178.331421
 20
69.124011
 30
0.0
 10
178.892639
 20
68.79999199999997
 30
0.0
 10
179.499994
 20
68.79999199999997
 30
0.0
  0
SPLINE
  5
AC
330
1F
100
AcDbEntity
  8
CONTINUOUS
  6
CONTINUOUS
 62
     1
100
AcDbSpline
210
0.0
220
0.0
230
1.0
 70
     8
 71
     3
 72
     8
 73
     4
 74
     0
 42
0.000000001
 43
0.000001
 12
1.0
 22
0.0
 32
0.0
 13
1.0
 23
0.0
 33
0.0
 40
0.0
 40
0.0
 40
0.0
 40
0.0
 40
1.0
 40
1.0
 40
1.0
 40
1.0
 10
179.499994
 20
68.79999199999997
 30
0.0
 10
180.107348
 20
68.79999199999997
 30
0.0
 10
180.668566
 20
69.124011
 30
0.0
 10
180.972244
 20
69.64999599999999
 30
0.0
  0
SPLINE
  5
AD
330
1F
100
AcDbEntity
  8
CONTINUOUS
  6
CONTINUOUS
 62
     1
100
AcDbSpline
210
0.0
220
0.0
230
1.0
 70
     8
 71
     3
 72
     8
 73
     4
 74
     0
 42
0.000000001
 43
0.000001
 12
1.0
 22
0.0
 32
0.0
 13
1.0
 23
0.0
 33
0.0
 40
0.0
 40
0.0
 40
0.0
 40
0.0
 40
1.0
 40
1.0
 40
1.0
 40
1.0
 10
180.972244
 20
69.64999599999999
 30
0.0
 10
181.275921
 20
70.17597999999998
 30
0.0
 10
181.275921
 20
70.82401900000002
 30
0.0
 10
180.972244
 20
71.35000400000001
 30
0.0
  0
SPLINE
  5
AE
330
1F
100
AcDbEntity
  8
CONTINUOUS
  6
CONTINUOUS
 62
     1
100
AcDbSpline
210
0.0
220
0.0
230
1.0
 70
     8
 71
     3
 72
     8
 73
     4
 74
     0
 42
0.000000001
 43
0.000001
 12
1.0
 22
0.0
 32
0.0
 13
1.0
 23
0.0
 33
0.0
 40
0.0
 40
0.0
 40
0.0
 40
0.0
 40
1.0
 40
1.0
 40
1.0
 40
1.0
 10
180.972244
 20
71.35000400000001
 30
0.0
 10
180.668566
 20
71.875988
 30
0.0
 10
180.107348
 20
72.20000800000003
 30
0.0
 10
179.499994
 20
72.20000800000003
 30
0.0
  0
SPLINE
  5
AF
330
1F
100
AcDbEntity
  8
CONTINUOUS
  6
CONTINUOUS
 62
     1
100
AcDbSpline
210
0.0
220
0.0
230
1.0
 70
     8
 71
     3
 72
     8
 73
     4
 74
     0
 42
0.000000001
 43
0.000001
 12
1.0
 22
0.0
 32
0.0
 13
1.0
 23
0.0
 33
0.0
 40
0.0
 40
0.0
 40
0.0
 40
0.0
 40
1.0
 40
1.0
 40
1.0
 40
1.0
 10
148.499999
 20
72.20000800000001
 30
0.0
 10
147.892645
 20
72.20000800000003
 30
0.0
 10
147.331426
 20
71.87598799999999
 30
0.0
 10
147.0277489999999
 20
71.350004
 30
0.0
  0
SPLINE
  5
B0
330
1F
100
AcDbEntity
  8
CONTINUOUS
  6
CONTINUOUS
 62
     1
100
AcDbSpline
210
0.0
220
0.0
230
1.0
 70
     8
 71
     3
 72
     8
 73
     4
 74
     0
 42
0.000000001
 43
0.000001
 12
1.0
 22
0.0
 32
0.0
 13
1.0
 23
0.0
 33
0.0
 40
0.0
 40
0.0
 40
0.0
 40
0.0
 40
1.0
 40
1.0
 40
1.0
 40
1.0
 10
147.0277489999999
 20
71.350004
 30
0.0
 10
146.7240719999999
 20
70.824019
 30
0.0
 10
146.724072
 20
70.17597999999997
 30
0.0
 10
147.027749
 20
69.64999599999997
 30
0.0
  0
SPLINE
  5
B1
330
1F
100
AcDbEntity
  8
CONTINUOUS
  6
CONTINUOUS
 62
     1
100
AcDbSpline
210
0.0
220
0.0
230
1.0
 70
     8
 71
     3
 72
     8
 73
     4
 74
     0
 42
0.000000001
 43
0.000001
 12
1.0
 22
0.0
 32
0.0
 13
1.0
 23
0.0
 33
0.0
 40
0.0
 40
0.0
 40
0.0
 40
0.0
 40
1.0
 40
1.0
 40
1.0
 40
1.0
 10
147.027749
 20
69.64999599999997
 30
0.0
 10
147.3314260000001
 20
69.124011
 30
0.0
 10
147.8926450000001
 20
68.79999199999999
 30
0.0
 10
148.4999990000001
 20
68.799992
 30
0.0
  0
SPLINE
  5
B2
330
1F
100
AcDbEntity
  8
CONTINUOUS
  6
CONTINUOUS
 62
     1
100
AcDbSpline
210
0.0
220
0.0
230
1.0
 70
     8
 71
     3
 72
     8
 73
     4
 74
     0
 42
0.000000001
 43
0.000001
 12
1.0
 22
0.0
 32
0.0
 13
1.0
 23
0.0
 33
0.0
 40
0.0
 40
0.0
 40
0.0
 40
0.0
 40
1.0
 40
1.0
 40
1.0
 40
1.0
 10
148.4999990000001
 20
68.799992
 30
0.0
 10
149.1073530000001
 20
68.79999200000002
 30
0.0
 10
149.6685720000001
 20
69.12401100000008
 30
0.0
 10
149.9722490000001
 20
69.64999600000007
 30
0.0
  0
SPLINE
  5
B3
330
1F
100
AcDbEntity
  8
CONTINUOUS
  6
CONTINUOUS
 62
     1
100
AcDbSpline
210
0.0
220
0.0
230
1.0
 70
     8
 71
     3
 72
     8
 73
     4
 74
     0
 42
0.000000001
 43
0.000001
 12
1.0
 22
0.0
 32
0.0
 13
1.0
 23
0.0
 33
0.0
 40
0.0
 40
0.0
 40
0.0
 40
0.0
 40
1.0
 40
1.0
 40
1.0
 40
1.0
 10
149.9722490000001
 20
69.64999600000007
 30
0.0
 10
150.2759260000001
 20
70.17598000000007
 30
0.0
 10
150.275926
 20
70.8240190000001
 30
0.0
 10
149.972249
 20
71.3500040000001
 30
0.0
  0
SPLINE
  5
B4
330
1F
100
AcDbEntity
  8
CONTINUOUS
  6
CONTINUOUS
 62
     1
100
AcDbSpline
210
0.0
220
0.0
230
1.0
 70
     8
 71
     3
 72
     8
 73
     4
 74
     0
 42
0.000000001
 43
0.000001
 12
1.0
 22
0.0
 32
0.0
 13
1.0
 23
0.0
 33
0.0
 40
0.0
 40
0.0
 40
0.0
 40
0.0
 40
1.0
 40
1.0
 40
1.0
 40
1.0
 10
149.972249
 20
71.3500040000001
 30
0.0
 10
149.668572
 20
71.87598800000006
 30
0.0
 10
149.1073529999999
 20
72.20000800000005
 30
0.0
 10
148.4999989999999
 20
72.20000800000001
 30
0.0
  0
SPLINE
  5
B5
330
1F
100
AcDbEntity
  8
CONTINUOUS
  6
CONTINUOUS
 62
     1
100
AcDbSpline
210
0.0
220
0.0
230
1.0
 70
    24
 71
     3
 72
     8
 73
     4
 74
     0
 42
0.000000001
 43
0.000001
 12
1.0
 22
0.0
 32
0.0
 13
1.0
 23
0.0
 33
0.0
 40
0.0
 40
0.0
 40
0.0
 40
0.0
 40
1.0
 40
1.0
 40
1.0
 40
1.0
 10
132.899996
 20
115.999993
 30
0.0
 10
132.899996
 20
115.999993
 30
0.0
 10
196.000003
 20
115.999993
 30
0.0
 10
196.000003
 20
115.999993
 30
0.0
  0
SPLINE
  5
B6
330
1F
100
AcDbEntity
  8
CONTINUOUS
  6
CONTINUOUS
 62
     1
100
AcDbSpline
210
0.0
220
0.0
230
1.0
 70
     8
 71
     3
 72
     8
 73
     4
 74
     0
 42
0.000000001
 43
0.000001
 12
1.0
 22
0.0
 32
0.0
 13
1.0
 23
0.0
 33
0.0
 40
0.0
 40
0.0
 40
0.0
 40
0.0
 40
1.0
 40
1.0
 40
1.0
 40
1.0
 10
196.000003
 20
115.999993
 30
0.0
 10
201.522846
 20
115.999982
 30
0.0
 10
205.999987
 20
111.522828
 30
0.0
 10
205.999983
 20
105.999985
 30
0.0
  0
SPLINE
  5
B7
330
1F
100
AcDbEntity
  8
CONTINUOUS
  6
CONTINUOUS
 62
     1
100
AcDbSpline
210
0.0
220
0.0
230
1.0
 70
     8
 71
     3
 72
     8
 73
     4
 74
     0
 42
0.000000001
 43
0.000001
 12
1.0
 22
0.0
 32
0.0
 13
1.0
 23
0.0
 33
0.0
 40
0.0
 40
0.0
 40
0.0
 40
0.0
 40
1.0
 40
1.0
 40
1.0
 40
1.0
 10
104.9999870000001
 20
49.10000600000004
 30
0.0
 10
104.2497290000001
 20
49.10000600000012
 30
0.0
 10
103.5564620000001
 20
48.69974800000016
 30
0.0
 10
103.181332
 20
48.05000500000025
 30
0.0
  0
SPLINE
  5
B8
330
1F
100
AcDbEntity
  8
CONTINUOUS
  6
CONTINUOUS
 62
     1
100
AcDbSpline
210
0.0
220
0.0
230
1.0
 70
     8
 71
     3
 72
     8
 73
     4
 74
     0
 42
0.000000001
 43
0.000001
 12
1.0
 22
0.0
 32
0.0
 13
1.0
 23
0.0
 33
0.0
 40
0.0
 40
0.0
 40
0.0
 40
0.0
 40
1.0
 40
1.0
 40
1.0
 40
1.0
 10
103.181332
 20
48.05000500000026
 30
0.0
 10
102.806203
 20
47.40026200000018
 30
0.0
 10
102.8062030000002
 20
46.59974600000017
 30
0.0
 10
103.1813320000002
 20
45.95000300000024
 30
0.0
  0
SPLINE
  5
B9
330
1F
100
AcDbEntity
  8
CONTINUOUS
  6
CONTINUOUS
 62
     1
100
AcDbSpline
210
0.0
220
0.0
230
1.0
 70
     8
 71
     3
 72
     8
 73
     4
 74
     0
 42
0.000000001
 43
0.000001
 12
1.0
 22
0.0
 32
0.0
 13
1.0
 23
0.0
 33
0.0
 40
0.0
 40
0.0
 40
0.0
 40
0.0
 40
1.0
 40
1.0
 40
1.0
 40
1.0
 10
103.1813320000002
 20
45.95000300000024
 30
0.0
 10
103.5564620000002
 20
45.30026100000015
 30
0.0
 10
104.2497290000001
 20
44.90000300000009
 30
0.0
 10
104.9999870000001
 20
44.90000300000002
 30
0.0
  0
SPLINE
  5
BA
330
1F
100
AcDbEntity
  8
CONTINUOUS
  6
CONTINUOUS
 62
     1
100
AcDbSpline
210
0.0
220
0.0
230
1.0
 70
     8
 71
     3
 72
     8
 73
     4
 74
     0
 42
0.000000001
 43
0.000001
 12
1.0
 22
0.0
 32
0.0
 13
1.0
 23
0.0
 33
0.0
 40
0.0
 40
0.0
 40
0.0
 40
0.0
 40
1.0
 40
1.0
 40
1.0
 40
1.0
 10
104.9999870000001
 20
44.90000300000001
 30
0.0
 10
105.7502460000001
 20
44.90000299999992
 30
0.0
 10
106.4435130000002
 20
45.3002609999999
 30
0.0
 10
106.8186430000003
 20
45.95000299999988
 30
0.0
  0
SPLINE
  5
BB
330
1F
100
AcDbEntity
  8
CONTINUOUS
  6
CONTINUOUS
 62
     1
100
AcDbSpline
210
0.0
220
0.0
230
1.0
 70
     8
 71
     3
 72
     8
 73
     4
 74
     0
 42
0.000000001
 43
0.000001
 12
1.0
 22
0.0
 32
0.0
 13
1.0
 23
0.0
 33
0.0
 40
0.0
 40
0.0
 40
0.0
 40
0.0
 40
1.0
 40
1.0
 40
1.0
 40
1.0
 10
106.8186430000002
 20
45.95000299999989
 30
0.0
 10
107.1937720000002
 20
46.59974599999982
 30
0.0
 10
107.1937720000001
 20
47.40026199999983
 30
0.0
 10
106.8186430000001
 20
48.05000499999991
 30
0.0
  0
SPLINE
  5
BC
330
1F
100
AcDbEntity
  8
CONTINUOUS
  6
CONTINUOUS
 62
     1
100
AcDbSpline
210
0.0
220
0.0
230
1.0
 70
     8
 71
     3
 72
     8
 73
     4
 74
     0
 42
0.000000001
 43
0.000001
 12
1.0
 22
0.0
 32
0.0
 13
1.0
 23
0.0
 33
0.0
 40
0.0
 40
0.0
 40
0.0
 40
0.0
 40
1.0
 40
1.0
 40
1.0
 40
1.0
 10
106.8186430000001
 20
48.05000499999991
 30
0.0
 10
106.4435130000001
 20
48.69974799999989
 30
0.0
 10
105.7502460000001
 20
49.10000599999994
 30
0.0
 10
104.9999870000001
 20
49.10000600000005
 30
0.0
  0
SPLINE
  5
BD
330
1F
100
AcDbEntity
  8
CONTINUOUS
  6
CONTINUOUS
 62
     1
100
AcDbSpline
210
0.0
220
0.0
230
1.0
 70
     8
 71
     3
 72
     8
 73
     4
 74
     0
 42
0.000000001
 43
0.000001
 12
1.0
 22
0.0
 32
0.0
 13
1.0
 23
0.0
 33
0.0
 40
0.0
 40
0.0
 40
0.0
 40
0.0
 40
1.0
 40
1.0
 40
1.0
 40
1.0
 10
104.999987
 20
31.09998500000006
 30
0.0
 10
104.249729
 20
31.09998500000006
 30
0.0
 10
103.556462
 20
30.69972700000005
 30
0.0
 10
103.181333
 20
30.04998499999999
 30
0.0
  0
SPLINE
  5
BE
330
1F
100
AcDbEntity
  8
CONTINUOUS
  6
CONTINUOUS
 62
     1
100
AcDbSpline
210
0.0
220
0.0
230
1.0
 70
     8
 71
     3
 72
     8
 73
     4
 74
     0
 42
0.000000001
 43
0.000001
 12
1.0
 22
0.0
 32
0.0
 13
1.0
 23
0.0
 33
0.0
 40
0.0
 40
0.0
 40
0.0
 40
0.0
 40
1.0
 40
1.0
 40
1.0
 40
1.0
 10
103.181333
 20
30.04998499999999
 30
0.0
 10
102.806204
 20
29.40024200000004
 30
0.0
 10
102.806204
 20
28.59972600000003
 30
0.0
 10
103.181333
 20
27.94998300000003
 30
0.0
  0
SPLINE
  5
BF
330
1F
100
AcDbEntity
  8
CONTINUOUS
  6
CONTINUOUS
 62
     1
100
AcDbSpline
210
0.0
220
0.0
230
1.0
 70
     8
 71
     3
 72
     8
 73
     4
 74
     0
 42
0.000000001
 43
0.000001
 12
1.0
 22
0.0
 32
0.0
 13
1.0
 23
0.0
 33
0.0
 40
0.0
 40
0.0
 40
0.0
 40
0.0
 40
1.0
 40
1.0
 40
1.0
 40
1.0
 10
103.181333
 20
27.94998300000003
 30
0.0
 10
103.556462
 20
27.30024000000003
 30
0.0
 10
104.249729
 20
26.89998200000003
 30
0.0
 10
104.999987
 20
26.89998200000003
 30
0.0
  0
SPLINE
  5
C0
330
1F
100
AcDbEntity
  8
CONTINUOUS
  6
CONTINUOUS
 62
     1
100
AcDbSpline
210
0.0
220
0.0
230
1.0
 70
     8
 71
     3
 72
     8
 73
     4
 74
     0
 42
0.000000001
 43
0.000001
 12
1.0
 22
0.0
 32
0.0
 13
1.0
 23
0.0
 33
0.0
 40
0.0
 40
0.0
 40
0.0
 40
0.0
 40
1.0
 40
1.0
 40
1.0
 40
1.0
 10
104.999987
 20
26.89998200000003
 30
0.0
 10
105.750246
 20
26.89998200000003
 30
0.0
 10
106.443513
 20
27.30024000000004
 30
0.0
 10
106.818642
 20
27.94998300000004
 30
0.0
  0
SPLINE
  5
C1
330
1F
100
AcDbEntity
  8
CONTINUOUS
  6
CONTINUOUS
 62
     1
100
AcDbSpline
210
0.0
220
0.0
230
1.0
 70
     8
 71
     3
 72
     8
 73
     4
 74
     0
 42
0.000000001
 43
0.000001
 12
1.0
 22
0.0
 32
0.0
 13
1.0
 23
0.0
 33
0.0
 40
0.0
 40
0.0
 40
0.0
 40
0.0
 40
1.0
 40
1.0
 40
1.0
 40
1.0
 10
106.818642
 20
27.94998300000004
 30
0.0
 10
107.193772
 20
28.59972600000004
 30
0.0
 10
107.193772
 20
29.40024200000006
 30
0.0
 10
106.818642
 20
30.049985
 30
0.0
  0
SPLINE
  5
C2
330
1F
100
AcDbEntity
  8
CONTINUOUS
  6
CONTINUOUS
 62
     1
100
AcDbSpline
210
0.0
220
0.0
230
1.0
 70
     8
 71
     3
 72
     8
 73
     4
 74
     0
 42
0.000000001
 43
0.000001
 12
1.0
 22
0.0
 32
0.0
 13
1.0
 23
0.0
 33
0.0
 40
0.0
 40
0.0
 40
0.0
 40
0.0
 40
1.0
 40
1.0
 40
1.0
 40
1.0
 10
106.818642
 20
30.049985
 30
0.0
 10
106.443513
 20
30.69972800000006
 30
0.0
 10
105.750246
 20
31.09998600000006
 30
0.0
 10
104.999987
 20
31.09998500000006
 30
0.0
  0
SPLINE
  5
C3
330
1F
100
AcDbEntity
  8
CONTINUOUS
  6
CONTINUOUS
 62
     1
100
AcDbSpline
210
0.0
220
0.0
230
1.0
 70
     8
 71
     3
 72
     8
 73
     4
 74
     0
 42
0.000000001
 43
0.000001
 12
1.0
 22
0.0
 32
0.0
 13
1.0
 23
0.0
 33
0.0
 40
0.0
 40
0.0
 40
0.0
 40
0.0
 40
1.0
 40
1.0
 40
1.0
 40
1.0
 10
194.0000069999999
 20
99.69999500000002
 30
0.0
 10
193.391563
 20
99.70163899999983
 30
0.0
 10
192.828633
 20
99.37798199999989
 30
0.0
 10
192.523935
 20
98.85132699999986
 30
0.0
  0
SPLINE
  5
C4
330
1F
100
AcDbEntity
  8
CONTINUOUS
  6
CONTINUOUS
 62
     1
100
AcDbSpline
210
0.0
220
0.0
230
1.0
 70
     8
 71
     3
 72
     8
 73
     4
 74
     0
 42
0.000000001
 43
0.000001
 12
1.0
 22
0.0
 32
0.0
 13
1.0
 23
0.0
 33
0.0
 40
0.0
 40
0.0
 40
0.0
 40
0.0
 40
1.0
 40
1.0
 40
1.0
 40
1.0
 10
192.523935
 20
98.85132699999986
 30
0.0
 10
192.219238
 20
98.32467199999988
 30
0.0
 10
192.219238
 20
97.67532999999995
 30
0.0
 10
192.5239349999999
 20
97.14867499999991
 30
0.0
  0
SPLINE
  5
C5
330
1F
100
AcDbEntity
  8
CONTINUOUS
  6
CONTINUOUS
 62
     1
100
AcDbSpline
210
0.0
220
0.0
230
1.0
 70
     8
 71
     3
 72
     8
 73
     4
 74
     0
 42
0.000000001
 43
0.000001
 12
1.0
 22
0.0
 32
0.0
 13
1.0
 23
0.0
 33
0.0
 40
0.0
 40
0.0
 40
0.0
 40
0.0
 40
1.0
 40
1.0
 40
1.0
 40
1.0
 10
192.5239349999999
 20
97.14867499999991
 30
0.0
 10
192.828633
 20
96.62202000000002
 30
0.0
 10
193.391563
 20
96.29836299999998
 30
0.0
 10
194.0000069999999
 20
96.30000700000002
 30
0.0
  0
SPLINE
  5
C6
330
1F
100
AcDbEntity
  8
CONTINUOUS
  6
CONTINUOUS
 62
     1
100
AcDbSpline
210
0.0
220
0.0
230
1.0
 70
     8
 71
     3
 72
     8
 73
     4
 74
     0
 42
0.000000001
 43
0.000001
 12
1.0
 22
0.0
 32
0.0
 13
1.0
 23
0.0
 33
0.0
 40
0.0
 40
0.0
 40
0.0
 40
0.0
 40
1.0
 40
1.0
 40
1.0
 40
1.0
 10
194.000007
 20
96.30000700000004
 30
0.0
 10
194.608451
 20
96.29836299999997
 30
0.0
 10
195.171381
 20
96.6220200000001
 30
0.0
 10
195.4760779999999
 20
97.14867500000011
 30
0.0
  0
SPLINE
  5
C7
330
1F
100
AcDbEntity
  8
CONTINUOUS
  6
CONTINUOUS
 62
     1
100
AcDbSpline
210
0.0
220
0.0
230
1.0
 70
     8
 71
     3
 72
     8
 73
     4
 74
     0
 42
0.000000001
 43
0.000001
 12
1.0
 22
0.0
 32
0.0
 13
1.0
 23
0.0
 33
0.0
 40
0.0
 40
0.0
 40
0.0
 40
0.0
 40
1.0
 40
1.0
 40
1.0
 40
1.0
 10
195.4760779999999
 20
97.1486750000001
 30
0.0
 10
195.7807759999999
 20
97.67533000000012
 30
0.0
 10
195.7807759999999
 20
98.32467200000005
 30
0.0
 10
195.4760779999998
 20
98.85132700000004
 30
0.0
  0
SPLINE
  5
C8
330
1F
100
AcDbEntity
  8
CONTINUOUS
  6
CONTINUOUS
 62
     1
100
AcDbSpline
210
0.0
220
0.0
230
1.0
 70
     8
 71
     3
 72
     8
 73
     4
 74
     0
 42
0.000000001
 43
0.000001
 12
1.0
 22
0.0
 32
0.0
 13
1.0
 23
0.0
 33
0.0
 40
0.0
 40
0.0
 40
0.0
 40
0.0
 40
1.0
 40
1.0
 40
1.0
 40
1.0
 10
195.4760779999999
 20
98.85132700000004
 30
0.0
 10
195.171381
 20
99.37798199999999
 30
0.0
 10
194.608451
 20
99.70163899999996
 30
0.0
 10
194.000007
 20
99.69999500000002
 30
0.0
  0
SPLINE
  5
C9
330
1F
100
AcDbEntity
  8
CONTINUOUS
  6
CONTINUOUS
 62
     1
100
AcDbSpline
210
0.0
220
0.0
230
1.0
 70
     8
 71
     3
 72
     8
 73
     4
 74
     0
 42
0.000000001
 43
0.000001
 12
1.0
 22
0.0
 32
0.0
 13
1.0
 23
0.0
 33
0.0
 40
0.0
 40
0.0
 40
0.0
 40
0.0
 40
1.0
 40
1.0
 40
1.0
 40
1.0
 10
194.000007
 20
75.69998599999997
 30
0.0
 10
193.391563
 20
75.70163100000002
 30
0.0
 10
192.828633
 20
75.377974
 30
0.0
 10
192.523935
 20
74.85131899999999
 30
0.0
  0
SPLINE
  5
CA
330
1F
100
AcDbEntity
  8
CONTINUOUS
  6
CONTINUOUS
 62
     1
100
AcDbSpline
210
0.0
220
0.0
230
1.0
 70
     8
 71
     3
 72
     8
 73
     4
 74
     0
 42
0.000000001
 43
0.000001
 12
1.0
 22
0.0
 32
0.0
 13
1.0
 23
0.0
 33
0.0
 40
0.0
 40
0.0
 40
0.0
 40
0.0
 40
1.0
 40
1.0
 40
1.0
 40
1.0
 10
192.523935
 20
74.85131899999999
 30
0.0
 10
192.219238
 20
74.32466299999999
 30
0.0
 10
192.219238
 20
73.67532200000005
 30
0.0
 10
192.523935
 20
73.14866700000005
 30
0.0
  0
SPLINE
  5
CB
330
1F
100
AcDbEntity
  8
CONTINUOUS
  6
CONTINUOUS
 62
     1
100
AcDbSpline
210
0.0
220
0.0
230
1.0
 70
     8
 71
     3
 72
     8
 73
     4
 74
     0
 42
0.000000001
 43
0.000001
 12
1.0
 22
0.0
 32
0.0
 13
1.0
 23
0.0
 33
0.0
 40
0.0
 40
0.0
 40
0.0
 40
0.0
 40
1.0
 40
1.0
 40
1.0
 40
1.0
 10
192.523935
 20
73.14866700000005
 30
0.0
 10
192.828633
 20
72.62201100000004
 30
0.0
 10
193.391563
 20
72.29835400000002
 30
0.0
 10
194.000007
 20
72.29999899999996
 30
0.0
  0
SPLINE
  5
CC
330
1F
100
AcDbEntity
  8
CONTINUOUS
  6
CONTINUOUS
 62
     1
100
AcDbSpline
210
0.0
220
0.0
230
1.0
 70
     8
 71
     3
 72
     8
 73
     4
 74
     0
 42
0.000000001
 43
0.000001
 12
1.0
 22
0.0
 32
0.0
 13
1.0
 23
0.0
 33
0.0
 40
0.0
 40
0.0
 40
0.0
 40
0.0
 40
1.0
 40
1.0
 40
1.0
 40
1.0
 10
194.000007
 20
72.29999899999996
 30
0.0
 10
194.608451
 20
72.29835400000002
 30
0.0
 10
195.171381
 20
72.62201100000004
 30
0.0
 10
195.476078
 20
73.14866700000005
 30
0.0
  0
SPLINE
  5
CD
330
1F
100
AcDbEntity
  8
CONTINUOUS
  6
CONTINUOUS
 62
     1
100
AcDbSpline
210
0.0
220
0.0
230
1.0
 70
     8
 71
     3
 72
     8
 73
     4
 74
     0
 42
0.000000001
 43
0.000001
 12
1.0
 22
0.0
 32
0.0
 13
1.0
 23
0.0
 33
0.0
 40
0.0
 40
0.0
 40
0.0
 40
0.0
 40
1.0
 40
1.0
 40
1.0
 40
1.0
 10
195.476078
 20
73.14866700000005
 30
0.0
 10
195.780776
 20
73.67532200000005
 30
0.0
 10
195.780776
 20
74.32466299999999
 30
0.0
 10
195.476078
 20
74.85131899999999
 30
0.0
  0
SPLINE
  5
CE
330
1F
100
AcDbEntity
  8
CONTINUOUS
  6
CONTINUOUS
 62
     1
100
AcDbSpline
210
0.0
220
0.0
230
1.0
 70
     8
 71
     3
 72
     8
 73
     4
 74
     0
 42
0.000000001
 43
0.000001
 12
1.0
 22
0.0
 32
0.0
 13
1.0
 23
0.0
 33
0.0
 40
0.0
 40
0.0
 40
0.0
 40
0.0
 40
1.0
 40
1.0
 40
1.0
 40
1.0
 10
195.476078
 20
74.85131899999999
 30
0.0
 10
195.171381
 20
75.377974
 30
0.0
 10
194.608451
 20
75.70163100000002
 30
0.0
 10
194.000007
 20
75.69998599999997
 30
0.0
  0
SPLINE
  5
CF
330
1F
100
AcDbEntity
  8
CONTINUOUS
  6
CONTINUOUS
 62
     1
100
AcDbSpline
210
0.0
220
0.0
230
1.0
 70
     8
 71
     3
 72
     8
 73
     4
 74
     0
 42
0.000000001
 43
0.000001
 12
1.0
 22
0.0
 32
0.0
 13
1.0
 23
0.0
 33
0.0
 40
0.0
 40
0.0
 40
0.0
 40
0.0
 40
1.0
 40
1.0
 40
1.0
 40
1.0
 10
161.5000010000031
 20
42.00000000000001
 30
0.0
 10
161.4999960000032
 20
40.61929199999997
 30
0.0
 10
162.6192740000032
 20
39.50000200000003
 30
0.0
 10
163.9999820000032
 20
39.49999100000009
 30
0.0
  0
SPLINE
  5
D0
330
1F
100
AcDbEntity
  8
CONTINUOUS
  6
CONTINUOUS
 62
     1
100
AcDbSpline
210
0.0
220
0.0
230
1.0
 70
     8
 71
     3
 72
     8
 73
     4
 74
     0
 42
0.000000001
 43
0.000001
 12
1.0
 22
0.0
 32
0.0
 13
1.0
 23
0.0
 33
0.0
 40
0.0
 40
0.0
 40
0.0
 40
0.0
 40
1.0
 40
1.0
 40
1.0
 40
1.0
 10
163.9999820000032
 20
39.49999100000009
 30
0.0
 10
164.6630270000032
 20
39.49998900000006
 30
0.0
 10
165.2989150000032
 20
39.763381
 30
0.0
 10
165.7677580000032
 20
40.23222399999996
 30
0.0
  0
SPLINE
  5
D1
330
1F
100
AcDbEntity
  8
CONTINUOUS
  6
CONTINUOUS
 62
     1
100
AcDbSpline
210
0.0
220
0.0
230
1.0
 70
     8
 71
     3
 72
     8
 73
     4
 74
     0
 42
0.000000001
 43
0.000001
 12
1.0
 22
0.0
 32
0.0
 13
1.0
 23
0.0
 33
0.0
 40
0.0
 40
0.0
 40
0.0
 40
0.0
 40
1.0
 40
1.0
 40
1.0
 40
1.0
 10
165.7677580000032
 20
40.23222399999996
 30
0.0
 10
166.2366010000031
 20
40.70106699999999
 30
0.0
 10
166.4999940000031
 20
41.33695600000002
 30
0.0
 10
166.4999910000031
 20
42.00000000000004
 30
0.0
  0
SPLINE
  5
D2
330
1F
100
AcDbEntity
  8
CONTINUOUS
  6
CONTINUOUS
 62
     1
100
AcDbSpline
210
0.0
220
0.0
230
1.0
 70
    24
 71
     3
 72
     8
 73
     4
 74
     0
 42
0.000000001
 43
0.000001
 12
1.0
 22
0.0
 32
0.0
 13
1.0
 23
0.0
 33
0.0
 40
0.0
 40
0.0
 40
0.0
 40
0.0
 40
1.0
 40
1.0
 40
1.0
 40
1.0
 10
166.4999910000031
 20
42.00000000000004
 30
0.0
 10
166.4999910000031
 20
42.00000000000004
 30
0.0
 10
166.4999910000031
 20
50.99998200000008
 30
0.0
 10
166.4999910000031
 20
50.99998200000008
 30
0.0
  0
SPLINE
  5
D3
330
1F
100
AcDbEntity
  8
CONTINUOUS
  6
CONTINUOUS
 62
     1
100
AcDbSpline
210
0.0
220
0.0
230
1.0
 70
     8
 71
     3
 72
     8
 73
     4
 74
     0
 42
0.000000001
 43
0.000001
 12
1.0
 22
0.0
 32
0.0
 13
1.0
 23
0.0
 33
0.0
 40
0.0
 40
0.0
 40
0.0
 40
0.0
 40
1.0
 40
1.0
 40
1.0
 40
1.0
 10
166.4999910000031
 20
50.99998200000009
 30
0.0
 10
166.4999940000031
 20
51.6630270000001
 30
0.0
 10
166.2366010000031
 20
52.29891500000001
 30
0.0
 10
165.7677580000031
 20
52.76775799999999
 30
0.0
  0
SPLINE
  5
D4
330
1F
100
AcDbEntity
  8
CONTINUOUS
  6
CONTINUOUS
 62
     1
100
AcDbSpline
210
0.0
220
0.0
230
1.0
 70
     8
 71
     3
 72
     8
 73
     4
 74
     0
 42
0.000000001
 43
0.000001
 12
1.0
 22
0.0
 32
0.0
 13
1.0
 23
0.0
 33
0.0
 40
0.0
 40
0.0
 40
0.0
 40
0.0
 40
1.0
 40
1.0
 40
1.0
 40
1.0
 10
165.7677580000031
 20
52.76775799999998
 30
0.0
 10
165.2989150000031
 20
53.23660100000009
 30
0.0
 10
164.663027000003
 20
53.49999400000004
 30
0.0
 10
163.999982000003
 20
53.49999100000007
 30
0.0
  0
SPLINE
  5
D5
330
1F
100
AcDbEntity
  8
CONTINUOUS
  6
CONTINUOUS
 62
     1
100
AcDbSpline
210
0.0
220
0.0
230
1.0
 70
     8
 71
     3
 72
     8
 73
     4
 74
     0
 42
0.000000001
 43
0.000001
 12
1.0
 22
0.0
 32
0.0
 13
1.0
 23
0.0
 33
0.0
 40
0.0
 40
0.0
 40
0.0
 40
0.0
 40
1.0
 40
1.0
 40
1.0
 40
1.0
 10
163.999982000003
 20
53.49999100000007
 30
0.0
 10
162.619274000003
 20
53.49998100000006
 30
0.0
 10
161.4999960000031
 20
52.38068999999995
 30
0.0
 10
161.5000010000031
 20
50.99998200000004
 30
0.0
  0
SPLINE
  5
D6
330
1F
100
AcDbEntity
  8
CONTINUOUS
  6
CONTINUOUS
 62
     1
100
AcDbSpline
210
0.0
220
0.0
230
1.0
 70
     8
 71
     3
 72
     8
 73
     4
 74
     0
 42
0.000000001
 43
0.000001
 12
1.0
 22
0.0
 32
0.0
 13
1.0
 23
0.0
 33
0.0
 40
0.0
 40
0.0
 40
0.0
 40
0.0
 40
1.0
 40
1.0
 40
1.0
 40
1.0
 10
-166.499992
 20
42.0
 30
0.0
 10
-166.499997
 20
40.61929199999997
 30
0.0
 10
-165.380719
 20
39.50000199999999
 30
0.0
 10
-164.000011
 20
39.49999100000002
 30
0.0
  0
SPLINE
  5
D7
330
1F
100
AcDbEntity
  8
CONTINUOUS
  6
CONTINUOUS
 62
     1
100
AcDbSpline
210
0.0
220
0.0
230
1.0
 70
     8
 71
     3
 72
     8
 73
     4
 74
     0
 42
0.000000001
 43
0.000001
 12
1.0
 22
0.0
 32
0.0
 13
1.0
 23
0.0
 33
0.0
 40
0.0
 40
0.0
 40
0.0
 40
0.0
 40
1.0
 40
1.0
 40
1.0
 40
1.0
 10
-164.000011
 20
39.49999100000002
 30
0.0
 10
-163.336967
 20
39.49998900000003
 30
0.0
 10
-162.701078
 20
39.76338099999998
 30
0.0
 10
-162.232235
 20
40.23222399999997
 30
0.0
  0
SPLINE
  5
D8
330
1F
100
AcDbEntity
  8
CONTINUOUS
  6
CONTINUOUS
 62
     1
100
AcDbSpline
210
0.0
220
0.0
230
1.0
 70
     8
 71
     3
 72
     8
 73
     4
 74
     0
 42
0.000000001
 43
0.000001
 12
1.0
 22
0.0
 32
0.0
 13
1.0
 23
0.0
 33
0.0
 40
0.0
 40
0.0
 40
0.0
 40
0.0
 40
1.0
 40
1.0
 40
1.0
 40
1.0
 10
-162.232235
 20
40.23222399999997
 30
0.0
 10
-161.763392
 20
40.70106699999997
 30
0.0
 10
-161.499999
 20
41.33695599999999
 30
0.0
 10
-161.500002
 20
42.0
 30
0.0
  0
SPLINE
  5
D9
330
1F
100
AcDbEntity
  8
CONTINUOUS
  6
CONTINUOUS
 62
     1
100
AcDbSpline
210
0.0
220
0.0
230
1.0
 70
     8
 71
     3
 72
     8
 73
     4
 74
     0
 42
0.000000001
 43
0.000001
 12
1.0
 22
0.0
 32
0.0
 13
1.0
 23
0.0
 33
0.0
 40
0.0
 40
0.0
 40
0.0
 40
0.0
 40
1.0
 40
1.0
 40
1.0
 40
1.0
 10
-161.500002
 20
50.99998200000005
 30
0.0
 10
-161.499999
 20
51.66302700000006
 30
0.0
 10
-161.763392
 20
52.29891499999997
 30
0.0
 10
-162.232235
 20
52.76775799999996
 30
0.0
  0
SPLINE
  5
DA
330
1F
100
AcDbEntity
  8
CONTINUOUS
  6
CONTINUOUS
 62
     1
100
AcDbSpline
210
0.0
220
0.0
230
1.0
 70
     8
 71
     3
 72
     8
 73
     4
 74
     0
 42
0.000000001
 43
0.000001
 12
1.0
 22
0.0
 32
0.0
 13
1.0
 23
0.0
 33
0.0
 40
0.0
 40
0.0
 40
0.0
 40
0.0
 40
1.0
 40
1.0
 40
1.0
 40
1.0
 10
-162.232235
 20
52.76775799999996
 30
0.0
 10
-162.701078
 20
53.23660100000006
 30
0.0
 10
-163.336967
 20
53.49999400000002
 30
0.0
 10
-164.000011
 20
53.49999100000002
 30
0.0
  0
SPLINE
  5
DB
330
1F
100
AcDbEntity
  8
CONTINUOUS
  6
CONTINUOUS
 62
     1
100
AcDbSpline
210
0.0
220
0.0
230
1.0
 70
     8
 71
     3
 72
     8
 73
     4
 74
     0
 42
0.000000001
 43
0.000001
 12
1.0
 22
0.0
 32
0.0
 13
1.0
 23
0.0
 33
0.0
 40
0.0
 40
0.0
 40
0.0
 40
0.0
 40
1.0
 40
1.0
 40
1.0
 40
1.0
 10
-164.000011
 20
53.49999100000002
 30
0.0
 10
-165.380719
 20
53.49998100000005
 30
0.0
 10
-166.499997
 20
52.38068999999996
 30
0.0
 10
-166.499992
 20
50.99998200000005
 30
0.0
  0
LINE
  5
DC
330
1F
100
AcDbEntity
  8
CONTINUOUS
  6
CONTINUOUS
 62
     1
100
AcDbLine
 10
0.0
 20
115.999993
 30
0.0
 11
-123.000008
 21
115.999993
 31
0.0
  0
LINE
  5
DD
330
1F
100
AcDbEntity
  8
CONTINUOUS
  6
CONTINUOUS
 62
     1
100
AcDbLine
 10
-206.000012
 20
105.999985
 30
0.0
 11
-206.000012
 21
56.0
 31
0.0
  0
LINE
  5
DE
330
1F
100
AcDbEntity
  8
CONTINUOUS
  6
CONTINUOUS
 62
     1
100
AcDbLine
 10
-206.000012
 20
56.0
 30
0.0
 11
-176.000015
 21
26.00000399999999
 31
0.0
  0
LINE
  5
DF
330
1F
100
AcDbEntity
  8
CONTINUOUS
  6
CONTINUOUS
 62
     1
100
AcDbLine
 10
-176.000015
 20
26.00000399999999
 30
0.0
 11
-125.000004
 21
26.00000399999999
 31
0.0
  0
LINE
  5
E0
330
1F
100
AcDbEntity
  8
CONTINUOUS
  6
CONTINUOUS
 62
     1
100
AcDbLine
 10
-125.000004
 20
26.00000399999999
 30
0.0
 11
-121.000012
 21
21.99998400000004
 31
0.0
  0
LINE
  5
E1
330
1F
100
AcDbEntity
  8
CONTINUOUS
  6
CONTINUOUS
 62
     1
100
AcDbLine
 10
-121.000012
 20
21.99998400000004
 30
0.0
 11
-121.000012
 21
5.99998800000003
 31
0.0
  0
LINE
  5
E2
330
1F
100
AcDbEntity
  8
CONTINUOUS
  6
CONTINUOUS
 62
     1
100
AcDbLine
 10
-121.000012
 20
5.99998800000003
 30
0.0
 11
-114.999996
 21
0.0
 31
0.0
  0
LINE
  5
E3
330
1F
100
AcDbEntity
  8
CONTINUOUS
  6
CONTINUOUS
 62
     1
100
AcDbLine
 10
-114.999996
 20
0.0
 30
0.0
 11
0.0
 21
0.0
 31
0.0
  0
LINE
  5
E4
330
1F
100
AcDbEntity
  8
CONTINUOUS
  6
CONTINUOUS
 62
     1
100
AcDbLine
 10
0.0
 20
77.99998500000004
 30
0.0
 11
-90.000018
 21
77.99998500000004
 31
0.0
  0
LINE
  5
E5
330
1F
100
AcDbEntity
  8
CONTINUOUS
  6
CONTINUOUS
 62
     1
100
AcDbLine
 10
-90.000018
 20
94.00000899999998
 30
0.0
 11
0.0
 21
94.00000899999998
 31
0.0
  0
LINE
  5
E6
330
1F
100
AcDbEntity
  8
CONTINUOUS
  6
CONTINUOUS
 62
     1
100
AcDbLine
 10
0.0
 20
77.99998500000004
 30
0.0
 11
89.99998899999997
 21
77.99998500000004
 31
0.0
  0
LINE
  5
E7
330
1F
100
AcDbEntity
  8
CONTINUOUS
  6
CONTINUOUS
 62
     1
100
AcDbLine
 10
89.99998899999997
 20
94.00000899999998
 30
0.0
 11
0.0
 21
94.00000899999998
 31
0.0
  0
LINE
  5
E8
330
1F
100
AcDbEntity
  8
CONTINUOUS
  6
CONTINUOUS
 62
     1
100
AcDbLine
 10
0.0
 20
115.999993
 30
0.0
 11
123.000008
 21
115.999993
 31
0.0
  0
LINE
  5
E9
330
1F
100
AcDbEntity
  8
CONTINUOUS
  6
CONTINUOUS
 62
     1
100
AcDbLine
 10
205.999983
 20
105.999985
 30
0.0
 11
205.999983
 21
56.0
 31
0.0
  0
LINE
  5
EA
330
1F
100
AcDbEntity
  8
CONTINUOUS
  6
CONTINUOUS
 62
     1
100
AcDbLine
 10
205.999983
 20
56.0
 30
0.0
 11
175.999986
 21
26.00000399999999
 31
0.0
  0
LINE
  5
EB
330
1F
100
AcDbEntity
  8
CONTINUOUS
  6
CONTINUOUS
 62
     1
100
AcDbLine
 10
175.999986
 20
26.00000399999999
 30
0.0
 11
125.000004
 21
26.00000399999999
 31
0.0
  0
LINE
  5
EC
330
1F
100
AcDbEntity
  8
CONTINUOUS
  6
CONTINUOUS
 62
     1
100
AcDbLine
 10
125.000004
 20
26.00000399999999
 30
0.0
 11
120.999984
 21
21.99998400000004
 31
0.0
  0
LINE
  5
ED
330
1F
100
AcDbEntity
  8
CONTINUOUS
  6
CONTINUOUS
 62
     1
100
AcDbLine
 10
120.999984
 20
21.99998400000004
 30
0.0
 11
120.999984
 21
5.99998800000003
 31
0.0
  0
LINE
  5
EE
330
1F
100
AcDbEntity
  8
CONTINUOUS
  6
CONTINUOUS
 62
     1
100
AcDbLine
 10
120.999984
 20
5.99998800000003
 30
0.0
 11
114.999996
 21
0.0
 31
0.0
  0
LINE
  5
EF
330
1F
100
AcDbEntity
  8
CONTINUOUS
  6
CONTINUOUS
 62
     1
100
AcDbLine
 10
114.999996
 20
0.0
 30
0.0
 11
0.0
 21
0.0
 31
0.0
  0
LINE
  5
F0
330
1F
100
AcDbEntity
  8
CONTINUOUS
  6
CONTINUOUS
 62
     1
100
AcDbLine
 10
161.5000010000031
 20
50.99998200000005
 30
0.0
 11
161.5000010000031
 21
42.00000000000001
 31
0.0
  0
LINE
  5
F1
330
1F
100
AcDbEntity
  8
CONTINUOUS
  6
CONTINUOUS
 62
     1
100
AcDbLine
 10
-161.500002
 20
42.0
 30
0.0
 11
-161.500002
 21
50.99998200000005
 31
0.0
  0
LINE
  5
F2
330
1F
100
AcDbEntity
  8
CONTINUOUS
  6
CONTINUOUS
 62
     1
100
AcDbLine
 10
-166.499992
 20
50.99998200000005
 30
0.0
 11
-166.499992
 21
42.0
 31
0.0
  0
ENDSEC
  0
SECTION
  2
OBJECTS
  0
DICTIONARY
  5
C
330
0
100
AcDbDictionary
  3
ACAD_GROUP
350
D
  3
ACAD_LAYOUT
350
1A
  3
ACAD_MATERIAL
350
3B
  3
ACAD_MLEADERSTYLE
350
115
  3
ACAD_MLINESTYLE
350
17
  3
ACAD_PLOTSETTINGS
350
19
  3
ACAD_VISUALSTYLE
350
2A
  3
ACDBHEADERROUNDTRIPXREC
350
F3
  3
ACDBVARIABLEDICTIONARY
350
113
  0
DICTIONARY
  5
D
102
{ACAD_REACTORS
330
C
102
}
330
C
100
AcDbDictionary
  0
DICTIONARY
  5
1A
102
{ACAD_REACTORS
330
C
102
}
330
C
100
AcDbDictionary
  0
DICTIONARY
  5
3B
102
{ACAD_REACTORS
330
C
102
}
330
C
100
AcDbDictionary
  3
BYBLOCK
350
3D
  3
BYLAYER
350
3C
  3
GLOBAL
350
3E
  0
DICTIONARY
  5
115
102
{ACAD_REACTORS
330
C
102
}
330
C
100
AcDbDictionary
  0
DICTIONARY
  5
17
102
{ACAD_REACTORS
330
C
102
}
330
C
100
AcDbDictionary
  3
STANDARD
350
18
  0
DICTIONARY
  5
19
102
{ACAD_REACTORS
330
C
102
}
330
C
100
AcDbDictionary
  0
DICTIONARY
  5
2A
102
{ACAD_REACTORS
330
C
102
}
330
C
100
AcDbDictionary
  3
2DWIREFRAME
350
2F
  3
3D_HIDDEN
350
31
  3
3DWIREFRAME
350
30
  3
BASIC
350
32
  3
BRIGHTEN
350
36
  3
COLORCHANGE
350
3A
  3
CONCEPTUAL
350
34
  3
DIM
350
35
  3
FACEPATTERN
350
39
  3
FLAT
350
2B
  3
FLATWITHEDGES
350
2C
  3
GOURAUD
350
2D
  3
GOURAUDWITHEDGES
350
2E
  3
LINEPATTERN
350
38
  3
REALISTIC
350
33
  3
THICKEN
350
37
  0
DICTIONARY
  5
F3
102
{ACAD_REACTORS
330
C
102
}
330
C
100
AcDbDictionary
  3
CEPSNTYPE
350
FC
  3
DIMSTYLEDATA
350
112
  3
FINGERPRINTGUID
350
FD
  3
HYPERLINKBASE
350
F6
  3
INSUNITS
350
FB
  3
LAYOUTDICT
350
F8
  3
LWETCUNION
350
FA
  3
PLOTSETDICT
350
F9
  3
PSVPSCALE
350
FF
  3
PUCSBASE
350
102
  3
PUCSORGBACK
350
108
  3
PUCSORGBOTTOM
350
104
  3
PUCSORGFRONT
350
107
  3
PUCSORGLEFT
350
105
  3
PUCSORGRIGHT
350
106
  3
PUCSORGTOP
350
103
  3
PUCSORTHOREF
350
100
  3
PUCSORTHOVIEW
350
101
  3
STYLESHEET
350
F7
  3
TSTACKALIGN
350
F4
  3
TSTACKSIZE
350
F5
  3
UCSBASE
350
10B
  3
UCSORGBACK
350
111
  3
UCSORGBOTTOM
350
10D
  3
UCSORGFRONT
350
110
  3
UCSORGLEFT
350
10E
  3
UCSORGRIGHT
350
10F
  3
UCSORGTOP
350
10C
  3
UCSORTHOREF
350
109
  3
UCSORTHOVIEW
350
10A
  3
VERSIONGUID
350
FE
  0
DICTIONARY
  5
113
102
{ACAD_REACTORS
330
C
102
}
330
C
100
AcDbDictionary
  3
DIMASSOC
350
118
  3
HIDETEXT
350
119
  3
PSOLHEIGHT
350
117
  3
PSOLWIDTH
350
116
  0
MATERIAL
  5
3D
102
{ACAD_REACTORS
330
3B
102
}
102
{ACAD_XDICTIONARY
360
11C
102
}
330
3B
100
AcDbMaterial
  1
ByBlock
  0
MATERIAL
  5
3C
102
{ACAD_REACTORS
330
3B
102
}
102
{ACAD_XDICTIONARY
360
11A
102
}
330
3B
100
AcDbMaterial
  1
ByLayer
  0
MATERIAL
  5
3E
102
{ACAD_REACTORS
330
3B
102
}
102
{ACAD_XDICTIONARY
360
11E
102
}
330
3B
100
AcDbMaterial
  1
Global
  0
MLINESTYLE
  5
18
102
{ACAD_REACTORS
330
17
102
}
330
17
100
AcDbMlineStyle
  2
Standard
 70
     0
  3

 62
   256
 51
90.0
 52
90.0
 71
     2
 49
0.5
 62
   256
  6
BYLAYER
 49
-0.5
 62
   256
  6
BYLAYER
  0
ACAD_PROXY_OBJECT
  5
2F
102
{ACAD_REACTORS
330
2A
102
}
330
2A
100
AcDbProxyObject
 90
      499
 91
      501
 93
      436
310
42CC9915DA5C99599C985B595049028333333333333E3BF0000000000000FB0107901411070040501600405405064090741402480A0340
1001
ACAD
1000
AcDbSavedByObjectVersion
1070
     0
  0
ACAD_PROXY_OBJECT
  5
31
102
{ACAD_REACTORS
330
2A
102
}
330
2A
100
AcDbProxyObject
 90
      499
 91
      501
 93
      500
310
424CD108121A5919195B90640502408333333333333E3BF0000000000000FB01079024090700405020000000000001110200405405064090740C02480A0340
1001
ACAD
1000
AcDbSavedByObjectVersion
1070
     0
  0
ACAD_PROXY_OBJECT
  5
30
102
{ACAD_REACTORS
330
2A
102
}
330
2A
100
AcDbProxyObject
 90
      499
 91
      501
 93
      436
310
42CCD915DA5C99599C985B595059028333333333333E3BF0000000000000FB0107901411070040501600405405064090741402480A0340
1001
ACAD
1000
AcDbSavedByObjectVersion
1070
     0
  0
ACAD_PROXY_OBJECT
  5
32
102
{ACAD_REACTORS
330
2A
102
}
330
2A
100
AcDbProxyObject
 90
      499
 91
      501
 93
      388
310
4150985CDA58D07406404333333333333E3BF0000000000000FB0107A41107004050150841D405064090741402480A0350
1001
ACAD
1000
AcDbSavedByObjectVersion
1070
     0
  0
ACAD_PROXY_OBJECT
  5
36
102
{ACAD_REACTORS
330
2A
102
}
330
2A
100
AcDbProxyObject
 90
      499
 91
      501
 93
      428
310
42109C9A59DA1D195B90C409028333333333333E3BF0000000000000FB010790141107004050150841D405064090741402480A029950
1001
ACAD
1000
AcDbSavedByObjectVersion
1070
     0
  0
ACAD_PROXY_OBJECT
  5
3A
102
{ACAD_REACTORS
330
2A
102
}
330
2A
100
AcDbProxyObject
 90
      499
 91
      501
 93
      452
310
42D0DBDB1BDC90DA185B99D95104090240C333333333333E3BF0000000000000FB0108901411070040501508421405064090741402480A0350
1001
ACAD
1000
AcDbSavedByObjectVersion
1070
     0
  0
ACAD_PROXY_OBJECT
  5
34
102
{ACAD_REACTORS
330
2A
102
}
330
2A
100
AcDbProxyObject
 90
      499
 91
      501
 93
      500
310
4290DBDB98D95C1D1D585B10940D028333333333333E3BF0000000000000FB0107902409070040501000000000000111010841D405064090740C02480A0340
1001
ACAD
1000
AcDbSavedByObjectVersion
1070
     0
  0
ACAD_PROXY_OBJECT
  5
35
102
{ACAD_REACTORS
330
2A
102
}
330
2A
100
AcDbProxyObject
 90
      499
 91
      501
 93
      412
310
40D11A5B50B409028333333333333E3BF0000000000000FB010790141107004050150841D405064090741402480A02677FFFFFD0
1001
ACAD
1000
AcDbSavedByObjectVersion
1070
     0
  0
ACAD_PROXY_OBJECT
  5
39
102
{ACAD_REACTORS
330
2A
102
}
330
2A
100
AcDbProxyObject
 90
      499
 91
      501
 93
      444
310
42D19858D95C185D1D195C9B90F409028333333333333E3BF0000000000000FB010790141107004050150841D405064090741402480A0350
1001
ACAD
1000
AcDbSavedByObjectVersion
1070
     0
  0
ACAD_PROXY_OBJECT
  5
2B
102
{ACAD_REACTORS
330
2A
102
}
330
2A
100
AcDbProxyObject
 90
      499
 91
      501
 93
      388
310
41119B185D240901404333333333333E3BF0000000000000F9010740A41107004050150841D405064090741402480A1B50
1001
ACAD
1000
AcDbSavedByObjectVersion
1070
     0
  0
ACAD_PROXY_OBJECT
  5
2C
102
{ACAD_REACTORS
330
2A
102
}
330
2A
100
AcDbProxyObject
 90
      499
 91
      501
 93
      476
310
43519B185D15DA5D1A115919D95CD0140901404333333333333E3BF0000000000000F9010740901411070040501600405405064090741402480A1B50
1001
ACAD
1000
AcDbSavedByObjectVersion
1070
     0
  0
ACAD_PROXY_OBJECT
  5
2D
102
{ACAD_REACTORS
330
2A
102
}
330
2A
100
AcDbProxyObject
 90
      499
 91
      501
 93
      412
310
41D1DBDD5C985D5910240902404333333333333E3BF0000000000000F9010740A411070040501641D405064090741402480A1B50
1001
ACAD
1000
AcDbSavedByObjectVersion
1070
     0
  0
ACAD_PROXY_OBJECT
  5
2E
102
{ACAD_REACTORS
330
2A
102
}
330
2A
100
AcDbProxyObject
 90
      499
 91
      501
 93
      500
310
4411DBDD5C985D5915DA5D1A115919D95CD0340902404333333333333E3BF0000000000000F9010740901411070040501600405405064090741402480A1B50
1001
ACAD
1000
AcDbSavedByObjectVersion
1070
     0
  0
ACAD_PROXY_OBJECT
  5
38
102
{ACAD_REACTORS
330
2A
102
}
330
2A
100
AcDbProxyObject
 90
      499
 91
      501
 93
      444
310
42D31A5B995C185D1D195C9B90E409028333333333333E3BF0000000000000FB010790141107004050750841D405064090741402483A0350
1001
ACAD
1000
AcDbSavedByObjectVersion
1070
     0
  0
ACAD_PROXY_OBJECT
  5
33
102
{ACAD_REACTORS
330
2A
102
}
330
2A
100
AcDbProxyObject
 90
      499
 91
      501
 93
      420
310
425499585B1A5CDD1A58D08409028333333333333E3BF0000000000000FB01079019070040501508421405064090741402480A1B40
1001
ACAD
1000
AcDbSavedByObjectVersion
1070
     0
  0
ACAD_PROXY_OBJECT
  5
37
102
{ACAD_REACTORS
330
2A
102
}
330
2A
100
AcDbProxyObject
 90
      499
 91
      501
 93
      412
310
41D51A1A58DAD95B90D409028333333333333E3BF0000000000000FB010790141107004050150C41D405064090741402480A0350
1001
ACAD
1000
AcDbSavedByObjectVersion
1070
     0
  0
XRECORD
  5
FC
102
{ACAD_REACTORS
330
F3
102
}
330
F3
100
AcDbXrecord
 90
        0
  0
XRECORD
  5
112
102
{ACAD_REACTORS
330
F3
102
}
330
F3
100
AcDbXrecord
1000
DSTYLE
1002
{
1070
    41
 40
2.286
1070
   340
340
11
1070
   140
 40
1.336918010447422
1002
}
  0
XRECORD
  5
FD
102
{ACAD_REACTORS
330
F3
102
}
330
F3
100
AcDbXrecord
  1
{3252B11A-2CE1-4CD1-8C5D-FD8082B8519F}
  0
XRECORD
  5
F6
102
{ACAD_REACTORS
330
F3
102
}
330
F3
100
AcDbXrecord
  1

  0
XRECORD
  5
FB
102
{ACAD_REACTORS
330
F3
102
}
330
F3
100
AcDbXrecord
 90
        4
  0
XRECORD
  5
F8
102
{ACAD_REACTORS
330
F3
102
}
330
F3
100
AcDbXrecord
340
1A
  0
XRECORD
  5
FA
102
{ACAD_REACTORS
330
F3
102
}
330
F3
100
AcDbXrecord
 90
    10781
  0
XRECORD
  5
F9
102
{ACAD_REACTORS
330
F3
102
}
330
F3
100
AcDbXrecord
340
19
  0
XRECORD
  5
FF
102
{ACAD_REACTORS
330
F3
102
}
330
F3
100
AcDbXrecord
 40
0.0
  0
XRECORD
  5
102
102
{ACAD_REACTORS
330
F3
102
}
330
F3
100
AcDbXrecord
340
0
  0
XRECORD
  5
108
102
{ACAD_REACTORS
330
F3
102
}
330
F3
100
AcDbXrecord
 10
0.0
 20
0.0
 30
0.0
  0
XRECORD
  5
104
102
{ACAD_REACTORS
330
F3
102
}
330
F3
100
AcDbXrecord
 10
0.0
 20
0.0
 30
0.0
  0
XRECORD
  5
107
102
{ACAD_REACTORS
330
F3
102
}
330
F3
100
AcDbXrecord
 10
0.0
 20
0.0
 30
0.0
  0
XRECORD
  5
105
102
{ACAD_REACTORS
330
F3
102
}
330
F3
100
AcDbXrecord
 10
0.0
 20
0.0
 30
0.0
  0
XRECORD
  5
106
102
{ACAD_REACTORS
330
F3
102
}
330
F3
100
AcDbXrecord
 10
0.0
 20
0.0
 30
0.0
  0
XRECORD
  5
103
102
{ACAD_REACTORS
330
F3
102
}
330
F3
100
AcDbXrecord
 10
0.0
 20
0.0
 30
0.0
  0
XRECORD
  5
100
102
{ACAD_REACTORS
330
F3
102
}
330
F3
100
AcDbXrecord
340
0
  0
XRECORD
  5
101
102
{ACAD_REACTORS
330
F3
102
}
330
F3
100
AcDbXrecord
 70
     0
  0
XRECORD
  5
F7
102
{ACAD_REACTORS
330
F3
102
}
330
F3
100
AcDbXrecord
  1

  0
XRECORD
  5
F4
102
{ACAD_REACTORS
330
F3
102
}
330
F3
100
AcDbXrecord
 90
        1
  0
XRECORD
  5
F5
102
{ACAD_REACTORS
330
F3
102
}
330
F3
100
AcDbXrecord
 90
       70
  0
XRECORD
  5
10B
102
{ACAD_REACTORS
330
F3
102
}
330
F3
100
AcDbXrecord
340
0
  0
XRECORD
  5
111
102
{ACAD_REACTORS
330
F3
102
}
330
F3
100
AcDbXrecord
 10
0.0
 20
0.0
 30
0.0
  0
XRECORD
  5
10D
102
{ACAD_REACTORS
330
F3
102
}
330
F3
100
AcDbXrecord
 10
0.0
 20
0.0
 30
0.0
  0
XRECORD
  5
110
102
{ACAD_REACTORS
330
F3
102
}
330
F3
100
AcDbXrecord
 10
0.0
 20
0.0
 30
0.0
  0
XRECORD
  5
10E
102
{ACAD_REACTORS
330
F3
102
}
330
F3
100
AcDbXrecord
 10
0.0
 20
0.0
 30
0.0
  0
XRECORD
  5
10F
102
{ACAD_REACTORS
330
F3
102
}
330
F3
100
AcDbXrecord
 10
0.0
 20
0.0
 30
0.0
  0
XRECORD
  5
10C
102
{ACAD_REACTORS
330
F3
102
}
330
F3
100
AcDbXrecord
 10
0.0
 20
0.0
 30
0.0
  0
XRECORD
  5
109
102
{ACAD_REACTORS
330
F3
102
}
330
F3
100
AcDbXrecord
340
0
  0
XRECORD
  5
10A
102
{ACAD_REACTORS
330
F3
102
}
330
F3
100
AcDbXrecord
 70
     0
  0
XRECORD
  5
FE
102
{ACAD_REACTORS
330
F3
102
}
330
F3
100
AcDbXrecord
  1
{FAEB1C32-E019-11D5-929B-00C0DF256EC4}
  0
DICTIONARYVAR
  5
118
102
{ACAD_REACTORS
330
113
102
}
330
113
100
DictionaryVariables
280
     0
  1
2
  0
DICTIONARYVAR
  5
119
102
{ACAD_REACTORS
330
113
102
}
330
113
100
DictionaryVariables
280
     0
  1
1
  0
DICTIONARYVAR
  5
117
102
{ACAD_REACTORS
330
113
102
}
330
113
100
DictionaryVariables
280
     0
  1
80.000000
  0
DICTIONARYVAR
  5
116
102
{ACAD_REACTORS
330
113
102
}
330
113
100
DictionaryVariables
280
     0
  1
5.000000
  0
DICTIONARY
  5
11C
330
3D
100
AcDbDictionary
280
     1
  3
ACAD_XREC_ROUNDTRIP
360
11D
  0
DICTIONARY
  5
11A
330
3C
100
AcDbDictionary
280
     1
  3
ACAD_XREC_ROUNDTRIP
360
11B
  0
DICTIONARY
  5
11E
330
3E
100
AcDbDictionary
280
     1
  3
ACAD_XREC_ROUNDTRIP
360
11F
  0
XRECORD
  5
11D
102
{ACAD_REACTORS
330
11C
102
}
330
11C
100
AcDbXrecord
102
MATERIAL
148
0.0
149
0.0
149
0.0
 93
        0
 94
      127
282
     0
 72
     1
 77
     1
171
     1
175
     1
179
     1
273
     0
  0
XRECORD
  5
11B
102
{ACAD_REACTORS
330
11A
102
}
330
11A
100
AcDbXrecord
102
MATERIAL
148
0.0
149
0.0
149
0.0
 93
        0
 94
      127
282
     0
 72
     1
 77
     1
171
     1
175
     1
179
     1
273
     0
  0
XRECORD
  5
11F
102
{ACAD_REACTORS
330
11E
102
}
330
11E
100
AcDbXrecord
102
MATERIAL
148
0.0
149
0.0
149
0.0
 93
        0
 94
      127
282
     0
 72
     1
 77
     1
171
     1
175
     1
179
     1
273
     0
  0
ENDSEC
  0
EOF
