  0
SECTION
  2
BLOCKS
  0
ENDSEC
  0
SECTION
  2
ENTITIES
  0
LINE
  8
0
 10
-197.884
 11
-197.884
 20
85.043
 21
86.957
  0
LINE
  8
0
 10
-197.884
 11
-196.994
 20
86.957
 21
88.652
  0
LINE
  8
0
 10
-196.994
 11
-195.418
 20
88.652
 21
89.74
  0
LINE
  8
0
 10
-195.418
 11
-193.518
 20
89.74
 21
89.971
  0
LINE
  8
0
 10
-193.518
 11
-191.728
 20
89.971
 21
89.292
  0
LINE
  8
0
 10
-191.728
 11
-190.458
 20
89.292
 21
87.859
  0
LINE
  8
0
 10
-190.458
 11
-190
 20
87.859
 21
86
  0
LINE
  8
0
 10
-190
 11
-190.458
 20
86
 21
84.141
  0
LINE
  8
0
 10
-190.458
 11
-191.728
 20
84.141
 21
82.708
  0
LINE
  8
0
 10
-191.728
 11
-193.518
 20
82.708
 21
82.029
  0
LINE
  8
0
 10
-193.518
 11
-195.418
 20
82.029
 21
82.26
  0
LINE
  8
0
 10
-195.418
 11
-196.994
 20
82.26
 21
83.348
  0
LINE
  8
0
 10
-196.994
 11
-197.884
 20
83.348
 21
85.043
  0
LINE
  8
0
 10
-195.7
 11
-194.85
 20
74
 21
75.472
  0
LINE
  8
0
 10
-194.85
 11
-193.15
 20
75.472
 21
75.472
  0
LINE
  8
0
 10
-193.15
 11
-192.3
 20
75.472
 21
74
  0
LINE
  8
0
 10
-192.3
 11
-193.15
 20
74
 21
72.528
  0
LINE
  8
0
 10
-193.15
 11
-194.85
 20
72.528
 21
72.528
  0
LINE
  8
0
 10
-194.85
 11
-195.7
 20
72.528
 21
74
  0
LINE
  8
0
 10
-195.7
 11
-194.85
 20
98
 21
99.472
  0
LINE
  8
0
 10
-194.85
 11
-193.15
 20
99.472
 21
99.472
  0
LINE
  8
0
 10
-193.15
 11
-192.3
 20
99.472
 21
98
  0
LINE
  8
0
 10
-192.3
 11
-193.15
 20
98
 21
96.528
  0
LINE
  8
0
 10
-193.15
 11
-194.85
 20
96.528
 21
96.528
  0
LINE
  8
0
 10
-194.85
 11
-195.7
 20
96.528
 21
98
  0
LINE
  8
0
 10
-181.2
 11
-180.35
 20
70.5
 21
71.972
  0
LINE
  8
0
 10
-180.35
 11
-178.65
 20
71.972
 21
71.972
  0
LINE
  8
0
 10
-178.65
 11
-177.8
 20
71.972
 21
70.5
  0
LINE
  8
0
 10
-177.8
 11
-178.65
 20
70.5
 21
69.028
  0
LINE
  8
0
 10
-178.65
 11
-180.35
 20
69.028
 21
69.028
  0
LINE
  8
0
 10
-180.35
 11
-181.2
 20
69.028
 21
70.5
  0
LINE
  8
0
 10
-181.2
 11
-180.35
 20
101.5
 21
102.972
  0
LINE
  8
0
 10
-180.35
 11
-178.65
 20
102.972
 21
102.972
  0
LINE
  8
0
 10
-178.65
 11
-177.8
 20
102.972
 21
101.5
  0
LINE
  8
0
 10
-177.8
 11
-178.65
 20
101.5
 21
100.028
  0
LINE
  8
0
 10
-178.65
 11
-180.35
 20
100.028
 21
100.028
  0
LINE
  8
0
 10
-180.35
 11
-181.2
 20
100.028
 21
101.5
  0
LINE
  8
0
 10
-177
 11
-176.716
 20
86
 21
88.703
  0
LINE
  8
0
 10
-176.716
 11
-175.876
 20
88.703
 21
91.288
  0
LINE
  8
0
 10
-175.876
 11
-174.517
 20
91.288
 21
93.641
  0
LINE
  8
0
 10
-174.517
 11
-172.699
 20
93.641
 21
95.661
  0
LINE
  8
0
 10
-172.699
 11
-170.5
 20
95.661
 21
97.258
  0
LINE
  8
0
 10
-170.5
 11
-168.017
 20
97.258
 21
98.364
  0
LINE
  8
0
 10
-168.017
 11
-165.359
 20
98.364
 21
98.929
  0
LINE
  8
0
 10
-165.359
 11
-162.641
 20
98.929
 21
98.929
  0
LINE
  8
0
 10
-162.641
 11
-159.983
 20
98.929
 21
98.364
  0
LINE
  8
0
 10
-159.983
 11
-157.5
 20
98.364
 21
97.258
  0
LINE
  8
0
 10
-157.5
 11
-155.301
 20
97.258
 21
95.661
  0
LINE
  8
0
 10
-155.301
 11
-153.483
 20
95.661
 21
93.641
  0
LINE
  8
0
 10
-153.483
 11
-152.124
 20
93.641
 21
91.288
  0
LINE
  8
0
 10
-152.124
 11
-151.284
 20
91.288
 21
88.703
  0
LINE
  8
0
 10
-151.284
 11
-151
 20
88.703
 21
86
  0
LINE
  8
0
 10
-151
 11
-151.284
 20
86
 21
83.297
  0
LINE
  8
0
 10
-151.284
 11
-152.124
 20
83.297
 21
80.712
  0
LINE
  8
0
 10
-152.124
 11
-153.483
 20
80.712
 21
78.359
  0
LINE
  8
0
 10
-153.483
 11
-155.301
 20
78.359
 21
76.339
  0
LINE
  8
0
 10
-155.301
 11
-157.5
 20
76.339
 21
74.742
  0
LINE
  8
0
 10
-157.5
 11
-159.983
 20
74.742
 21
73.636
  0
LINE
  8
0
 10
-159.983
 11
-162.641
 20
73.636
 21
73.071
  0
LINE
  8
0
 10
-162.641
 11
-165.359
 20
73.071
 21
73.071
  0
LINE
  8
0
 10
-165.359
 11
-168.017
 20
73.071
 21
73.636
  0
LINE
  8
0
 10
-168.017
 11
-170.5
 20
73.636
 21
74.742
  0
LINE
  8
0
 10
-170.5
 11
-172.699
 20
74.742
 21
76.339
  0
LINE
  8
0
 10
-172.699
 11
-174.517
 20
76.339
 21
78.359
  0
LINE
  8
0
 10
-174.517
 11
-175.876
 20
78.359
 21
80.712
  0
LINE
  8
0
 10
-175.876
 11
-176.716
 20
80.712
 21
83.297
  0
LINE
  8
0
 10
-176.716
 11
-177
 20
83.297
 21
86
  0
LINE
  8
0
 10
-206
 11
-206
 20
56
 21
106
  0
LINE
  8
0
 10
-206
 11
-205.808
 20
106
 21
107.951
  0
LINE
  8
0
 10
-205.808
 11
-205.239
 20
107.951
 21
109.827
  0
LINE
  8
0
 10
-205.239
 11
-204.315
 20
109.827
 21
111.556
  0
LINE
  8
0
 10
-204.315
 11
-203.071
 20
111.556
 21
113.071
  0
LINE
  8
0
 10
-203.071
 11
-201.556
 20
113.071
 21
114.315
  0
LINE
  8
0
 10
-201.556
 11
-199.827
 20
114.315
 21
115.239
  0
LINE
  8
0
 10
-199.827
 11
-197.951
 20
115.239
 21
115.808
  0
LINE
  8
0
 10
-197.951
 11
-196
 20
115.808
 21
116
  0
LINE
  8
0
 10
-196
 11
196
 20
116
 21
116
  0
LINE
  8
0
 10
196
 11
197.951
 20
116
 21
115.808
  0
LINE
  8
0
 10
197.951
 11
199.827
 20
115.808
 21
115.239
  0
LINE
  8
0
 10
199.827
 11
201.556
 20
115.239
 21
114.315
  0
LINE
  8
0
 10
201.556
 11
203.071
 20
114.315
 21
113.071
  0
LINE
  8
0
 10
203.071
 11
204.315
 20
113.071
 21
111.556
  0
LINE
  8
0
 10
204.315
 11
205.239
 20
111.556
 21
109.827
  0
LINE
  8
0
 10
205.239
 11
205.808
 20
109.827
 21
107.951
  0
LINE
  8
0
 10
205.808
 11
206
 20
107.951
 21
106
  0
LINE
  8
0
 10
206
 11
206
 20
106
 21
56
  0
LINE
  8
0
 10
206
 11
176
 20
56
 21
26
  0
LINE
  8
0
 10
176
 11
125
 20
26
 21
26
  0
LINE
  8
0
 10
125
 11
121
 20
26
 21
22
  0
LINE
  8
0
 10
121
 11
121
 20
22
 21
6
  0
LINE
  8
0
 10
121
 11
115
 20
6
 21
0
  0
LINE
  8
0
 10
115
 11
10
 20
0
 21
0
  0
LINE
  8
0
 10
10
 11
9.427
 20
0
 21
1.763
  0
LINE
  8
0
 10
9.427
 11
7.927
 20
1.763
 21
2.853
  0
LINE
  8
0
 10
7.927
 11
7
 20
2.853
 21
2.853
  0
LINE
  8
0
 10
7
 11
7
 20
2.853
 21
3
  0
LINE
  8
0
 10
7
 11
-7
 20
3
 21
3
  0
LINE
  8
0
 10
-7
 11
-7
 20
3
 21
2.853
  0
LINE
  8
0
 10
-7
 11
-7.927
 20
2.853
 21
2.853
  0
LINE
  8
0
 10
-7.927
 11
-9.427
 20
2.853
 21
1.763
  0
LINE
  8
0
 10
-9.427
 11
-10
 20
1.763
 21
0
  0
LINE
  8
0
 10
-10
 11
-115
 20
0
 21
0
  0
LINE
  8
0
 10
-115
 11
-121
 20
0
 21
6
  0
LINE
  8
0
 10
-121
 11
-121
 20
6
 21
22
  0
LINE
  8
0
 10
-121
 11
-125
 20
22
 21
26
  0
LINE
  8
0
 10
-125
 11
-176
 20
26
 21
26
  0
LINE
  8
0
 10
-176
 11
-206
 20
26
 21
56
  0
LINE
  8
0
 10
-166.5
 11
-166.5
 20
42
 21
51
  0
LINE
  8
0
 10
-166.5
 11
-165.768
 20
51
 21
52.768
  0
LINE
  8
0
 10
-165.768
 11
-164
 20
52.768
 21
53.5
  0
LINE
  8
0
 10
-164
 11
-162.232
 20
53.5
 21
52.768
  0
LINE
  8
0
 10
-162.232
 11
-161.5
 20
52.768
 21
51
  0
LINE
  8
0
 10
-161.5
 11
-161.5
 20
51
 21
42
  0
LINE
  8
0
 10
-161.5
 11
-162.232
 20
42
 21
40.232
  0
LINE
  8
0
 10
-162.232
 11
-164
 20
40.232
 21
39.5
  0
LINE
  8
0
 10
-164
 11
-165.768
 20
39.5
 21
40.232
  0
LINE
  8
0
 10
-165.768
 11
-166.5
 20
40.232
 21
42
  0
LINE
  8
0
 10
-150.2
 11
-149.35
 20
70.5
 21
71.972
  0
LINE
  8
0
 10
-149.35
 11
-147.65
 20
71.972
 21
71.972
  0
LINE
  8
0
 10
-147.65
 11
-146.8
 20
71.972
 21
70.5
  0
LINE
  8
0
 10
-146.8
 11
-147.65
 20
70.5
 21
69.028
  0
LINE
  8
0
 10
-147.65
 11
-149.35
 20
69.028
 21
69.028
  0
LINE
  8
0
 10
-149.35
 11
-150.2
 20
69.028
 21
70.5
  0
LINE
  8
0
 10
-150.2
 11
-149.35
 20
101.5
 21
102.972
  0
LINE
  8
0
 10
-149.35
 11
-147.65
 20
102.972
 21
102.972
  0
LINE
  8
0
 10
-147.65
 11
-146.8
 20
102.972
 21
101.5
  0
LINE
  8
0
 10
-146.8
 11
-147.65
 20
101.5
 21
100.028
  0
LINE
  8
0
 10
-147.65
 11
-149.35
 20
100.028
 21
100.028
  0
LINE
  8
0
 10
-149.35
 11
-150.2
 20
100.028
 21
101.5
  0
LINE
  8
0
 10
-106.892
 11
-106.892
 20
28.089
 21
29.911
  0
LINE
  8
0
 10
-106.892
 11
-105.467
 20
29.911
 21
31.047
  0
LINE
  8
0
 10
-105.467
 11
-103.691
 20
31.047
 21
30.642
  0
LINE
  8
0
 10
-103.691
 11
-102.9
 20
30.642
 21
29
  0
LINE
  8
0
 10
-102.9
 11
-103.691
 20
29
 21
27.358
  0
LINE
  8
0
 10
-103.691
 11
-105.467
 20
27.358
 21
26.953
  0
LINE
  8
0
 10
-105.467
 11
-106.892
 20
26.953
 21
28.089
  0
LINE
  8
0
 10
-106.892
 11
-106.892
 20
46.089
 21
47.911
  0
LINE
  8
0
 10
-106.892
 11
-105.467
 20
47.911
 21
49.047
  0
LINE
  8
0
 10
-105.467
 11
-103.691
 20
49.047
 21
48.642
  0
LINE
  8
0
 10
-103.691
 11
-102.9
 20
48.642
 21
47
  0
LINE
  8
0
 10
-102.9
 11
-103.691
 20
47
 21
45.358
  0
LINE
  8
0
 10
-103.691
 11
-105.467
 20
45.358
 21
44.953
  0
LINE
  8
0
 10
-105.467
 11
-106.892
 20
44.953
 21
46.089
  0
LINE
  8
0
 10
-97.942
 11
-97.942
 20
85.036
 21
86.964
  0
LINE
  8
0
 10
-97.942
 11
-97.48
 20
86.964
 21
88.837
  0
LINE
  8
0
 10
-97.48
 11
-96.584
 20
88.837
 21
90.545
  0
LINE
  8
0
 10
-96.584
 11
-95.305
 20
90.545
 21
91.988
  0
LINE
  8
0
 10
-95.305
 11
-93.718
 20
91.988
 21
93.084
  0
LINE
  8
0
 10
-93.718
 11
-91.915
 20
93.084
 21
93.768
  0
LINE
  8
0
 10
-91.915
 11
-90
 20
93.768
 21
94
  0
LINE
  8
0
 10
-90
 11
90
 20
94
 21
94
  0
LINE
  8
0
 10
90
 11
91.915
 20
94
 21
93.768
  0
LINE
  8
0
 10
91.915
 11
93.718
 20
93.768
 21
93.084
  0
LINE
  8
0
 10
93.718
 11
95.305
 20
93.084
 21
91.988
  0
LINE
  8
0
 10
95.305
 11
96.584
 20
91.988
 21
90.545
  0
LINE
  8
0
 10
96.584
 11
97.48
 20
90.545
 21
88.837
  0
LINE
  8
0
 10
97.48
 11
97.942
 20
88.837
 21
86.964
  0
LINE
  8
0
 10
97.942
 11
97.942
 20
86.964
 21
85.036
  0
LINE
  8
0
 10
97.942
 11
97.48
 20
85.036
 21
83.163
  0
LINE
  8
0
 10
97.48
 11
96.584
 20
83.163
 21
81.455
  0
LINE
  8
0
 10
96.584
 11
95.305
 20
81.455
 21
80.012
  0
LINE
  8
0
 10
95.305
 11
93.718
 20
80.012
 21
78.916
  0
LINE
  8
0
 10
93.718
 11
91.915
 20
78.916
 21
78.232
  0
LINE
  8
0
 10
91.915
 11
90
 20
78.232
 21
78
  0
LINE
  8
0
 10
90
 11
-90
 20
78
 21
78
  0
LINE
  8
0
 10
-90
 11
-91.915
 20
78
 21
78.232
  0
LINE
  8
0
 10
-91.915
 11
-93.718
 20
78.232
 21
78.916
  0
LINE
  8
0
 10
-93.718
 11
-95.305
 20
78.916
 21
80.012
  0
LINE
  8
0
 10
-95.305
 11
-96.584
 20
80.012
 21
81.455
  0
LINE
  8
0
 10
-96.584
 11
-97.48
 20
81.455
 21
83.163
  0
LINE
  8
0
 10
-97.48
 11
-97.942
 20
83.163
 21
85.036
  0
LINE
  8
0
 10
-1.892
 11
-1.892
 20
28.089
 21
29.911
  0
LINE
  8
0
 10
-1.892
 11
-0.467
 20
29.911
 21
31.047
  0
LINE
  8
0
 10
-0.467
 11
1.309
 20
31.047
 21
30.642
  0
LINE
  8
0
 10
1.309
 11
2.1
 20
30.642
 21
29
  0
LINE
  8
0
 10
2.1
 11
1.309
 20
29
 21
27.358
  0
LINE
  8
0
 10
1.309
 11
-0.467
 20
27.358
 21
26.953
  0
LINE
  8
0
 10
-0.467
 11
-1.892
 20
26.953
 21
28.089
  0
LINE
  8
0
 10
-1.892
 11
-1.892
 20
46.089
 21
47.911
  0
LINE
  8
0
 10
-1.892
 11
-0.467
 20
47.911
 21
49.047
  0
LINE
  8
0
 10
-0.467
 11
1.309
 20
49.047
 21
48.642
  0
LINE
  8
0
 10
1.309
 11
2.1
 20
48.642
 21
47
  0
LINE
  8
0
 10
2.1
 11
1.309
 20
47
 21
45.358
  0
LINE
  8
0
 10
1.309
 11
-0.467
 20
45.358
 21
44.953
  0
LINE
  8
0
 10
-0.467
 11
-1.892
 20
44.953
 21
46.089
  0
LINE
  8
0
 10
103.108
 11
103.108
 20
28.089
 21
29.911
  0
LINE
  8
0
 10
103.108
 11
104.533
 20
29.911
 21
31.047
  0
LINE
  8
0
 10
104.533
 11
106.309
 20
31.047
 21
30.642
  0
LINE
  8
0
 10
106.309
 11
107.1
 20
30.642
 21
29
  0
LINE
  8
0
 10
107.1
 11
106.309
 20
29
 21
27.358
  0
LINE
  8
0
 10
106.309
 11
104.533
 20
27.358
 21
26.953
  0
LINE
  8
0
 10
104.533
 11
103.108
 20
26.953
 21
28.089
  0
LINE
  8
0
 10
103.108
 11
103.108
 20
46.089
 21
47.911
  0
LINE
  8
0
 10
103.108
 11
104.533
 20
47.911
 21
49.047
  0
LINE
  8
0
 10
104.533
 11
106.309
 20
49.047
 21
48.642
  0
LINE
  8
0
 10
106.309
 11
107.1
 20
48.642
 21
47
  0
LINE
  8
0
 10
107.1
 11
106.309
 20
47
 21
45.358
  0
LINE
  8
0
 10
106.309
 11
104.533
 20
45.358
 21
44.953
  0
LINE
  8
0
 10
104.533
 11
103.108
 20
44.953
 21
46.089
  0
LINE
  8
0
 10
146.8
 11
147.65
 20
70.5
 21
71.972
  0
LINE
  8
0
 10
147.65
 11
149.35
 20
71.972
 21
71.972
  0
LINE
  8
0
 10
149.35
 11
150.2
 20
71.972
 21
70.5
  0
LINE
  8
0
 10
150.2
 11
149.35
 20
70.5
 21
69.028
  0
LINE
  8
0
 10
149.35
 11
147.65
 20
69.028
 21
69.028
  0
LINE
  8
0
 10
147.65
 11
146.8
 20
69.028
 21
70.5
  0
LINE
  8
0
 10
146.8
 11
147.65
 20
101.5
 21
102.972
  0
LINE
  8
0
 10
147.65
 11
149.35
 20
102.972
 21
102.972
  0
LINE
  8
0
 10
149.35
 11
150.2
 20
102.972
 21
101.5
  0
LINE
  8
0
 10
150.2
 11
149.35
 20
101.5
 21
100.028
  0
LINE
  8
0
 10
149.35
 11
147.65
 20
100.028
 21
100.028
  0
LINE
  8
0
 10
147.65
 11
146.8
 20
100.028
 21
101.5
  0
LINE
  8
0
 10
151
 11
151.284
 20
86
 21
88.703
  0
LINE
  8
0
 10
151.284
 11
152.124
 20
88.703
 21
91.288
  0
LINE
  8
0
 10
152.124
 11
153.483
 20
91.288
 21
93.641
  0
LINE
  8
0
 10
153.483
 11
155.301
 20
93.641
 21
95.661
  0
LINE
  8
0
 10
155.301
 11
157.5
 20
95.661
 21
97.258
  0
LINE
  8
0
 10
157.5
 11
159.983
 20
97.258
 21
98.364
  0
LINE
  8
0
 10
159.983
 11
162.641
 20
98.364
 21
98.929
  0
LINE
  8
0
 10
162.641
 11
165.359
 20
98.929
 21
98.929
  0
LINE
  8
0
 10
165.359
 11
168.017
 20
98.929
 21
98.364
  0
LINE
  8
0
 10
168.017
 11
170.5
 20
98.364
 21
97.258
  0
LINE
  8
0
 10
170.5
 11
172.699
 20
97.258
 21
95.661
  0
LINE
  8
0
 10
172.699
 11
174.517
 20
95.661
 21
93.641
  0
LINE
  8
0
 10
174.517
 11
175.876
 20
93.641
 21
91.288
  0
LINE
  8
0
 10
175.876
 11
176.716
 20
91.288
 21
88.703
  0
LINE
  8
0
 10
176.716
 11
177
 20
88.703
 21
86
  0
LINE
  8
0
 10
177
 11
176.716
 20
86
 21
83.297
  0
LINE
  8
0
 10
176.716
 11
175.876
 20
83.297
 21
80.712
  0
LINE
  8
0
 10
175.876
 11
174.517
 20
80.712
 21
78.359
  0
LINE
  8
0
 10
174.517
 11
172.699
 20
78.359
 21
76.339
  0
LINE
  8
0
 10
172.699
 11
170.5
 20
76.339
 21
74.742
  0
LINE
  8
0
 10
170.5
 11
168.017
 20
74.742
 21
73.636
  0
LINE
  8
0
 10
168.017
 11
165.359
 20
73.636
 21
73.071
  0
LINE
  8
0
 10
165.359
 11
162.641
 20
73.071
 21
73.071
  0
LINE
  8
0
 10
162.641
 11
159.983
 20
73.071
 21
73.636
  0
LINE
  8
0
 10
159.983
 11
157.5
 20
73.636
 21
74.742
  0
LINE
  8
0
 10
157.5
 11
155.301
 20
74.742
 21
76.339
  0
LINE
  8
0
 10
155.301
 11
153.483
 20
76.339
 21
78.359
  0
LINE
  8
0
 10
153.483
 11
152.124
 20
78.359
 21
80.712
  0
LINE
  8
0
 10
152.124
 11
151.284
 20
80.712
 21
83.297
  0
LINE
  8
0
 10
151.284
 11
151
 20
83.297
 21
86
  0
LINE
  8
0
 10
161.5
 11
161.5
 20
42
 21
51
  0
LINE
  8
0
 10
161.5
 11
162.232
 20
51
 21
52.768
  0
LINE
  8
0
 10
162.232
 11
164
 20
52.768
 21
53.5
  0
LINE
  8
0
 10
164
 11
165.768
 20
53.5
 21
52.768
  0
LINE
  8
0
 10
165.768
 11
166.5
 20
52.768
 21
51
  0
LINE
  8
0
 10
166.5
 11
166.5
 20
51
 21
42
  0
LINE
  8
0
 10
166.5
 11
165.768
 20
42
 21
40.232
  0
LINE
  8
0
 10
165.768
 11
164
 20
40.232
 21
39.5
  0
LINE
  8
0
 10
164
 11
162.232
 20
39.5
 21
40.232
  0
LINE
  8
0
 10
162.232
 11
161.5
 20
40.232
 21
42
  0
LINE
  8
0
 10
177.8
 11
178.65
 20
70.5
 21
71.972
  0
LINE
  8
0
 10
178.65
 11
180.35
 20
71.972
 21
71.972
  0
LINE
  8
0
 10
180.35
 11
181.2
 20
71.972
 21
70.5
  0
LINE
  8
0
 10
181.2
 11
180.35
 20
70.5
 21
69.028
  0
LINE
  8
0
 10
180.35
 11
178.65
 20
69.028
 21
69.028
  0
LINE
  8
0
 10
178.65
 11
177.8
 20
69.028
 21
70.5
  0
LINE
  8
0
 10
177.8
 11
178.65
 20
101.5
 21
102.972
  0
LINE
  8
0
 10
178.65
 11
180.35
 20
102.972
 21
102.972
  0
LINE
  8
0
 10
180.35
 11
181.2
 20
102.972
 21
101.5
  0
LINE
  8
0
 10
181.2
 11
180.35
 20
101.5
 21
100.028
  0
LINE
  8
0
 10
180.35
 11
178.65
 20
100.028
 21
100.028
  0
LINE
  8
0
 10
178.65
 11
177.8
 20
100.028
 21
101.5
  0
LINE
  8
0
 10
190.116
 11
190.116
 20
85.043
 21
86.957
  0
LINE
  8
0
 10
190.116
 11
191.006
 20
86.957
 21
88.652
  0
LINE
  8
0
 10
191.006
 11
192.582
 20
88.652
 21
89.74
  0
LINE
  8
0
 10
192.582
 11
194.482
 20
89.74
 21
89.971
  0
LINE
  8
0
 10
194.482
 11
196.272
 20
89.971
 21
89.292
  0
LINE
  8
0
 10
196.272
 11
197.542
 20
89.292
 21
87.859
  0
LINE
  8
0
 10
197.542
 11
198
 20
87.859
 21
86
  0
LINE
  8
0
 10
198
 11
197.542
 20
86
 21
84.141
  0
LINE
  8
0
 10
197.542
 11
196.272
 20
84.141
 21
82.708
  0
LINE
  8
0
 10
196.272
 11
194.482
 20
82.708
 21
82.029
  0
LINE
  8
0
 10
194.482
 11
192.582
 20
82.029
 21
82.26
  0
LINE
  8
0
 10
192.582
 11
191.006
 20
82.26
 21
83.348
  0
LINE
  8
0
 10
191.006
 11
190.116
 20
83.348
 21
85.043
  0
LINE
  8
0
 10
192.3
 11
193.15
 20
74
 21
75.472
  0
LINE
  8
0
 10
193.15
 11
194.85
 20
75.472
 21
75.472
  0
LINE
  8
0
 10
194.85
 11
195.7
 20
75.472
 21
74
  0
LINE
  8
0
 10
195.7
 11
194.85
 20
74
 21
72.528
  0
LINE
  8
0
 10
194.85
 11
193.15
 20
72.528
 21
72.528
  0
LINE
  8
0
 10
193.15
 11
192.3
 20
72.528
 21
74
  0
LINE
  8
0
 10
192.3
 11
193.15
 20
98
 21
99.472
  0
LINE
  8
0
 10
193.15
 11
194.85
 20
99.472
 21
99.472
  0
LINE
  8
0
 10
194.85
 11
195.7
 20
99.472
 21
98
  0
LINE
  8
0
 10
195.7
 11
194.85
 20
98
 21
96.528
  0
LINE
  8
0
 10
194.85
 11
193.15
 20
96.528
 21
96.528
  0
LINE
  8
0
 10
193.15
 11
192.3
 20
96.528
 21
98
  0
ENDSEC
  0
SECTION
  2
OBJECTS
  0
DICTIONARY
  0
ENDSEC
  0
EOF
